<svg width="101" height="101" viewBox="0 0 101 101" fill="none" xmlns="http://www.w3.org/2000/svg">
<path d="M0.719971 68.11V100.07H20.96V68.11H0.719971Z" fill="white"/>
<path d="M27.5 59.73V100.07H47.7V59.73H27.5ZM32.22 64.49H42.96V95.36H32.22V64.49Z" fill="white"/>
<path d="M53.7999 49.24V100.07H74.0399V49.24H53.7999Z" fill="white"/>
<path d="M80.34 40.87V100.08H100.58V40.87H80.34ZM85.09 45.62H95.83V95.36H85.09V45.62Z" fill="white"/>
<path d="M91.43 0.279987C86.33 0.279987 82.14 4.46999 82.14 9.56999C82.14 10.48 82.31 11.34 82.56 12.17L81.79 12.63L69.85 19.77L69.28 20.11C67.58 18.33 65.2 17.2 62.57 17.2C58.74 17.2 55.44 19.56 54.04 22.9L40.82 20.6L40 20.45C39.26 16.08 35.44 12.71 30.87 12.71C25.77 12.71 21.58 16.88 21.58 21.97C21.58 24.2 22.41 26.24 23.75 27.85L13.37 41.09C12.43 40.77 11.43 40.55 10.39 40.55C5.28997 40.55 1.09998 44.74 1.09998 49.84C1.09998 54.94 5.28997 59.1 10.39 59.1C15.49 59.1 19.68 54.94 19.68 49.84C19.68 47.5 18.77 45.36 17.32 43.72L27.6 30.61C28.62 31 29.72 31.25 30.88 31.25C34.85 31.25 38.24 28.69 39.56 25.15L39.99 25.22L53.25 27.55L53.44 27.58C54 32.15 57.87 35.75 62.58 35.75C67.68 35.75 71.87 31.56 71.87 26.46C71.87 25.69 71.75 24.95 71.57 24.24L72.29 23.81L84.22 16.67L85.01 16.2C86.68 17.82 88.95 18.82 91.44 18.82C96.54 18.82 100.73 14.63 100.73 9.52999C100.73 4.42999 96.54 0.23999 91.44 0.23999L91.43 0.279987ZM62.56 21.96C65.1 21.96 67.1 23.97 67.1 26.5C67.1 29.03 65.09 31.04 62.56 31.04C60.03 31.04 58.02 29.04 58.02 26.5C58.02 23.96 60.02 21.96 62.56 21.96ZM10.36 45.33C12.9 45.33 14.9 47.34 14.9 49.87C14.9 52.4 12.89 54.41 10.36 54.41C7.82998 54.41 5.81997 52.4 5.81997 49.87C5.81997 47.34 7.81998 45.33 10.36 45.33Z" fill="white"/>
</svg>
