<svg width="126" height="114" viewBox="0 0 126 114" fill="none" xmlns="http://www.w3.org/2000/svg">
<path d="M60.17 26.13C60.33 25.96 60.41 25.75 60.42 25.53C60.42 25.29 60.35 25.02 60.17 24.84L54.78 19.41L43.16 7.83001C33.29 -2.03999 17.24 -2.01999 7.36998 7.85001C7.27998 7.94001 7.18998 8.05001 7.09998 8.14001C-2.57002 18.11 -2.17002 34.1 7.64998 43.92L24.39 60.66C24.55 60.82 24.75 60.89 24.96 60.91C25.02 60.91 25.08 60.91 25.14 60.9C25.32 60.87 25.51 60.81 25.65 60.67L32.8 53.52C33 53.32 33.07 53.04 33.04 52.78C33.04 52.71 33.03 52.63 33 52.56C32.96 52.45 32.89 52.35 32.81 52.27L27.42 46.88L15.8 35.26C10.62 30.08 10.57 21.69 15.64 16.44L15.8 16.28C21.04 11.05 29.71 11.21 34.97 16.47L46.4 27.9L51.79 33.29C52.02 33.52 52.35 33.58 52.64 33.51C52.79 33.47 52.93 33.41 53.04 33.3L60.19 26.15L60.17 26.13Z" fill="black"/>
<path d="M69.17 43.95C69.48 44.26 69.89 44.42 70.3 44.42C70.71 44.42 71.12 44.26 71.43 43.95C72.05 43.33 72.06 42.32 71.43 41.69L69.38 39.64C68.76 39.02 67.75 39.01 67.12 39.64C66.5 40.26 66.49 41.27 67.12 41.9L69.17 43.95Z" fill="black"/>
<path d="M63.43 38.2001C63.74 38.5101 64.15 38.67 64.56 38.67C64.97 38.67 65.38 38.5101 65.69 38.2001C66.31 37.5801 66.31 36.57 65.69 35.94L63.64 33.89C63.02 33.27 62.01 33.27 61.38 33.89C60.76 34.51 60.75 35.5201 61.38 36.1501L63.43 38.2001Z" fill="black"/>
<path d="M74.91 49.7C75.22 50.01 75.63 50.17 76.04 50.17C76.45 50.17 76.86 50.01 77.17 49.7C77.79 49.08 77.8 48.07 77.17 47.44L75.12 45.39C74.5 44.77 73.49 44.76 72.86 45.39C72.24 46.01 72.23 47.02 72.86 47.65L74.91 49.7Z" fill="black"/>
<path d="M35.66 61.27C35.04 60.65 34.03 60.64 33.4 61.27C32.78 61.89 32.77 62.9 33.4 63.53L35.45 65.58C35.76 65.89 36.17 66.05 36.58 66.05C36.99 66.05 37.4 65.89 37.71 65.58C38.33 64.96 38.34 63.95 37.71 63.32L35.66 61.27Z" fill="black"/>
<path d="M41.3999 67.0201C40.7799 66.4001 39.7699 66.4001 39.1399 67.0201C38.5199 67.6401 38.5199 68.6501 39.1399 69.2801L41.1899 71.3301C41.4999 71.6401 41.9099 71.8001 42.3199 71.8001C42.7299 71.8001 43.1399 71.6401 43.4499 71.3301C44.0699 70.7101 44.0799 69.7001 43.4499 69.0701L41.3999 67.0201Z" fill="black"/>
<path d="M47.14 72.78C46.52 72.16 45.51 72.15 44.88 72.78C44.26 73.4 44.25 74.41 44.88 75.04L46.93 77.09C47.24 77.4 47.65 77.56 48.06 77.56C48.47 77.56 48.88 77.4 49.19 77.09C49.81 76.47 49.82 75.46 49.19 74.83L47.14 72.78Z" fill="black"/>
<path d="M91.64 70.59C96.4 70.59 100.26 66.73 100.26 61.97C100.26 57.21 96.4 53.35 91.64 53.35C86.88 53.35 83.02 57.21 83.02 61.97C83.02 66.73 86.88 70.59 91.64 70.59ZM88.28 60.43H90.23V58.61C90.23 57.73 90.77 57.01 91.65 57.01C92.53 57.01 93.07 57.72 93.07 58.61V60.43H95C95.88 60.43 96.6 61.23 96.6 62.11C96.6 62.99 95.89 63.79 95 63.79H93.07V65.34C93.07 66.22 92.53 66.94 91.65 66.94C90.77 66.94 90.23 66.23 90.23 65.34V63.79H88.28C87.4 63.79 86.68 62.99 86.68 62.11C86.68 61.23 87.4 60.43 88.28 60.43Z" fill="black"/>
<path d="M65.39 79.83C65.39 83.94 68.72 87.27 72.83 87.27C76.94 87.27 80.27 83.94 80.27 79.83C80.27 75.72 76.94 72.39 72.83 72.39C68.72 72.39 65.39 75.72 65.39 79.83Z" fill="black"/>
<path d="M82.75 94.1399C80.16 91.6399 76.58 90.1699 72.71 90.1699C64.75 90.1699 58.25 96.6799 58.25 104.63V107.58C58.25 108.16 58.83 108.41 59.4 108.41H74.07C74.34 102.73 77.76 97.0699 82.75 94.1399Z" fill="black"/>
<path d="M110.65 87.27C114.759 87.27 118.09 83.939 118.09 79.83C118.09 75.721 114.759 72.39 110.65 72.39C106.541 72.39 103.21 75.721 103.21 79.83C103.21 83.939 106.541 87.27 110.65 87.27Z" fill="black"/>
<path d="M106.02 108.41C105.74 103.25 102.71 98.98 98.4399 96.66C98.4399 96.66 98.4399 96.69 98.4399 96.7C96.4199 95.62 94.0999 95.01 91.6499 95.01C89.1999 95.01 86.9199 95.62 84.9099 96.69V96.63C80.6199 98.94 77.5599 103.25 77.2799 108.41C77.2599 108.93 77.3399 109.12 77.3399 109.42V112.38C77.3399 112.96 77.7099 113.05 78.2899 113.05H105.01C105.59 113.05 105.97 112.95 105.97 112.38V109.42C105.97 109.11 106.04 108.92 106.02 108.41Z" fill="black"/>
<path d="M120.81 94.44C118.2 91.83 114.58 90.22 110.6 90.22C106.62 90.22 103.18 91.65 100.58 94.16C105.55 97.1 108.95 102.73 109.21 108.41H123.93C124.51 108.41 125.05 108.17 125.05 107.58V104.63C125.05 100.65 123.41 97.05 120.8 94.44H120.81Z" fill="black"/>
<path d="M91.71 77.1901C87.6 77.1901 84.27 80.5601 84.27 84.6701C84.27 88.7801 87.6 92.1501 91.71 92.1501C95.82 92.1501 99.15 88.7801 99.15 84.6701C99.15 80.5601 95.82 77.1901 91.71 77.1901Z" fill="black"/>
</svg>
