<?xml version="1.0" encoding="UTF-8"?>
<svg id="Layer_2" data-name="Layer 2" xmlns="http://www.w3.org/2000/svg" viewBox="0 0 254.92 314.26">
  <defs>
    <style>
      .cls-1 {
        fill: #f1f0f0;
      }

      .cls-2 {
        opacity: .4;
      }

      .cls-2, .cls-3, .cls-4, .cls-5, .cls-6, .cls-7 {
        isolation: isolate;
      }

      .cls-2, .cls-5, .cls-8, .cls-6, .cls-7 {
        fill: #010101;
      }

      .cls-9 {
        fill: #5ac3b2;
      }

      .cls-10, .cls-3, .cls-4 {
        fill: #fff;
      }

      .cls-3, .cls-7 {
        opacity: .3;
      }

      .cls-4 {
        opacity: .75;
      }

      .cls-11 {
        fill: #5274b9;
      }

      .cls-12 {
        fill: #e0e1e0;
      }

      .cls-13 {
        fill: #e6e6e5;
      }

      .cls-14 {
        fill: #fafbfc;
      }

      .cls-15 {
        fill: #384850;
      }

      .cls-5 {
        opacity: .15;
      }

      .cls-16 {
        fill: #273339;
      }

      .cls-17 {
        fill: #465b65;
      }

      .cls-18, .cls-6 {
        opacity: .1;
      }

      .cls-19 {
        fill: teal;
      }
    </style>
  </defs>
  <g id="Layer_1-2" data-name="Layer 1">
    <g id="Mail">
      <g>
        <g>
          <g>
            <polygon class="cls-11" points="0 53.83 128.99 72.4 146.3 89.87 0 53.83"/>
            <polygon class="cls-17" points="0 53.83 128.99 72.4 146.3 89.87 0 53.83"/>
          </g>
          <g>
            <polygon class="cls-11" points="0 53.83 128.99 72.4 123 97.66 0 53.83"/>
            <polygon class="cls-2" points="0 53.83 128.99 72.4 123 97.66 0 53.83"/>
          </g>
          <g>
            <g>
              <path class="cls-11" d="M120.35,24.59l7.49,35.09c.41,1.9-.82,3.79-2.72,4.19l-66.81,14.26c-1.9.41-3.79-.82-4.19-2.72l-7.49-35.09c-.21-.99.02-1.99.56-2.76.5-.7,1.25-1.24,2.15-1.43l66.81-14.26c.91-.19,1.81-.02,2.55.42.81.49,1.43,1.3,1.64,2.29Z"/>
              <path class="cls-2" d="M120.35,24.59l7.49,35.09c.41,1.9-.82,3.79-2.72,4.19l-66.81,14.26c-1.9.41-3.79-.82-4.19-2.72l-7.49-35.09c-.21-.99.02-1.99.56-2.76.5-.7,1.25-1.24,2.15-1.43l66.81-14.26c.91-.19,1.81-.02,2.55.42.81.49,1.43,1.3,1.64,2.29Z"/>
            </g>
            <path class="cls-19" d="M118.71,22.29l-22.32,27.4c-4.26,5.23-11.6,6.8-17.62,3.76l-31.57-15.9c.5-.7,1.25-1.24,2.15-1.43l66.81-14.26c.91-.19,1.81-.02,2.55.43Z"/>
          </g>
          <g>
            <polygon class="cls-11" points="0 53.83 106.39 79.11 123 97.66 0 53.83"/>
            <polygon class="cls-17" points="0 53.83 106.39 79.11 123 97.66 0 53.83"/>
          </g>
          <rect class="cls-11" x="44.3" y="75.06" width=".57" height="13.72" transform="translate(-48.64 78.98) rotate(-59.63)"/>
          <rect class="cls-11" x="57.58" y="87.23" width=".57" height="4.94" transform="translate(-48.78 94.28) rotate(-59.63)"/>
          <polygon class="cls-19" points="0 53.83 106.39 79.11 85.71 104.04 0 53.83"/>
        </g>
        <g>
          <g>
            <path class="cls-11" d="M142.3,113.07c-.14,0-.28-.03-.42-.08l-17.33-6.86c-.58-.23-.87-.89-.64-1.47.23-.58.88-.87,1.47-.64l17.33,6.86c.58.23.87.89.64,1.47-.18.44-.6.72-1.05.72Z"/>
            <path class="cls-7" d="M124.55,106.13c-.58-.23-.87-.89-.64-1.47.23-.58.88-.87,1.47-.64l17.33,6.86c.58.23.87.89.64,1.47-.18.44-.6.72-1.05.72-.14,0-.28-.03-.42-.08"/>
          </g>
          <g>
            <path class="cls-11" d="M141.28,103.13c-.14,0-.28-.03-.42-.08l-9.31-3.69c-.58-.23-.87-.89-.64-1.47.23-.58.88-.87,1.47-.64l9.31,3.69c.58.23.87.89.64,1.47-.18.44-.6.72-1.05.72Z"/>
            <path class="cls-19" d="M131.55,99.36c-.58-.23-.87-.89-.64-1.47.23-.58.88-.87,1.47-.64l9.31,3.69c.58.23.87.89.64,1.47-.18.44-.6.72-1.05.72-.14,0-.28-.03-.42-.08"/>
          </g>
          <g>
            <path class="cls-11" d="M121.82,112.9c-.14,0-.28-.03-.42-.08l-16.9-6.69c-.58-.23-.87-.89-.64-1.47.23-.58.89-.87,1.47-.64l16.9,6.69c.58.23.87.89.64,1.47-.18.44-.6.72-1.05.72Z"/>
            <path class="cls-7" d="M104.5,106.13c-.58-.23-.87-.89-.64-1.47.23-.58.89-.87,1.47-.64l16.9,6.69c.58.23.87.89.64,1.47-.18.44-.6.72-1.05.72-.14,0-.28-.03-.42-.08"/>
          </g>
        </g>
      </g>
    </g>
    <g id="Device">
      <g id="Device_2" data-name="Device 2">
        <path class="cls-17" d="M254.88,9.57c-.27-2.01-1.89-2.74-3.83-1.61l-106.48,61.47c-2.13,1.24-3.87,4.24-3.87,6.71v234.96c0,2.27,1.47,3.31,3.38,2.48-2.14.98-5.27.9-7.26-.24l-4.43-2.55c-2.14-1.23-3.88-4.23-3.88-6.71V69.12c0-2.48,1.74-5.48,3.88-6.71L238.86.93c2.13-1.24,5.6-1.24,7.74,0l4.45,2.55c1.96,1.14,3.58,3.76,3.83,6.09Z"/>
        <path class="cls-15" d="M251.05,7.96l-106.48,61.47c-2.13,1.24-3.87,4.24-3.87,6.71v234.96c0,2.47,1.74,3.47,3.87,2.23l106.48-61.47c2.13-1.24,3.87-4.24,3.87-6.71V10.19c0-2.47-1.74-3.47-3.87-2.23ZM249.35,223.03c0,2.11-1.48,3.46-3.32,4.51l-96.81,55.89c-1.83,1.06-3.32.2-3.32-1.92V98.58c0-2.12,1.49-4.69,3.32-5.76l96.81-55.88c1.84-1.07,3.32-.2,3.32,1.91v184.18Z"/>
        <path class="cls-16" d="M144.09,313.58c-2.14.98-5.27.9-7.26-.24l-4.43-2.55c-2.14-1.24-3.88-4.23-3.88-6.71V69.12c0-1.24.44-2.61,1.14-3.83l12.19,7.03c-.7,1.22-1.14,2.59-1.14,3.82v234.96c0,2.27,1.47,3.31,3.38,2.48Z"/>
        <path class="cls-8" d="M197.81,43.87c1.43-.83,2.6-.16,2.6,1.5s-1.16,3.67-2.6,4.5c-1.43.83-2.6.16-2.6-1.5s1.16-3.67,2.6-4.5Z"/>
        <path class="cls-13" d="M196,276.95c-.67,0-1.29-.16-1.84-.48-1.32-.76-2.04-2.32-2.04-4.39,0-4.05,2.85-8.99,6.36-11.02,1.79-1.04,3.51-1.19,4.82-.43,1.32.76,2.04,2.32,2.04,4.39,0,4.05-2.85,8.99-6.36,11.02-1.04.6-2.06.91-2.98.91ZM201.46,261.16c-.75,0-1.59.26-2.48.77-3.23,1.87-5.86,6.42-5.86,10.15,0,1.7.55,2.95,1.54,3.52s2.35.42,3.82-.43c3.23-1.87,5.86-6.42,5.86-10.15,0-1.7-.55-2.95-1.54-3.52-.39-.23-.85-.34-1.34-.34Z"/>
        <path class="cls-8" d="M187.79,59.66l20.04-11.57c1.2-.69,2.17-.2,2.17,1.1s-.97,2.9-2.17,3.6l-20.04,11.57c-1.2.69-2.16.2-2.16-1.1,0-1.29.97-2.9,2.17-3.59Z"/>
        <path class="cls-9" d="M249.35,223.03c0,2.11-1.48,3.46-3.32,4.51l-96.81,55.89c-1.83,1.06-3.32.2-3.32-1.92V98.58c0-2.12,1.49-4.69,3.32-5.76l96.81-55.88c1.84-1.07,3.32-.2,3.32,1.91v184.18Z"/>
        <path class="cls-4" d="M249.35,223.03c0,2.11-1.48,3.46-3.32,4.51l-96.81,55.89c-1.83,1.06-3.32.2-3.32-1.92V98.58c0-2.12,1.49-4.69,3.32-5.76l96.81-55.88c1.84-1.07,3.32-.2,3.32,1.91v184.18Z"/>
        <path class="cls-19" d="M246.03,36.94l-96.81,55.88c-1.83,1.07-3.32,3.63-3.32,5.76v12.33l103.45-59.74v-12.32c0-2.11-1.48-2.97-3.32-1.91Z"/>
        <path class="cls-19" d="M145.89,268.03v13.48c0,2.12,1.49,2.97,3.32,1.92l96.81-55.89c1.84-1.06,3.32-2.4,3.32-4.51v-14.72l-103.45,59.73Z"/>
        <path class="cls-5" d="M154.41,268.24l72.33-41.8c1.67-.97,3.03-.18,3.03,1.75v.04c0,1.93-1.36,4.28-3.03,5.25l-72.33,41.8c-1.67.97-3.03.18-3.03-1.75v-.04c0-1.93,1.36-4.28,3.03-5.25Z"/>
        <path class="cls-17" d="M234.93,220.58v2.13c0,.48.25.81.55.74l3.41-.79c.3-.07.3.1,0,.38l-3.41,3.14c-.3.28-.55.89-.55,1.37v2.13c0,.48.23.59.52.25l8.09-9.46c.29-.34.29-.62,0-.62l-8.09-.12c-.29,0-.52.38-.52.86Z"/>
      </g>
      <g id="Conversation">
        <g>
          <g>
            <g>
              <path class="cls-12" d="M168.46,144.59l-5.14-2.97c-.1-.05-.19-.11-.24-.21l-.95-1.65,3.05-1.76-.09.27,3.37,6.33Z"/>
              <path class="cls-1" d="M164.72,138.25l3.56,6.16c.23.39.81.34.96-.09l3.76-10.85-8.28,4.78Z"/>
              <path class="cls-1" d="M201.9,93.63c0-1.59-1.11-3.51-2.49-4.31h0c-1.37-.79-3.6-.79-4.97,0l-40.25,23.22c-1.37.79-2.49,2.72-2.49,4.31v20.38c0,1.59,1.11,3.51,2.49,4.31h0c1.37.79,3.6.79,4.97,0l40.48-23.39c2.23-1.27,2.25-2.55,2.25-4.14v-20.39Z"/>
              <path class="cls-12" d="M151.71,137.23c0,1.59,1.11,3.51,2.49,4.31h0c1.24.71,3.17.78,4.55.2-1.17.44-2.06-.23-2.06-1.64v-20.38c0-.79.28-1.67.73-2.45l-4.97-2.87c-.45.78-.73,1.66-.73,2.45v20.38h0Z"/>
              <path class="cls-14" d="M201.82,92.92c-.29-1.05-1.25-1.39-2.4-.73l-40.26,23.22c-.68.39-1.31,1.07-1.75,1.85l-4.97-2.86c.45-.79,1.07-1.46,1.75-1.86l40.24-23.22c1.38-.79,3.61-.79,4.98,0h0c1.17.67,2.16,2.18,2.4,3.6Z"/>
            </g>
            <g>
              <path class="cls-17" d="M163.36,124.58l28.75-16.68c.83-.48,1.51-.26,1.51.49s-.67,1.75-1.51,2.23l-28.75,16.68c-.83.48-1.51.26-1.51-.49,0-.75.68-1.75,1.51-2.23Z"/>
              <path class="cls-17" d="M163.36,130.48l20.04-11.62c.83-.48,1.51-.26,1.51.49s-.67,1.75-1.51,2.23l-20.04,11.62c-.83.48-1.51.26-1.51-.49,0-.75.68-1.75,1.51-2.23Z"/>
            </g>
            <path class="cls-17" d="M163.36,118.7l28.75-16.68c.83-.48,1.51-.26,1.51.49s-.67,1.75-1.51,2.23l-28.75,16.68c-.83.48-1.51.26-1.51-.49,0-.75.68-1.75,1.51-2.23Z"/>
          </g>
          <g>
            <g id="Sync_Icon" data-name="Sync Icon">
              <g>
                <path class="cls-17" d="M162.99,146.76l-3.14-1.8c-.86-.49-2.05-.42-3.36.34-1.23.71-2.35,1.89-3.19,3.25-.98,1.57-1.59,3.39-1.59,5.03,0,1.52.53,2.59,1.4,3.09l3.15,1.81c.87.55,2.1.51,3.46-.28,2.64-1.52,4.78-5.23,4.78-8.28,0-1.59-.58-2.68-1.51-3.15Z"/>
                <path class="cls-15" d="M159.84,144.96c-.86-.49-2.05-.41-3.36.34-1.23.71-2.35,1.89-3.19,3.25-.98,1.57-1.59,3.39-1.59,5.02,0,1.52.53,2.59,1.39,3.09l3.12,1.79c-.79-.53-1.28-1.57-1.28-3.02,0-1.63.61-3.45,1.59-5.02.85-1.37,1.97-2.55,3.19-3.26,1.25-.72,2.38-.82,3.24-.41l-3.11-1.78Z"/>
              </g>
            </g>
            <path class="cls-10" d="M159.51,148.6c.88-.51,1.59-.1,1.59.92s-.71,2.25-1.59,2.75c-.88.51-1.59.1-1.59-.92s.71-2.25,1.59-2.75Z"/>
            <path class="cls-10" d="M159.72,157.3c1.16-.67,2.19-1.84,2.92-3.18v-.13c0-1.66-1.17-2.34-2.61-1.51l-.9.52c-1.37.79-2.49,2.67-2.59,4.28.08.07.15.16.23.21h0s.03.02.03.02c.73.47,1.76.43,2.91-.23Z"/>
          </g>
        </g>
        <g>
          <g>
            <g>
              <path class="cls-12" d="M168.46,218.57l-5.14-2.97c-.1-.05-.19-.11-.24-.21l-.95-1.65,3.05-1.76-.09.27,3.37,6.33Z"/>
              <path class="cls-1" d="M164.72,212.23l3.56,6.16c.23.39.81.34.96-.09l3.76-10.85-8.28,4.78Z"/>
              <path class="cls-1" d="M201.9,167.61c0-1.59-1.11-3.51-2.49-4.31h0c-1.37-.79-3.6-.79-4.97,0l-40.25,23.22c-1.37.79-2.49,2.72-2.49,4.31v20.38c0,1.58,1.11,3.51,2.49,4.31h0c1.37.79,3.6.79,4.97,0l40.48-23.39c2.23-1.27,2.25-2.55,2.25-4.14v-20.39Z"/>
              <path class="cls-12" d="M151.71,211.21c0,1.58,1.11,3.51,2.49,4.31h0c1.24.71,3.17.78,4.55.2-1.17.44-2.06-.23-2.06-1.64v-20.38c0-.79.28-1.67.73-2.45l-4.97-2.87c-.45.78-.73,1.66-.73,2.45v20.38h0Z"/>
              <path class="cls-14" d="M201.82,166.9c-.29-1.05-1.25-1.39-2.4-.73l-40.26,23.22c-.68.39-1.31,1.07-1.75,1.85l-4.97-2.86c.45-.79,1.07-1.46,1.75-1.86l40.24-23.22c1.38-.79,3.61-.79,4.98,0h0c1.17.67,2.16,2.18,2.4,3.6Z"/>
            </g>
            <g>
              <path class="cls-17" d="M163.36,198.56l28.75-16.68c.83-.48,1.51-.26,1.51.49s-.67,1.75-1.51,2.23l-28.75,16.68c-.83.48-1.51.26-1.51-.49,0-.75.68-1.75,1.51-2.23Z"/>
              <path class="cls-17" d="M163.36,204.46l20.04-11.62c.83-.48,1.51-.26,1.51.49s-.67,1.75-1.51,2.23l-20.04,11.61c-.83.48-1.51.26-1.51-.49,0-.75.68-1.75,1.51-2.23Z"/>
            </g>
            <path class="cls-17" d="M163.36,192.68l28.75-16.68c.83-.48,1.51-.26,1.51.49s-.67,1.75-1.51,2.23l-28.75,16.68c-.83.48-1.51.26-1.51-.49,0-.75.68-1.75,1.51-2.23Z"/>
          </g>
          <g>
            <g id="Sync_Icon-2" data-name="Sync Icon">
              <g>
                <path class="cls-17" d="M162.99,220.74l-3.14-1.8c-.86-.49-2.05-.42-3.36.34-1.23.71-2.35,1.89-3.19,3.25-.98,1.57-1.59,3.39-1.59,5.03,0,1.52.53,2.59,1.4,3.09l3.15,1.81c.87.55,2.1.51,3.46-.28,2.64-1.52,4.78-5.23,4.78-8.28,0-1.59-.58-2.68-1.51-3.15Z"/>
                <path class="cls-15" d="M159.84,218.94c-.86-.49-2.05-.42-3.36.34-1.23.71-2.35,1.89-3.19,3.25-.98,1.57-1.59,3.39-1.59,5.02,0,1.52.53,2.59,1.39,3.09l3.12,1.79c-.79-.53-1.28-1.57-1.28-3.02,0-1.63.61-3.45,1.59-5.02.85-1.37,1.97-2.55,3.19-3.26,1.25-.72,2.38-.82,3.24-.41l-3.11-1.78Z"/>
              </g>
            </g>
            <path class="cls-10" d="M159.51,222.57c.88-.51,1.59-.1,1.59.92s-.71,2.25-1.59,2.75c-.88.51-1.59.1-1.59-.92s.71-2.25,1.59-2.75Z"/>
            <path class="cls-10" d="M159.72,231.28c1.16-.67,2.19-1.84,2.92-3.17v-.13c0-1.67-1.17-2.34-2.61-1.51l-.9.52c-1.37.79-2.49,2.67-2.59,4.28.08.07.15.16.23.21h0s.03.02.03.02c.73.47,1.76.43,2.91-.23Z"/>
          </g>
        </g>
        <g>
          <g>
            <g>
              <path class="cls-9" d="M228.6,148.67l-5.14-2.97c-.1-.05-.19-.11-.24-.21l-.95-1.65,3.05-1.76-.09.27,3.37,6.33Z"/>
              <g class="cls-18">
                <path class="cls-8" d="M228.6,148.67l-5.14-2.97c-.1-.05-.19-.11-.24-.21l-.95-1.65,3.05-1.76-.09.27,3.37,6.33Z"/>
              </g>
              <path class="cls-9" d="M224.86,142.33l3.56,6.16c.23.39.81.34.96-.09l3.76-10.85-8.28,4.78Z"/>
            </g>
            <path class="cls-19" d="M244.34,107.99c0-1.59-1.11-3.51-2.49-4.31h0c-1.37-.79-3.6-.79-4.97,0l-40.25,23.22c-1.37.79-2.49,2.72-2.49,4.31v20.38c0,1.59,1.11,3.51,2.49,4.31h0c1.37.79,3.6.79,4.97,0l40.48-23.39c2.23-1.27,2.25-2.55,2.25-4.14v-20.39Z"/>
            <g>
              <g>
                <path class="cls-17" d="M207.53,137.94l28.75-16.68c.83-.48,1.51-.26,1.51.49s-.67,1.75-1.51,2.23l-28.75,16.68c-.83.48-1.51.26-1.51-.49,0-.75.67-1.75,1.51-2.23Z"/>
                <path class="cls-17" d="M216.24,138.71l20.04-11.62c.83-.48,1.51-.26,1.51.49s-.67,1.75-1.51,2.23l-20.04,11.62c-.83.48-1.51.26-1.51-.49s.67-1.75,1.51-2.23Z"/>
              </g>
              <path class="cls-17" d="M207.53,132.06l28.75-16.68c.83-.48,1.51-.26,1.51.49s-.67,1.75-1.51,2.23l-28.75,16.68c-.83.48-1.51.26-1.51-.49,0-.75.67-1.75,1.51-2.23Z"/>
            </g>
            <path class="cls-6" d="M194.15,151.6c0,1.59,1.11,3.51,2.49,4.31h0c1.24.71,3.17.78,4.55.21-1.17.44-2.06-.23-2.06-1.64v-20.38c0-.79.28-1.67.73-2.45l-4.97-2.87c-.45.78-.73,1.66-.73,2.45v20.38h0Z"/>
            <path class="cls-3" d="M244.26,107.28c-.29-1.05-1.25-1.39-2.4-.73l-40.26,23.22c-.68.39-1.31,1.07-1.75,1.85l-4.97-2.86c.45-.79,1.07-1.46,1.75-1.85l40.24-23.22c1.38-.79,3.61-.79,4.98,0h0c1.17.67,2.16,2.18,2.4,3.59Z"/>
          </g>
          <g>
            <g id="Sync_Icon-3" data-name="Sync Icon">
              <g>
                <path class="cls-17" d="M242.84,140.95l-3.14-1.8c-.86-.49-2.05-.42-3.36.34-1.23.71-2.35,1.89-3.19,3.25-.98,1.57-1.59,3.39-1.59,5.03,0,1.52.53,2.59,1.39,3.09l3.15,1.81c.87.55,2.1.51,3.46-.28,2.64-1.52,4.78-5.23,4.78-8.28,0-1.59-.58-2.68-1.51-3.15Z"/>
                <path class="cls-15" d="M239.69,139.15c-.86-.49-2.05-.41-3.36.34-1.23.71-2.35,1.89-3.19,3.25-.98,1.57-1.59,3.39-1.59,5.02,0,1.52.53,2.59,1.39,3.09l3.12,1.79c-.8-.53-1.28-1.57-1.28-3.02,0-1.63.61-3.45,1.59-5.02.85-1.37,1.97-2.55,3.19-3.26,1.25-.72,2.38-.82,3.23-.41l-3.11-1.79Z"/>
              </g>
            </g>
            <path class="cls-9" d="M239.29,142.95c.88-.51,1.59-.1,1.59.92s-.71,2.25-1.59,2.75-1.59.1-1.59-.92.71-2.25,1.59-2.75Z"/>
            <path class="cls-9" d="M239.5,151.66c1.16-.67,2.19-1.84,2.92-3.18v-.13c0-1.66-1.17-2.34-2.61-1.51l-.9.52c-1.37.79-2.49,2.67-2.59,4.28.08.07.15.16.23.21h0s.03.02.03.02c.73.47,1.76.43,2.91-.23Z"/>
          </g>
        </g>
        <g>
          <g>
            <g>
              <path class="cls-9" d="M227.13,205.4l-2.89-1.67c-.06-.03-.1-.06-.14-.12l-.53-.93,1.72-.99-.05.15,1.89,3.56Z"/>
              <g class="cls-18">
                <path class="cls-8" d="M227.13,205.4l-2.89-1.67c-.06-.03-.1-.06-.14-.12l-.53-.93,1.72-.99-.05.15,1.89,3.56Z"/>
              </g>
              <path class="cls-9" d="M225.03,201.84l2,3.46c.13.22.46.19.54-.05l2.11-6.1-4.65,2.69Z"/>
            </g>
            <path class="cls-19" d="M240.7,184.62c0-1.59-1.11-3.51-2.49-4.31h0c-1.37-.79-3.6-.79-4.97,0l-14.25,8.21c-1.37.79-2.49,2.72-2.49,4.31v5.44c0,1.59,1.11,3.51,2.49,4.31h0c1.37.79,3.6.79,4.97,0l14.48-8.38c2.23-1.27,2.25-2.55,2.25-4.14v-5.44Z"/>
            <path class="cls-6" d="M216.51,198.27c0,1.59,1.11,3.51,2.49,4.31h0c1.24.71,3.17.78,4.55.21-1.17.44-2.06-.23-2.06-1.64v-5.44c0-.79.28-1.67.73-2.45l-4.97-2.87c-.45.78-.73,1.66-.73,2.45v5.44h0Z"/>
            <path class="cls-3" d="M240.62,183.91c-.29-1.05-1.25-1.39-2.4-.73l-14.25,8.22c-.68.39-1.31,1.07-1.75,1.85l-4.97-2.86c.45-.79,1.07-1.46,1.75-1.86l14.24-8.22c1.38-.79,3.61-.79,4.98,0h0c1.17.67,2.16,2.18,2.4,3.6Z"/>
            <g>
              <path class="cls-17" d="M226.98,194.17c-.75.43-1.36,1.49-1.36,2.36s.61,1.22,1.36.79c.75-.43,1.36-1.49,1.36-2.36,0-.87-.61-1.22-1.36-.79Z"/>
              <path class="cls-17" d="M231.29,191.68c-.75.43-1.36,1.49-1.36,2.36s.61,1.22,1.36.79,1.36-1.49,1.36-2.36c0-.87-.61-1.22-1.36-.79Z"/>
              <path class="cls-17" d="M235.6,189.19c-.75.43-1.36,1.49-1.36,2.36s.61,1.22,1.36.79c.75-.43,1.36-1.49,1.36-2.36,0-.87-.61-1.22-1.36-.79Z"/>
            </g>
          </g>
          <g>
            <g id="Sync_Icon-4" data-name="Sync Icon">
              <g>
                <path class="cls-17" d="M242.84,198.67l-3.14-1.8c-.86-.49-2.05-.42-3.36.34-1.23.71-2.35,1.89-3.19,3.25-.98,1.57-1.59,3.39-1.59,5.03,0,1.52.53,2.59,1.39,3.09l3.15,1.81c.87.55,2.1.51,3.46-.28,2.64-1.52,4.78-5.23,4.78-8.28,0-1.59-.58-2.68-1.51-3.15Z"/>
                <path class="cls-15" d="M239.69,196.87c-.86-.49-2.05-.41-3.36.34-1.23.71-2.35,1.89-3.19,3.25-.98,1.57-1.59,3.39-1.59,5.02,0,1.52.53,2.59,1.39,3.09l3.12,1.79c-.8-.53-1.28-1.57-1.28-3.02,0-1.63.61-3.45,1.59-5.02.85-1.37,1.97-2.55,3.19-3.26,1.25-.72,2.38-.82,3.23-.41l-3.11-1.78Z"/>
              </g>
            </g>
            <path class="cls-9" d="M239.29,200.67c.88-.51,1.59-.1,1.59.92s-.71,2.25-1.59,2.75-1.59.1-1.59-.92.71-2.25,1.59-2.75Z"/>
            <path class="cls-9" d="M239.5,209.38c1.16-.67,2.19-1.84,2.92-3.17v-.13c0-1.67-1.17-2.34-2.61-1.51l-.9.52c-1.37.79-2.49,2.67-2.59,4.28.08.07.15.16.23.21h0s.03.02.03.02c.73.47,1.76.43,2.91-.23Z"/>
          </g>
        </g>
      </g>
    </g>
  </g>
</svg>