<svg width="1367" height="632" viewBox="0 0 1367 632" fill="none" xmlns="http://www.w3.org/2000/svg">
<path d="M307.928 69V18.6H316.363V69H307.928ZM339.342 70.05C334.675 70.05 330.883 69 327.967 66.9C325.05 64.8 323.277 61.8483 322.647 58.045L331.257 56.715C331.7 58.5817 332.68 60.0517 334.197 61.125C335.713 62.1983 337.627 62.735 339.937 62.735C341.967 62.735 343.53 62.3383 344.627 61.545C345.747 60.7283 346.307 59.62 346.307 58.22C346.307 57.3567 346.097 56.6683 345.677 56.155C345.28 55.6183 344.393 55.105 343.017 54.615C341.64 54.125 339.528 53.5067 336.682 52.76C333.508 51.92 330.988 51.0217 329.122 50.065C327.255 49.085 325.913 47.93 325.097 46.6C324.28 45.27 323.872 43.66 323.872 41.77C323.872 39.4133 324.49 37.36 325.727 35.61C326.963 33.86 328.69 32.5183 330.907 31.585C333.123 30.6283 335.737 30.15 338.747 30.15C341.687 30.15 344.288 30.605 346.552 31.515C348.838 32.425 350.682 33.72 352.082 35.4C353.482 37.08 354.345 39.0517 354.672 41.315L346.062 42.855C345.852 41.245 345.117 39.9733 343.857 39.04C342.62 38.1067 340.963 37.5817 338.887 37.465C336.903 37.3483 335.305 37.6517 334.092 38.375C332.878 39.075 332.272 40.0667 332.272 41.35C332.272 42.0733 332.517 42.6917 333.007 43.205C333.497 43.7183 334.477 44.2317 335.947 44.745C337.44 45.2583 339.657 45.8883 342.597 46.635C345.607 47.405 348.01 48.2917 349.807 49.295C351.627 50.275 352.933 51.4533 353.727 52.83C354.543 54.2067 354.952 55.875 354.952 57.835C354.952 61.6383 353.563 64.625 350.787 66.795C348.033 68.965 344.218 70.05 339.342 70.05ZM377.401 85.8L384.681 65.815L384.821 71.695L368.336 31.2H377.121L388.811 61.16H386.571L397.946 31.2H406.381L385.311 85.8H377.401ZM424.829 70.05C421.049 70.05 417.748 69.1983 414.924 67.495C412.101 65.7917 409.908 63.4467 408.344 60.46C406.804 57.45 406.034 53.9967 406.034 50.1C406.034 46.1333 406.828 42.6567 408.414 39.67C410.001 36.6833 412.206 34.35 415.029 32.67C417.853 30.99 421.119 30.15 424.829 30.15C428.633 30.15 431.946 31.0017 434.769 32.705C437.593 34.4083 439.786 36.765 441.349 39.775C442.913 42.7617 443.694 46.2033 443.694 50.1C443.694 54.02 442.901 57.485 441.314 60.495C439.751 63.4817 437.558 65.8267 434.734 67.53C431.911 69.21 428.609 70.05 424.829 70.05ZM424.829 62.14C428.189 62.14 430.686 61.02 432.319 58.78C433.953 56.54 434.769 53.6467 434.769 50.1C434.769 46.4367 433.941 43.52 432.284 41.35C430.628 39.1567 428.143 38.06 424.829 38.06C422.566 38.06 420.699 38.5733 419.229 39.6C417.783 40.6033 416.709 42.015 416.009 43.835C415.309 45.6317 414.959 47.72 414.959 50.1C414.959 53.7633 415.788 56.6917 417.444 58.885C419.124 61.055 421.586 62.14 424.829 62.14ZM463.481 70.085C460.681 70.085 458.371 69.6183 456.551 68.685C454.731 67.7517 453.284 66.5617 452.211 65.115C451.137 63.6683 450.344 62.1283 449.831 60.495C449.317 58.8617 448.979 57.3217 448.816 55.875C448.676 54.405 448.606 53.215 448.606 52.305V31.2H457.146V49.4C457.146 50.5667 457.227 51.885 457.391 53.355C457.554 54.8017 457.927 56.2017 458.511 57.555C459.117 58.885 460.004 59.9817 461.171 60.845C462.361 61.7083 463.959 62.14 465.966 62.14C467.039 62.14 468.101 61.965 469.151 61.615C470.201 61.265 471.146 60.67 471.986 59.83C472.849 58.9667 473.537 57.7883 474.051 56.295C474.564 54.8017 474.821 52.9117 474.821 50.625L479.826 52.76C479.826 55.98 479.196 58.8967 477.936 61.51C476.699 64.1233 474.867 66.2117 472.441 67.775C470.014 69.315 467.027 70.085 463.481 70.085ZM475.836 69V57.275H474.821V31.2H483.291V69H475.836ZM491.024 69V31.2H498.479V40.405L497.569 39.215C498.036 37.955 498.654 36.8117 499.424 35.785C500.217 34.735 501.162 33.8717 502.259 33.195C503.192 32.565 504.219 32.075 505.339 31.725C506.482 31.3517 507.649 31.13 508.839 31.06C510.029 30.9667 511.184 31.0133 512.304 31.2V39.075C511.184 38.7483 509.889 38.6433 508.419 38.76C506.972 38.8767 505.666 39.285 504.499 39.985C503.332 40.615 502.376 41.42 501.629 42.4C500.906 43.38 500.369 44.5 500.019 45.76C499.669 46.9967 499.494 48.3383 499.494 49.785V69H491.024ZM536.847 69L525.297 31.13L533.557 31.2L540.942 55.455L548.432 31.2H555.537L562.992 55.455L570.412 31.2H578.672L567.122 69H560.542L551.967 42.995L543.427 69H536.847ZM598.706 70.05C594.879 70.05 591.519 69.2217 588.626 67.565C585.733 65.9083 583.469 63.61 581.836 60.67C580.226 57.73 579.421 54.3467 579.421 50.52C579.421 46.39 580.214 42.8083 581.801 39.775C583.388 36.7183 585.593 34.35 588.416 32.67C591.239 30.99 594.506 30.15 598.216 30.15C602.136 30.15 605.461 31.0717 608.191 32.915C610.944 34.735 612.986 37.3133 614.316 40.65C615.646 43.9867 616.148 47.9183 615.821 52.445H607.456V49.365C607.433 45.2583 606.709 42.26 605.286 40.37C603.863 38.48 601.623 37.535 598.566 37.535C595.113 37.535 592.546 38.6083 590.866 40.755C589.186 42.8783 588.346 45.9933 588.346 50.1C588.346 53.9267 589.186 56.89 590.866 58.99C592.546 61.09 594.996 62.14 598.216 62.14C600.293 62.14 602.078 61.685 603.571 60.775C605.088 59.8417 606.254 58.5 607.071 56.75L615.401 59.27C613.954 62.6767 611.714 65.325 608.681 67.215C605.671 69.105 602.346 70.05 598.706 70.05ZM585.686 52.445V46.075H611.691V52.445H585.686ZM639.695 70.05C636.009 70.05 632.917 69.175 630.42 67.425C627.924 65.675 626.045 63.295 624.785 60.285C623.525 57.2517 622.895 53.8567 622.895 50.1C622.895 46.2967 623.525 42.89 624.785 39.88C626.045 36.87 627.889 34.5017 630.315 32.775C632.765 31.025 635.787 30.15 639.38 30.15C642.95 30.15 646.042 31.025 648.655 32.775C651.292 34.5017 653.334 36.87 654.78 39.88C656.227 42.8667 656.95 46.2733 656.95 50.1C656.95 53.88 656.239 57.275 654.815 60.285C653.392 63.295 651.385 65.675 648.795 67.425C646.205 69.175 643.172 70.05 639.695 70.05ZM621.46 69V18.6H629.965V42.47H628.915V69H621.46ZM638.4 62.49C640.594 62.49 642.402 61.9417 643.825 60.845C645.249 59.7483 646.299 58.2667 646.975 56.4C647.675 54.51 648.025 52.41 648.025 50.1C648.025 47.8133 647.675 45.7367 646.975 43.87C646.275 41.98 645.19 40.4867 643.72 39.39C642.25 38.27 640.384 37.71 638.12 37.71C635.974 37.71 634.224 38.235 632.87 39.285C631.517 40.3117 630.514 41.7583 629.86 43.625C629.23 45.4683 628.915 47.6267 628.915 50.1C628.915 52.55 629.23 54.7083 629.86 56.575C630.514 58.4417 631.529 59.9 632.905 60.95C634.305 61.9767 636.137 62.49 638.4 62.49ZM676.271 70.05C671.605 70.05 667.813 69 664.896 66.9C661.98 64.8 660.206 61.8483 659.576 58.045L668.186 56.715C668.63 58.5817 669.61 60.0517 671.126 61.125C672.643 62.1983 674.556 62.735 676.866 62.735C678.896 62.735 680.46 62.3383 681.556 61.545C682.676 60.7283 683.236 59.62 683.236 58.22C683.236 57.3567 683.026 56.6683 682.606 56.155C682.21 55.6183 681.323 55.105 679.946 54.615C678.57 54.125 676.458 53.5067 673.611 52.76C670.438 51.92 667.918 51.0217 666.051 50.065C664.185 49.085 662.843 47.93 662.026 46.6C661.21 45.27 660.801 43.66 660.801 41.77C660.801 39.4133 661.42 37.36 662.656 35.61C663.893 33.86 665.62 32.5183 667.836 31.585C670.053 30.6283 672.666 30.15 675.676 30.15C678.616 30.15 681.218 30.605 683.481 31.515C685.768 32.425 687.611 33.72 689.011 35.4C690.411 37.08 691.275 39.0517 691.601 41.315L682.991 42.855C682.781 41.245 682.046 39.9733 680.786 39.04C679.55 38.1067 677.893 37.5817 675.816 37.465C673.833 37.3483 672.235 37.6517 671.021 38.375C669.808 39.075 669.201 40.0667 669.201 41.35C669.201 42.0733 669.446 42.6917 669.936 43.205C670.426 43.7183 671.406 44.2317 672.876 44.745C674.37 45.2583 676.586 45.8883 679.526 46.635C682.536 47.405 684.94 48.2917 686.736 49.295C688.556 50.275 689.863 51.4533 690.656 52.83C691.473 54.2067 691.881 55.875 691.881 57.835C691.881 61.6383 690.493 64.625 687.716 66.795C684.963 68.965 681.148 70.05 676.271 70.05ZM698.147 25.46V17.725H706.582V25.46H698.147ZM698.147 69V31.2H706.582V69H698.147ZM737.122 69C734.625 69.4667 732.175 69.665 729.772 69.595C727.392 69.5483 725.257 69.1167 723.367 68.3C721.477 67.46 720.042 66.1417 719.062 64.345C718.198 62.7117 717.743 61.0433 717.697 59.34C717.65 57.6367 717.627 55.7117 717.627 53.565V20.7H726.027V53.075C726.027 54.5917 726.038 55.9217 726.062 57.065C726.108 58.2083 726.353 59.1417 726.797 59.865C727.637 61.265 728.978 62.0467 730.822 62.21C732.665 62.3733 734.765 62.28 737.122 61.93V69ZM710.767 37.815V31.2H737.122V37.815H710.767ZM758.421 70.05C754.594 70.05 751.234 69.2217 748.341 67.565C745.447 65.9083 743.184 63.61 741.551 60.67C739.941 57.73 739.136 54.3467 739.136 50.52C739.136 46.39 739.929 42.8083 741.516 39.775C743.102 36.7183 745.307 34.35 748.131 32.67C750.954 30.99 754.221 30.15 757.931 30.15C761.851 30.15 765.176 31.0717 767.906 32.915C770.659 34.735 772.701 37.3133 774.031 40.65C775.361 43.9867 775.862 47.9183 775.536 52.445H767.171V49.365C767.147 45.2583 766.424 42.26 765.001 40.37C763.577 38.48 761.337 37.535 758.281 37.535C754.827 37.535 752.261 38.6083 750.581 40.755C748.901 42.8783 748.061 45.9933 748.061 50.1C748.061 53.9267 748.901 56.89 750.581 58.99C752.261 61.09 754.711 62.14 757.931 62.14C760.007 62.14 761.792 61.685 763.286 60.775C764.802 59.8417 765.969 58.5 766.786 56.75L775.116 59.27C773.669 62.6767 771.429 65.325 768.396 67.215C765.386 69.105 762.061 70.05 758.421 70.05ZM745.401 52.445V46.075H771.406V52.445H745.401ZM815.314 69C812.817 69.4667 810.367 69.665 807.964 69.595C805.584 69.5483 803.449 69.1167 801.559 68.3C799.669 67.46 798.234 66.1417 797.254 64.345C796.39 62.7117 795.935 61.0433 795.889 59.34C795.842 57.6367 795.819 55.7117 795.819 53.565V20.7H804.219V53.075C804.219 54.5917 804.23 55.9217 804.254 57.065C804.3 58.2083 804.545 59.1417 804.989 59.865C805.829 61.265 807.17 62.0467 809.014 62.21C810.857 62.3733 812.957 62.28 815.314 61.93V69ZM788.959 37.815V31.2H815.314V37.815H788.959ZM836.613 70.05C832.786 70.05 829.426 69.2217 826.533 67.565C823.64 65.9083 821.376 63.61 819.743 60.67C818.133 57.73 817.328 54.3467 817.328 50.52C817.328 46.39 818.121 42.8083 819.708 39.775C821.295 36.7183 823.5 34.35 826.323 32.67C829.146 30.99 832.413 30.15 836.123 30.15C840.043 30.15 843.368 31.0717 846.098 32.915C848.851 34.735 850.893 37.3133 852.223 40.65C853.553 43.9867 854.055 47.9183 853.728 52.445H845.363V49.365C845.34 45.2583 844.616 42.26 843.193 40.37C841.77 38.48 839.53 37.535 836.473 37.535C833.02 37.535 830.453 38.6083 828.773 40.755C827.093 42.8783 826.253 45.9933 826.253 50.1C826.253 53.9267 827.093 56.89 828.773 58.99C830.453 61.09 832.903 62.14 836.123 62.14C838.2 62.14 839.985 61.685 841.478 60.775C842.995 59.8417 844.161 58.5 844.978 56.75L853.308 59.27C851.861 62.6767 849.621 65.325 846.588 67.215C843.578 69.105 840.253 70.05 836.613 70.05ZM823.593 52.445V46.075H849.598V52.445H823.593ZM860.137 69V17.55H868.572V69H860.137ZM877.656 69V17.55H886.091V69H877.656ZM895.176 25.46V17.725H903.611V25.46H895.176ZM895.176 69V31.2H903.611V69H895.176ZM938.14 69V50.8C938.14 49.61 938.058 48.2917 937.895 46.845C937.731 45.3983 937.346 44.01 936.74 42.68C936.156 41.3267 935.27 40.2183 934.08 39.355C932.913 38.4917 931.326 38.06 929.32 38.06C928.246 38.06 927.185 38.235 926.135 38.585C925.085 38.935 924.128 39.5417 923.265 40.405C922.425 41.245 921.748 42.4117 921.235 43.905C920.721 45.375 920.465 47.265 920.465 49.575L915.46 47.44C915.46 44.22 916.078 41.3033 917.315 38.69C918.575 36.0767 920.418 34 922.845 32.46C925.271 30.8967 928.258 30.115 931.805 30.115C934.605 30.115 936.915 30.5817 938.735 31.515C940.555 32.4483 942.001 33.6383 943.075 35.085C944.148 36.5317 944.941 38.0717 945.455 39.705C945.968 41.3383 946.295 42.89 946.435 44.36C946.598 45.8067 946.68 46.985 946.68 47.895V69H938.14ZM911.925 69V31.2H919.45V42.925H920.465V69H911.925ZM969.603 86.85C967.503 86.85 965.485 86.5233 963.548 85.87C961.635 85.2167 959.908 84.2717 958.368 83.035C956.828 81.8217 955.568 80.3517 954.588 78.625L962.358 74.775C963.081 76.1517 964.096 77.1667 965.403 77.82C966.733 78.4967 968.145 78.835 969.638 78.835C971.388 78.835 972.951 78.52 974.328 77.89C975.705 77.2833 976.766 76.3733 977.513 75.16C978.283 73.97 978.645 72.4767 978.598 70.68V59.935H979.648V31.2H987.033V70.82C987.033 71.7767 986.986 72.6867 986.893 73.55C986.823 74.4367 986.695 75.3 986.508 76.14C985.948 78.59 984.875 80.5967 983.288 82.16C981.701 83.7467 979.73 84.925 977.373 85.695C975.04 86.465 972.45 86.85 969.603 86.85ZM968.868 70.05C965.391 70.05 962.358 69.175 959.768 67.425C957.178 65.675 955.171 63.295 953.748 60.285C952.325 57.275 951.613 53.88 951.613 50.1C951.613 46.2733 952.325 42.8667 953.748 39.88C955.195 36.87 957.236 34.5017 959.873 32.775C962.51 31.025 965.613 30.15 969.183 30.15C972.776 30.15 975.786 31.025 978.213 32.775C980.663 34.5017 982.518 36.87 983.778 39.88C985.038 42.89 985.668 46.2967 985.668 50.1C985.668 53.8567 985.038 57.2517 983.778 60.285C982.518 63.295 980.64 65.675 978.143 67.425C975.646 69.175 972.555 70.05 968.868 70.05ZM970.163 62.49C972.426 62.49 974.246 61.9767 975.623 60.95C977.023 59.9 978.038 58.4417 978.668 56.575C979.321 54.7083 979.648 52.55 979.648 50.1C979.648 47.6267 979.321 45.4683 978.668 43.625C978.038 41.7583 977.046 40.3117 975.693 39.285C974.34 38.235 972.59 37.71 970.443 37.71C968.18 37.71 966.313 38.27 964.843 39.39C963.373 40.4867 962.288 41.98 961.588 43.87C960.888 45.7367 960.538 47.8133 960.538 50.1C960.538 52.41 960.876 54.51 961.553 56.4C962.253 58.2667 963.315 59.7483 964.738 60.845C966.161 61.9417 967.97 62.49 970.163 62.49ZM1028.82 69C1026.32 69.4667 1023.87 69.665 1021.47 69.595C1019.09 69.5483 1016.95 69.1167 1015.06 68.3C1013.17 67.46 1011.74 66.1417 1010.76 64.345C1009.89 62.7117 1009.44 61.0433 1009.39 59.34C1009.34 57.6367 1009.32 55.7117 1009.32 53.565V20.7H1017.72V53.075C1017.72 54.5917 1017.73 55.9217 1017.76 57.065C1017.8 58.2083 1018.05 59.1417 1018.49 59.865C1019.33 61.265 1020.67 62.0467 1022.52 62.21C1024.36 62.3733 1026.46 62.28 1028.82 61.93V69ZM1002.46 37.815V31.2H1028.82V37.815H1002.46ZM1060.99 69V50.8C1060.99 49.61 1060.91 48.2917 1060.74 46.845C1060.58 45.3983 1060.2 44.01 1059.59 42.68C1059.01 41.3267 1058.12 40.2183 1056.93 39.355C1055.76 38.4917 1054.18 38.06 1052.17 38.06C1051.1 38.06 1050.03 38.235 1048.98 38.585C1047.93 38.935 1046.98 39.5417 1046.11 40.405C1045.27 41.245 1044.6 42.4117 1044.08 43.905C1043.57 45.375 1043.31 47.265 1043.31 49.575L1038.31 47.44C1038.31 44.22 1038.93 41.3033 1040.16 38.69C1041.42 36.0767 1043.27 34 1045.69 32.46C1048.12 30.8967 1051.11 30.115 1054.65 30.115C1057.45 30.115 1059.76 30.5817 1061.58 31.515C1063.4 32.4483 1064.85 33.6383 1065.92 35.085C1067 36.5317 1067.79 38.0717 1068.3 39.705C1068.82 41.3383 1069.14 42.89 1069.28 44.36C1069.45 45.8067 1069.53 46.985 1069.53 47.895V69H1060.99ZM1034.77 69V18.6H1042.3V45.13H1043.31V69H1034.77ZM1093.75 70.05C1089.92 70.05 1086.56 69.2217 1083.67 67.565C1080.77 65.9083 1078.51 63.61 1076.88 60.67C1075.27 57.73 1074.46 54.3467 1074.46 50.52C1074.46 46.39 1075.26 42.8083 1076.84 39.775C1078.43 36.7183 1080.63 34.35 1083.46 32.67C1086.28 30.99 1089.55 30.15 1093.26 30.15C1097.18 30.15 1100.5 31.0717 1103.23 32.915C1105.99 34.735 1108.03 37.3133 1109.36 40.65C1110.69 43.9867 1111.19 47.9183 1110.86 52.445H1102.5V49.365C1102.47 45.2583 1101.75 42.26 1100.33 40.37C1098.9 38.48 1096.66 37.535 1093.61 37.535C1090.15 37.535 1087.59 38.6083 1085.91 40.755C1084.23 42.8783 1083.39 45.9933 1083.39 50.1C1083.39 53.9267 1084.23 56.89 1085.91 58.99C1087.59 61.09 1090.04 62.14 1093.26 62.14C1095.33 62.14 1097.12 61.685 1098.61 60.775C1100.13 59.8417 1101.3 58.5 1102.11 56.75L1110.44 59.27C1109 62.6767 1106.76 65.325 1103.72 67.215C1100.71 69.105 1097.39 70.05 1093.75 70.05ZM1080.73 52.445V46.075H1106.73V52.445H1080.73ZM732.178 154.05C727.512 154.05 723.72 153 720.803 150.9C717.887 148.8 716.113 145.848 715.483 142.045L724.093 140.715C724.537 142.582 725.517 144.052 727.033 145.125C728.55 146.198 730.463 146.735 732.773 146.735C734.803 146.735 736.367 146.338 737.463 145.545C738.583 144.728 739.143 143.62 739.143 142.22C739.143 141.357 738.933 140.668 738.513 140.155C738.117 139.618 737.23 139.105 735.853 138.615C734.477 138.125 732.365 137.507 729.518 136.76C726.345 135.92 723.825 135.022 721.958 134.065C720.092 133.085 718.75 131.93 717.933 130.6C717.117 129.27 716.708 127.66 716.708 125.77C716.708 123.413 717.327 121.36 718.563 119.61C719.8 117.86 721.527 116.518 723.743 115.585C725.96 114.628 728.573 114.15 731.583 114.15C734.523 114.15 737.125 114.605 739.388 115.515C741.675 116.425 743.518 117.72 744.918 119.4C746.318 121.08 747.182 123.052 747.508 125.315L738.898 126.855C738.688 125.245 737.953 123.973 736.693 123.04C735.457 122.107 733.8 121.582 731.723 121.465C729.74 121.348 728.142 121.652 726.928 122.375C725.715 123.075 725.108 124.067 725.108 125.35C725.108 126.073 725.353 126.692 725.843 127.205C726.333 127.718 727.313 128.232 728.783 128.745C730.277 129.258 732.493 129.888 735.433 130.635C738.443 131.405 740.847 132.292 742.643 133.295C744.463 134.275 745.77 135.453 746.563 136.83C747.38 138.207 747.788 139.875 747.788 141.835C747.788 145.638 746.4 148.625 743.623 150.795C740.87 152.965 737.055 154.05 732.178 154.05ZM775.51 153C773.013 153.467 770.563 153.665 768.159 153.595C765.779 153.548 763.644 153.117 761.754 152.3C759.864 151.46 758.429 150.142 757.449 148.345C756.586 146.712 756.131 145.043 756.084 143.34C756.038 141.637 756.014 139.712 756.014 137.565V104.7H764.414V137.075C764.414 138.592 764.426 139.922 764.449 141.065C764.496 142.208 764.741 143.142 765.184 143.865C766.024 145.265 767.366 146.047 769.21 146.21C771.053 146.373 773.153 146.28 775.51 145.93V153ZM749.154 121.815V115.2H775.51V121.815H749.154ZM796.319 154.05C792.539 154.05 789.237 153.198 786.414 151.495C783.59 149.792 781.397 147.447 779.834 144.46C778.294 141.45 777.524 137.997 777.524 134.1C777.524 130.133 778.317 126.657 779.904 123.67C781.49 120.683 783.695 118.35 786.519 116.67C789.342 114.99 792.609 114.15 796.319 114.15C800.122 114.15 803.435 115.002 806.259 116.705C809.082 118.408 811.275 120.765 812.839 123.775C814.402 126.762 815.184 130.203 815.184 134.1C815.184 138.02 814.39 141.485 812.804 144.495C811.24 147.482 809.047 149.827 806.224 151.53C803.4 153.21 800.099 154.05 796.319 154.05ZM796.319 146.14C799.679 146.14 802.175 145.02 803.809 142.78C805.442 140.54 806.259 137.647 806.259 134.1C806.259 130.437 805.43 127.52 803.774 125.35C802.117 123.157 799.632 122.06 796.319 122.06C794.055 122.06 792.189 122.573 790.719 123.6C789.272 124.603 788.199 126.015 787.499 127.835C786.799 129.632 786.449 131.72 786.449 134.1C786.449 137.763 787.277 140.692 788.934 142.885C790.614 145.055 793.075 146.14 796.319 146.14ZM820.795 153V115.2H828.25V124.405L827.34 123.215C827.807 121.955 828.425 120.812 829.195 119.785C829.988 118.735 830.933 117.872 832.03 117.195C832.963 116.565 833.99 116.075 835.11 115.725C836.253 115.352 837.42 115.13 838.61 115.06C839.8 114.967 840.955 115.013 842.075 115.2V123.075C840.955 122.748 839.66 122.643 838.19 122.76C836.743 122.877 835.437 123.285 834.27 123.985C833.103 124.615 832.147 125.42 831.4 126.4C830.677 127.38 830.14 128.5 829.79 129.76C829.44 130.997 829.265 132.338 829.265 133.785V153H820.795ZM850.462 169.8L857.742 149.815L857.882 155.695L841.397 115.2H850.182L861.872 145.16H859.632L871.007 115.2H879.442L858.372 169.8H850.462ZM891.697 139.315C891.697 137.705 891.849 136.153 892.152 134.66C892.479 133.143 893.004 131.743 893.727 130.46C894.357 129.223 895.057 128.243 895.827 127.52C896.597 126.773 897.46 126.038 898.417 125.315C899.374 124.568 900.435 123.577 901.602 122.34C902.559 121.29 903.189 120.252 903.492 119.225C903.795 118.175 903.947 117.055 903.947 115.865C903.947 115.095 903.865 114.372 903.702 113.695C903.539 113.018 903.247 112.435 902.827 111.945C902.174 111.082 901.334 110.475 900.307 110.125C899.28 109.752 898.184 109.565 897.017 109.565C896.06 109.565 895.139 109.693 894.252 109.95C893.389 110.183 892.654 110.557 892.047 111.07C891.347 111.63 890.834 112.318 890.507 113.135C890.18 113.952 890.029 114.85 890.052 115.83H881.162C881.395 113.497 882.025 111.338 883.052 109.355C884.102 107.348 885.479 105.75 887.182 104.56C888.512 103.58 890.005 102.845 891.662 102.355C893.342 101.865 895.022 101.62 896.702 101.62C899.269 101.62 901.684 102.017 903.947 102.81C906.234 103.603 908.135 104.91 909.652 106.73C910.702 107.92 911.495 109.297 912.032 110.86C912.592 112.423 912.872 114.01 912.872 115.62C912.872 118.023 912.347 120.217 911.297 122.2C910.27 124.183 908.964 126.015 907.377 127.695C906.63 128.488 905.919 129.188 905.242 129.795C904.565 130.402 903.935 130.997 903.352 131.58C902.792 132.14 902.325 132.735 901.952 133.365C901.299 134.462 900.914 135.395 900.797 136.165C900.68 136.912 900.622 137.962 900.622 139.315H891.697ZM891.767 153V143.725H900.622V153H891.767Z" fill="black"/>
<path d="M502.547 153V102.6H523.827C524.317 102.6 524.97 102.623 525.787 102.67C526.627 102.693 527.373 102.763 528.027 102.88C531.037 103.347 533.498 104.338 535.412 105.855C537.348 107.372 538.772 109.285 539.682 111.595C540.592 113.882 541.047 116.437 541.047 119.26C541.047 123.483 539.997 127.1 537.897 130.11C535.797 133.097 532.507 134.94 528.027 135.64L523.827 135.92H512.067V153H502.547ZM530.967 153L521.027 132.49L530.827 130.6L541.747 153H530.967ZM512.067 127.03H523.407C523.897 127.03 524.433 127.007 525.017 126.96C525.6 126.913 526.137 126.82 526.627 126.68C527.91 126.33 528.902 125.747 529.602 124.93C530.302 124.09 530.78 123.168 531.037 122.165C531.317 121.138 531.457 120.17 531.457 119.26C531.457 118.35 531.317 117.393 531.037 116.39C530.78 115.363 530.302 114.442 529.602 113.625C528.902 112.785 527.91 112.19 526.627 111.84C526.137 111.7 525.6 111.607 525.017 111.56C524.433 111.513 523.897 111.49 523.407 111.49H512.067V127.03ZM548.041 153V102.6H557.561V153H548.041ZM586.954 154.05C583.781 154.05 580.759 153.49 577.889 152.37C575.019 151.227 572.476 149.547 570.259 147.33C568.066 145.113 566.327 142.372 565.044 139.105C563.784 135.838 563.154 132.07 563.154 127.8C563.154 122.223 564.216 117.487 566.339 113.59C568.486 109.67 571.356 106.683 574.949 104.63C578.566 102.577 582.567 101.55 586.954 101.55C593.441 101.55 598.539 103.055 602.249 106.065C605.959 109.075 608.444 113.333 609.704 118.84L599.974 120.24C599.064 117.3 597.571 114.955 595.494 113.205C593.441 111.432 590.804 110.533 587.584 110.51C584.387 110.463 581.727 111.152 579.604 112.575C577.481 113.998 575.882 116.017 574.809 118.63C573.759 121.243 573.234 124.3 573.234 127.8C573.234 131.3 573.759 134.333 574.809 136.9C575.882 139.467 577.481 141.462 579.604 142.885C581.727 144.308 584.387 145.043 587.584 145.09C589.754 145.137 591.714 144.763 593.464 143.97C595.237 143.177 596.731 141.928 597.944 140.225C599.157 138.522 600.021 136.34 600.534 133.68H592.554V126.33H610.684C610.731 126.633 610.766 127.17 610.789 127.94C610.812 128.71 610.824 129.153 610.824 129.27C610.824 134.1 609.844 138.382 607.884 142.115C605.924 145.848 603.159 148.777 599.589 150.9C596.019 153 591.807 154.05 586.954 154.05ZM615.739 153V102.6H625.259V123.32H647.799V102.6H657.319V153H647.799V132.21H625.259V153H615.739ZM676.735 153V111.49H660.845V102.6H702.145V111.49H686.255V153H676.735Z" fill="#008080"/>
<path d="M12.128 431.48C9.824 431.48 7.83467 430.979 6.16 429.976C4.496 428.973 3.21067 427.571 2.304 425.768C1.408 423.965 0.96 421.869 0.96 419.48C0.96 417.091 1.408 414.995 2.304 413.192C3.21067 411.389 4.496 409.987 6.16 408.984C7.83467 407.981 9.824 407.48 12.128 407.48C14.7733 407.48 16.992 408.136 18.784 409.448C20.5867 410.76 21.856 412.536 22.592 414.776L18.208 415.992C17.7813 414.595 17.0613 413.512 16.048 412.744C15.0347 411.965 13.728 411.576 12.128 411.576C10.6667 411.576 9.44533 411.901 8.464 412.552C7.49333 413.203 6.76267 414.12 6.272 415.304C5.78133 416.488 5.536 417.88 5.536 419.48C5.536 421.08 5.78133 422.472 6.272 423.656C6.76267 424.84 7.49333 425.757 8.464 426.408C9.44533 427.059 10.6667 427.384 12.128 427.384C13.728 427.384 15.0347 426.995 16.048 426.216C17.0613 425.437 17.7813 424.355 18.208 422.968L22.592 424.184C21.856 426.424 20.5867 428.2 18.784 429.512C16.992 430.824 14.7733 431.48 12.128 431.48ZM33.891 431.48C32.1523 431.48 30.627 431.091 29.315 430.312C28.003 429.533 26.979 428.461 26.243 427.096C25.5177 425.72 25.155 424.141 25.155 422.36C25.155 420.557 25.5283 418.973 26.275 417.608C27.0217 416.232 28.051 415.16 29.363 414.392C30.675 413.624 32.1843 413.24 33.891 413.24C35.6297 413.24 37.155 413.629 38.467 414.408C39.7897 415.187 40.819 416.264 41.555 417.64C42.291 419.005 42.659 420.579 42.659 422.36C42.659 424.152 42.2857 425.736 41.539 427.112C40.803 428.477 39.7737 429.549 38.451 430.328C37.139 431.096 35.619 431.48 33.891 431.48ZM33.891 427.416C35.2883 427.416 36.3283 426.947 37.011 426.008C37.7043 425.059 38.051 423.843 38.051 422.36C38.051 420.824 37.699 419.597 36.995 418.68C36.3017 417.763 35.267 417.304 33.891 417.304C32.9417 417.304 32.163 417.517 31.555 417.944C30.947 418.371 30.4937 418.963 30.195 419.72C29.907 420.477 29.763 421.357 29.763 422.36C29.763 423.907 30.1097 425.139 30.803 426.056C31.507 426.963 32.5363 427.416 33.891 427.416ZM57.9535 431V422.84C57.9535 422.445 57.9322 421.944 57.8895 421.336C57.8468 420.717 57.7135 420.099 57.4895 419.48C57.2655 418.861 56.8975 418.344 56.3855 417.928C55.8842 417.512 55.1695 417.304 54.2415 417.304C53.8682 417.304 53.4682 417.363 53.0415 417.48C52.6148 417.597 52.2148 417.827 51.8415 418.168C51.4682 418.499 51.1588 418.989 50.9135 419.64C50.6788 420.291 50.5615 421.155 50.5615 422.232L48.0655 421.048C48.0655 419.683 48.3428 418.403 48.8975 417.208C49.4522 416.013 50.2842 415.048 51.3935 414.312C52.5135 413.576 53.9215 413.208 55.6175 413.208C56.9722 413.208 58.0762 413.437 58.9295 413.896C59.7828 414.355 60.4442 414.936 60.9135 415.64C61.3935 416.344 61.7348 417.08 61.9375 417.848C62.1402 418.605 62.2628 419.299 62.3055 419.928C62.3482 420.557 62.3695 421.016 62.3695 421.304V431H57.9535ZM46.1455 431V413.72H50.0175V419.448H50.5615V431H46.1455ZM76.8893 431C75.6946 431.224 74.5213 431.32 73.3693 431.288C72.2279 431.267 71.2039 431.069 70.2973 430.696C69.4013 430.312 68.7186 429.699 68.2493 428.856C67.8226 428.067 67.5986 427.267 67.5773 426.456C67.5559 425.635 67.5453 424.707 67.5453 423.672V408.92H71.8973V423.416C71.8973 424.088 71.9026 424.696 71.9133 425.24C71.9346 425.773 72.0466 426.2 72.2493 426.52C72.6333 427.128 73.2466 427.459 74.0893 427.512C74.9319 427.565 75.8653 427.523 76.8893 427.384V431ZM64.6013 417.08V413.72H76.8893V417.08H64.6013ZM87.8345 431.48C86.0638 431.48 84.5012 431.101 83.1465 430.344C81.8025 429.576 80.7465 428.525 79.9785 427.192C79.2212 425.848 78.8425 424.312 78.8425 422.584C78.8425 420.696 79.2158 419.053 79.9625 417.656C80.7092 416.259 81.7385 415.176 83.0505 414.408C84.3625 413.629 85.8718 413.24 87.5785 413.24C89.3918 413.24 90.9332 413.667 92.2025 414.52C93.4718 415.373 94.4105 416.573 95.0185 418.12C95.6265 419.667 95.8398 421.485 95.6585 423.576H91.3545V421.976C91.3545 420.216 91.0718 418.952 90.5065 418.184C89.9518 417.405 89.0398 417.016 87.7705 417.016C86.2878 417.016 85.1945 417.469 84.4905 418.376C83.7972 419.272 83.4505 420.6 83.4505 422.36C83.4505 423.971 83.7972 425.219 84.4905 426.104C85.1945 426.979 86.2238 427.416 87.5785 427.416C88.4318 427.416 89.1625 427.229 89.7705 426.856C90.3785 426.483 90.8425 425.944 91.1625 425.24L95.5145 426.488C94.8638 428.067 93.8345 429.293 92.4265 430.168C91.0292 431.043 89.4985 431.48 87.8345 431.48ZM82.1065 423.576V420.344H93.5625V423.576H82.1065ZM110.579 431V422.84C110.579 422.445 110.557 421.944 110.515 421.336C110.472 420.717 110.339 420.099 110.115 419.48C109.891 418.861 109.523 418.344 109.011 417.928C108.509 417.512 107.795 417.304 106.867 417.304C106.493 417.304 106.093 417.363 105.667 417.48C105.24 417.597 104.84 417.827 104.467 418.168C104.093 418.499 103.784 418.989 103.539 419.64C103.304 420.291 103.187 421.155 103.187 422.232L100.691 421.048C100.691 419.683 100.968 418.403 101.523 417.208C102.077 416.013 102.909 415.048 104.019 414.312C105.139 413.576 106.547 413.208 108.243 413.208C109.597 413.208 110.701 413.437 111.555 413.896C112.408 414.355 113.069 414.936 113.539 415.64C114.019 416.344 114.36 417.08 114.562 417.848C114.765 418.605 114.888 419.299 114.931 419.928C114.973 420.557 114.995 421.016 114.995 421.304V431H110.579ZM98.7705 431V413.72H102.643V419.448H103.187V431H98.7705ZM129.514 431C128.32 431.224 127.146 431.32 125.994 431.288C124.853 431.267 123.829 431.069 122.922 430.696C122.026 430.312 121.344 429.699 120.874 428.856C120.448 428.067 120.224 427.267 120.202 426.456C120.181 425.635 120.17 424.707 120.17 423.672V408.92H124.522V423.416C124.522 424.088 124.528 424.696 124.538 425.24C124.56 425.773 124.672 426.2 124.874 426.52C125.258 427.128 125.872 427.459 126.714 427.512C127.557 427.565 128.49 427.523 129.514 427.384V431ZM117.226 417.08V413.72H129.514V417.08H117.226ZM144.603 431L137.851 407.96H142.427L146.747 423.8L151.067 407.992L155.643 407.96L159.963 423.8L164.283 407.96H168.859L162.107 431H157.819L153.355 415.448L148.891 431H144.603ZM171.428 431V413.72H175.268V417.944L174.852 417.4C175.076 416.803 175.374 416.259 175.748 415.768C176.121 415.277 176.58 414.872 177.124 414.552C177.54 414.296 177.993 414.099 178.484 413.96C178.974 413.811 179.481 413.72 180.004 413.688C180.526 413.645 181.049 413.656 181.572 413.72V417.784C181.092 417.635 180.532 417.587 179.892 417.64C179.262 417.683 178.692 417.827 178.18 418.072C177.668 418.307 177.236 418.621 176.884 419.016C176.532 419.4 176.265 419.859 176.084 420.392C175.902 420.915 175.812 421.507 175.812 422.168V431H171.428ZM184.935 411.32V407.48H189.287V411.32H184.935ZM184.935 431V413.72H189.287V431H184.935ZM204.452 431C203.257 431.224 202.084 431.32 200.932 431.288C199.79 431.267 198.766 431.069 197.86 430.696C196.964 430.312 196.281 429.699 195.812 428.856C195.385 428.067 195.161 427.267 195.14 426.456C195.118 425.635 195.108 424.707 195.108 423.672V408.92H199.46V423.416C199.46 424.088 199.465 424.696 199.476 425.24C199.497 425.773 199.609 426.2 199.812 426.52C200.196 427.128 200.809 427.459 201.652 427.512C202.494 427.565 203.428 427.523 204.452 427.384V431ZM192.164 417.08V413.72H204.452V417.08H192.164ZM208.623 411.32V407.48H212.975V411.32H208.623ZM208.623 431V413.72H212.975V431H208.623ZM229.547 431V422.84C229.547 422.445 229.526 421.944 229.483 421.336C229.441 420.717 229.307 420.099 229.083 419.48C228.859 418.861 228.491 418.344 227.979 417.928C227.478 417.512 226.763 417.304 225.835 417.304C225.462 417.304 225.062 417.363 224.635 417.48C224.209 417.597 223.809 417.827 223.435 418.168C223.062 418.499 222.753 418.989 222.507 419.64C222.273 420.291 222.155 421.155 222.155 422.232L219.659 421.048C219.659 419.683 219.937 418.403 220.491 417.208C221.046 416.013 221.878 415.048 222.987 414.312C224.107 413.576 225.515 413.208 227.211 413.208C228.566 413.208 229.67 413.437 230.523 413.896C231.377 414.355 232.038 414.936 232.507 415.64C232.987 416.344 233.329 417.08 233.531 417.848C233.734 418.605 233.857 419.299 233.899 419.928C233.942 420.557 233.963 421.016 233.963 421.304V431H229.547ZM217.739 431V413.72H221.611V419.448H222.155V431H217.739ZM245.507 439.16C244.526 439.16 243.592 439 242.707 438.68C241.822 438.371 241.027 437.933 240.323 437.368C239.63 436.813 239.064 436.163 238.627 435.416L242.659 433.464C242.936 433.976 243.331 434.365 243.843 434.632C244.366 434.899 244.931 435.032 245.539 435.032C246.19 435.032 246.803 434.92 247.379 434.696C247.955 434.483 248.414 434.157 248.755 433.72C249.107 433.293 249.272 432.76 249.251 432.12V427.096H249.795V413.72H253.603V432.184C253.603 432.611 253.582 433.011 253.539 433.384C253.507 433.768 253.443 434.147 253.347 434.52C253.07 435.576 252.552 436.445 251.795 437.128C251.048 437.811 250.131 438.317 249.043 438.648C247.955 438.989 246.776 439.16 245.507 439.16ZM245.123 431.48C243.534 431.48 242.142 431.08 240.947 430.28C239.752 429.48 238.819 428.392 238.147 427.016C237.486 425.64 237.155 424.088 237.155 422.36C237.155 420.6 237.491 419.037 238.163 417.672C238.846 416.296 239.8 415.213 241.027 414.424C242.254 413.635 243.694 413.24 245.347 413.24C246.99 413.24 248.371 413.64 249.491 414.44C250.611 415.24 251.459 416.328 252.035 417.704C252.611 419.08 252.899 420.632 252.899 422.36C252.899 424.088 252.606 425.64 252.019 427.016C251.443 428.392 250.579 429.48 249.427 430.28C248.275 431.08 246.84 431.48 245.123 431.48ZM245.827 427.608C246.798 427.608 247.571 427.389 248.147 426.952C248.734 426.515 249.155 425.901 249.411 425.112C249.667 424.323 249.795 423.405 249.795 422.36C249.795 421.315 249.667 420.397 249.411 419.608C249.155 418.819 248.744 418.205 248.179 417.768C247.624 417.331 246.894 417.112 245.987 417.112C245.016 417.112 244.216 417.352 243.587 417.832C242.968 418.301 242.51 418.936 242.211 419.736C241.912 420.525 241.763 421.4 241.763 422.36C241.763 423.331 241.907 424.216 242.195 425.016C242.483 425.805 242.926 426.435 243.523 426.904C244.12 427.373 244.888 427.608 245.827 427.608Z" fill="white"/>
<path d="M979.912 330.381H422.068C400.593 330.381 383 315.538 383 297.382C383 279.241 400.573 264.381 422.068 264.381H979.932C1001.41 264.381 1019 279.225 1019 297.382C1019 315.522 1001.43 330.381 979.932 330.381H979.912Z" fill="url(#paint0_linear_366_336)"/>
<path d="M990.376 330H909V264H990.376C1006.11 264 1019 278.843 1019 297C1019 315.141 1006.13 330 990.376 330Z" fill="#1D262D"/>
<path d="M958.222 296.894C953.881 301.186 946.809 301.186 942.467 296.894C938.126 292.602 938.126 285.612 942.467 281.321C946.809 277.029 953.881 277.029 958.222 281.321C962.564 285.612 962.564 292.602 958.222 296.894ZM944.803 283.629C941.744 286.653 941.744 291.562 944.803 294.586C947.862 297.609 952.828 297.609 955.887 294.586C958.946 291.562 958.946 286.653 955.887 283.629C952.828 280.605 947.862 280.605 944.803 283.629Z" fill="#F9FBFC"/>
<path d="M958.218 294.561L955.881 296.872L959.765 300.711L962.102 298.401L958.218 294.561Z" fill="#F9FBFC"/>
<path d="M973.202 311.703C972.232 312.662 970.669 312.662 969.699 311.703L959.782 301.901C958.812 300.942 958.812 299.397 959.782 298.438C960.753 297.479 962.315 297.479 963.285 298.438L973.202 308.241C974.172 309.2 974.172 310.744 973.202 311.703Z" fill="#F9FBFC"/>
<path d="M686.784 238.323H491.395V346.67H686.784V238.323Z" stroke="#D9DBDB" stroke-width="5" stroke-miterlimit="10"/>
<path d="M686.784 238.323H491.395V346.67H686.784V238.323Z" fill="white"/>
<path d="M642.04 372.878L625.867 381.624L652.267 429.33L668.44 420.584L642.04 372.878Z" fill="#001A1A"/>
<path d="M653.992 394.529L644.075 376.598C641.559 378.289 638.928 379.882 636.198 381.361C633.468 382.841 630.688 384.157 627.893 385.344L637.809 403.275C640.589 402.039 643.368 400.722 646.081 399.243C648.811 397.764 651.426 396.171 653.975 394.529H653.992Z" fill="#1D262D"/>
<g filter="url(#filter0_f_366_336)">
<path d="M589.882 385.628C642.144 383.291 682.58 339.519 680.197 287.859C677.814 236.199 633.515 196.214 581.253 198.551C528.991 200.887 488.556 244.66 490.938 296.319C493.321 347.979 537.62 387.964 589.882 385.628Z" fill="#777777" fill-opacity="0.1"/>
</g>
<path d="M509.912 284.946C508.859 285.515 507.609 285.758 506.327 285.563C503.235 285.092 501.113 282.231 501.59 279.175C502.511 273.241 504.074 267.373 506.244 261.764C507.363 258.871 510.635 257.408 513.563 258.513C516.49 259.619 517.97 262.853 516.852 265.747C514.977 270.64 513.612 275.728 512.806 280.882C512.527 282.67 511.408 284.133 509.912 284.946Z" fill="white"/>
<path d="M552.522 367.673C550.927 368.535 548.937 368.633 547.194 367.738C531.883 359.936 519.417 347.906 511.129 332.95C506.952 325.391 503.959 317.296 502.248 308.907C501.623 305.867 503.613 302.925 506.688 302.307C509.764 301.69 512.757 303.657 513.365 306.696C514.845 313.979 517.444 321.002 521.078 327.569C528.265 340.558 539.086 350.995 552.374 357.773C555.153 359.188 556.255 362.569 554.824 365.333C554.282 366.373 553.459 367.17 552.506 367.69L552.522 367.673Z" fill="white"/>
<path d="M531.422 192.009C475.524 222.229 455 291.513 485.572 346.768C516.145 402.023 586.235 422.311 642.133 392.09C698.032 361.87 718.555 292.586 687.983 237.331C657.411 182.076 587.321 161.789 531.422 192.009ZM632.233 374.208C586.334 399.032 528.775 382.353 503.679 336.998C478.567 291.627 495.423 234.73 541.323 209.923C587.222 185.1 644.781 201.763 669.877 247.134C694.989 292.505 678.116 349.401 632.233 374.208Z" fill="#004543"/>
<path d="M674.654 417.215L646.029 432.694L724.228 573.999L752.852 558.521L674.654 417.215Z" fill="#008080"/>
<path d="M655.84 427.392L650.17 430.458L728.369 571.763L734.039 568.697L655.84 427.392Z" fill="#001A1A"/>
<path d="M674.653 417.239L665.246 422.326L743.445 563.632L752.852 558.545L674.653 417.239Z" fill="#008080"/>
<path d="M619.716 279.437C618.852 279.437 618.103 279.242 617.468 278.853C616.833 278.464 616.343 277.928 615.996 277.245C615.655 276.557 615.484 275.765 615.484 274.869C615.484 273.968 615.66 273.176 616.012 272.493C616.364 271.805 616.857 271.272 617.492 270.893C618.127 270.509 618.868 270.317 619.716 270.317C620.58 270.317 621.329 270.512 621.964 270.901C622.599 271.29 623.089 271.826 623.436 272.509C623.783 273.192 623.956 273.978 623.956 274.869C623.956 275.77 623.78 276.565 623.428 277.253C623.081 277.936 622.591 278.472 621.956 278.861C621.321 279.245 620.575 279.437 619.716 279.437ZM619.716 277.861C620.543 277.861 621.159 277.584 621.564 277.029C621.975 276.469 622.18 275.749 622.18 274.869C622.18 273.968 621.972 273.248 621.556 272.709C621.145 272.165 620.532 271.893 619.716 271.893C619.156 271.893 618.695 272.021 618.332 272.277C617.969 272.528 617.7 272.877 617.524 273.325C617.348 273.768 617.26 274.282 617.26 274.869C617.26 275.776 617.468 276.501 617.884 277.045C618.3 277.589 618.911 277.861 619.716 277.861ZM631.778 279.197V274.949C631.778 274.613 631.749 274.269 631.69 273.917C631.637 273.56 631.53 273.229 631.37 272.925C631.215 272.621 630.994 272.376 630.706 272.189C630.423 272.002 630.053 271.909 629.594 271.909C629.295 271.909 629.013 271.96 628.746 272.061C628.479 272.157 628.245 272.314 628.042 272.533C627.845 272.752 627.687 273.04 627.57 273.397C627.458 273.754 627.402 274.189 627.402 274.701L626.362 274.309C626.362 273.525 626.509 272.834 626.802 272.237C627.095 271.634 627.517 271.165 628.066 270.829C628.615 270.493 629.279 270.325 630.058 270.325C630.655 270.325 631.157 270.421 631.562 270.613C631.967 270.805 632.295 271.058 632.546 271.373C632.802 271.682 632.997 272.021 633.13 272.389C633.263 272.757 633.354 273.117 633.402 273.469C633.45 273.821 633.474 274.13 633.474 274.397V279.197H631.778ZM625.706 279.197V270.557H627.202V273.053H627.402V279.197H625.706ZM641.622 279.197V274.949C641.622 274.613 641.593 274.269 641.534 273.917C641.481 273.56 641.374 273.229 641.214 272.925C641.059 272.621 640.838 272.376 640.55 272.189C640.267 272.002 639.897 271.909 639.438 271.909C639.139 271.909 638.857 271.96 638.59 272.061C638.323 272.157 638.089 272.314 637.886 272.533C637.689 272.752 637.531 273.04 637.414 273.397C637.302 273.754 637.246 274.189 637.246 274.701L636.206 274.309C636.206 273.525 636.353 272.834 636.646 272.237C636.939 271.634 637.361 271.165 637.91 270.829C638.459 270.493 639.123 270.325 639.902 270.325C640.499 270.325 641.001 270.421 641.406 270.613C641.811 270.805 642.139 271.058 642.39 271.373C642.646 271.682 642.841 272.021 642.974 272.389C643.107 272.757 643.198 273.117 643.246 273.469C643.294 273.821 643.318 274.13 643.318 274.397V279.197H641.622ZM635.55 279.197V270.557H637.046V273.053H637.246V279.197H635.55ZM649.124 279.437C648.266 279.437 647.511 279.25 646.86 278.877C646.215 278.498 645.711 277.973 645.348 277.301C644.991 276.624 644.812 275.84 644.812 274.949C644.812 274.005 644.988 273.186 645.34 272.493C645.698 271.8 646.194 271.264 646.828 270.885C647.463 270.506 648.202 270.317 649.044 270.317C649.924 270.317 650.674 270.522 651.292 270.933C651.911 271.338 652.372 271.917 652.676 272.669C652.986 273.421 653.108 274.314 653.044 275.349H651.372V274.741C651.362 273.738 651.17 272.997 650.796 272.517C650.428 272.037 649.866 271.797 649.108 271.797C648.271 271.797 647.642 272.061 647.22 272.589C646.799 273.117 646.588 273.88 646.588 274.877C646.588 275.826 646.799 276.562 647.22 277.085C647.642 277.602 648.25 277.861 649.044 277.861C649.567 277.861 650.018 277.744 650.396 277.509C650.78 277.269 651.079 276.928 651.292 276.485L652.932 277.005C652.596 277.778 652.087 278.378 651.404 278.805C650.722 279.226 649.962 279.437 649.124 279.437ZM646.044 275.349V274.045H652.212V275.349H646.044ZM658.535 279.437C657.65 279.437 656.898 279.24 656.279 278.845C655.66 278.45 655.186 277.909 654.855 277.221C654.53 276.533 654.364 275.752 654.359 274.877C654.364 273.986 654.535 273.2 654.871 272.517C655.207 271.829 655.687 271.29 656.311 270.901C656.935 270.512 657.684 270.317 658.559 270.317C659.503 270.317 660.308 270.552 660.975 271.021C661.647 271.49 662.09 272.133 662.303 272.949L660.639 273.429C660.474 272.944 660.202 272.568 659.823 272.301C659.45 272.029 659.02 271.893 658.535 271.893C657.986 271.893 657.535 272.024 657.183 272.285C656.831 272.541 656.57 272.893 656.399 273.341C656.228 273.789 656.14 274.301 656.135 274.877C656.14 275.768 656.343 276.488 656.743 277.037C657.148 277.586 657.746 277.861 658.535 277.861C659.074 277.861 659.508 277.738 659.839 277.493C660.175 277.242 660.431 276.885 660.607 276.421L662.303 276.821C662.02 277.664 661.554 278.312 660.903 278.765C660.252 279.213 659.463 279.437 658.535 279.437ZM668.877 279.197C668.333 279.304 667.8 279.349 667.277 279.333C666.754 279.317 666.288 279.216 665.877 279.029C665.466 278.842 665.157 278.549 664.949 278.149C664.762 277.792 664.661 277.429 664.645 277.061C664.634 276.688 664.629 276.266 664.629 275.797V268.157H666.309V275.717C666.309 276.064 666.312 276.365 666.317 276.621C666.328 276.877 666.384 277.093 666.485 277.269C666.677 277.6 666.981 277.789 667.397 277.837C667.818 277.88 668.312 277.861 668.877 277.781V279.197ZM662.973 271.901V270.557H668.877V271.901H662.973Z" fill="#272525"/>
<path d="M615.965 301.207V292.567H617.453V294.663L617.245 294.391C617.352 294.114 617.49 293.86 617.661 293.631C617.832 293.396 618.029 293.204 618.253 293.055C618.472 292.895 618.714 292.772 618.981 292.687C619.253 292.596 619.53 292.543 619.813 292.527C620.096 292.506 620.368 292.519 620.629 292.567V294.135C620.346 294.06 620.032 294.039 619.685 294.071C619.344 294.103 619.029 294.212 618.741 294.399C618.469 294.575 618.253 294.788 618.093 295.039C617.938 295.29 617.826 295.57 617.757 295.879C617.688 296.183 617.653 296.506 617.653 296.847V301.207H615.965ZM625.828 301.447C624.97 301.447 624.215 301.26 623.564 300.887C622.919 300.508 622.415 299.983 622.052 299.311C621.695 298.634 621.516 297.85 621.516 296.959C621.516 296.015 621.692 295.196 622.044 294.503C622.402 293.81 622.898 293.274 623.532 292.895C624.167 292.516 624.906 292.327 625.748 292.327C626.628 292.327 627.378 292.532 627.996 292.943C628.615 293.348 629.076 293.927 629.38 294.679C629.69 295.431 629.812 296.324 629.748 297.359H628.076V296.751C628.066 295.748 627.874 295.007 627.5 294.527C627.132 294.047 626.57 293.807 625.812 293.807C624.975 293.807 624.346 294.071 623.924 294.599C623.503 295.127 623.292 295.89 623.292 296.887C623.292 297.836 623.503 298.572 623.924 299.095C624.346 299.612 624.954 299.871 625.748 299.871C626.271 299.871 626.722 299.754 627.1 299.519C627.484 299.279 627.783 298.938 627.996 298.495L629.636 299.015C629.3 299.788 628.791 300.388 628.108 300.815C627.426 301.236 626.666 301.447 625.828 301.447ZM622.748 297.359V296.055H628.916V297.359H622.748ZM633.827 301.447C633.187 301.447 632.651 301.33 632.219 301.095C631.787 300.855 631.459 300.54 631.235 300.151C631.016 299.756 630.907 299.324 630.907 298.855C630.907 298.418 630.984 298.034 631.139 297.703C631.294 297.372 631.523 297.092 631.827 296.863C632.131 296.628 632.504 296.439 632.947 296.295C633.331 296.183 633.766 296.084 634.251 295.999C634.736 295.914 635.246 295.834 635.779 295.759C636.318 295.684 636.851 295.61 637.379 295.535L636.771 295.871C636.782 295.194 636.638 294.692 636.339 294.367C636.046 294.036 635.539 293.871 634.819 293.871C634.366 293.871 633.95 293.978 633.571 294.191C633.192 294.399 632.928 294.746 632.779 295.231L631.219 294.751C631.432 294.01 631.838 293.42 632.435 292.983C633.038 292.546 633.838 292.327 634.835 292.327C635.608 292.327 636.28 292.46 636.851 292.727C637.427 292.988 637.848 293.404 638.115 293.975C638.254 294.258 638.339 294.556 638.371 294.871C638.403 295.186 638.419 295.524 638.419 295.887V301.207H636.939V299.231L637.227 299.487C636.87 300.148 636.414 300.642 635.859 300.967C635.31 301.287 634.632 301.447 633.827 301.447ZM634.123 300.079C634.598 300.079 635.006 299.996 635.347 299.831C635.688 299.66 635.963 299.444 636.171 299.183C636.379 298.922 636.515 298.65 636.579 298.367C636.67 298.111 636.72 297.823 636.731 297.503C636.747 297.183 636.755 296.927 636.755 296.735L637.299 296.935C636.771 297.015 636.291 297.087 635.859 297.151C635.427 297.215 635.035 297.279 634.683 297.343C634.336 297.402 634.027 297.474 633.755 297.559C633.526 297.639 633.32 297.735 633.139 297.847C632.963 297.959 632.822 298.095 632.715 298.255C632.614 298.415 632.563 298.61 632.563 298.839C632.563 299.063 632.619 299.271 632.731 299.463C632.843 299.65 633.014 299.799 633.243 299.911C633.472 300.023 633.766 300.079 634.123 300.079ZM645.44 301.207C644.896 301.314 644.363 301.359 643.84 301.343C643.318 301.327 642.851 301.226 642.44 301.039C642.03 300.852 641.72 300.559 641.512 300.159C641.326 299.802 641.224 299.439 641.208 299.071C641.198 298.698 641.192 298.276 641.192 297.807V290.167H642.872V297.727C642.872 298.074 642.875 298.375 642.88 298.631C642.891 298.887 642.947 299.103 643.048 299.279C643.24 299.61 643.544 299.799 643.96 299.847C644.382 299.89 644.875 299.871 645.44 299.791V301.207ZM639.536 293.911V292.567H645.44V293.911H639.536ZM650.688 301.447C649.829 301.447 649.074 301.26 648.424 300.887C647.778 300.508 647.274 299.983 646.912 299.311C646.554 298.634 646.376 297.85 646.376 296.959C646.376 296.015 646.552 295.196 646.904 294.503C647.261 293.81 647.757 293.274 648.392 292.895C649.026 292.516 649.765 292.327 650.608 292.327C651.488 292.327 652.237 292.532 652.856 292.943C653.474 293.348 653.936 293.927 654.24 294.679C654.549 295.431 654.672 296.324 654.608 297.359H652.936V296.751C652.925 295.748 652.733 295.007 652.36 294.527C651.992 294.047 651.429 293.807 650.672 293.807C649.834 293.807 649.205 294.071 648.784 294.599C648.362 295.127 648.152 295.89 648.152 296.887C648.152 297.836 648.362 298.572 648.784 299.095C649.205 299.612 649.813 299.871 650.608 299.871C651.13 299.871 651.581 299.754 651.96 299.519C652.344 299.279 652.642 298.938 652.856 298.495L654.496 299.015C654.16 299.788 653.65 300.388 652.968 300.815C652.285 301.236 651.525 301.447 650.688 301.447ZM647.608 297.359V296.055H653.776V297.359H647.608Z" fill="#272525"/>
<path d="M619.716 323.457C618.852 323.457 618.103 323.262 617.468 322.873C616.833 322.484 616.343 321.948 615.996 321.265C615.655 320.577 615.484 319.785 615.484 318.889C615.484 317.988 615.66 317.196 616.012 316.513C616.364 315.825 616.857 315.292 617.492 314.913C618.127 314.529 618.868 314.337 619.716 314.337C620.58 314.337 621.329 314.532 621.964 314.921C622.599 315.31 623.089 315.846 623.436 316.529C623.783 317.212 623.956 317.998 623.956 318.889C623.956 319.79 623.78 320.585 623.428 321.273C623.081 321.956 622.591 322.492 621.956 322.881C621.321 323.265 620.575 323.457 619.716 323.457ZM619.716 321.881C620.543 321.881 621.159 321.604 621.564 321.049C621.975 320.489 622.18 319.769 622.18 318.889C622.18 317.988 621.972 317.268 621.556 316.729C621.145 316.185 620.532 315.913 619.716 315.913C619.156 315.913 618.695 316.041 618.332 316.297C617.969 316.548 617.7 316.897 617.524 317.345C617.348 317.788 617.26 318.302 617.26 318.889C617.26 319.796 617.468 320.521 617.884 321.065C618.3 321.609 618.911 321.881 619.716 321.881ZM631.778 323.217V318.969C631.778 318.633 631.749 318.289 631.69 317.937C631.637 317.58 631.53 317.249 631.37 316.945C631.215 316.641 630.994 316.396 630.706 316.209C630.423 316.022 630.053 315.929 629.594 315.929C629.295 315.929 629.013 315.98 628.746 316.081C628.479 316.177 628.245 316.334 628.042 316.553C627.845 316.772 627.687 317.06 627.57 317.417C627.458 317.774 627.402 318.209 627.402 318.721L626.362 318.329C626.362 317.545 626.509 316.854 626.802 316.257C627.095 315.654 627.517 315.185 628.066 314.849C628.615 314.513 629.279 314.345 630.058 314.345C630.655 314.345 631.157 314.441 631.562 314.633C631.967 314.825 632.295 315.078 632.546 315.393C632.802 315.702 632.997 316.041 633.13 316.409C633.263 316.777 633.354 317.137 633.402 317.489C633.45 317.841 633.474 318.15 633.474 318.417V323.217H631.778ZM625.706 323.217V314.577H627.202V317.073H627.402V323.217H625.706ZM637.894 323.217L634.758 314.577H636.446L638.742 321.121L641.038 314.577H642.726L639.59 323.217H637.894ZM647.687 323.457C646.828 323.457 646.073 323.27 645.423 322.897C644.777 322.518 644.273 321.993 643.911 321.321C643.553 320.644 643.375 319.86 643.375 318.969C643.375 318.025 643.551 317.206 643.903 316.513C644.26 315.82 644.756 315.284 645.391 314.905C646.025 314.526 646.764 314.337 647.607 314.337C648.487 314.337 649.236 314.542 649.855 314.953C650.473 315.358 650.935 315.937 651.239 316.689C651.548 317.441 651.671 318.334 651.607 319.369H649.935V318.761C649.924 317.758 649.732 317.017 649.359 316.537C648.991 316.057 648.428 315.817 647.671 315.817C646.833 315.817 646.204 316.081 645.783 316.609C645.361 317.137 645.151 317.9 645.151 318.897C645.151 319.846 645.361 320.582 645.783 321.105C646.204 321.622 646.812 321.881 647.607 321.881C648.129 321.881 648.58 321.764 648.959 321.529C649.343 321.289 649.641 320.948 649.855 320.505L651.495 321.025C651.159 321.798 650.649 322.398 649.967 322.825C649.284 323.246 648.524 323.457 647.687 323.457ZM644.607 319.369V318.065H650.775V319.369H644.607ZM653.402 323.217V314.577H654.89V316.673L654.682 316.401C654.788 316.124 654.927 315.87 655.098 315.641C655.268 315.406 655.466 315.214 655.69 315.065C655.908 314.905 656.151 314.782 656.418 314.697C656.69 314.606 656.967 314.553 657.25 314.537C657.532 314.516 657.804 314.529 658.066 314.577V316.145C657.783 316.07 657.468 316.049 657.122 316.081C656.78 316.113 656.466 316.222 656.178 316.409C655.906 316.585 655.69 316.798 655.53 317.049C655.375 317.3 655.263 317.58 655.194 317.889C655.124 318.193 655.09 318.516 655.09 318.857V323.217H653.402ZM664.533 323.217C663.989 323.324 663.456 323.369 662.933 323.353C662.41 323.337 661.944 323.236 661.533 323.049C661.122 322.862 660.813 322.569 660.605 322.169C660.418 321.812 660.317 321.449 660.301 321.081C660.29 320.708 660.285 320.286 660.285 319.817V312.177H661.965V319.737C661.965 320.084 661.968 320.385 661.973 320.641C661.984 320.897 662.04 321.113 662.141 321.289C662.333 321.62 662.637 321.809 663.053 321.857C663.474 321.9 663.968 321.881 664.533 321.801V323.217ZM658.629 315.921V314.577H664.533V315.921H658.629Z" fill="#272525"/>
<path d="M556.725 355C545.435 355 535.686 352.555 527.481 347.668C519.327 342.779 513.028 335.941 508.586 327.154C504.195 318.365 502 308.147 502 296.5C502 284.851 504.195 274.634 508.586 265.846C513.028 257.057 519.327 250.219 527.481 245.332C535.686 240.443 545.435 238 556.725 238C569.688 238 580.559 241.198 589.34 247.594C598.173 253.99 604.393 262.648 608 273.568L586.518 279.496C584.428 272.684 580.899 267.406 575.933 263.662C570.967 259.865 564.565 257.968 556.725 257.968C549.564 257.968 543.58 259.553 538.771 262.726C534.015 265.898 530.433 270.37 528.03 276.142C525.626 281.914 524.423 288.7 524.423 296.5C524.423 304.3 525.626 311.086 528.03 316.858C530.433 322.63 534.015 327.101 538.771 330.274C543.58 333.445 549.564 335.032 556.725 335.032C564.565 335.032 570.967 333.133 575.933 329.338C580.899 325.541 584.428 320.263 586.518 313.504L608 319.432C604.393 330.352 598.173 339.01 589.34 345.406C580.559 351.802 569.688 355 556.725 355Z" fill="#272525"/>
<g filter="url(#filter1_d_366_336)">
<rect x="357" y="537" width="127" height="65" rx="20" fill="url(#paint1_linear_366_336)" shape-rendering="crispEdges"/>
<path d="M387 584.96V580.24L399.08 569.52C399.987 568.72 400.627 567.967 401 567.26C401.373 566.553 401.56 565.893 401.56 565.28C401.56 564.4 401.38 563.62 401.02 562.94C400.66 562.247 400.153 561.707 399.5 561.32C398.847 560.92 398.08 560.72 397.2 560.72C396.28 560.72 395.467 560.933 394.76 561.36C394.067 561.773 393.527 562.327 393.14 563.02C392.753 563.7 392.573 564.44 392.6 565.24H387C387 563.267 387.433 561.56 388.3 560.12C389.167 558.68 390.373 557.567 391.92 556.78C393.467 555.993 395.267 555.6 397.32 555.6C399.2 555.6 400.88 556.013 402.36 556.84C403.853 557.653 405.027 558.793 405.88 560.26C406.733 561.727 407.16 563.427 407.16 565.36C407.16 566.787 406.96 567.973 406.56 568.92C406.16 569.853 405.567 570.72 404.78 571.52C403.993 572.307 403.027 573.2 401.88 574.2L394.08 581.04L393.64 579.84H407.16V584.96H387ZM420.501 585.6C419.047 585.6 417.681 585.3 416.401 584.7C415.134 584.1 414.041 583.267 413.121 582.2C412.201 581.133 411.541 579.893 411.141 578.48L416.381 577.08C416.554 577.76 416.861 578.347 417.301 578.84C417.754 579.333 418.274 579.72 418.861 580C419.461 580.267 420.074 580.4 420.701 580.4C421.527 580.4 422.281 580.2 422.961 579.8C423.654 579.4 424.201 578.86 424.601 578.18C425.014 577.5 425.221 576.747 425.221 575.92C425.221 575.093 425.014 574.34 424.601 573.66C424.201 572.98 423.654 572.44 422.961 572.04C422.281 571.64 421.527 571.44 420.701 571.44C419.687 571.44 418.861 571.613 418.221 571.96C417.581 572.293 417.101 572.613 416.781 572.92L412.181 571.52L413.061 556.2H428.781V561.28H416.061L417.981 559.48L417.381 569.36L416.461 568.24C417.181 567.653 418.001 567.227 418.921 566.96C419.841 566.693 420.701 566.56 421.501 566.56C423.314 566.56 424.907 566.967 426.281 567.78C427.667 568.58 428.747 569.687 429.521 571.1C430.307 572.5 430.701 574.107 430.701 575.92C430.701 577.733 430.227 579.373 429.281 580.84C428.334 582.293 427.087 583.453 425.541 584.32C423.994 585.173 422.314 585.6 420.501 585.6ZM442.015 579.6V572.68H435.095V568.48H442.015V561.6H446.215V568.48H453.095V572.68H446.215V579.6H442.015Z" fill="white"/>
</g>
<g filter="url(#filter2_d_366_336)">
<rect x="74" y="399" width="138" height="65" rx="20" fill="#0FDB24" shape-rendering="crispEdges"/>
<path d="M104 446.96V442.24L116.08 431.52C116.987 430.72 117.627 429.967 118 429.26C118.373 428.553 118.56 427.893 118.56 427.28C118.56 426.4 118.38 425.62 118.02 424.94C117.66 424.247 117.153 423.707 116.5 423.32C115.847 422.92 115.08 422.72 114.2 422.72C113.28 422.72 112.467 422.933 111.76 423.36C111.067 423.773 110.527 424.327 110.14 425.02C109.753 425.7 109.573 426.44 109.6 427.24H104C104 425.267 104.433 423.56 105.3 422.12C106.167 420.68 107.373 419.567 108.92 418.78C110.467 417.993 112.267 417.6 114.32 417.6C116.2 417.6 117.88 418.013 119.36 418.84C120.853 419.653 122.027 420.793 122.88 422.26C123.733 423.727 124.16 425.427 124.16 427.36C124.16 428.787 123.96 429.973 123.56 430.92C123.16 431.853 122.567 432.72 121.78 433.52C120.993 434.307 120.027 435.2 118.88 436.2L111.08 443.04L110.64 441.84H124.16V446.96H104ZM128.941 447V418.2H133.821L143.341 437.32L152.861 418.2H157.741V447H152.661V429.8L144.301 447H142.381L134.021 429.8V447H128.941ZM169.875 441.6V434.68H162.955V430.48H169.875V423.6H174.075V430.48H180.955V434.68H174.075V441.6H169.875Z" fill="white"/>
</g>
<g filter="url(#filter3_d_366_336)">
<rect x="1170" y="466" width="132" height="65" rx="20" fill="#F6D622" shape-rendering="crispEdges"/>
<path d="M1205.8 514V491.12L1200.4 494.44V488.44L1205.8 485.2H1211.36V514H1205.8ZM1218.96 514V485.2H1223.84L1233.36 504.32L1242.88 485.2H1247.76V514H1242.68V496.8L1234.32 514H1232.4L1224.04 496.8V514H1218.96ZM1259.9 508.6V501.68H1252.98V497.48H1259.9V490.6H1264.1V497.48H1270.98V501.68H1264.1V508.6H1259.9Z" fill="white"/>
</g>
<g filter="url(#filter4_d_366_336)">
<rect x="789" y="371" width="184" height="65" rx="20" fill="url(#paint2_linear_366_336)" shape-rendering="crispEdges"/>
<path d="M828.36 419.6C826.907 419.6 825.54 419.3 824.26 418.7C822.993 418.1 821.9 417.267 820.98 416.2C820.06 415.133 819.4 413.893 819 412.48L824.24 411.08C824.413 411.76 824.72 412.347 825.16 412.84C825.613 413.333 826.133 413.72 826.72 414C827.32 414.267 827.933 414.4 828.56 414.4C829.387 414.4 830.14 414.2 830.82 413.8C831.513 413.4 832.06 412.86 832.46 412.18C832.873 411.5 833.08 410.747 833.08 409.92C833.08 409.093 832.873 408.34 832.46 407.66C832.06 406.98 831.513 406.44 830.82 406.04C830.14 405.64 829.387 405.44 828.56 405.44C827.547 405.44 826.72 405.613 826.08 405.96C825.44 406.293 824.96 406.613 824.64 406.92L820.04 405.52L820.92 390.2H836.64V395.28H823.92L825.84 393.48L825.24 403.36L824.32 402.24C825.04 401.653 825.86 401.227 826.78 400.96C827.7 400.693 828.56 400.56 829.36 400.56C831.173 400.56 832.767 400.967 834.14 401.78C835.527 402.58 836.607 403.687 837.38 405.1C838.167 406.5 838.56 408.107 838.56 409.92C838.56 411.733 838.087 413.373 837.14 414.84C836.193 416.293 834.947 417.453 833.4 418.32C831.853 419.173 830.173 419.6 828.36 419.6ZM854.035 419.6C851.901 419.6 850.035 419.153 848.435 418.26C846.835 417.367 845.588 416.12 844.695 414.52C843.801 412.92 843.355 411.053 843.355 408.92V400.28C843.355 398.147 843.801 396.28 844.695 394.68C845.588 393.08 846.835 391.833 848.435 390.94C850.035 390.047 851.901 389.6 854.035 389.6C856.168 389.6 858.035 390.047 859.635 390.94C861.235 391.833 862.481 393.08 863.375 394.68C864.268 396.28 864.715 398.147 864.715 400.28V408.92C864.715 411.053 864.268 412.92 863.375 414.52C862.481 416.12 861.235 417.367 859.635 418.26C858.035 419.153 856.168 419.6 854.035 419.6ZM854.035 414.44C854.995 414.44 855.861 414.213 856.635 413.76C857.408 413.307 858.021 412.693 858.475 411.92C858.928 411.147 859.155 410.28 859.155 409.32V399.84C859.155 398.88 858.928 398.013 858.475 397.24C858.021 396.467 857.408 395.853 856.635 395.4C855.861 394.947 854.995 394.72 854.035 394.72C853.075 394.72 852.208 394.947 851.435 395.4C850.661 395.853 850.048 396.467 849.595 397.24C849.141 398.013 848.915 398.88 848.915 399.84V409.32C848.915 410.28 849.141 411.147 849.595 411.92C850.048 412.693 850.661 413.307 851.435 413.76C852.208 414.213 853.075 414.44 854.035 414.44ZM880.988 419.6C878.854 419.6 876.988 419.153 875.388 418.26C873.788 417.367 872.541 416.12 871.648 414.52C870.754 412.92 870.308 411.053 870.308 408.92V400.28C870.308 398.147 870.754 396.28 871.648 394.68C872.541 393.08 873.788 391.833 875.388 390.94C876.988 390.047 878.854 389.6 880.988 389.6C883.121 389.6 884.988 390.047 886.588 390.94C888.188 391.833 889.434 393.08 890.328 394.68C891.221 396.28 891.668 398.147 891.668 400.28V408.92C891.668 411.053 891.221 412.92 890.328 414.52C889.434 416.12 888.188 417.367 886.588 418.26C884.988 419.153 883.121 419.6 880.988 419.6ZM880.988 414.44C881.948 414.44 882.814 414.213 883.588 413.76C884.361 413.307 884.974 412.693 885.428 411.92C885.881 411.147 886.108 410.28 886.108 409.32V399.84C886.108 398.88 885.881 398.013 885.428 397.24C884.974 396.467 884.361 395.853 883.588 395.4C882.814 394.947 881.948 394.72 880.988 394.72C880.028 394.72 879.161 394.947 878.388 395.4C877.614 395.853 877.001 396.467 876.548 397.24C876.094 398.013 875.868 398.88 875.868 399.84V409.32C875.868 410.28 876.094 411.147 876.548 411.92C877.001 412.693 877.614 413.307 878.388 413.76C879.161 414.213 880.028 414.44 880.988 414.44ZM907.941 419.6C905.808 419.6 903.941 419.153 902.341 418.26C900.741 417.367 899.494 416.12 898.601 414.52C897.708 412.92 897.261 411.053 897.261 408.92V400.28C897.261 398.147 897.708 396.28 898.601 394.68C899.494 393.08 900.741 391.833 902.341 390.94C903.941 390.047 905.808 389.6 907.941 389.6C910.074 389.6 911.941 390.047 913.541 390.94C915.141 391.833 916.388 393.08 917.281 394.68C918.174 396.28 918.621 398.147 918.621 400.28V408.92C918.621 411.053 918.174 412.92 917.281 414.52C916.388 416.12 915.141 417.367 913.541 418.26C911.941 419.153 910.074 419.6 907.941 419.6ZM907.941 414.44C908.901 414.44 909.768 414.213 910.541 413.76C911.314 413.307 911.928 412.693 912.381 411.92C912.834 411.147 913.061 410.28 913.061 409.32V399.84C913.061 398.88 912.834 398.013 912.381 397.24C911.928 396.467 911.314 395.853 910.541 395.4C909.768 394.947 908.901 394.72 907.941 394.72C906.981 394.72 906.114 394.947 905.341 395.4C904.568 395.853 903.954 396.467 903.501 397.24C903.048 398.013 902.821 398.88 902.821 399.84V409.32C902.821 410.28 903.048 411.147 903.501 411.92C903.954 412.693 904.568 413.307 905.341 413.76C906.114 414.213 906.981 414.44 907.941 414.44ZM930.734 413.6V406.68H923.814V402.48H930.734V395.6H934.934V402.48H941.814V406.68H934.934V413.6H930.734Z" fill="white"/>
</g>
<g filter="url(#filter5_d_366_336)">
<rect x="42" y="64" width="151" height="65" rx="20" fill="#2056D5" shape-rendering="crispEdges"/>
<path d="M77.8 112V89.12L72.4 92.44V86.44L77.8 83.2H83.36V112H77.8ZM101.644 112.6C99.5107 112.6 97.6441 112.153 96.0441 111.26C94.4441 110.367 93.1974 109.12 92.3041 107.52C91.4107 105.92 90.9641 104.053 90.9641 101.92V93.28C90.9641 91.1467 91.4107 89.28 92.3041 87.68C93.1974 86.08 94.4441 84.8333 96.0441 83.94C97.6441 83.0467 99.5107 82.6 101.644 82.6C103.777 82.6 105.644 83.0467 107.244 83.94C108.844 84.8333 110.091 86.08 110.984 87.68C111.877 89.28 112.324 91.1467 112.324 93.28V101.92C112.324 104.053 111.877 105.92 110.984 107.52C110.091 109.12 108.844 110.367 107.244 111.26C105.644 112.153 103.777 112.6 101.644 112.6ZM101.644 107.44C102.604 107.44 103.471 107.213 104.244 106.76C105.017 106.307 105.631 105.693 106.084 104.92C106.537 104.147 106.764 103.28 106.764 102.32V92.84C106.764 91.88 106.537 91.0133 106.084 90.24C105.631 89.4667 105.017 88.8533 104.244 88.4C103.471 87.9467 102.604 87.72 101.644 87.72C100.684 87.72 99.8174 87.9467 99.0441 88.4C98.2707 88.8533 97.6574 89.4667 97.2041 90.24C96.7507 91.0133 96.5241 91.88 96.5241 92.84V102.32C96.5241 103.28 96.7507 104.147 97.2041 104.92C97.6574 105.693 98.2707 106.307 99.0441 106.76C99.8174 107.213 100.684 107.44 101.644 107.44ZM117.917 112V83.2H123.357V96.48L134.317 83.2H140.957L128.917 97.4L141.717 112H134.837L123.357 98.88V112H117.917ZM151.039 106.6V99.68H144.119V95.48H151.039V88.6H155.239V95.48H162.119V99.68H155.239V106.6H151.039Z" fill="white"/>
</g>
<g filter="url(#filter6_d_366_336)">
<rect x="1207" y="64" width="139" height="73" rx="20" fill="#732D15" shape-rendering="crispEdges"/>
<path d="M1247.04 86.64C1248.95 86.64 1250.65 87.0867 1252.16 87.98C1253.68 88.8733 1254.88 90.12 1255.76 91.72C1256.64 93.3067 1257.08 95.1467 1257.08 97.24V105.6C1257.08 107.867 1256.64 109.827 1255.76 111.48C1254.88 113.12 1253.64 114.387 1252.04 115.28C1250.44 116.16 1248.56 116.6 1246.4 116.6C1245 116.6 1243.67 116.393 1242.4 115.98C1241.15 115.553 1239.99 114.853 1238.92 113.88L1242.8 110C1243.28 110.48 1243.83 110.853 1244.46 111.12C1245.1 111.387 1245.75 111.52 1246.4 111.52C1247.44 111.52 1248.34 111.28 1249.1 110.8C1249.87 110.307 1250.47 109.673 1250.88 108.9C1251.31 108.113 1251.52 107.28 1251.52 106.4V102.12L1252.44 103.12C1251.63 103.96 1250.67 104.607 1249.58 105.06C1248.49 105.5 1247.36 105.72 1246.2 105.72C1244.39 105.72 1242.79 105.313 1241.4 104.5C1240.03 103.687 1238.95 102.573 1238.16 101.16C1237.39 99.7467 1237 98.1333 1237 96.32C1237 94.5067 1237.46 92.8733 1238.38 91.42C1239.3 89.9533 1240.52 88.7933 1242.04 87.94C1243.56 87.0733 1245.23 86.64 1247.04 86.64ZM1247.04 91.84C1246.21 91.84 1245.45 92.04 1244.76 92.44C1244.08 92.84 1243.53 93.38 1243.12 94.06C1242.72 94.74 1242.52 95.4933 1242.52 96.32C1242.52 97.1467 1242.72 97.9067 1243.12 98.6C1243.52 99.28 1244.06 99.8267 1244.74 100.24C1245.42 100.64 1246.17 100.84 1247 100.84C1247.83 100.84 1248.58 100.64 1249.26 100.24C1249.95 99.8267 1250.5 99.28 1250.9 98.6C1251.31 97.9067 1251.52 97.1467 1251.52 96.32C1251.52 95.52 1251.32 94.78 1250.92 94.1C1250.52 93.42 1249.98 92.8733 1249.3 92.46C1248.62 92.0467 1247.87 91.84 1247.04 91.84ZM1262.68 116V87.2H1267.56L1277.08 106.32L1286.6 87.2H1291.48V116H1286.4V98.8L1278.04 116H1276.12L1267.76 98.8V116H1262.68ZM1303.62 110.6V103.68H1296.7V99.48H1303.62V92.6H1307.82V99.48H1314.7V103.68H1307.82V110.6H1303.62Z" fill="white"/>
</g>
<path d="M227.205 28.455C227.384 28.6338 227.504 28.8627 227.55 29.1113C227.596 29.3599 227.565 29.6166 227.463 29.8475L213.32 61.6675C213.221 61.89 213.06 62.0789 212.855 62.2108C212.65 62.3428 212.412 62.4121 212.168 62.4102C211.925 62.4083 211.687 62.3354 211.484 62.2004C211.282 62.0653 211.123 61.874 211.028 61.65L205.925 49.735L194.008 44.63C193.784 44.534 193.594 44.375 193.46 44.1726C193.325 43.9701 193.253 43.7329 193.251 43.4899C193.25 43.2469 193.319 43.0088 193.451 42.8046C193.582 42.6003 193.771 42.4389 193.993 42.34L225.813 28.1975C226.043 28.0951 226.299 28.0649 226.547 28.1109C226.796 28.1568 227.026 28.2768 227.205 28.455Z" fill="#2056D5"/>
<path d="M273.205 362.455C273.384 362.634 273.504 362.863 273.55 363.111C273.596 363.36 273.565 363.617 273.463 363.847L259.32 395.667C259.221 395.89 259.06 396.079 258.855 396.211C258.65 396.343 258.412 396.412 258.168 396.41C257.925 396.408 257.687 396.335 257.484 396.2C257.282 396.065 257.123 395.874 257.028 395.65L251.925 383.735L240.008 378.63C239.784 378.534 239.594 378.375 239.46 378.173C239.325 377.97 239.253 377.733 239.251 377.49C239.25 377.247 239.319 377.009 239.451 376.805C239.582 376.6 239.771 376.439 239.993 376.34L271.813 362.197C272.043 362.095 272.299 362.065 272.547 362.111C272.796 362.157 273.026 362.277 273.205 362.455Z" fill="#0FDB24"/>
<path d="M535.205 507.455C535.384 507.634 535.504 507.863 535.55 508.111C535.596 508.36 535.565 508.617 535.463 508.847L521.32 540.667C521.221 540.89 521.06 541.079 520.855 541.211C520.65 541.343 520.412 541.412 520.168 541.41C519.925 541.408 519.687 541.335 519.484 541.2C519.282 541.065 519.123 540.874 519.028 540.65L513.925 528.735L502.008 523.63C501.784 523.534 501.594 523.375 501.46 523.173C501.325 522.97 501.253 522.733 501.251 522.49C501.25 522.247 501.319 522.009 501.451 521.805C501.582 521.6 501.771 521.439 501.993 521.34L533.813 507.197C534.043 507.095 534.299 507.065 534.547 507.111C534.796 507.157 535.026 507.277 535.205 507.455Z" fill="#EE0D0D"/>
<path d="M753.795 336.455C753.616 336.634 753.496 336.863 753.45 337.111C753.404 337.36 753.435 337.617 753.537 337.847L767.68 369.667C767.779 369.89 767.94 370.079 768.145 370.211C768.35 370.343 768.588 370.412 768.832 370.41C769.075 370.408 769.313 370.335 769.516 370.2C769.718 370.065 769.877 369.874 769.972 369.65L775.075 357.735L786.992 352.63C787.216 352.534 787.406 352.375 787.54 352.173C787.675 351.97 787.747 351.733 787.749 351.49C787.75 351.247 787.681 351.009 787.549 350.805C787.418 350.6 787.229 350.439 787.007 350.34L755.187 336.197C754.957 336.095 754.701 336.065 754.453 336.111C754.204 336.157 753.974 336.277 753.795 336.455Z" fill="#DD22F6"/>
<path d="M1136.79 426.455C1136.62 426.634 1136.5 426.863 1136.45 427.111C1136.4 427.36 1136.43 427.617 1136.54 427.847L1150.68 459.667C1150.78 459.89 1150.94 460.079 1151.15 460.211C1151.35 460.343 1151.59 460.412 1151.83 460.41C1152.08 460.408 1152.31 460.335 1152.52 460.2C1152.72 460.065 1152.88 459.874 1152.97 459.65L1158.07 447.735L1169.99 442.63C1170.22 442.534 1170.41 442.375 1170.54 442.173C1170.67 441.97 1170.75 441.733 1170.75 441.49C1170.75 441.247 1170.68 441.009 1170.55 440.805C1170.42 440.6 1170.23 440.439 1170.01 440.34L1138.19 426.197C1137.96 426.095 1137.7 426.065 1137.45 426.111C1137.2 426.157 1136.97 426.277 1136.79 426.455Z" fill="#F6D622"/>
<path d="M1175.79 29.455C1175.62 29.6338 1175.5 29.8627 1175.45 30.1113C1175.4 30.3599 1175.43 30.6166 1175.54 30.8475L1189.68 62.6675C1189.78 62.89 1189.94 63.0789 1190.15 63.2108C1190.35 63.3428 1190.59 63.4121 1190.83 63.4102C1191.08 63.4083 1191.31 63.3354 1191.52 63.2004C1191.72 63.0653 1191.88 62.874 1191.97 62.65L1197.07 50.735L1208.99 45.63C1209.22 45.534 1209.41 45.375 1209.54 45.1726C1209.67 44.9701 1209.75 44.7329 1209.75 44.4899C1209.75 44.2469 1209.68 44.0088 1209.55 43.8046C1209.42 43.6003 1209.23 43.4389 1209.01 43.34L1177.19 29.1975C1176.96 29.0951 1176.7 29.0649 1176.45 29.1109C1176.2 29.1568 1175.97 29.2768 1175.79 29.455Z" fill="#732D15"/>
<defs>
<filter id="filter0_f_366_336" x="406.838" y="114.454" width="357.459" height="355.272" filterUnits="userSpaceOnUse" color-interpolation-filters="sRGB">
<feFlood flood-opacity="0" result="BackgroundImageFix"/>
<feBlend mode="normal" in="SourceGraphic" in2="BackgroundImageFix" result="shape"/>
<feGaussianBlur stdDeviation="42" result="effect1_foregroundBlur_366_336"/>
</filter>
<filter id="filter1_d_366_336" x="336" y="525" width="169" height="107" filterUnits="userSpaceOnUse" color-interpolation-filters="sRGB">
<feFlood flood-opacity="0" result="BackgroundImageFix"/>
<feColorMatrix in="SourceAlpha" type="matrix" values="0 0 0 0 0 0 0 0 0 0 0 0 0 0 0 0 0 0 127 0" result="hardAlpha"/>
<feOffset dy="9"/>
<feGaussianBlur stdDeviation="10.5"/>
<feComposite in2="hardAlpha" operator="out"/>
<feColorMatrix type="matrix" values="0 0 0 0 0 0 0 0 0 0 0 0 0 0 0 0 0 0 0.25 0"/>
<feBlend mode="normal" in2="BackgroundImageFix" result="effect1_dropShadow_366_336"/>
<feBlend mode="normal" in="SourceGraphic" in2="effect1_dropShadow_366_336" result="shape"/>
</filter>
<filter id="filter2_d_366_336" x="53" y="387" width="180" height="107" filterUnits="userSpaceOnUse" color-interpolation-filters="sRGB">
<feFlood flood-opacity="0" result="BackgroundImageFix"/>
<feColorMatrix in="SourceAlpha" type="matrix" values="0 0 0 0 0 0 0 0 0 0 0 0 0 0 0 0 0 0 127 0" result="hardAlpha"/>
<feOffset dy="9"/>
<feGaussianBlur stdDeviation="10.5"/>
<feComposite in2="hardAlpha" operator="out"/>
<feColorMatrix type="matrix" values="0 0 0 0 0 0 0 0 0 0 0 0 0 0 0 0 0 0 0.25 0"/>
<feBlend mode="normal" in2="BackgroundImageFix" result="effect1_dropShadow_366_336"/>
<feBlend mode="normal" in="SourceGraphic" in2="effect1_dropShadow_366_336" result="shape"/>
</filter>
<filter id="filter3_d_366_336" x="1149" y="454" width="174" height="107" filterUnits="userSpaceOnUse" color-interpolation-filters="sRGB">
<feFlood flood-opacity="0" result="BackgroundImageFix"/>
<feColorMatrix in="SourceAlpha" type="matrix" values="0 0 0 0 0 0 0 0 0 0 0 0 0 0 0 0 0 0 127 0" result="hardAlpha"/>
<feOffset dy="9"/>
<feGaussianBlur stdDeviation="10.5"/>
<feComposite in2="hardAlpha" operator="out"/>
<feColorMatrix type="matrix" values="0 0 0 0 0 0 0 0 0 0 0 0 0 0 0 0 0 0 0.25 0"/>
<feBlend mode="normal" in2="BackgroundImageFix" result="effect1_dropShadow_366_336"/>
<feBlend mode="normal" in="SourceGraphic" in2="effect1_dropShadow_366_336" result="shape"/>
</filter>
<filter id="filter4_d_366_336" x="768" y="359" width="226" height="107" filterUnits="userSpaceOnUse" color-interpolation-filters="sRGB">
<feFlood flood-opacity="0" result="BackgroundImageFix"/>
<feColorMatrix in="SourceAlpha" type="matrix" values="0 0 0 0 0 0 0 0 0 0 0 0 0 0 0 0 0 0 127 0" result="hardAlpha"/>
<feOffset dy="9"/>
<feGaussianBlur stdDeviation="10.5"/>
<feComposite in2="hardAlpha" operator="out"/>
<feColorMatrix type="matrix" values="0 0 0 0 0 0 0 0 0 0 0 0 0 0 0 0 0 0 0.25 0"/>
<feBlend mode="normal" in2="BackgroundImageFix" result="effect1_dropShadow_366_336"/>
<feBlend mode="normal" in="SourceGraphic" in2="effect1_dropShadow_366_336" result="shape"/>
</filter>
<filter id="filter5_d_366_336" x="21" y="52" width="193" height="107" filterUnits="userSpaceOnUse" color-interpolation-filters="sRGB">
<feFlood flood-opacity="0" result="BackgroundImageFix"/>
<feColorMatrix in="SourceAlpha" type="matrix" values="0 0 0 0 0 0 0 0 0 0 0 0 0 0 0 0 0 0 127 0" result="hardAlpha"/>
<feOffset dy="9"/>
<feGaussianBlur stdDeviation="10.5"/>
<feComposite in2="hardAlpha" operator="out"/>
<feColorMatrix type="matrix" values="0 0 0 0 0 0 0 0 0 0 0 0 0 0 0 0 0 0 0.25 0"/>
<feBlend mode="normal" in2="BackgroundImageFix" result="effect1_dropShadow_366_336"/>
<feBlend mode="normal" in="SourceGraphic" in2="effect1_dropShadow_366_336" result="shape"/>
</filter>
<filter id="filter6_d_366_336" x="1186" y="52" width="181" height="115" filterUnits="userSpaceOnUse" color-interpolation-filters="sRGB">
<feFlood flood-opacity="0" result="BackgroundImageFix"/>
<feColorMatrix in="SourceAlpha" type="matrix" values="0 0 0 0 0 0 0 0 0 0 0 0 0 0 0 0 0 0 127 0" result="hardAlpha"/>
<feOffset dy="9"/>
<feGaussianBlur stdDeviation="10.5"/>
<feComposite in2="hardAlpha" operator="out"/>
<feColorMatrix type="matrix" values="0 0 0 0 0 0 0 0 0 0 0 0 0 0 0 0 0 0 0.25 0"/>
<feBlend mode="normal" in2="BackgroundImageFix" result="effect1_dropShadow_366_336"/>
<feBlend mode="normal" in="SourceGraphic" in2="effect1_dropShadow_366_336" result="shape"/>
</filter>
<linearGradient id="paint0_linear_366_336" x1="383" y1="297.382" x2="1018.98" y2="297.382" gradientUnits="userSpaceOnUse">
<stop offset="0.43" stop-color="#008080"/>
<stop offset="1" stop-color="#001A1A"/>
</linearGradient>
<linearGradient id="paint1_linear_366_336" x1="357" y1="569.5" x2="484" y2="569.5" gradientUnits="userSpaceOnUse">
<stop stop-color="#EE0D0D"/>
<stop offset="1" stop-color="#880808"/>
</linearGradient>
<linearGradient id="paint2_linear_366_336" x1="789" y1="403.5" x2="973" y2="403.5" gradientUnits="userSpaceOnUse">
<stop stop-color="#DD22F6"/>
<stop offset="1" stop-color="#821490"/>
</linearGradient>
</defs>
</svg>
