<svg width="1367" height="632" viewBox="0 0 1367 632" fill="none" xmlns="http://www.w3.org/2000/svg">
<path d="M307.928 69V18.6H316.363V69H307.928ZM339.342 70.05C334.675 70.05 330.883 69 327.967 66.9C325.05 64.8 323.277 61.8483 322.647 58.045L331.257 56.715C331.7 58.5817 332.68 60.0517 334.197 61.125C335.713 62.1983 337.627 62.735 339.937 62.735C341.967 62.735 343.53 62.3383 344.627 61.545C345.747 60.7283 346.307 59.62 346.307 58.22C346.307 57.3567 346.097 56.6683 345.677 56.155C345.28 55.6183 344.393 55.105 343.017 54.615C341.64 54.125 339.528 53.5067 336.682 52.76C333.508 51.92 330.988 51.0217 329.122 50.065C327.255 49.085 325.913 47.93 325.097 46.6C324.28 45.27 323.872 43.66 323.872 41.77C323.872 39.4133 324.49 37.36 325.727 35.61C326.963 33.86 328.69 32.5183 330.907 31.585C333.123 30.6283 335.737 30.15 338.747 30.15C341.687 30.15 344.288 30.605 346.552 31.515C348.838 32.425 350.682 33.72 352.082 35.4C353.482 37.08 354.345 39.0517 354.672 41.315L346.062 42.855C345.852 41.245 345.117 39.9733 343.857 39.04C342.62 38.1067 340.963 37.5817 338.887 37.465C336.903 37.3483 335.305 37.6517 334.092 38.375C332.878 39.075 332.272 40.0667 332.272 41.35C332.272 42.0733 332.517 42.6917 333.007 43.205C333.497 43.7183 334.477 44.2317 335.947 44.745C337.44 45.2583 339.657 45.8883 342.597 46.635C345.607 47.405 348.01 48.2917 349.807 49.295C351.627 50.275 352.933 51.4533 353.727 52.83C354.543 54.2067 354.952 55.875 354.952 57.835C354.952 61.6383 353.563 64.625 350.787 66.795C348.033 68.965 344.218 70.05 339.342 70.05ZM377.401 85.8L384.681 65.815L384.821 71.695L368.336 31.2H377.121L388.811 61.16H386.571L397.946 31.2H406.381L385.311 85.8H377.401ZM424.829 70.05C421.049 70.05 417.748 69.1983 414.924 67.495C412.101 65.7917 409.908 63.4467 408.344 60.46C406.804 57.45 406.034 53.9967 406.034 50.1C406.034 46.1333 406.828 42.6567 408.414 39.67C410.001 36.6833 412.206 34.35 415.029 32.67C417.853 30.99 421.119 30.15 424.829 30.15C428.633 30.15 431.946 31.0017 434.769 32.705C437.593 34.4083 439.786 36.765 441.349 39.775C442.913 42.7617 443.694 46.2033 443.694 50.1C443.694 54.02 442.901 57.485 441.314 60.495C439.751 63.4817 437.558 65.8267 434.734 67.53C431.911 69.21 428.609 70.05 424.829 70.05ZM424.829 62.14C428.189 62.14 430.686 61.02 432.319 58.78C433.953 56.54 434.769 53.6467 434.769 50.1C434.769 46.4367 433.941 43.52 432.284 41.35C430.628 39.1567 428.143 38.06 424.829 38.06C422.566 38.06 420.699 38.5733 419.229 39.6C417.783 40.6033 416.709 42.015 416.009 43.835C415.309 45.6317 414.959 47.72 414.959 50.1C414.959 53.7633 415.788 56.6917 417.444 58.885C419.124 61.055 421.586 62.14 424.829 62.14ZM463.481 70.085C460.681 70.085 458.371 69.6183 456.551 68.685C454.731 67.7517 453.284 66.5617 452.211 65.115C451.137 63.6683 450.344 62.1283 449.831 60.495C449.317 58.8617 448.979 57.3217 448.816 55.875C448.676 54.405 448.606 53.215 448.606 52.305V31.2H457.146V49.4C457.146 50.5667 457.227 51.885 457.391 53.355C457.554 54.8017 457.927 56.2017 458.511 57.555C459.117 58.885 460.004 59.9817 461.171 60.845C462.361 61.7083 463.959 62.14 465.966 62.14C467.039 62.14 468.101 61.965 469.151 61.615C470.201 61.265 471.146 60.67 471.986 59.83C472.849 58.9667 473.537 57.7883 474.051 56.295C474.564 54.8017 474.821 52.9117 474.821 50.625L479.826 52.76C479.826 55.98 479.196 58.8967 477.936 61.51C476.699 64.1233 474.867 66.2117 472.441 67.775C470.014 69.315 467.027 70.085 463.481 70.085ZM475.836 69V57.275H474.821V31.2H483.291V69H475.836ZM491.024 69V31.2H498.479V40.405L497.569 39.215C498.036 37.955 498.654 36.8117 499.424 35.785C500.217 34.735 501.162 33.8717 502.259 33.195C503.192 32.565 504.219 32.075 505.339 31.725C506.482 31.3517 507.649 31.13 508.839 31.06C510.029 30.9667 511.184 31.0133 512.304 31.2V39.075C511.184 38.7483 509.889 38.6433 508.419 38.76C506.972 38.8767 505.666 39.285 504.499 39.985C503.332 40.615 502.376 41.42 501.629 42.4C500.906 43.38 500.369 44.5 500.019 45.76C499.669 46.9967 499.494 48.3383 499.494 49.785V69H491.024ZM536.847 69L525.297 31.13L533.557 31.2L540.942 55.455L548.432 31.2H555.537L562.992 55.455L570.412 31.2H578.672L567.122 69H560.542L551.967 42.995L543.427 69H536.847ZM598.706 70.05C594.879 70.05 591.519 69.2217 588.626 67.565C585.733 65.9083 583.469 63.61 581.836 60.67C580.226 57.73 579.421 54.3467 579.421 50.52C579.421 46.39 580.214 42.8083 581.801 39.775C583.388 36.7183 585.593 34.35 588.416 32.67C591.239 30.99 594.506 30.15 598.216 30.15C602.136 30.15 605.461 31.0717 608.191 32.915C610.944 34.735 612.986 37.3133 614.316 40.65C615.646 43.9867 616.148 47.9183 615.821 52.445H607.456V49.365C607.433 45.2583 606.709 42.26 605.286 40.37C603.863 38.48 601.623 37.535 598.566 37.535C595.113 37.535 592.546 38.6083 590.866 40.755C589.186 42.8783 588.346 45.9933 588.346 50.1C588.346 53.9267 589.186 56.89 590.866 58.99C592.546 61.09 594.996 62.14 598.216 62.14C600.293 62.14 602.078 61.685 603.571 60.775C605.088 59.8417 606.254 58.5 607.071 56.75L615.401 59.27C613.954 62.6767 611.714 65.325 608.681 67.215C605.671 69.105 602.346 70.05 598.706 70.05ZM585.686 52.445V46.075H611.691V52.445H585.686ZM639.695 70.05C636.009 70.05 632.917 69.175 630.42 67.425C627.924 65.675 626.045 63.295 624.785 60.285C623.525 57.2517 622.895 53.8567 622.895 50.1C622.895 46.2967 623.525 42.89 624.785 39.88C626.045 36.87 627.889 34.5017 630.315 32.775C632.765 31.025 635.787 30.15 639.38 30.15C642.95 30.15 646.042 31.025 648.655 32.775C651.292 34.5017 653.334 36.87 654.78 39.88C656.227 42.8667 656.95 46.2733 656.95 50.1C656.95 53.88 656.239 57.275 654.815 60.285C653.392 63.295 651.385 65.675 648.795 67.425C646.205 69.175 643.172 70.05 639.695 70.05ZM621.46 69V18.6H629.965V42.47H628.915V69H621.46ZM638.4 62.49C640.594 62.49 642.402 61.9417 643.825 60.845C645.249 59.7483 646.299 58.2667 646.975 56.4C647.675 54.51 648.025 52.41 648.025 50.1C648.025 47.8133 647.675 45.7367 646.975 43.87C646.275 41.98 645.19 40.4867 643.72 39.39C642.25 38.27 640.384 37.71 638.12 37.71C635.974 37.71 634.224 38.235 632.87 39.285C631.517 40.3117 630.514 41.7583 629.86 43.625C629.23 45.4683 628.915 47.6267 628.915 50.1C628.915 52.55 629.23 54.7083 629.86 56.575C630.514 58.4417 631.529 59.9 632.905 60.95C634.305 61.9767 636.137 62.49 638.4 62.49ZM676.271 70.05C671.605 70.05 667.813 69 664.896 66.9C661.98 64.8 660.206 61.8483 659.576 58.045L668.186 56.715C668.63 58.5817 669.61 60.0517 671.126 61.125C672.643 62.1983 674.556 62.735 676.866 62.735C678.896 62.735 680.46 62.3383 681.556 61.545C682.676 60.7283 683.236 59.62 683.236 58.22C683.236 57.3567 683.026 56.6683 682.606 56.155C682.21 55.6183 681.323 55.105 679.946 54.615C678.57 54.125 676.458 53.5067 673.611 52.76C670.438 51.92 667.918 51.0217 666.051 50.065C664.185 49.085 662.843 47.93 662.026 46.6C661.21 45.27 660.801 43.66 660.801 41.77C660.801 39.4133 661.42 37.36 662.656 35.61C663.893 33.86 665.62 32.5183 667.836 31.585C670.053 30.6283 672.666 30.15 675.676 30.15C678.616 30.15 681.218 30.605 683.481 31.515C685.768 32.425 687.611 33.72 689.011 35.4C690.411 37.08 691.275 39.0517 691.601 41.315L682.991 42.855C682.781 41.245 682.046 39.9733 680.786 39.04C679.55 38.1067 677.893 37.5817 675.816 37.465C673.833 37.3483 672.235 37.6517 671.021 38.375C669.808 39.075 669.201 40.0667 669.201 41.35C669.201 42.0733 669.446 42.6917 669.936 43.205C670.426 43.7183 671.406 44.2317 672.876 44.745C674.37 45.2583 676.586 45.8883 679.526 46.635C682.536 47.405 684.94 48.2917 686.736 49.295C688.556 50.275 689.863 51.4533 690.656 52.83C691.473 54.2067 691.881 55.875 691.881 57.835C691.881 61.6383 690.493 64.625 687.716 66.795C684.963 68.965 681.148 70.05 676.271 70.05ZM698.147 25.46V17.725H706.582V25.46H698.147ZM698.147 69V31.2H706.582V69H698.147ZM737.122 69C734.625 69.4667 732.175 69.665 729.772 69.595C727.392 69.5483 725.257 69.1167 723.367 68.3C721.477 67.46 720.042 66.1417 719.062 64.345C718.198 62.7117 717.743 61.0433 717.697 59.34C717.65 57.6367 717.627 55.7117 717.627 53.565V20.7H726.027V53.075C726.027 54.5917 726.038 55.9217 726.062 57.065C726.108 58.2083 726.353 59.1417 726.797 59.865C727.637 61.265 728.978 62.0467 730.822 62.21C732.665 62.3733 734.765 62.28 737.122 61.93V69ZM710.767 37.815V31.2H737.122V37.815H710.767ZM758.421 70.05C754.594 70.05 751.234 69.2217 748.341 67.565C745.447 65.9083 743.184 63.61 741.551 60.67C739.941 57.73 739.136 54.3467 739.136 50.52C739.136 46.39 739.929 42.8083 741.516 39.775C743.102 36.7183 745.307 34.35 748.131 32.67C750.954 30.99 754.221 30.15 757.931 30.15C761.851 30.15 765.176 31.0717 767.906 32.915C770.659 34.735 772.701 37.3133 774.031 40.65C775.361 43.9867 775.862 47.9183 775.536 52.445H767.171V49.365C767.147 45.2583 766.424 42.26 765.001 40.37C763.577 38.48 761.337 37.535 758.281 37.535C754.827 37.535 752.261 38.6083 750.581 40.755C748.901 42.8783 748.061 45.9933 748.061 50.1C748.061 53.9267 748.901 56.89 750.581 58.99C752.261 61.09 754.711 62.14 757.931 62.14C760.007 62.14 761.792 61.685 763.286 60.775C764.802 59.8417 765.969 58.5 766.786 56.75L775.116 59.27C773.669 62.6767 771.429 65.325 768.396 67.215C765.386 69.105 762.061 70.05 758.421 70.05ZM745.401 52.445V46.075H771.406V52.445H745.401ZM815.314 69C812.817 69.4667 810.367 69.665 807.964 69.595C805.584 69.5483 803.449 69.1167 801.559 68.3C799.669 67.46 798.234 66.1417 797.254 64.345C796.39 62.7117 795.935 61.0433 795.889 59.34C795.842 57.6367 795.819 55.7117 795.819 53.565V20.7H804.219V53.075C804.219 54.5917 804.23 55.9217 804.254 57.065C804.3 58.2083 804.545 59.1417 804.989 59.865C805.829 61.265 807.17 62.0467 809.014 62.21C810.857 62.3733 812.957 62.28 815.314 61.93V69ZM788.959 37.815V31.2H815.314V37.815H788.959ZM836.613 70.05C832.786 70.05 829.426 69.2217 826.533 67.565C823.64 65.9083 821.376 63.61 819.743 60.67C818.133 57.73 817.328 54.3467 817.328 50.52C817.328 46.39 818.121 42.8083 819.708 39.775C821.295 36.7183 823.5 34.35 826.323 32.67C829.146 30.99 832.413 30.15 836.123 30.15C840.043 30.15 843.368 31.0717 846.098 32.915C848.851 34.735 850.893 37.3133 852.223 40.65C853.553 43.9867 854.055 47.9183 853.728 52.445H845.363V49.365C845.34 45.2583 844.616 42.26 843.193 40.37C841.77 38.48 839.53 37.535 836.473 37.535C833.02 37.535 830.453 38.6083 828.773 40.755C827.093 42.8783 826.253 45.9933 826.253 50.1C826.253 53.9267 827.093 56.89 828.773 58.99C830.453 61.09 832.903 62.14 836.123 62.14C838.2 62.14 839.985 61.685 841.478 60.775C842.995 59.8417 844.161 58.5 844.978 56.75L853.308 59.27C851.861 62.6767 849.621 65.325 846.588 67.215C843.578 69.105 840.253 70.05 836.613 70.05ZM823.593 52.445V46.075H849.598V52.445H823.593ZM860.137 69V17.55H868.572V69H860.137ZM877.656 69V17.55H886.091V69H877.656ZM895.176 25.46V17.725H903.611V25.46H895.176ZM895.176 69V31.2H903.611V69H895.176ZM938.14 69V50.8C938.14 49.61 938.058 48.2917 937.895 46.845C937.731 45.3983 937.346 44.01 936.74 42.68C936.156 41.3267 935.27 40.2183 934.08 39.355C932.913 38.4917 931.326 38.06 929.32 38.06C928.246 38.06 927.185 38.235 926.135 38.585C925.085 38.935 924.128 39.5417 923.265 40.405C922.425 41.245 921.748 42.4117 921.235 43.905C920.721 45.375 920.465 47.265 920.465 49.575L915.46 47.44C915.46 44.22 916.078 41.3033 917.315 38.69C918.575 36.0767 920.418 34 922.845 32.46C925.271 30.8967 928.258 30.115 931.805 30.115C934.605 30.115 936.915 30.5817 938.735 31.515C940.555 32.4483 942.001 33.6383 943.075 35.085C944.148 36.5317 944.941 38.0717 945.455 39.705C945.968 41.3383 946.295 42.89 946.435 44.36C946.598 45.8067 946.68 46.985 946.68 47.895V69H938.14ZM911.925 69V31.2H919.45V42.925H920.465V69H911.925ZM969.603 86.85C967.503 86.85 965.485 86.5233 963.548 85.87C961.635 85.2167 959.908 84.2717 958.368 83.035C956.828 81.8217 955.568 80.3517 954.588 78.625L962.358 74.775C963.081 76.1517 964.096 77.1667 965.403 77.82C966.733 78.4967 968.145 78.835 969.638 78.835C971.388 78.835 972.951 78.52 974.328 77.89C975.705 77.2833 976.766 76.3733 977.513 75.16C978.283 73.97 978.645 72.4767 978.598 70.68V59.935H979.648V31.2H987.033V70.82C987.033 71.7767 986.986 72.6867 986.893 73.55C986.823 74.4367 986.695 75.3 986.508 76.14C985.948 78.59 984.875 80.5967 983.288 82.16C981.701 83.7467 979.73 84.925 977.373 85.695C975.04 86.465 972.45 86.85 969.603 86.85ZM968.868 70.05C965.391 70.05 962.358 69.175 959.768 67.425C957.178 65.675 955.171 63.295 953.748 60.285C952.325 57.275 951.613 53.88 951.613 50.1C951.613 46.2733 952.325 42.8667 953.748 39.88C955.195 36.87 957.236 34.5017 959.873 32.775C962.51 31.025 965.613 30.15 969.183 30.15C972.776 30.15 975.786 31.025 978.213 32.775C980.663 34.5017 982.518 36.87 983.778 39.88C985.038 42.89 985.668 46.2967 985.668 50.1C985.668 53.8567 985.038 57.2517 983.778 60.285C982.518 63.295 980.64 65.675 978.143 67.425C975.646 69.175 972.555 70.05 968.868 70.05ZM970.163 62.49C972.426 62.49 974.246 61.9767 975.623 60.95C977.023 59.9 978.038 58.4417 978.668 56.575C979.321 54.7083 979.648 52.55 979.648 50.1C979.648 47.6267 979.321 45.4683 978.668 43.625C978.038 41.7583 977.046 40.3117 975.693 39.285C974.34 38.235 972.59 37.71 970.443 37.71C968.18 37.71 966.313 38.27 964.843 39.39C963.373 40.4867 962.288 41.98 961.588 43.87C960.888 45.7367 960.538 47.8133 960.538 50.1C960.538 52.41 960.876 54.51 961.553 56.4C962.253 58.2667 963.315 59.7483 964.738 60.845C966.161 61.9417 967.97 62.49 970.163 62.49ZM1028.82 69C1026.32 69.4667 1023.87 69.665 1021.47 69.595C1019.09 69.5483 1016.95 69.1167 1015.06 68.3C1013.17 67.46 1011.74 66.1417 1010.76 64.345C1009.89 62.7117 1009.44 61.0433 1009.39 59.34C1009.34 57.6367 1009.32 55.7117 1009.32 53.565V20.7H1017.72V53.075C1017.72 54.5917 1017.73 55.9217 1017.76 57.065C1017.8 58.2083 1018.05 59.1417 1018.49 59.865C1019.33 61.265 1020.67 62.0467 1022.52 62.21C1024.36 62.3733 1026.46 62.28 1028.82 61.93V69ZM1002.46 37.815V31.2H1028.82V37.815H1002.46ZM1060.99 69V50.8C1060.99 49.61 1060.91 48.2917 1060.74 46.845C1060.58 45.3983 1060.2 44.01 1059.59 42.68C1059.01 41.3267 1058.12 40.2183 1056.93 39.355C1055.76 38.4917 1054.18 38.06 1052.17 38.06C1051.1 38.06 1050.03 38.235 1048.98 38.585C1047.93 38.935 1046.98 39.5417 1046.11 40.405C1045.27 41.245 1044.6 42.4117 1044.08 43.905C1043.57 45.375 1043.31 47.265 1043.31 49.575L1038.31 47.44C1038.31 44.22 1038.93 41.3033 1040.16 38.69C1041.42 36.0767 1043.27 34 1045.69 32.46C1048.12 30.8967 1051.11 30.115 1054.65 30.115C1057.45 30.115 1059.76 30.5817 1061.58 31.515C1063.4 32.4483 1064.85 33.6383 1065.92 35.085C1067 36.5317 1067.79 38.0717 1068.3 39.705C1068.82 41.3383 1069.14 42.89 1069.28 44.36C1069.45 45.8067 1069.53 46.985 1069.53 47.895V69H1060.99ZM1034.77 69V18.6H1042.3V45.13H1043.31V69H1034.77ZM1093.75 70.05C1089.92 70.05 1086.56 69.2217 1083.67 67.565C1080.77 65.9083 1078.51 63.61 1076.88 60.67C1075.27 57.73 1074.46 54.3467 1074.46 50.52C1074.46 46.39 1075.26 42.8083 1076.84 39.775C1078.43 36.7183 1080.63 34.35 1083.46 32.67C1086.28 30.99 1089.55 30.15 1093.26 30.15C1097.18 30.15 1100.5 31.0717 1103.23 32.915C1105.99 34.735 1108.03 37.3133 1109.36 40.65C1110.69 43.9867 1111.19 47.9183 1110.86 52.445H1102.5V49.365C1102.47 45.2583 1101.75 42.26 1100.33 40.37C1098.9 38.48 1096.66 37.535 1093.61 37.535C1090.15 37.535 1087.59 38.6083 1085.91 40.755C1084.23 42.8783 1083.39 45.9933 1083.39 50.1C1083.39 53.9267 1084.23 56.89 1085.91 58.99C1087.59 61.09 1090.04 62.14 1093.26 62.14C1095.33 62.14 1097.12 61.685 1098.61 60.775C1100.13 59.8417 1101.3 58.5 1102.11 56.75L1110.44 59.27C1109 62.6767 1106.76 65.325 1103.72 67.215C1100.71 69.105 1097.39 70.05 1093.75 70.05ZM1080.73 52.445V46.075H1106.73V52.445H1080.73ZM732.178 154.05C727.512 154.05 723.72 153 720.803 150.9C717.887 148.8 716.113 145.848 715.483 142.045L724.093 140.715C724.537 142.582 725.517 144.052 727.033 145.125C728.55 146.198 730.463 146.735 732.773 146.735C734.803 146.735 736.367 146.338 737.463 145.545C738.583 144.728 739.143 143.62 739.143 142.22C739.143 141.357 738.933 140.668 738.513 140.155C738.117 139.618 737.23 139.105 735.853 138.615C734.477 138.125 732.365 137.507 729.518 136.76C726.345 135.92 723.825 135.022 721.958 134.065C720.092 133.085 718.75 131.93 717.933 130.6C717.117 129.27 716.708 127.66 716.708 125.77C716.708 123.413 717.327 121.36 718.563 119.61C719.8 117.86 721.527 116.518 723.743 115.585C725.96 114.628 728.573 114.15 731.583 114.15C734.523 114.15 737.125 114.605 739.388 115.515C741.675 116.425 743.518 117.72 744.918 119.4C746.318 121.08 747.182 123.052 747.508 125.315L738.898 126.855C738.688 125.245 737.953 123.973 736.693 123.04C735.457 122.107 733.8 121.582 731.723 121.465C729.74 121.348 728.142 121.652 726.928 122.375C725.715 123.075 725.108 124.067 725.108 125.35C725.108 126.073 725.353 126.692 725.843 127.205C726.333 127.718 727.313 128.232 728.783 128.745C730.277 129.258 732.493 129.888 735.433 130.635C738.443 131.405 740.847 132.292 742.643 133.295C744.463 134.275 745.77 135.453 746.563 136.83C747.38 138.207 747.788 139.875 747.788 141.835C747.788 145.638 746.4 148.625 743.623 150.795C740.87 152.965 737.055 154.05 732.178 154.05ZM775.51 153C773.013 153.467 770.563 153.665 768.159 153.595C765.779 153.548 763.644 153.117 761.754 152.3C759.864 151.46 758.429 150.142 757.449 148.345C756.586 146.712 756.131 145.043 756.084 143.34C756.038 141.637 756.014 139.712 756.014 137.565V104.7H764.414V137.075C764.414 138.592 764.426 139.922 764.449 141.065C764.496 142.208 764.741 143.142 765.184 143.865C766.024 145.265 767.366 146.047 769.21 146.21C771.053 146.373 773.153 146.28 775.51 145.93V153ZM749.154 121.815V115.2H775.51V121.815H749.154ZM796.319 154.05C792.539 154.05 789.237 153.198 786.414 151.495C783.59 149.792 781.397 147.447 779.834 144.46C778.294 141.45 777.524 137.997 777.524 134.1C777.524 130.133 778.317 126.657 779.904 123.67C781.49 120.683 783.695 118.35 786.519 116.67C789.342 114.99 792.609 114.15 796.319 114.15C800.122 114.15 803.435 115.002 806.259 116.705C809.082 118.408 811.275 120.765 812.839 123.775C814.402 126.762 815.184 130.203 815.184 134.1C815.184 138.02 814.39 141.485 812.804 144.495C811.24 147.482 809.047 149.827 806.224 151.53C803.4 153.21 800.099 154.05 796.319 154.05ZM796.319 146.14C799.679 146.14 802.175 145.02 803.809 142.78C805.442 140.54 806.259 137.647 806.259 134.1C806.259 130.437 805.43 127.52 803.774 125.35C802.117 123.157 799.632 122.06 796.319 122.06C794.055 122.06 792.189 122.573 790.719 123.6C789.272 124.603 788.199 126.015 787.499 127.835C786.799 129.632 786.449 131.72 786.449 134.1C786.449 137.763 787.277 140.692 788.934 142.885C790.614 145.055 793.075 146.14 796.319 146.14ZM820.795 153V115.2H828.25V124.405L827.34 123.215C827.807 121.955 828.425 120.812 829.195 119.785C829.988 118.735 830.933 117.872 832.03 117.195C832.963 116.565 833.99 116.075 835.11 115.725C836.253 115.352 837.42 115.13 838.61 115.06C839.8 114.967 840.955 115.013 842.075 115.2V123.075C840.955 122.748 839.66 122.643 838.19 122.76C836.743 122.877 835.437 123.285 834.27 123.985C833.103 124.615 832.147 125.42 831.4 126.4C830.677 127.38 830.14 128.5 829.79 129.76C829.44 130.997 829.265 132.338 829.265 133.785V153H820.795ZM850.462 169.8L857.742 149.815L857.882 155.695L841.397 115.2H850.182L861.872 145.16H859.632L871.007 115.2H879.442L858.372 169.8H850.462ZM891.697 139.315C891.697 137.705 891.849 136.153 892.152 134.66C892.479 133.143 893.004 131.743 893.727 130.46C894.357 129.223 895.057 128.243 895.827 127.52C896.597 126.773 897.46 126.038 898.417 125.315C899.374 124.568 900.435 123.577 901.602 122.34C902.559 121.29 903.189 120.252 903.492 119.225C903.795 118.175 903.947 117.055 903.947 115.865C903.947 115.095 903.865 114.372 903.702 113.695C903.539 113.018 903.247 112.435 902.827 111.945C902.174 111.082 901.334 110.475 900.307 110.125C899.28 109.752 898.184 109.565 897.017 109.565C896.06 109.565 895.139 109.693 894.252 109.95C893.389 110.183 892.654 110.557 892.047 111.07C891.347 111.63 890.834 112.318 890.507 113.135C890.18 113.952 890.029 114.85 890.052 115.83H881.162C881.395 113.497 882.025 111.338 883.052 109.355C884.102 107.348 885.479 105.75 887.182 104.56C888.512 103.58 890.005 102.845 891.662 102.355C893.342 101.865 895.022 101.62 896.702 101.62C899.269 101.62 901.684 102.017 903.947 102.81C906.234 103.603 908.135 104.91 909.652 106.73C910.702 107.92 911.495 109.297 912.032 110.86C912.592 112.423 912.872 114.01 912.872 115.62C912.872 118.023 912.347 120.217 911.297 122.2C910.27 124.183 908.964 126.015 907.377 127.695C906.63 128.488 905.919 129.188 905.242 129.795C904.565 130.402 903.935 130.997 903.352 131.58C902.792 132.14 902.325 132.735 901.952 133.365C901.299 134.462 900.914 135.395 900.797 136.165C900.68 136.912 900.622 137.962 900.622 139.315H891.697ZM891.767 153V143.725H900.622V153H891.767Z" fill="black"/>
<path d="M502.547 153V102.6H523.827C524.317 102.6 524.97 102.623 525.787 102.67C526.627 102.693 527.373 102.763 528.027 102.88C531.037 103.347 533.498 104.338 535.412 105.855C537.348 107.372 538.772 109.285 539.682 111.595C540.592 113.882 541.047 116.437 541.047 119.26C541.047 123.483 539.997 127.1 537.897 130.11C535.797 133.097 532.507 134.94 528.027 135.64L523.827 135.92H512.067V153H502.547ZM530.967 153L521.027 132.49L530.827 130.6L541.747 153H530.967ZM512.067 127.03H523.407C523.897 127.03 524.433 127.007 525.017 126.96C525.6 126.913 526.137 126.82 526.627 126.68C527.91 126.33 528.902 125.747 529.602 124.93C530.302 124.09 530.78 123.168 531.037 122.165C531.317 121.138 531.457 120.17 531.457 119.26C531.457 118.35 531.317 117.393 531.037 116.39C530.78 115.363 530.302 114.442 529.602 113.625C528.902 112.785 527.91 112.19 526.627 111.84C526.137 111.7 525.6 111.607 525.017 111.56C524.433 111.513 523.897 111.49 523.407 111.49H512.067V127.03ZM548.041 153V102.6H557.561V153H548.041ZM586.954 154.05C583.781 154.05 580.759 153.49 577.889 152.37C575.019 151.227 572.476 149.547 570.259 147.33C568.066 145.113 566.327 142.372 565.044 139.105C563.784 135.838 563.154 132.07 563.154 127.8C563.154 122.223 564.216 117.487 566.339 113.59C568.486 109.67 571.356 106.683 574.949 104.63C578.566 102.577 582.567 101.55 586.954 101.55C593.441 101.55 598.539 103.055 602.249 106.065C605.959 109.075 608.444 113.333 609.704 118.84L599.974 120.24C599.064 117.3 597.571 114.955 595.494 113.205C593.441 111.432 590.804 110.533 587.584 110.51C584.387 110.463 581.727 111.152 579.604 112.575C577.481 113.998 575.882 116.017 574.809 118.63C573.759 121.243 573.234 124.3 573.234 127.8C573.234 131.3 573.759 134.333 574.809 136.9C575.882 139.467 577.481 141.462 579.604 142.885C581.727 144.308 584.387 145.043 587.584 145.09C589.754 145.137 591.714 144.763 593.464 143.97C595.237 143.177 596.731 141.928 597.944 140.225C599.157 138.522 600.021 136.34 600.534 133.68H592.554V126.33H610.684C610.731 126.633 610.766 127.17 610.789 127.94C610.812 128.71 610.824 129.153 610.824 129.27C610.824 134.1 609.844 138.382 607.884 142.115C605.924 145.848 603.159 148.777 599.589 150.9C596.019 153 591.807 154.05 586.954 154.05ZM615.739 153V102.6H625.259V123.32H647.799V102.6H657.319V153H647.799V132.21H625.259V153H615.739ZM676.735 153V111.49H660.845V102.6H702.145V111.49H686.255V153H676.735Z" fill="#008080"/>
<path d="M12.128 431.48C9.824 431.48 7.83467 430.979 6.16 429.976C4.496 428.973 3.21067 427.571 2.304 425.768C1.408 423.965 0.96 421.869 0.96 419.48C0.96 417.091 1.408 414.995 2.304 413.192C3.21067 411.389 4.496 409.987 6.16 408.984C7.83467 407.981 9.824 407.48 12.128 407.48C14.7733 407.48 16.992 408.136 18.784 409.448C20.5867 410.76 21.856 412.536 22.592 414.776L18.208 415.992C17.7813 414.595 17.0613 413.512 16.048 412.744C15.0347 411.965 13.728 411.576 12.128 411.576C10.6667 411.576 9.44533 411.901 8.464 412.552C7.49333 413.203 6.76267 414.12 6.272 415.304C5.78133 416.488 5.536 417.88 5.536 419.48C5.536 421.08 5.78133 422.472 6.272 423.656C6.76267 424.84 7.49333 425.757 8.464 426.408C9.44533 427.059 10.6667 427.384 12.128 427.384C13.728 427.384 15.0347 426.995 16.048 426.216C17.0613 425.437 17.7813 424.355 18.208 422.968L22.592 424.184C21.856 426.424 20.5867 428.2 18.784 429.512C16.992 430.824 14.7733 431.48 12.128 431.48ZM33.891 431.48C32.1523 431.48 30.627 431.091 29.315 430.312C28.003 429.533 26.979 428.461 26.243 427.096C25.5177 425.72 25.155 424.141 25.155 422.36C25.155 420.557 25.5283 418.973 26.275 417.608C27.0217 416.232 28.051 415.16 29.363 414.392C30.675 413.624 32.1843 413.24 33.891 413.24C35.6297 413.24 37.155 413.629 38.467 414.408C39.7897 415.187 40.819 416.264 41.555 417.64C42.291 419.005 42.659 420.579 42.659 422.36C42.659 424.152 42.2857 425.736 41.539 427.112C40.803 428.477 39.7737 429.549 38.451 430.328C37.139 431.096 35.619 431.48 33.891 431.48ZM33.891 427.416C35.2883 427.416 36.3283 426.947 37.011 426.008C37.7043 425.059 38.051 423.843 38.051 422.36C38.051 420.824 37.699 419.597 36.995 418.68C36.3017 417.763 35.267 417.304 33.891 417.304C32.9417 417.304 32.163 417.517 31.555 417.944C30.947 418.371 30.4937 418.963 30.195 419.72C29.907 420.477 29.763 421.357 29.763 422.36C29.763 423.907 30.1097 425.139 30.803 426.056C31.507 426.963 32.5363 427.416 33.891 427.416ZM57.9535 431V422.84C57.9535 422.445 57.9322 421.944 57.8895 421.336C57.8468 420.717 57.7135 420.099 57.4895 419.48C57.2655 418.861 56.8975 418.344 56.3855 417.928C55.8842 417.512 55.1695 417.304 54.2415 417.304C53.8682 417.304 53.4682 417.363 53.0415 417.48C52.6148 417.597 52.2148 417.827 51.8415 418.168C51.4682 418.499 51.1588 418.989 50.9135 419.64C50.6788 420.291 50.5615 421.155 50.5615 422.232L48.0655 421.048C48.0655 419.683 48.3428 418.403 48.8975 417.208C49.4522 416.013 50.2842 415.048 51.3935 414.312C52.5135 413.576 53.9215 413.208 55.6175 413.208C56.9722 413.208 58.0762 413.437 58.9295 413.896C59.7828 414.355 60.4442 414.936 60.9135 415.64C61.3935 416.344 61.7348 417.08 61.9375 417.848C62.1402 418.605 62.2628 419.299 62.3055 419.928C62.3482 420.557 62.3695 421.016 62.3695 421.304V431H57.9535ZM46.1455 431V413.72H50.0175V419.448H50.5615V431H46.1455ZM76.8893 431C75.6946 431.224 74.5213 431.32 73.3693 431.288C72.2279 431.267 71.2039 431.069 70.2973 430.696C69.4013 430.312 68.7186 429.699 68.2493 428.856C67.8226 428.067 67.5986 427.267 67.5773 426.456C67.5559 425.635 67.5453 424.707 67.5453 423.672V408.92H71.8973V423.416C71.8973 424.088 71.9026 424.696 71.9133 425.24C71.9346 425.773 72.0466 426.2 72.2493 426.52C72.6333 427.128 73.2466 427.459 74.0893 427.512C74.9319 427.565 75.8653 427.523 76.8893 427.384V431ZM64.6013 417.08V413.72H76.8893V417.08H64.6013ZM87.8345 431.48C86.0638 431.48 84.5012 431.101 83.1465 430.344C81.8025 429.576 80.7465 428.525 79.9785 427.192C79.2212 425.848 78.8425 424.312 78.8425 422.584C78.8425 420.696 79.2158 419.053 79.9625 417.656C80.7092 416.259 81.7385 415.176 83.0505 414.408C84.3625 413.629 85.8718 413.24 87.5785 413.24C89.3918 413.24 90.9332 413.667 92.2025 414.52C93.4718 415.373 94.4105 416.573 95.0185 418.12C95.6265 419.667 95.8398 421.485 95.6585 423.576H91.3545V421.976C91.3545 420.216 91.0718 418.952 90.5065 418.184C89.9518 417.405 89.0398 417.016 87.7705 417.016C86.2878 417.016 85.1945 417.469 84.4905 418.376C83.7972 419.272 83.4505 420.6 83.4505 422.36C83.4505 423.971 83.7972 425.219 84.4905 426.104C85.1945 426.979 86.2238 427.416 87.5785 427.416C88.4318 427.416 89.1625 427.229 89.7705 426.856C90.3785 426.483 90.8425 425.944 91.1625 425.24L95.5145 426.488C94.8638 428.067 93.8345 429.293 92.4265 430.168C91.0292 431.043 89.4985 431.48 87.8345 431.48ZM82.1065 423.576V420.344H93.5625V423.576H82.1065ZM110.579 431V422.84C110.579 422.445 110.557 421.944 110.515 421.336C110.472 420.717 110.339 420.099 110.115 419.48C109.891 418.861 109.523 418.344 109.011 417.928C108.509 417.512 107.795 417.304 106.867 417.304C106.493 417.304 106.093 417.363 105.667 417.48C105.24 417.597 104.84 417.827 104.467 418.168C104.093 418.499 103.784 418.989 103.539 419.64C103.304 420.291 103.187 421.155 103.187 422.232L100.691 421.048C100.691 419.683 100.968 418.403 101.523 417.208C102.077 416.013 102.909 415.048 104.019 414.312C105.139 413.576 106.547 413.208 108.243 413.208C109.597 413.208 110.701 413.437 111.555 413.896C112.408 414.355 113.069 414.936 113.539 415.64C114.019 416.344 114.36 417.08 114.562 417.848C114.765 418.605 114.888 419.299 114.931 419.928C114.973 420.557 114.995 421.016 114.995 421.304V431H110.579ZM98.7705 431V413.72H102.643V419.448H103.187V431H98.7705ZM129.514 431C128.32 431.224 127.146 431.32 125.994 431.288C124.853 431.267 123.829 431.069 122.922 430.696C122.026 430.312 121.344 429.699 120.874 428.856C120.448 428.067 120.224 427.267 120.202 426.456C120.181 425.635 120.17 424.707 120.17 423.672V408.92H124.522V423.416C124.522 424.088 124.528 424.696 124.538 425.24C124.56 425.773 124.672 426.2 124.874 426.52C125.258 427.128 125.872 427.459 126.714 427.512C127.557 427.565 128.49 427.523 129.514 427.384V431ZM117.226 417.08V413.72H129.514V417.08H117.226ZM144.603 431L137.851 407.96H142.427L146.747 423.8L151.067 407.992L155.643 407.96L159.963 423.8L164.283 407.96H168.859L162.107 431H157.819L153.355 415.448L148.891 431H144.603ZM171.428 431V413.72H175.268V417.944L174.852 417.4C175.076 416.803 175.374 416.259 175.748 415.768C176.121 415.277 176.58 414.872 177.124 414.552C177.54 414.296 177.993 414.099 178.484 413.96C178.974 413.811 179.481 413.72 180.004 413.688C180.526 413.645 181.049 413.656 181.572 413.72V417.784C181.092 417.635 180.532 417.587 179.892 417.64C179.262 417.683 178.692 417.827 178.18 418.072C177.668 418.307 177.236 418.621 176.884 419.016C176.532 419.4 176.265 419.859 176.084 420.392C175.902 420.915 175.812 421.507 175.812 422.168V431H171.428ZM184.935 411.32V407.48H189.287V411.32H184.935ZM184.935 431V413.72H189.287V431H184.935ZM204.452 431C203.257 431.224 202.084 431.32 200.932 431.288C199.79 431.267 198.766 431.069 197.86 430.696C196.964 430.312 196.281 429.699 195.812 428.856C195.385 428.067 195.161 427.267 195.14 426.456C195.118 425.635 195.108 424.707 195.108 423.672V408.92H199.46V423.416C199.46 424.088 199.465 424.696 199.476 425.24C199.497 425.773 199.609 426.2 199.812 426.52C200.196 427.128 200.809 427.459 201.652 427.512C202.494 427.565 203.428 427.523 204.452 427.384V431ZM192.164 417.08V413.72H204.452V417.08H192.164ZM208.623 411.32V407.48H212.975V411.32H208.623ZM208.623 431V413.72H212.975V431H208.623ZM229.547 431V422.84C229.547 422.445 229.526 421.944 229.483 421.336C229.441 420.717 229.307 420.099 229.083 419.48C228.859 418.861 228.491 418.344 227.979 417.928C227.478 417.512 226.763 417.304 225.835 417.304C225.462 417.304 225.062 417.363 224.635 417.48C224.209 417.597 223.809 417.827 223.435 418.168C223.062 418.499 222.753 418.989 222.507 419.64C222.273 420.291 222.155 421.155 222.155 422.232L219.659 421.048C219.659 419.683 219.937 418.403 220.491 417.208C221.046 416.013 221.878 415.048 222.987 414.312C224.107 413.576 225.515 413.208 227.211 413.208C228.566 413.208 229.67 413.437 230.523 413.896C231.377 414.355 232.038 414.936 232.507 415.64C232.987 416.344 233.329 417.08 233.531 417.848C233.734 418.605 233.857 419.299 233.899 419.928C233.942 420.557 233.963 421.016 233.963 421.304V431H229.547ZM217.739 431V413.72H221.611V419.448H222.155V431H217.739ZM245.507 439.16C244.526 439.16 243.592 439 242.707 438.68C241.822 438.371 241.027 437.933 240.323 437.368C239.63 436.813 239.064 436.163 238.627 435.416L242.659 433.464C242.936 433.976 243.331 434.365 243.843 434.632C244.366 434.899 244.931 435.032 245.539 435.032C246.19 435.032 246.803 434.92 247.379 434.696C247.955 434.483 248.414 434.157 248.755 433.72C249.107 433.293 249.272 432.76 249.251 432.12V427.096H249.795V413.72H253.603V432.184C253.603 432.611 253.582 433.011 253.539 433.384C253.507 433.768 253.443 434.147 253.347 434.52C253.07 435.576 252.552 436.445 251.795 437.128C251.048 437.811 250.131 438.317 249.043 438.648C247.955 438.989 246.776 439.16 245.507 439.16ZM245.123 431.48C243.534 431.48 242.142 431.08 240.947 430.28C239.752 429.48 238.819 428.392 238.147 427.016C237.486 425.64 237.155 424.088 237.155 422.36C237.155 420.6 237.491 419.037 238.163 417.672C238.846 416.296 239.8 415.213 241.027 414.424C242.254 413.635 243.694 413.24 245.347 413.24C246.99 413.24 248.371 413.64 249.491 414.44C250.611 415.24 251.459 416.328 252.035 417.704C252.611 419.08 252.899 420.632 252.899 422.36C252.899 424.088 252.606 425.64 252.019 427.016C251.443 428.392 250.579 429.48 249.427 430.28C248.275 431.08 246.84 431.48 245.123 431.48ZM245.827 427.608C246.798 427.608 247.571 427.389 248.147 426.952C248.734 426.515 249.155 425.901 249.411 425.112C249.667 424.323 249.795 423.405 249.795 422.36C249.795 421.315 249.667 420.397 249.411 419.608C249.155 418.819 248.744 418.205 248.179 417.768C247.624 417.331 246.894 417.112 245.987 417.112C245.016 417.112 244.216 417.352 243.587 417.832C242.968 418.301 242.51 418.936 242.211 419.736C241.912 420.525 241.763 421.4 241.763 422.36C241.763 423.331 241.907 424.216 242.195 425.016C242.483 425.805 242.926 426.435 243.523 426.904C244.12 427.373 244.888 427.608 245.827 427.608Z" fill="white"/>
<path d="M1102.99 309.077H289.402C258.08 309.077 232.422 288.317 232.422 262.924C232.422 237.554 258.052 216.771 289.402 216.771H1103.02C1134.34 216.771 1160 237.531 1160 262.924C1160 288.294 1134.37 309.077 1103.02 309.077H1102.99Z" stroke="#D9DBDB" stroke-width="5" stroke-miterlimit="10"/>
<path d="M1102.99 309.077H289.402C258.08 309.077 232.422 288.317 232.422 262.924C232.422 237.554 258.052 216.771 289.402 216.771H1103.02C1134.34 216.771 1160 237.531 1160 262.924C1160 288.294 1134.37 309.077 1103.02 309.077H1102.99Z" fill="url(#paint0_linear_345_1890)"/>
<path d="M1102.99 309.077H940.998V216.771H1102.99C1134.32 216.771 1159.97 237.531 1159.97 262.924C1159.97 288.294 1134.34 309.077 1102.99 309.077Z" fill="#1D262D"/>
<path d="M1049.55 262.243C1042.15 268.239 1030.09 268.239 1022.68 262.243C1015.28 256.246 1015.28 246.48 1022.68 240.484C1030.09 234.488 1042.15 234.488 1049.55 240.484C1056.95 246.48 1056.95 256.246 1049.55 262.243ZM1026.67 243.709C1021.45 247.934 1021.45 254.793 1026.67 259.017C1031.88 263.242 1040.35 263.242 1045.57 259.017C1050.78 254.793 1050.78 247.934 1045.57 243.709C1040.35 239.484 1031.88 239.484 1026.67 243.709Z" fill="#F9FBFC"/>
<path d="M1049.54 258.984L1045.56 262.212L1052.18 267.576L1056.17 264.348L1049.54 258.984Z" fill="#F9FBFC"/>
<path d="M1075.09 282.934C1073.44 284.274 1070.77 284.274 1069.12 282.934L1052.21 269.238C1050.56 267.898 1050.56 265.74 1052.21 264.4C1053.87 263.06 1056.53 263.06 1058.18 264.4L1075.09 278.096C1076.75 279.436 1076.75 281.594 1075.09 282.934Z" fill="#F9FBFC"/>
<path d="M487.667 221.289H338.354V304.087H487.667V221.289Z" stroke="#D9DBDB" stroke-width="5" stroke-miterlimit="10"/>
<path d="M487.667 221.289H338.354V304.087H487.667V221.289Z" fill="white"/>
<path d="M453.473 324.115L441.113 330.798L461.288 367.254L473.648 360.571L453.473 324.115Z" fill="#001A1A"/>
<path d="M462.607 340.66L455.028 326.957C453.106 328.249 451.095 329.467 449.009 330.597C446.922 331.728 444.799 332.734 442.662 333.641L450.24 347.343C452.364 346.399 454.488 345.393 456.562 344.262C458.648 343.132 460.646 341.914 462.594 340.66H462.607Z" fill="#1D262D"/>
<g opacity="0.5">
<path d="M413.614 333.858C453.552 332.072 484.452 298.622 482.631 259.144C480.81 219.666 446.958 189.11 407.019 190.896C367.081 192.681 336.181 226.132 338.002 265.609C339.823 305.087 373.676 335.643 413.614 333.858Z" fill="#DADADA"/>
</g>
<g style="mix-blend-mode:screen" opacity="0.5">
<path d="M352.502 256.918C351.698 257.353 350.743 257.539 349.762 257.39C347.4 257.03 345.779 254.843 346.143 252.508C346.847 247.973 348.041 243.489 349.7 239.203C350.554 236.992 353.055 235.874 355.292 236.718C357.529 237.563 358.66 240.035 357.806 242.246C356.373 245.986 355.33 249.874 354.714 253.812C354.5 255.179 353.646 256.297 352.502 256.918Z" fill="white"/>
</g>
<g style="mix-blend-mode:screen" opacity="0.5">
<path d="M385.063 320.137C383.844 320.796 382.323 320.87 380.991 320.187C369.291 314.224 359.765 305.031 353.431 293.602C350.239 287.826 347.951 281.639 346.644 275.229C346.167 272.906 347.687 270.657 350.038 270.185C352.388 269.713 354.675 271.216 355.14 273.539C356.271 279.105 358.257 284.471 361.034 289.49C366.526 299.416 374.795 307.391 384.95 312.572C387.074 313.652 387.916 316.236 386.822 318.348C386.408 319.143 385.779 319.752 385.05 320.15L385.063 320.137Z" fill="white"/>
</g>
<path d="M368.94 185.897C326.224 208.991 310.54 261.937 333.902 304.162C357.265 346.387 410.827 361.89 453.544 338.796C496.261 315.702 511.945 262.756 488.582 220.531C465.219 178.307 411.657 162.803 368.94 185.897ZM445.979 325.131C410.903 344.101 366.917 331.355 347.739 296.695C328.549 262.024 341.43 218.544 376.506 199.587C411.582 180.617 455.567 193.35 474.745 228.022C493.936 262.694 481.042 306.174 445.979 325.131Z" fill="#004543"/>
<path d="M478.394 357.996L456.52 369.825L516.278 477.809L538.153 465.98L478.394 357.996Z" fill="#008080"/>
<path d="M464.019 365.773L459.686 368.116L519.444 476.1L523.777 473.757L464.019 365.773Z" fill="#001A1A"/>
<path d="M478.398 358.015L471.209 361.902L530.967 469.886L538.156 465.999L478.398 358.015Z" fill="#008080"/>
<path d="M421.772 240.025C420.908 240.025 420.159 239.83 419.524 239.441C418.89 239.051 418.399 238.515 418.052 237.833C417.711 237.145 417.54 236.353 417.54 235.457C417.54 234.555 417.716 233.763 418.068 233.081C418.42 232.393 418.914 231.859 419.548 231.481C420.183 231.097 420.924 230.905 421.772 230.905C422.636 230.905 423.386 231.099 424.02 231.489C424.655 231.878 425.146 232.414 425.492 233.097C425.839 233.779 426.012 234.566 426.012 235.457C426.012 236.358 425.836 237.153 425.484 237.841C425.138 238.523 424.647 239.059 424.012 239.449C423.378 239.833 422.631 240.025 421.772 240.025ZM421.772 238.449C422.599 238.449 423.215 238.171 423.62 237.617C424.031 237.057 424.236 236.337 424.236 235.457C424.236 234.555 424.028 233.835 423.612 233.297C423.202 232.753 422.588 232.481 421.772 232.481C421.212 232.481 420.751 232.609 420.388 232.865C420.026 233.115 419.756 233.465 419.58 233.913C419.404 234.355 419.316 234.87 419.316 235.457C419.316 236.363 419.524 237.089 419.94 237.633C420.356 238.177 420.967 238.449 421.772 238.449ZM433.834 239.785V235.537C433.834 235.201 433.805 234.857 433.746 234.505C433.693 234.147 433.586 233.817 433.426 233.513C433.272 233.209 433.05 232.963 432.762 232.777C432.48 232.59 432.109 232.497 431.65 232.497C431.352 232.497 431.069 232.547 430.802 232.649C430.536 232.745 430.301 232.902 430.098 233.121C429.901 233.339 429.744 233.627 429.626 233.985C429.514 234.342 429.458 234.777 429.458 235.289L428.418 234.897C428.418 234.113 428.565 233.422 428.858 232.825C429.152 232.222 429.573 231.753 430.122 231.417C430.672 231.081 431.336 230.913 432.114 230.913C432.712 230.913 433.213 231.009 433.618 231.201C434.024 231.393 434.352 231.646 434.602 231.961C434.858 232.27 435.053 232.609 435.186 232.977C435.32 233.345 435.41 233.705 435.458 234.057C435.506 234.409 435.53 234.718 435.53 234.985V239.785H433.834ZM427.762 239.785V231.145H429.258V233.641H429.458V239.785H427.762ZM443.678 239.785V235.537C443.678 235.201 443.649 234.857 443.59 234.505C443.537 234.147 443.43 233.817 443.27 233.513C443.115 233.209 442.894 232.963 442.606 232.777C442.323 232.59 441.953 232.497 441.494 232.497C441.195 232.497 440.913 232.547 440.646 232.649C440.379 232.745 440.145 232.902 439.942 233.121C439.745 233.339 439.587 233.627 439.47 233.985C439.358 234.342 439.302 234.777 439.302 235.289L438.262 234.897C438.262 234.113 438.409 233.422 438.702 232.825C438.995 232.222 439.417 231.753 439.966 231.417C440.515 231.081 441.179 230.913 441.958 230.913C442.555 230.913 443.057 231.009 443.462 231.201C443.867 231.393 444.195 231.646 444.446 231.961C444.702 232.27 444.897 232.609 445.03 232.977C445.163 233.345 445.254 233.705 445.302 234.057C445.35 234.409 445.374 234.718 445.374 234.985V239.785H443.678ZM437.606 239.785V231.145H439.102V233.641H439.302V239.785H437.606ZM451.181 240.025C450.322 240.025 449.567 239.838 448.917 239.465C448.271 239.086 447.767 238.561 447.405 237.889C447.047 237.211 446.869 236.427 446.869 235.537C446.869 234.593 447.045 233.774 447.397 233.081C447.754 232.387 448.25 231.851 448.885 231.473C449.519 231.094 450.258 230.905 451.101 230.905C451.981 230.905 452.73 231.11 453.349 231.521C453.967 231.926 454.429 232.505 454.733 233.257C455.042 234.009 455.165 234.902 455.101 235.937H453.429V235.329C453.418 234.326 453.226 233.585 452.853 233.105C452.485 232.625 451.922 232.385 451.165 232.385C450.327 232.385 449.698 232.649 449.277 233.177C448.855 233.705 448.645 234.467 448.645 235.465C448.645 236.414 448.855 237.15 449.277 237.673C449.698 238.19 450.306 238.449 451.101 238.449C451.623 238.449 452.074 238.331 452.453 238.097C452.837 237.857 453.135 237.515 453.349 237.073L454.989 237.593C454.653 238.366 454.143 238.966 453.461 239.393C452.778 239.814 452.018 240.025 451.181 240.025ZM448.101 235.937V234.633H454.269V235.937H448.101ZM460.591 240.025C459.706 240.025 458.954 239.827 458.335 239.433C457.717 239.038 457.242 238.497 456.911 237.809C456.586 237.121 456.421 236.339 456.415 235.465C456.421 234.574 456.591 233.787 456.927 233.105C457.263 232.417 457.743 231.878 458.367 231.489C458.991 231.099 459.741 230.905 460.615 230.905C461.559 230.905 462.365 231.139 463.031 231.609C463.703 232.078 464.146 232.721 464.359 233.537L462.695 234.017C462.53 233.531 462.258 233.155 461.879 232.889C461.506 232.617 461.077 232.481 460.591 232.481C460.042 232.481 459.591 232.611 459.239 232.873C458.887 233.129 458.626 233.481 458.455 233.929C458.285 234.377 458.197 234.889 458.191 235.465C458.197 236.355 458.399 237.075 458.799 237.625C459.205 238.174 459.802 238.449 460.591 238.449C461.13 238.449 461.565 238.326 461.895 238.081C462.231 237.83 462.487 237.473 462.663 237.009L464.359 237.409C464.077 238.251 463.61 238.899 462.959 239.353C462.309 239.801 461.519 240.025 460.591 240.025ZM470.933 239.785C470.389 239.891 469.856 239.937 469.333 239.921C468.81 239.905 468.344 239.803 467.933 239.617C467.522 239.43 467.213 239.137 467.005 238.737C466.818 238.379 466.717 238.017 466.701 237.649C466.69 237.275 466.685 236.854 466.685 236.385V228.745H468.365V236.305C468.365 236.651 468.368 236.953 468.373 237.209C468.384 237.465 468.44 237.681 468.541 237.857C468.733 238.187 469.037 238.377 469.453 238.425C469.874 238.467 470.368 238.449 470.933 238.369V239.785ZM465.029 232.489V231.145H470.933V232.489H465.029Z" fill="#272525"/>
<path d="M418.02 270.537V261.897H419.508V263.993L419.3 263.721C419.407 263.443 419.546 263.19 419.716 262.961C419.887 262.726 420.084 262.534 420.308 262.385C420.527 262.225 420.77 262.102 421.036 262.017C421.308 261.926 421.586 261.873 421.868 261.857C422.151 261.835 422.423 261.849 422.684 261.897V263.465C422.402 263.39 422.087 263.369 421.74 263.401C421.399 263.433 421.084 263.542 420.796 263.729C420.524 263.905 420.308 264.118 420.148 264.369C419.994 264.619 419.882 264.899 419.812 265.209C419.743 265.513 419.708 265.835 419.708 266.177V270.537H418.02ZM427.884 270.777C427.025 270.777 426.27 270.59 425.62 270.217C424.974 269.838 424.47 269.313 424.108 268.641C423.75 267.963 423.572 267.179 423.572 266.289C423.572 265.345 423.748 264.526 424.1 263.833C424.457 263.139 424.953 262.603 425.588 262.225C426.222 261.846 426.961 261.657 427.804 261.657C428.684 261.657 429.433 261.862 430.052 262.273C430.67 262.678 431.132 263.257 431.436 264.009C431.745 264.761 431.868 265.654 431.804 266.689H430.132V266.081C430.121 265.078 429.929 264.337 429.556 263.857C429.188 263.377 428.625 263.137 427.868 263.137C427.03 263.137 426.401 263.401 425.98 263.929C425.558 264.457 425.348 265.219 425.348 266.217C425.348 267.166 425.558 267.902 425.98 268.425C426.401 268.942 427.009 269.201 427.804 269.201C428.326 269.201 428.777 269.083 429.156 268.849C429.54 268.609 429.838 268.267 430.052 267.825L431.692 268.345C431.356 269.118 430.846 269.718 430.164 270.145C429.481 270.566 428.721 270.777 427.884 270.777ZM424.804 266.689V265.385H430.972V266.689H424.804ZM435.882 270.777C435.242 270.777 434.706 270.659 434.274 270.425C433.842 270.185 433.514 269.87 433.29 269.481C433.072 269.086 432.962 268.654 432.962 268.185C432.962 267.747 433.04 267.363 433.194 267.033C433.349 266.702 433.578 266.422 433.882 266.193C434.186 265.958 434.56 265.769 435.002 265.625C435.386 265.513 435.821 265.414 436.306 265.329C436.792 265.243 437.301 265.163 437.834 265.089C438.373 265.014 438.906 264.939 439.434 264.865L438.826 265.201C438.837 264.523 438.693 264.022 438.394 263.697C438.101 263.366 437.594 263.201 436.874 263.201C436.421 263.201 436.005 263.307 435.626 263.521C435.248 263.729 434.984 264.075 434.834 264.561L433.274 264.081C433.488 263.339 433.893 262.75 434.49 262.313C435.093 261.875 435.893 261.657 436.89 261.657C437.664 261.657 438.336 261.79 438.906 262.057C439.482 262.318 439.904 262.734 440.17 263.305C440.309 263.587 440.394 263.886 440.426 264.201C440.458 264.515 440.474 264.854 440.474 265.217V270.537H438.994V268.561L439.282 268.817C438.925 269.478 438.469 269.971 437.914 270.297C437.365 270.617 436.688 270.777 435.882 270.777ZM436.178 269.409C436.653 269.409 437.061 269.326 437.402 269.161C437.744 268.99 438.018 268.774 438.226 268.513C438.434 268.251 438.57 267.979 438.634 267.697C438.725 267.441 438.776 267.153 438.786 266.833C438.802 266.513 438.81 266.257 438.81 266.065L439.354 266.265C438.826 266.345 438.346 266.417 437.914 266.481C437.482 266.545 437.09 266.609 436.738 266.673C436.392 266.731 436.082 266.803 435.81 266.889C435.581 266.969 435.376 267.065 435.194 267.177C435.018 267.289 434.877 267.425 434.77 267.585C434.669 267.745 434.618 267.939 434.618 268.169C434.618 268.393 434.674 268.601 434.786 268.793C434.898 268.979 435.069 269.129 435.298 269.241C435.528 269.353 435.821 269.409 436.178 269.409ZM447.496 270.537C446.952 270.643 446.418 270.689 445.896 270.673C445.373 270.657 444.906 270.555 444.496 270.369C444.085 270.182 443.776 269.889 443.568 269.489C443.381 269.131 443.28 268.769 443.264 268.401C443.253 268.027 443.248 267.606 443.248 267.137V259.497H444.928V267.057C444.928 267.403 444.93 267.705 444.936 267.961C444.946 268.217 445.002 268.433 445.104 268.609C445.296 268.939 445.6 269.129 446.016 269.177C446.437 269.219 446.93 269.201 447.496 269.121V270.537ZM441.592 263.241V261.897H447.496V263.241H441.592ZM452.743 270.777C451.884 270.777 451.13 270.59 450.479 270.217C449.834 269.838 449.33 269.313 448.967 268.641C448.61 267.963 448.431 267.179 448.431 266.289C448.431 265.345 448.607 264.526 448.959 263.833C449.316 263.139 449.812 262.603 450.447 262.225C451.082 261.846 451.82 261.657 452.663 261.657C453.543 261.657 454.292 261.862 454.911 262.273C455.53 262.678 455.991 263.257 456.295 264.009C456.604 264.761 456.727 265.654 456.663 266.689H454.991V266.081C454.98 265.078 454.788 264.337 454.415 263.857C454.047 263.377 453.484 263.137 452.727 263.137C451.89 263.137 451.26 263.401 450.839 263.929C450.418 264.457 450.207 265.219 450.207 266.217C450.207 267.166 450.418 267.902 450.839 268.425C451.26 268.942 451.868 269.201 452.663 269.201C453.186 269.201 453.636 269.083 454.015 268.849C454.399 268.609 454.698 268.267 454.911 267.825L456.551 268.345C456.215 269.118 455.706 269.718 455.023 270.145C454.34 270.566 453.58 270.777 452.743 270.777ZM449.663 266.689V265.385H455.831V266.689H449.663Z" fill="#272525"/>
<path d="M421.772 301.529C420.908 301.529 420.159 301.334 419.524 300.945C418.89 300.555 418.399 300.019 418.052 299.337C417.711 298.649 417.54 297.857 417.54 296.961C417.54 296.059 417.716 295.267 418.068 294.585C418.42 293.897 418.914 293.363 419.548 292.985C420.183 292.601 420.924 292.409 421.772 292.409C422.636 292.409 423.386 292.603 424.02 292.993C424.655 293.382 425.146 293.918 425.492 294.601C425.839 295.283 426.012 296.07 426.012 296.961C426.012 297.862 425.836 298.657 425.484 299.345C425.138 300.027 424.647 300.563 424.012 300.953C423.378 301.337 422.631 301.529 421.772 301.529ZM421.772 299.953C422.599 299.953 423.215 299.675 423.62 299.121C424.031 298.561 424.236 297.841 424.236 296.961C424.236 296.059 424.028 295.339 423.612 294.801C423.202 294.257 422.588 293.985 421.772 293.985C421.212 293.985 420.751 294.113 420.388 294.369C420.026 294.619 419.756 294.969 419.58 295.417C419.404 295.859 419.316 296.374 419.316 296.961C419.316 297.867 419.524 298.593 419.94 299.137C420.356 299.681 420.967 299.953 421.772 299.953ZM433.834 301.289V297.041C433.834 296.705 433.805 296.361 433.746 296.009C433.693 295.651 433.586 295.321 433.426 295.017C433.272 294.713 433.05 294.467 432.762 294.281C432.48 294.094 432.109 294.001 431.65 294.001C431.352 294.001 431.069 294.051 430.802 294.153C430.536 294.249 430.301 294.406 430.098 294.625C429.901 294.843 429.744 295.131 429.626 295.489C429.514 295.846 429.458 296.281 429.458 296.793L428.418 296.401C428.418 295.617 428.565 294.926 428.858 294.329C429.152 293.726 429.573 293.257 430.122 292.921C430.672 292.585 431.336 292.417 432.114 292.417C432.712 292.417 433.213 292.513 433.618 292.705C434.024 292.897 434.352 293.15 434.602 293.465C434.858 293.774 435.053 294.113 435.186 294.481C435.32 294.849 435.41 295.209 435.458 295.561C435.506 295.913 435.53 296.222 435.53 296.489V301.289H433.834ZM427.762 301.289V292.649H429.258V295.145H429.458V301.289H427.762ZM439.95 301.289L436.814 292.649H438.502L440.798 299.193L443.094 292.649H444.782L441.646 301.289H439.95ZM449.743 301.529C448.884 301.529 448.13 301.342 447.479 300.969C446.834 300.59 446.33 300.065 445.967 299.393C445.61 298.715 445.431 297.931 445.431 297.041C445.431 296.097 445.607 295.278 445.959 294.585C446.316 293.891 446.812 293.355 447.447 292.977C448.082 292.598 448.82 292.409 449.663 292.409C450.543 292.409 451.292 292.614 451.911 293.025C452.53 293.43 452.991 294.009 453.295 294.761C453.604 295.513 453.727 296.406 453.663 297.441H451.991V296.833C451.98 295.83 451.788 295.089 451.415 294.609C451.047 294.129 450.484 293.889 449.727 293.889C448.89 293.889 448.26 294.153 447.839 294.681C447.418 295.209 447.207 295.971 447.207 296.969C447.207 297.918 447.418 298.654 447.839 299.177C448.26 299.694 448.868 299.953 449.663 299.953C450.186 299.953 450.636 299.835 451.015 299.601C451.399 299.361 451.698 299.019 451.911 298.577L453.551 299.097C453.215 299.87 452.706 300.47 452.023 300.897C451.34 301.318 450.58 301.529 449.743 301.529ZM446.663 297.441V296.137H452.831V297.441H446.663ZM455.458 301.289V292.649H456.946V294.745L456.738 294.473C456.845 294.195 456.983 293.942 457.154 293.713C457.325 293.478 457.522 293.286 457.746 293.137C457.965 292.977 458.207 292.854 458.474 292.769C458.746 292.678 459.023 292.625 459.306 292.609C459.589 292.587 459.861 292.601 460.122 292.649V294.217C459.839 294.142 459.525 294.121 459.178 294.153C458.837 294.185 458.522 294.294 458.234 294.481C457.962 294.657 457.746 294.87 457.586 295.121C457.431 295.371 457.319 295.651 457.25 295.961C457.181 296.265 457.146 296.587 457.146 296.929V301.289H455.458ZM466.589 301.289C466.045 301.395 465.512 301.441 464.989 301.425C464.467 301.409 464 301.307 463.589 301.121C463.179 300.934 462.869 300.641 462.661 300.241C462.475 299.883 462.373 299.521 462.357 299.153C462.347 298.779 462.341 298.358 462.341 297.889V290.249H464.021V297.809C464.021 298.155 464.024 298.457 464.029 298.713C464.04 298.969 464.096 299.185 464.197 299.361C464.389 299.691 464.693 299.881 465.109 299.929C465.531 299.971 466.024 299.953 466.589 299.873V301.289ZM460.685 293.993V292.649H466.589V293.993H460.685Z" fill="#272525"/>
<path d="M378.942 307.024C372.462 307.024 366.867 305.614 362.157 302.794C357.477 299.974 353.862 296.029 351.312 290.959C348.792 285.889 347.532 279.994 347.532 273.274C347.532 266.554 348.792 260.659 351.312 255.589C353.862 250.519 357.477 246.574 362.157 243.754C366.867 240.934 372.462 239.524 378.942 239.524C386.382 239.524 392.622 241.369 397.662 245.059C402.732 248.749 406.302 253.744 408.372 260.044L396.042 263.464C394.842 259.534 392.817 256.489 389.967 254.329C387.117 252.139 383.442 251.044 378.942 251.044C374.832 251.044 371.397 251.959 368.637 253.789C365.907 255.619 363.852 258.199 362.472 261.529C361.092 264.859 360.402 268.774 360.402 273.274C360.402 277.774 361.092 281.689 362.472 285.019C363.852 288.349 365.907 290.929 368.637 292.759C371.397 294.589 374.832 295.504 378.942 295.504C383.442 295.504 387.117 294.409 389.967 292.219C392.817 290.029 394.842 286.984 396.042 283.084L408.372 286.504C406.302 292.804 402.732 297.799 397.662 301.489C392.622 305.179 386.382 307.024 378.942 307.024Z" fill="#272525"/>
<g filter="url(#filter0_d_345_1890)">
<rect x="357" y="537" width="127" height="65" rx="20" fill="url(#paint1_linear_345_1890)" shape-rendering="crispEdges"/>
<path d="M387 584.96V580.24L399.08 569.52C399.987 568.72 400.627 567.967 401 567.26C401.373 566.553 401.56 565.893 401.56 565.28C401.56 564.4 401.38 563.62 401.02 562.94C400.66 562.247 400.153 561.707 399.5 561.32C398.847 560.92 398.08 560.72 397.2 560.72C396.28 560.72 395.467 560.933 394.76 561.36C394.067 561.773 393.527 562.327 393.14 563.02C392.753 563.7 392.573 564.44 392.6 565.24H387C387 563.267 387.433 561.56 388.3 560.12C389.167 558.68 390.373 557.567 391.92 556.78C393.467 555.993 395.267 555.6 397.32 555.6C399.2 555.6 400.88 556.013 402.36 556.84C403.853 557.653 405.027 558.793 405.88 560.26C406.733 561.727 407.16 563.427 407.16 565.36C407.16 566.787 406.96 567.973 406.56 568.92C406.16 569.853 405.567 570.72 404.78 571.52C403.993 572.307 403.027 573.2 401.88 574.2L394.08 581.04L393.64 579.84H407.16V584.96H387ZM420.501 585.6C419.047 585.6 417.681 585.3 416.401 584.7C415.134 584.1 414.041 583.267 413.121 582.2C412.201 581.133 411.541 579.893 411.141 578.48L416.381 577.08C416.554 577.76 416.861 578.347 417.301 578.84C417.754 579.333 418.274 579.72 418.861 580C419.461 580.267 420.074 580.4 420.701 580.4C421.527 580.4 422.281 580.2 422.961 579.8C423.654 579.4 424.201 578.86 424.601 578.18C425.014 577.5 425.221 576.747 425.221 575.92C425.221 575.093 425.014 574.34 424.601 573.66C424.201 572.98 423.654 572.44 422.961 572.04C422.281 571.64 421.527 571.44 420.701 571.44C419.687 571.44 418.861 571.613 418.221 571.96C417.581 572.293 417.101 572.613 416.781 572.92L412.181 571.52L413.061 556.2H428.781V561.28H416.061L417.981 559.48L417.381 569.36L416.461 568.24C417.181 567.653 418.001 567.227 418.921 566.96C419.841 566.693 420.701 566.56 421.501 566.56C423.314 566.56 424.907 566.967 426.281 567.78C427.667 568.58 428.747 569.687 429.521 571.1C430.307 572.5 430.701 574.107 430.701 575.92C430.701 577.733 430.227 579.373 429.281 580.84C428.334 582.293 427.087 583.453 425.541 584.32C423.994 585.173 422.314 585.6 420.501 585.6ZM442.015 579.6V572.68H435.095V568.48H442.015V561.6H446.215V568.48H453.095V572.68H446.215V579.6H442.015Z" fill="white"/>
</g>
<g filter="url(#filter1_d_345_1890)">
<rect x="24" y="439" width="138" height="65" rx="20" fill="#0FDB24" shape-rendering="crispEdges"/>
<path d="M54 486.96V482.24L66.08 471.52C66.9867 470.72 67.6267 469.967 68 469.26C68.3733 468.553 68.56 467.893 68.56 467.28C68.56 466.4 68.38 465.62 68.02 464.94C67.66 464.247 67.1533 463.707 66.5 463.32C65.8467 462.92 65.08 462.72 64.2 462.72C63.28 462.72 62.4667 462.933 61.76 463.36C61.0667 463.773 60.5267 464.327 60.14 465.02C59.7533 465.7 59.5733 466.44 59.6 467.24H54C54 465.267 54.4333 463.56 55.3 462.12C56.1667 460.68 57.3733 459.567 58.92 458.78C60.4667 457.993 62.2667 457.6 64.32 457.6C66.2 457.6 67.88 458.013 69.36 458.84C70.8533 459.653 72.0267 460.793 72.88 462.26C73.7333 463.727 74.16 465.427 74.16 467.36C74.16 468.787 73.96 469.973 73.56 470.92C73.16 471.853 72.5667 472.72 71.78 473.52C70.9933 474.307 70.0267 475.2 68.88 476.2L61.08 483.04L60.64 481.84H74.16V486.96H54ZM78.9406 487V458.2H83.8206L93.3406 477.32L102.861 458.2H107.741V487H102.661V469.8L94.3006 487H92.3806L84.0206 469.8V487H78.9406ZM119.875 481.6V474.68H112.955V470.48H119.875V463.6H124.075V470.48H130.955V474.68H124.075V481.6H119.875Z" fill="white"/>
</g>
<g filter="url(#filter2_d_345_1890)">
<rect x="1170" y="466" width="132" height="65" rx="20" fill="#F6D622" shape-rendering="crispEdges"/>
<path d="M1205.8 514V491.12L1200.4 494.44V488.44L1205.8 485.2H1211.36V514H1205.8ZM1218.96 514V485.2H1223.84L1233.36 504.32L1242.88 485.2H1247.76V514H1242.68V496.8L1234.32 514H1232.4L1224.04 496.8V514H1218.96ZM1259.9 508.6V501.68H1252.98V497.48H1259.9V490.6H1264.1V497.48H1270.98V501.68H1264.1V508.6H1259.9Z" fill="white"/>
</g>
<g filter="url(#filter3_d_345_1890)">
<rect x="789" y="371" width="184" height="65" rx="20" fill="url(#paint2_linear_345_1890)" shape-rendering="crispEdges"/>
<path d="M828.36 419.6C826.907 419.6 825.54 419.3 824.26 418.7C822.993 418.1 821.9 417.267 820.98 416.2C820.06 415.133 819.4 413.893 819 412.48L824.24 411.08C824.413 411.76 824.72 412.347 825.16 412.84C825.613 413.333 826.133 413.72 826.72 414C827.32 414.267 827.933 414.4 828.56 414.4C829.387 414.4 830.14 414.2 830.82 413.8C831.513 413.4 832.06 412.86 832.46 412.18C832.873 411.5 833.08 410.747 833.08 409.92C833.08 409.093 832.873 408.34 832.46 407.66C832.06 406.98 831.513 406.44 830.82 406.04C830.14 405.64 829.387 405.44 828.56 405.44C827.547 405.44 826.72 405.613 826.08 405.96C825.44 406.293 824.96 406.613 824.64 406.92L820.04 405.52L820.92 390.2H836.64V395.28H823.92L825.84 393.48L825.24 403.36L824.32 402.24C825.04 401.653 825.86 401.227 826.78 400.96C827.7 400.693 828.56 400.56 829.36 400.56C831.173 400.56 832.767 400.967 834.14 401.78C835.527 402.58 836.607 403.687 837.38 405.1C838.167 406.5 838.56 408.107 838.56 409.92C838.56 411.733 838.087 413.373 837.14 414.84C836.193 416.293 834.947 417.453 833.4 418.32C831.853 419.173 830.173 419.6 828.36 419.6ZM854.035 419.6C851.901 419.6 850.035 419.153 848.435 418.26C846.835 417.367 845.588 416.12 844.695 414.52C843.801 412.92 843.355 411.053 843.355 408.92V400.28C843.355 398.147 843.801 396.28 844.695 394.68C845.588 393.08 846.835 391.833 848.435 390.94C850.035 390.047 851.901 389.6 854.035 389.6C856.168 389.6 858.035 390.047 859.635 390.94C861.235 391.833 862.481 393.08 863.375 394.68C864.268 396.28 864.715 398.147 864.715 400.28V408.92C864.715 411.053 864.268 412.92 863.375 414.52C862.481 416.12 861.235 417.367 859.635 418.26C858.035 419.153 856.168 419.6 854.035 419.6ZM854.035 414.44C854.995 414.44 855.861 414.213 856.635 413.76C857.408 413.307 858.021 412.693 858.475 411.92C858.928 411.147 859.155 410.28 859.155 409.32V399.84C859.155 398.88 858.928 398.013 858.475 397.24C858.021 396.467 857.408 395.853 856.635 395.4C855.861 394.947 854.995 394.72 854.035 394.72C853.075 394.72 852.208 394.947 851.435 395.4C850.661 395.853 850.048 396.467 849.595 397.24C849.141 398.013 848.915 398.88 848.915 399.84V409.32C848.915 410.28 849.141 411.147 849.595 411.92C850.048 412.693 850.661 413.307 851.435 413.76C852.208 414.213 853.075 414.44 854.035 414.44ZM880.988 419.6C878.854 419.6 876.988 419.153 875.388 418.26C873.788 417.367 872.541 416.12 871.648 414.52C870.754 412.92 870.308 411.053 870.308 408.92V400.28C870.308 398.147 870.754 396.28 871.648 394.68C872.541 393.08 873.788 391.833 875.388 390.94C876.988 390.047 878.854 389.6 880.988 389.6C883.121 389.6 884.988 390.047 886.588 390.94C888.188 391.833 889.434 393.08 890.328 394.68C891.221 396.28 891.668 398.147 891.668 400.28V408.92C891.668 411.053 891.221 412.92 890.328 414.52C889.434 416.12 888.188 417.367 886.588 418.26C884.988 419.153 883.121 419.6 880.988 419.6ZM880.988 414.44C881.948 414.44 882.814 414.213 883.588 413.76C884.361 413.307 884.974 412.693 885.428 411.92C885.881 411.147 886.108 410.28 886.108 409.32V399.84C886.108 398.88 885.881 398.013 885.428 397.24C884.974 396.467 884.361 395.853 883.588 395.4C882.814 394.947 881.948 394.72 880.988 394.72C880.028 394.72 879.161 394.947 878.388 395.4C877.614 395.853 877.001 396.467 876.548 397.24C876.094 398.013 875.868 398.88 875.868 399.84V409.32C875.868 410.28 876.094 411.147 876.548 411.92C877.001 412.693 877.614 413.307 878.388 413.76C879.161 414.213 880.028 414.44 880.988 414.44ZM907.941 419.6C905.808 419.6 903.941 419.153 902.341 418.26C900.741 417.367 899.494 416.12 898.601 414.52C897.708 412.92 897.261 411.053 897.261 408.92V400.28C897.261 398.147 897.708 396.28 898.601 394.68C899.494 393.08 900.741 391.833 902.341 390.94C903.941 390.047 905.808 389.6 907.941 389.6C910.074 389.6 911.941 390.047 913.541 390.94C915.141 391.833 916.388 393.08 917.281 394.68C918.174 396.28 918.621 398.147 918.621 400.28V408.92C918.621 411.053 918.174 412.92 917.281 414.52C916.388 416.12 915.141 417.367 913.541 418.26C911.941 419.153 910.074 419.6 907.941 419.6ZM907.941 414.44C908.901 414.44 909.768 414.213 910.541 413.76C911.314 413.307 911.928 412.693 912.381 411.92C912.834 411.147 913.061 410.28 913.061 409.32V399.84C913.061 398.88 912.834 398.013 912.381 397.24C911.928 396.467 911.314 395.853 910.541 395.4C909.768 394.947 908.901 394.72 907.941 394.72C906.981 394.72 906.114 394.947 905.341 395.4C904.568 395.853 903.954 396.467 903.501 397.24C903.048 398.013 902.821 398.88 902.821 399.84V409.32C902.821 410.28 903.048 411.147 903.501 411.92C903.954 412.693 904.568 413.307 905.341 413.76C906.114 414.213 906.981 414.44 907.941 414.44ZM930.734 413.6V406.68H923.814V402.48H930.734V395.6H934.934V402.48H941.814V406.68H934.934V413.6H930.734Z" fill="white"/>
</g>
<g filter="url(#filter4_d_345_1890)">
<rect x="42" y="64" width="151" height="65" rx="20" fill="#2056D5" shape-rendering="crispEdges"/>
<path d="M77.8 112V89.12L72.4 92.44V86.44L77.8 83.2H83.36V112H77.8ZM101.644 112.6C99.5107 112.6 97.6441 112.153 96.0441 111.26C94.4441 110.367 93.1974 109.12 92.3041 107.52C91.4107 105.92 90.9641 104.053 90.9641 101.92V93.28C90.9641 91.1467 91.4107 89.28 92.3041 87.68C93.1974 86.08 94.4441 84.8333 96.0441 83.94C97.6441 83.0467 99.5107 82.6 101.644 82.6C103.777 82.6 105.644 83.0467 107.244 83.94C108.844 84.8333 110.091 86.08 110.984 87.68C111.877 89.28 112.324 91.1467 112.324 93.28V101.92C112.324 104.053 111.877 105.92 110.984 107.52C110.091 109.12 108.844 110.367 107.244 111.26C105.644 112.153 103.777 112.6 101.644 112.6ZM101.644 107.44C102.604 107.44 103.471 107.213 104.244 106.76C105.017 106.307 105.631 105.693 106.084 104.92C106.537 104.147 106.764 103.28 106.764 102.32V92.84C106.764 91.88 106.537 91.0133 106.084 90.24C105.631 89.4667 105.017 88.8533 104.244 88.4C103.471 87.9467 102.604 87.72 101.644 87.72C100.684 87.72 99.8174 87.9467 99.0441 88.4C98.2707 88.8533 97.6574 89.4667 97.2041 90.24C96.7507 91.0133 96.5241 91.88 96.5241 92.84V102.32C96.5241 103.28 96.7507 104.147 97.2041 104.92C97.6574 105.693 98.2707 106.307 99.0441 106.76C99.8174 107.213 100.684 107.44 101.644 107.44ZM117.917 112V83.2H123.357V96.48L134.317 83.2H140.957L128.917 97.4L141.717 112H134.837L123.357 98.88V112H117.917ZM151.039 106.6V99.68H144.119V95.48H151.039V88.6H155.239V95.48H162.119V99.68H155.239V106.6H151.039Z" fill="white"/>
</g>
<g filter="url(#filter5_d_345_1890)">
<rect x="1207" y="64" width="139" height="73" rx="20" fill="#732D15" shape-rendering="crispEdges"/>
<path d="M1247.04 86.64C1248.95 86.64 1250.65 87.0867 1252.16 87.98C1253.68 88.8733 1254.88 90.12 1255.76 91.72C1256.64 93.3067 1257.08 95.1467 1257.08 97.24V105.6C1257.08 107.867 1256.64 109.827 1255.76 111.48C1254.88 113.12 1253.64 114.387 1252.04 115.28C1250.44 116.16 1248.56 116.6 1246.4 116.6C1245 116.6 1243.67 116.393 1242.4 115.98C1241.15 115.553 1239.99 114.853 1238.92 113.88L1242.8 110C1243.28 110.48 1243.83 110.853 1244.46 111.12C1245.1 111.387 1245.75 111.52 1246.4 111.52C1247.44 111.52 1248.34 111.28 1249.1 110.8C1249.87 110.307 1250.47 109.673 1250.88 108.9C1251.31 108.113 1251.52 107.28 1251.52 106.4V102.12L1252.44 103.12C1251.63 103.96 1250.67 104.607 1249.58 105.06C1248.49 105.5 1247.36 105.72 1246.2 105.72C1244.39 105.72 1242.79 105.313 1241.4 104.5C1240.03 103.687 1238.95 102.573 1238.16 101.16C1237.39 99.7467 1237 98.1333 1237 96.32C1237 94.5067 1237.46 92.8733 1238.38 91.42C1239.3 89.9533 1240.52 88.7933 1242.04 87.94C1243.56 87.0733 1245.23 86.64 1247.04 86.64ZM1247.04 91.84C1246.21 91.84 1245.45 92.04 1244.76 92.44C1244.08 92.84 1243.53 93.38 1243.12 94.06C1242.72 94.74 1242.52 95.4933 1242.52 96.32C1242.52 97.1467 1242.72 97.9067 1243.12 98.6C1243.52 99.28 1244.06 99.8267 1244.74 100.24C1245.42 100.64 1246.17 100.84 1247 100.84C1247.83 100.84 1248.58 100.64 1249.26 100.24C1249.95 99.8267 1250.5 99.28 1250.9 98.6C1251.31 97.9067 1251.52 97.1467 1251.52 96.32C1251.52 95.52 1251.32 94.78 1250.92 94.1C1250.52 93.42 1249.98 92.8733 1249.3 92.46C1248.62 92.0467 1247.87 91.84 1247.04 91.84ZM1262.68 116V87.2H1267.56L1277.08 106.32L1286.6 87.2H1291.48V116H1286.4V98.8L1278.04 116H1276.12L1267.76 98.8V116H1262.68ZM1303.62 110.6V103.68H1296.7V99.48H1303.62V92.6H1307.82V99.48H1314.7V103.68H1307.82V110.6H1303.62Z" fill="white"/>
</g>
<path d="M227.206 28.455C227.384 28.6338 227.505 28.8627 227.551 29.1113C227.596 29.3599 227.566 29.6166 227.463 29.8475L213.321 61.6675C213.222 61.89 213.06 62.0789 212.855 62.2108C212.651 62.3428 212.412 62.4121 212.169 62.4102C211.925 62.4083 211.687 62.3354 211.485 62.2004C211.282 62.0653 211.123 61.874 211.028 61.65L205.926 49.735L194.008 44.63C193.785 44.534 193.594 44.375 193.46 44.1726C193.326 43.9701 193.254 43.7329 193.252 43.4899C193.25 43.2469 193.32 43.0088 193.451 42.8046C193.583 42.6003 193.771 42.4389 193.993 42.34L225.813 28.1975C226.044 28.0951 226.3 28.0649 226.548 28.1109C226.796 28.1568 227.027 28.2768 227.206 28.455Z" fill="#2056D5"/>
<path d="M223.206 402.455C223.384 402.634 223.505 402.863 223.551 403.111C223.596 403.36 223.566 403.617 223.463 403.847L209.321 435.667C209.222 435.89 209.06 436.079 208.855 436.211C208.651 436.343 208.412 436.412 208.169 436.41C207.925 436.408 207.687 436.335 207.485 436.2C207.282 436.065 207.123 435.874 207.028 435.65L201.926 423.735L190.008 418.63C189.785 418.534 189.594 418.375 189.46 418.173C189.326 417.97 189.254 417.733 189.252 417.49C189.25 417.247 189.32 417.009 189.451 416.805C189.583 416.6 189.771 416.439 189.993 416.34L221.813 402.197C222.044 402.095 222.3 402.065 222.548 402.111C222.796 402.157 223.027 402.277 223.206 402.455Z" fill="#0FDB24"/>
<path d="M535.206 507.455C535.384 507.634 535.505 507.863 535.551 508.111C535.596 508.36 535.566 508.617 535.463 508.847L521.321 540.667C521.222 540.89 521.06 541.079 520.855 541.211C520.651 541.343 520.412 541.412 520.169 541.41C519.925 541.408 519.687 541.335 519.485 541.2C519.282 541.065 519.123 540.874 519.028 540.65L513.926 528.735L502.008 523.63C501.785 523.534 501.594 523.375 501.46 523.173C501.326 522.97 501.254 522.733 501.252 522.49C501.25 522.247 501.32 522.009 501.451 521.805C501.583 521.6 501.771 521.439 501.993 521.34L533.813 507.197C534.044 507.095 534.3 507.065 534.548 507.111C534.796 507.157 535.027 507.277 535.206 507.455Z" fill="#EE0D0D"/>
<path d="M753.794 336.455C753.616 336.634 753.495 336.863 753.449 337.111C753.404 337.36 753.434 337.617 753.537 337.847L767.679 369.667C767.778 369.89 767.94 370.079 768.145 370.211C768.349 370.343 768.588 370.412 768.831 370.41C769.075 370.408 769.313 370.335 769.515 370.2C769.718 370.065 769.877 369.874 769.972 369.65L775.074 357.735L786.992 352.63C787.215 352.534 787.406 352.375 787.54 352.173C787.674 351.97 787.746 351.733 787.748 351.49C787.75 351.247 787.68 351.009 787.549 350.805C787.417 350.6 787.229 350.439 787.007 350.34L755.187 336.197C754.956 336.095 754.7 336.065 754.452 336.111C754.204 336.157 753.973 336.277 753.794 336.455Z" fill="#DD22F6"/>
<path d="M1136.79 426.455C1136.62 426.634 1136.5 426.863 1136.45 427.111C1136.4 427.36 1136.43 427.617 1136.54 427.847L1150.68 459.667C1150.78 459.89 1150.94 460.079 1151.14 460.211C1151.35 460.343 1151.59 460.412 1151.83 460.41C1152.07 460.408 1152.31 460.335 1152.52 460.2C1152.72 460.065 1152.88 459.874 1152.97 459.65L1158.07 447.735L1169.99 442.63C1170.22 442.534 1170.41 442.375 1170.54 442.173C1170.67 441.97 1170.75 441.733 1170.75 441.49C1170.75 441.247 1170.68 441.009 1170.55 440.805C1170.42 440.6 1170.23 440.439 1170.01 440.34L1138.19 426.197C1137.96 426.095 1137.7 426.065 1137.45 426.111C1137.2 426.157 1136.97 426.277 1136.79 426.455Z" fill="#F6D622"/>
<path d="M1175.79 29.455C1175.62 29.6338 1175.5 29.8627 1175.45 30.1113C1175.4 30.3599 1175.43 30.6166 1175.54 30.8475L1189.68 62.6675C1189.78 62.89 1189.94 63.0789 1190.14 63.2108C1190.35 63.3428 1190.59 63.4121 1190.83 63.4102C1191.07 63.4083 1191.31 63.3354 1191.52 63.2004C1191.72 63.0653 1191.88 62.874 1191.97 62.65L1197.07 50.735L1208.99 45.63C1209.22 45.534 1209.41 45.375 1209.54 45.1726C1209.67 44.9701 1209.75 44.7329 1209.75 44.4899C1209.75 44.2469 1209.68 44.0088 1209.55 43.8046C1209.42 43.6003 1209.23 43.4389 1209.01 43.34L1177.19 29.1975C1176.96 29.0951 1176.7 29.0649 1176.45 29.1109C1176.2 29.1568 1175.97 29.2768 1175.79 29.455Z" fill="#732D15"/>
<defs>
<filter id="filter0_d_345_1890" x="336" y="525" width="169" height="107" filterUnits="userSpaceOnUse" color-interpolation-filters="sRGB">
<feFlood flood-opacity="0" result="BackgroundImageFix"/>
<feColorMatrix in="SourceAlpha" type="matrix" values="0 0 0 0 0 0 0 0 0 0 0 0 0 0 0 0 0 0 127 0" result="hardAlpha"/>
<feOffset dy="9"/>
<feGaussianBlur stdDeviation="10.5"/>
<feComposite in2="hardAlpha" operator="out"/>
<feColorMatrix type="matrix" values="0 0 0 0 0 0 0 0 0 0 0 0 0 0 0 0 0 0 0.25 0"/>
<feBlend mode="normal" in2="BackgroundImageFix" result="effect1_dropShadow_345_1890"/>
<feBlend mode="normal" in="SourceGraphic" in2="effect1_dropShadow_345_1890" result="shape"/>
</filter>
<filter id="filter1_d_345_1890" x="3" y="427" width="180" height="107" filterUnits="userSpaceOnUse" color-interpolation-filters="sRGB">
<feFlood flood-opacity="0" result="BackgroundImageFix"/>
<feColorMatrix in="SourceAlpha" type="matrix" values="0 0 0 0 0 0 0 0 0 0 0 0 0 0 0 0 0 0 127 0" result="hardAlpha"/>
<feOffset dy="9"/>
<feGaussianBlur stdDeviation="10.5"/>
<feComposite in2="hardAlpha" operator="out"/>
<feColorMatrix type="matrix" values="0 0 0 0 0 0 0 0 0 0 0 0 0 0 0 0 0 0 0.25 0"/>
<feBlend mode="normal" in2="BackgroundImageFix" result="effect1_dropShadow_345_1890"/>
<feBlend mode="normal" in="SourceGraphic" in2="effect1_dropShadow_345_1890" result="shape"/>
</filter>
<filter id="filter2_d_345_1890" x="1149" y="454" width="174" height="107" filterUnits="userSpaceOnUse" color-interpolation-filters="sRGB">
<feFlood flood-opacity="0" result="BackgroundImageFix"/>
<feColorMatrix in="SourceAlpha" type="matrix" values="0 0 0 0 0 0 0 0 0 0 0 0 0 0 0 0 0 0 127 0" result="hardAlpha"/>
<feOffset dy="9"/>
<feGaussianBlur stdDeviation="10.5"/>
<feComposite in2="hardAlpha" operator="out"/>
<feColorMatrix type="matrix" values="0 0 0 0 0 0 0 0 0 0 0 0 0 0 0 0 0 0 0.25 0"/>
<feBlend mode="normal" in2="BackgroundImageFix" result="effect1_dropShadow_345_1890"/>
<feBlend mode="normal" in="SourceGraphic" in2="effect1_dropShadow_345_1890" result="shape"/>
</filter>
<filter id="filter3_d_345_1890" x="768" y="359" width="226" height="107" filterUnits="userSpaceOnUse" color-interpolation-filters="sRGB">
<feFlood flood-opacity="0" result="BackgroundImageFix"/>
<feColorMatrix in="SourceAlpha" type="matrix" values="0 0 0 0 0 0 0 0 0 0 0 0 0 0 0 0 0 0 127 0" result="hardAlpha"/>
<feOffset dy="9"/>
<feGaussianBlur stdDeviation="10.5"/>
<feComposite in2="hardAlpha" operator="out"/>
<feColorMatrix type="matrix" values="0 0 0 0 0 0 0 0 0 0 0 0 0 0 0 0 0 0 0.25 0"/>
<feBlend mode="normal" in2="BackgroundImageFix" result="effect1_dropShadow_345_1890"/>
<feBlend mode="normal" in="SourceGraphic" in2="effect1_dropShadow_345_1890" result="shape"/>
</filter>
<filter id="filter4_d_345_1890" x="21" y="52" width="193" height="107" filterUnits="userSpaceOnUse" color-interpolation-filters="sRGB">
<feFlood flood-opacity="0" result="BackgroundImageFix"/>
<feColorMatrix in="SourceAlpha" type="matrix" values="0 0 0 0 0 0 0 0 0 0 0 0 0 0 0 0 0 0 127 0" result="hardAlpha"/>
<feOffset dy="9"/>
<feGaussianBlur stdDeviation="10.5"/>
<feComposite in2="hardAlpha" operator="out"/>
<feColorMatrix type="matrix" values="0 0 0 0 0 0 0 0 0 0 0 0 0 0 0 0 0 0 0.25 0"/>
<feBlend mode="normal" in2="BackgroundImageFix" result="effect1_dropShadow_345_1890"/>
<feBlend mode="normal" in="SourceGraphic" in2="effect1_dropShadow_345_1890" result="shape"/>
</filter>
<filter id="filter5_d_345_1890" x="1186" y="52" width="181" height="115" filterUnits="userSpaceOnUse" color-interpolation-filters="sRGB">
<feFlood flood-opacity="0" result="BackgroundImageFix"/>
<feColorMatrix in="SourceAlpha" type="matrix" values="0 0 0 0 0 0 0 0 0 0 0 0 0 0 0 0 0 0 127 0" result="hardAlpha"/>
<feOffset dy="9"/>
<feGaussianBlur stdDeviation="10.5"/>
<feComposite in2="hardAlpha" operator="out"/>
<feColorMatrix type="matrix" values="0 0 0 0 0 0 0 0 0 0 0 0 0 0 0 0 0 0 0.25 0"/>
<feBlend mode="normal" in2="BackgroundImageFix" result="effect1_dropShadow_345_1890"/>
<feBlend mode="normal" in="SourceGraphic" in2="effect1_dropShadow_345_1890" result="shape"/>
</filter>
<linearGradient id="paint0_linear_345_1890" x1="232.422" y1="262.924" x2="1159.97" y2="262.924" gradientUnits="userSpaceOnUse">
<stop offset="0.43" stop-color="#008080"/>
<stop offset="1" stop-color="#001A1A"/>
</linearGradient>
<linearGradient id="paint1_linear_345_1890" x1="357" y1="569.5" x2="484" y2="569.5" gradientUnits="userSpaceOnUse">
<stop stop-color="#EE0D0D"/>
<stop offset="1" stop-color="#880808"/>
</linearGradient>
<linearGradient id="paint2_linear_345_1890" x1="789" y1="403.5" x2="973" y2="403.5" gradientUnits="userSpaceOnUse">
<stop stop-color="#DD22F6"/>
<stop offset="1" stop-color="#821490"/>
</linearGradient>
</defs>
</svg>
