<svg width="80" height="80" viewBox="0 0 80 80" fill="none" xmlns="http://www.w3.org/2000/svg">
<path d="M31.6567 37.9383C34.5033 37.9383 36.811 35.6306 36.811 32.784C36.811 29.9374 34.5033 27.6298 31.6567 27.6298C28.8101 27.6298 26.5024 29.9374 26.5024 32.784C26.5024 35.6306 28.8101 37.9383 31.6567 37.9383Z" stroke="#008080" stroke-width="2" stroke-miterlimit="10" stroke-linecap="round" stroke-linejoin="round"/>
<path d="M22.8164 44.8208C22.8164 42.0607 25.0747 39.8024 27.8349 39.8024H35.4789C38.2391 39.8024 40.4974 42.0607 40.4974 44.8208" stroke="#008080" stroke-width="2" stroke-miterlimit="10" stroke-linecap="round" stroke-linejoin="round"/>
<path d="M30.8386 29.739C30.7386 29.739 29.1661 30.3176 28.8184 31.9299" stroke="#008080" stroke-miterlimit="10" stroke-linecap="round" stroke-linejoin="round"/>
<path d="M51.8957 32.0929H51.8558L49.5967 33.312L49.2573 31.9725L52.0951 30.4531H53.5949V43.4463H51.8957V32.0929Z" fill="#008080"/>
<path d="M34.2501 54.0871L34.3001 54.1538L39.5501 61.4038C39.7213 61.6283 40.2882 61.6137 40.4501 61.3704L45.7334 54.1705L45.8001 54.0871H65.4668C66.5334 54.0871 67.4001 53.2205 67.4001 52.1538V20.3705C67.4001 19.3038 66.5334 18.4371 65.4668 18.4371H14.5334C13.4668 18.4371 12.6001 19.3038 12.6001 20.3705V52.1538C12.6001 53.2205 13.4668 54.0871 14.5334 54.0871H34.2501Z" stroke="#008080" stroke-width="2" stroke-miterlimit="10" stroke-linecap="round" stroke-linejoin="round"/>
</svg>
