<svg width="80" height="80" viewBox="0 0 80 80" fill="none" xmlns="http://www.w3.org/2000/svg">
<path d="M68.3472 4.82957C79.6336 7.86803 70.2569 18.5527 67.9396 25.1382C66.47 29.3146 65.6882 33.6039 62.793 37.042C60.0108 40.346 56.0457 42.8745 52.6731 45.5497C53.658 45.9576 54.6428 46.3656 55.6277 46.7735C55.0821 42.6176 54.0489 38.2076 54.8646 34.093C55.4401 31.1904 56.92 28.2145 57.8763 25.4151C58.9883 22.1603 59.829 18.8081 60.951 15.5633C61.3925 14.2865 66.6756 3.28346 68.6886 4.20921C70.6986 5.1336 72.4594 2.15097 70.4357 1.22027C64.717 -1.40974 59.4424 9.51455 57.9665 13.6123C55.8567 19.4697 53.3273 25.8043 51.6658 31.7512C50.3015 36.6344 51.5105 41.779 52.1662 46.7735C52.3693 48.3206 53.8821 48.9799 55.1208 47.9974C60.1288 44.025 65.6504 40.7862 68.3593 34.8251C71.0276 28.9535 72.6291 23.1114 75.7678 17.3896C80.2105 9.29049 78.0137 3.8463 69.2675 1.49168C67.1138 0.911895 66.195 4.25015 68.3472 4.82957Z" fill="#008080"/>
<path d="M62.1409 12.6208C65.7195 12.93 68.7764 14.4687 71.5604 16.7302C73.2749 18.1229 75.7385 15.6882 74.0081 14.2825C70.4378 11.3823 66.7383 9.55646 62.1409 9.15928C59.9219 8.96758 59.9347 12.4302 62.1409 12.6208Z" fill="#008080"/>
<path d="M13.5508 48.4969C27.0124 48.5214 40.4739 48.546 53.9355 48.5705C56.163 48.5745 56.1663 45.113 53.9355 45.1089C40.4739 45.0844 27.0124 45.0599 13.5508 45.0354C11.3233 45.0313 11.3199 48.4929 13.5508 48.4969Z" fill="#008080"/>
<path d="M13.4229 41.7256C21.9271 41.7256 30.4314 41.7256 38.9357 41.7256C41.163 41.7256 41.1667 38.264 38.9357 38.264C30.4314 38.264 21.9271 38.264 13.4229 38.264C11.1955 38.264 11.1918 41.7256 13.4229 41.7256Z" fill="#008080"/>
<path d="M13.5512 34.1147C20.175 34.1656 26.7989 34.2166 33.4228 34.2676C35.6507 34.2847 35.6529 30.8232 33.4228 30.806C26.7989 30.7551 20.175 30.7041 13.5512 30.6531C11.3232 30.636 11.321 34.0975 13.5512 34.1147Z" fill="#008080"/>
<path d="M64.153 37.4309C64.1069 43.7712 64.6739 50.4474 64.0125 56.7588C63.3938 62.6633 61.5374 64.4629 55.8985 64.4015C52.3281 64.3627 48.7577 64.3238 45.1873 64.2849C38.0466 64.2072 30.9058 64.1295 23.765 64.0518C20.7425 64.0188 17.5785 64.2813 14.5841 63.9518C11.6506 64.3157 8.9523 63.5766 6.48921 61.7346C6.28001 60.0425 6.19178 58.346 6.22452 56.6449C6.05722 50.0551 6.19828 43.4446 6.18518 36.8518C6.18013 34.3105 4.86103 26.752 6.16097 24.6715C8.12303 21.5313 13.4308 22.2035 16.3853 22.1846C30.6967 22.0932 45.0081 22.0017 59.3195 21.9103C61.5461 21.8961 61.551 18.4345 59.3195 18.4488C48.0748 18.5206 36.8302 18.5925 25.5855 18.6643C20.5136 18.6967 15.3141 18.4239 10.2519 18.7623C8.33959 18.8901 6.23064 18.8517 4.65569 20.1631C0.169977 23.8982 2.71962 34.8315 2.72969 39.8969C2.73978 44.972 2.7338 50.0473 2.75996 55.1223C2.77496 58.0334 2.34543 62.0596 3.952 64.7151C6.90678 69.5993 16.0454 67.4293 20.7047 67.48C31.4159 67.5966 42.127 67.7132 52.8382 67.8298C56.9174 67.8742 64.7719 69.6024 67.0771 64.7362C68.4316 61.8768 67.4723 57.0032 67.4941 53.9977C67.5342 48.4754 67.5744 42.9532 67.6145 37.4309C67.6307 35.203 64.1692 35.2007 64.153 37.4309Z" fill="#008080"/>
<path d="M4.96095 56.8875C24.8328 56.8711 44.7046 56.8548 64.5764 56.8385C66.8036 56.8367 66.8075 53.3751 64.5764 53.377C44.7046 53.3933 24.8328 53.4096 4.96095 53.4259C2.73369 53.4278 2.72984 56.8893 4.96095 56.8875Z" fill="#008080"/>
<path d="M34.7046 62.1101C36.9319 62.1101 36.9356 58.6486 34.7046 58.6486C32.4773 58.6486 32.4736 62.1101 34.7046 62.1101Z" fill="#008080"/>
<path d="M20.2176 79.1467C29.7924 79.2437 39.3631 79.1494 48.9341 78.8635C51.1566 78.7971 51.166 75.3353 48.9341 75.402C39.3631 75.6878 29.7924 75.7822 20.2176 75.6851C17.9895 75.6625 17.9878 79.1241 20.2176 79.1467Z" fill="#008080"/>
<path d="M37.3957 67.9395C38.6936 68.7708 39.2273 70.7593 40.1204 71.9815C41.244 73.5191 43.0562 74.838 43.7778 76.6163C44.6046 78.6537 47.9544 77.763 47.1157 75.6961C46.1432 73.2996 44.1653 71.8215 42.7456 69.7262C41.5637 67.982 40.9986 66.1392 39.1428 64.9505C37.2614 63.7455 35.5236 66.7403 37.3957 67.9395Z" fill="#008080"/>
<path d="M28.8613 66.3391C28.2803 68.0262 26.9254 69.335 25.8689 70.736C24.7345 72.2403 23.6954 73.8049 22.724 75.4187C21.5724 77.3322 24.5643 79.0744 25.713 77.1659C26.8512 75.2746 28.0835 73.4513 29.4548 71.7207C30.5719 70.3109 31.6058 68.9825 32.1992 67.2593C32.9261 65.1486 29.5835 64.2419 28.8613 66.3391Z" fill="#008080"/>
</svg>
