<svg width="80" height="80" viewBox="0 0 80 80" fill="none" xmlns="http://www.w3.org/2000/svg">
<path d="M54.8438 45.8594H25.1562C24.7248 45.8594 24.375 45.5097 24.375 45.0781V6.79688C24.375 6.36547 24.7248 6.01562 25.1562 6.01562H54.8438C55.2753 6.01562 55.625 6.36547 55.625 6.79688V45.0781C55.625 45.5097 55.2753 45.8594 54.8438 45.8594ZM25.9375 44.2969H54.0625V7.57812H25.9375V44.2969Z" fill="#008080"/>
<path d="M31.0382 23.5436C30.8382 23.5436 30.6384 23.4674 30.4857 23.3149L28.5101 21.3392C28.205 21.0341 28.205 20.5394 28.5101 20.2344C28.8153 19.9294 29.3098 19.9294 29.615 20.2344L31.0381 21.6575L35.0953 17.6003C35.4004 17.2953 35.895 17.2953 36.2001 17.6003C36.5053 17.9055 36.5053 18.4002 36.2001 18.7052L31.5906 23.3147C31.4381 23.4674 31.2381 23.5436 31.0382 23.5436Z" fill="#008080"/>
<path d="M49.3752 23.5105H39.3398C38.9084 23.5105 38.5586 23.1607 38.5586 22.7292C38.5586 22.2978 38.9084 21.948 39.3398 21.948H49.3752C49.8067 21.948 50.1564 22.2978 50.1564 22.7292C50.1564 23.1607 49.8067 23.5105 49.3752 23.5105Z" fill="#008080"/>
<path d="M44.9275 19.7853H39.3398C38.9084 19.7853 38.5586 19.4354 38.5586 19.004C38.5586 18.5726 38.9084 18.2228 39.3398 18.2228H44.9275C45.3591 18.2228 45.7088 18.5726 45.7088 19.004C45.7088 19.4354 45.3591 19.7853 44.9275 19.7853Z" fill="#008080"/>
<path d="M31.0382 31.892C30.8382 31.892 30.6384 31.8158 30.4857 31.6633L28.5101 29.6876C28.205 29.3825 28.205 28.8878 28.5101 28.5828C28.8153 28.2778 29.3098 28.2778 29.615 28.5828L31.0381 30.0059L35.0953 25.9487C35.4004 25.6437 35.895 25.6437 36.2001 25.9487C36.5053 26.2539 36.5053 26.7486 36.2001 27.0536L31.5906 31.6631C31.4381 31.8158 31.2381 31.892 31.0382 31.892Z" fill="#008080"/>
<path d="M49.3752 31.859H39.3398C38.9084 31.859 38.5586 31.5092 38.5586 31.0778C38.5586 30.6464 38.9084 30.2965 39.3398 30.2965H49.3752C49.8067 30.2965 50.1564 30.6464 50.1564 31.0778C50.1564 31.5092 49.8067 31.859 49.3752 31.859Z" fill="#008080"/>
<path d="M44.9275 28.1339H39.3398C38.9084 28.1339 38.5586 27.7841 38.5586 27.3527C38.5586 26.9213 38.9084 26.5714 39.3398 26.5714H44.9275C45.3591 26.5714 45.7088 26.9213 45.7088 27.3527C45.7088 27.7841 45.3591 28.1339 44.9275 28.1339Z" fill="#008080"/>
<path d="M31.0382 40.2405C30.8382 40.2405 30.6384 40.1644 30.4857 40.0118L28.5101 38.0361C28.205 37.731 28.205 37.2363 28.5101 36.9313C28.8153 36.6263 29.3098 36.6263 29.615 36.9313L31.0381 38.3544L35.0953 34.2972C35.4004 33.9922 35.895 33.9922 36.2001 34.2972C36.5053 34.6024 36.5053 35.0971 36.2001 35.4021L31.5906 40.0116C31.4381 40.1644 31.2381 40.2405 31.0382 40.2405Z" fill="#008080"/>
<path d="M49.3752 40.2075H39.3398C38.9084 40.2075 38.5586 39.8577 38.5586 39.4263C38.5586 38.9949 38.9084 38.645 39.3398 38.645H49.3752C49.8067 38.645 50.1564 38.9949 50.1564 39.4263C50.1564 39.8577 49.8067 40.2075 49.3752 40.2075Z" fill="#008080"/>
<path d="M44.9275 36.4823H39.3398C38.9084 36.4823 38.5586 36.1325 38.5586 35.701C38.5586 35.2696 38.9084 34.9198 39.3398 34.9198H44.9275C45.3591 34.9198 45.7088 35.2696 45.7088 35.701C45.7088 36.1325 45.3591 36.4823 44.9275 36.4823Z" fill="#008080"/>
<path d="M59.5312 39.6094H54.8438C54.4122 39.6094 54.0625 39.2595 54.0625 38.8281C54.0625 38.3967 54.4122 38.0469 54.8438 38.0469H58.75V2.89062H30.625V6.79688C30.625 7.22828 30.2752 7.57812 29.8438 7.57812C29.4123 7.57812 29.0625 7.22828 29.0625 6.79688V2.10938C29.0625 1.67797 29.4123 1.32812 29.8438 1.32812H59.5312C59.9628 1.32812 60.3125 1.67797 60.3125 2.10938V38.8281C60.3125 39.2595 59.9628 39.6094 59.5312 39.6094Z" fill="#008080"/>
<path d="M71.302 66.1719H8.69797C5.71109 66.1719 3.28125 63.7419 3.28125 60.7552V56.0156C3.28125 55.5841 3.63109 55.2344 4.0625 55.2344H75.9375C76.3691 55.2344 76.7188 55.5841 76.7188 56.0156V60.7552C76.7188 63.7419 74.2887 66.1719 71.302 66.1719ZM4.84375 56.7969V60.7552C4.84375 62.8805 6.57266 64.6094 8.69797 64.6094H71.3022C73.4275 64.6094 75.1564 62.8805 75.1564 60.7552V56.7969H4.84375Z" fill="#008080"/>
<path d="M75.9375 56.7969H4.0625C3.63109 56.7969 3.28125 56.4472 3.28125 56.0156V21.0938C3.28125 17.5183 6.19016 14.6094 9.76562 14.6094H25.1562C25.5877 14.6094 25.9375 14.9592 25.9375 15.3906C25.9375 15.822 25.5877 16.1719 25.1562 16.1719H9.76562C7.05172 16.1719 4.84375 18.3798 4.84375 21.0938V55.2344H75.1562V21.0938C75.1562 18.3798 72.9483 16.1719 70.2344 16.1719H59.5312C59.0997 16.1719 58.75 15.822 58.75 15.3906C58.75 14.9592 59.0997 14.6094 59.5312 14.6094H70.2344C73.8098 14.6094 76.7188 17.5183 76.7188 21.0938V56.0156C76.7188 56.4472 76.3691 56.7969 75.9375 56.7969Z" fill="#008080"/>
<path d="M48.5938 75.5469H31.4062C30.9748 75.5469 30.625 75.1972 30.625 74.7656V65.3906C30.625 64.9591 30.9748 64.6094 31.4062 64.6094H48.5938C49.0253 64.6094 49.375 64.9591 49.375 65.3906V74.7656C49.375 75.1972 49.0253 75.5469 48.5938 75.5469ZM32.1875 73.9844H47.8125V66.1719H32.1875V73.9844Z" fill="#008080"/>
<path d="M44.6875 75.5469H35.3125C34.8811 75.5469 34.5312 75.1972 34.5312 74.7656V65.3906C34.5312 64.9591 34.8811 64.6094 35.3125 64.6094H44.6875C45.1191 64.6094 45.4688 64.9591 45.4688 65.3906V74.7656C45.4688 75.1972 45.1191 75.5469 44.6875 75.5469ZM36.0938 73.9844H43.9062V66.1719H36.0938V73.9844Z" fill="#008080"/>
<path d="M50.9375 78.6719H29.0625C27.7702 78.6719 26.7188 77.6205 26.7188 76.3281C26.7188 75.0358 27.7702 73.9844 29.0625 73.9844H50.9375C52.2298 73.9844 53.2812 75.0358 53.2812 76.3281C53.2812 77.6205 52.2298 78.6719 50.9375 78.6719ZM29.0625 75.5469C28.6317 75.5469 28.2812 75.8973 28.2812 76.3281C28.2812 76.7589 28.6317 77.1094 29.0625 77.1094H50.9375C51.3683 77.1094 51.7188 76.7589 51.7188 76.3281C51.7188 75.8973 51.3683 75.5469 50.9375 75.5469H29.0625Z" fill="#008080"/>
</svg>
