<svg width="80" height="80" viewBox="0 0 80 80" fill="none" xmlns="http://www.w3.org/2000/svg">
<path d="M18.75 12.5C19.4404 12.5 20 11.9404 20 11.25C20 10.5596 19.4404 10 18.75 10C18.0596 10 17.5 10.5596 17.5 11.25C17.5 11.9404 18.0596 12.5 18.75 12.5Z" fill="#008080"/>
<path d="M13.75 12.5C14.4404 12.5 15 11.9404 15 11.25C15 10.5596 14.4404 10 13.75 10C13.0596 10 12.5 10.5596 12.5 11.25C12.5 11.9404 13.0596 12.5 13.75 12.5Z" fill="#008080"/>
<path d="M8.75 12.5C9.44036 12.5 10 11.9404 10 11.25C10 10.5596 9.44036 10 8.75 10C8.05964 10 7.5 10.5596 7.5 11.25C7.5 11.9404 8.05964 12.5 8.75 12.5Z" fill="#008080"/>
<path d="M76.25 17.5H3.75C3.06 17.5 2.5 16.94 2.5 16.25C2.5 15.56 3.06 15 3.75 15H76.25C76.94 15 77.5 15.56 77.5 16.25C77.5 16.94 76.94 17.5 76.25 17.5Z" fill="#008080"/>
<path d="M73.75 70H63.75C63.06 70 62.5 69.44 62.5 68.75C62.5 68.06 63.06 67.5 63.75 67.5H73.75C74.4375 67.5 75 66.9375 75 66.25V8.75C75 8.0625 74.4375 7.5 73.75 7.5H6.25C5.5625 7.5 5 8.0625 5 8.75V66.25C5 66.9375 5.5625 67.5 6.25 67.5H16.25C16.94 67.5 17.5 68.06 17.5 68.75C17.5 69.44 16.94 70 16.25 70H6.25C4.1825 70 2.5 68.3175 2.5 66.25V8.75C2.5 6.6825 4.1825 5 6.25 5H73.75C75.8175 5 77.5 6.6825 77.5 8.75V66.25C77.5 68.3175 75.8175 70 73.75 70Z" fill="#008080"/>
<path d="M56.5625 75.11C56.3725 75.11 56.185 75.065 56.0075 74.98L40 67.045L23.9925 74.98C23.58 75.1825 23.0825 75.1474 22.7025 74.8699C22.3275 74.5975 22.1325 74.1375 22.2 73.6775L24.8 56.0025L12.305 43.2275C11.98 42.895 11.865 42.41 12.01 41.9675C12.155 41.525 12.53 41.1975 12.99 41.12L30.6075 38.1275L32.8525 33.8375C33.175 33.2275 33.9375 32.9975 34.5425 33.31C35.1525 33.6325 35.39 34.3875 35.07 35L32.535 39.8375C32.3525 40.1825 32.02 40.4225 31.6375 40.49L15.7625 43.1875L27.02 54.6975C27.2925 54.975 27.42 55.3675 27.365 55.7525L25.0225 71.68L39.4475 64.5325C39.795 64.3624 40.21 64.3624 40.555 64.5325L54.98 71.68L52.6375 55.7525C52.5825 55.3675 52.7075 54.975 52.9825 54.6975L64.24 43.1875L48.365 40.49C47.9825 40.4249 47.65 40.1825 47.4675 39.8375L40 25.575L38.18 29.0525C37.8575 29.6675 37.1 29.8975 36.4925 29.5825C35.88 29.2625 35.6425 28.505 35.9625 27.895L38.89 22.3025C39.325 21.48 40.6725 21.4775 41.1075 22.3L49.3925 38.1275L67.01 41.12C67.47 41.1975 67.845 41.525 67.99 41.9675C68.135 42.41 68.02 42.895 67.695 43.2275L55.2 56.0025L57.8 73.6775C57.865 74.1375 57.6725 74.595 57.2975 74.8699C57.08 75.03 56.8225 75.11 56.5625 75.11Z" fill="#008080"/>
</svg>
