<svg xmlns="http://www.w3.org/2000/svg" fill="none" viewBox="15.94 12 938.15 229.2"><path fill="#8CC63F" d="M130.693 116.04a91.902 91.902 0 0 0-60.14-22.37h-22.94a32.179 32.179 0 0 0 0 64.35h22.95a28 28 0 0 1 28 27.92 92.094 92.094 0 0 1 32.13-69.9ZM162.852 206.5a.418.418 0 0 1 0 .1v-20.67 20.57ZM98.692 211.099h-.18v-4.49c0 .77-.09 1.55-.09 2.33a32.164 32.164 0 0 0 9.419 22.754 32.165 32.165 0 0 0 22.751 9.426h.1a32.158 32.158 0 0 1-32-30.02Z"/><path fill="#2EB2FF" d="M213.767 93.61h-22.949a91.86 91.86 0 0 0-60.13 22.37 92.12 92.12 0 0 1 32.169 69.89 28.004 28.004 0 0 1 28-27.92h22.95a32.182 32.182 0 0 0 22.388-54.729 32.182 32.182 0 0 0-22.388-9.621l-.04.01Z"/><path fill="#0062DD" d="M162.68 211.1a32.161 32.161 0 0 1-32 30h.09a32.178 32.178 0 0 0 22.751-9.426 32.173 32.173 0 0 0 9.419-22.754c0-.78 0-1.56-.09-2.33v4.5l-.17.01Z"/><path fill="#0062DD" d="M130.688 116.039a92.093 92.093 0 0 0-32.18 69.89v25.17h.18a32.06 32.06 0 0 0 64 0h.18v-4.49a.335.335 0 0 0 0-.1V185.929a92.142 92.142 0 0 0-32.18-69.89ZM130.214 77.74c18.153 0 32.87-14.716 32.87-32.87 0-18.154-14.717-32.87-32.87-32.87-18.154 0-32.87 14.716-32.87 32.87 0 18.154 14.716 32.87 32.87 32.87Z"/><path fill="#2EB2FF" d="M45.313 42.01s.48 16 8.38 24.51a11.19 11.19 0 1 0 14.63-16.61 47.099 47.099 0 0 0-23.01-7.9Z"/><path fill="#8CC63F" d="M216.298 42.01s-.47 16-8.38 24.51a11.203 11.203 0 0 1-8.435 3.977 11.19 11.19 0 0 1-6.195-20.587 47.095 47.095 0 0 1 23.01-7.9Z"/><path fill="#0062DD" d="M45.313 211.939s.48-16 8.38-24.51a11.19 11.19 0 1 1 14.63 16.61 47.101 47.101 0 0 1-23.01 7.9ZM216.298 212.738s-.47-16-8.38-24.51a11.19 11.19 0 1 0-14.63 16.61 47.097 47.097 0 0 0 23.01 7.9ZM289.097 183.066v57.868H279v-57.868h10.097Zm-3.952 57.868v-9.175h12.596a25.456 25.456 0 0 0 8.063-1.229 17.847 17.847 0 0 0 6.436-3.73 17.151 17.151 0 0 0 4.359-6.189 24.591 24.591 0 0 0 0-17.15 17.139 17.139 0 0 0-4.359-6.188 17.835 17.835 0 0 0-6.436-3.731 25.08 25.08 0 0 0-8.063-1.229h-12.596v-9.189h12.858a33.277 33.277 0 0 1 15.792 3.601 26.468 26.468 0 0 1 10.634 10.09 32.444 32.444 0 0 1 3.814 15.25 32.44 32.44 0 0 1-3.814 15.249 26.46 26.46 0 0 1-10.634 10.09 33.448 33.448 0 0 1-15.792 3.588l-12.858-.058ZM335.148 211.265a18.309 18.309 0 0 1 6.939-6.887 20.01 20.01 0 0 1 9.98-2.479 19.769 19.769 0 0 1 9.94 2.479c2.937 1.689 5.384 4.163 7.088 7.165a20.078 20.078 0 0 1 2.603 9.905 20.08 20.08 0 0 1-2.603 9.905 19.162 19.162 0 0 1-7.088 7.165 19.79 19.79 0 0 1-9.94 2.479 20.02 20.02 0 0 1-9.98-2.479 18.247 18.247 0 0 1-6.939-6.93 21.416 21.416 0 0 1-2.554-10.161c0-3.558.879-7.057 2.554-10.162Zm7.577 16.338c1.435 2.582 3.799 4.469 6.573 5.248 2.774.779 5.733.385 8.228-1.094a10.6 10.6 0 0 0 3.884-4.154 12.833 12.833 0 0 0 1.358-6.155 13.06 13.06 0 0 0-1.358-6.197 10.247 10.247 0 0 0-3.884-4.155 11.016 11.016 0 0 0-5.479-1.464c-1.916 0-3.802.503-5.479 1.464a10.419 10.419 0 0 0-3.843 4.155 13.06 13.06 0 0 0-1.358 6.197 12.821 12.821 0 0 0 1.358 6.155ZM404.085 240.999h-9.218l7.247-57.933 21.687 37.45 21.739-37.45 7.26 57.933h-9.205L439.9 207.42l-16.086 28.455-16.099-28.455-3.63 33.579ZM459.411 213.465c1.492-2.687 3.627-4.89 6.18-6.377a17.233 17.233 0 0 1 8.872-2.295c3.078-.059 6.119.731 8.836 2.295 2.607 1.568 4.779 3.86 6.292 6.638a19.213 19.213 0 0 1 2.309 9.168c0 3.224-.797 6.389-2.309 9.168-1.513 2.778-3.685 5.07-6.292 6.638-2.717 1.564-5.758 2.354-8.836 2.295a17.233 17.233 0 0 1-8.872-2.295c-2.56-1.494-4.696-3.712-6.18-6.417a20.489 20.489 0 0 1-2.27-9.409c0-3.294.781-6.533 2.27-9.409Zm6.735 15.128c1.276 2.395 3.38 4.144 5.848 4.866 2.469.721 5.102.355 7.321-1.019 1.452-.922 2.645-2.251 3.453-3.847a12.29 12.29 0 0 0 1.207-5.699 12.534 12.534 0 0 0-1.207-5.738c-.795-1.607-1.991-2.94-3.453-3.847a9.087 9.087 0 0 0-4.828-1.304 9.01 9.01 0 0 0-4.828 1.304c-1.449.916-2.636 2.247-3.428 3.847a12.656 12.656 0 0 0-1.207 5.738 12.448 12.448 0 0 0 1.158 5.699h-.036ZM504.105 240.998h-7.855v-35.383h7.855v35.383Zm8.007-27.934a5.593 5.593 0 0 0-2.424-.465 4.793 4.793 0 0 0-3.235 1.077 6.055 6.055 0 0 0-1.79 2.966 15.737 15.737 0 0 0-.558 4.417l-2.64-1.61a17.779 17.779 0 0 1 1.511-7.502 14.179 14.179 0 0 1 3.883-5.201 7.869 7.869 0 0 1 4.949-1.956 10.21 10.21 0 0 1 3.451.572 5.833 5.833 0 0 1 2.716 2.049l-3.807 6.997a10.373 10.373 0 0 0-2.056-1.331v-.013ZM530.58 238.842a15.532 15.532 0 0 1-6.099-6.356 22.194 22.194 0 0 1-2.169-9.574 22.193 22.193 0 0 1 2.169-9.573 15.52 15.52 0 0 1 6.176-6.317 19.045 19.045 0 0 1 9.399-2.223 18.488 18.488 0 0 1 9.169 2.118 14.334 14.334 0 0 1 5.806 6.082 20.839 20.839 0 0 1 2.033 9.573v1.308c-.01.334-.049.667-.115.994h-29.821v-5.597h23.018l-2.443 3.479a9.69 9.69 0 0 0 .486-1.308c.149-.421.235-.862.256-1.308a10.237 10.237 0 0 0-1.074-4.839 7.97 7.97 0 0 0-2.954-3.178 8.336 8.336 0 0 0-4.399-1.138 9.52 9.52 0 0 0-5.115 1.308 8.561 8.561 0 0 0-3.261 3.923 17.184 17.184 0 0 0-1.177 6.356 16.31 16.31 0 0 0 1.113 6.396 8.266 8.266 0 0 0 3.286 3.923 9.739 9.739 0 0 0 5.294 1.308 11.403 11.403 0 0 0 5.691-1.308 10.807 10.807 0 0 0 4.067-4.159l6.88 2.878a17.986 17.986 0 0 1-6.88 7.036 20.492 20.492 0 0 1-10.128 2.341 18.177 18.177 0 0 1-9.208-2.145ZM657.646 183.066v49.162h21.989v8.771H648.32v-57.933h9.326ZM692.252 238.844a15.537 15.537 0 0 1-6.1-6.357 22.19 22.19 0 0 1-2.168-9.574c0-3.318.742-6.593 2.168-9.574a15.53 15.53 0 0 1 6.177-6.317 19.045 19.045 0 0 1 9.399-2.223 18.481 18.481 0 0 1 9.169 2.119 14.331 14.331 0 0 1 5.806 6.081 20.843 20.843 0 0 1 2.033 9.574v1.308c-.01.334-.049.667-.115.994h-29.873v-5.598h23.019l-2.443 3.479c.193-.423.355-.86.486-1.308.149-.42.235-.861.256-1.307a10.253 10.253 0 0 0-1.074-4.84 7.977 7.977 0 0 0-2.954-3.178 8.347 8.347 0 0 0-4.399-1.138 9.523 9.523 0 0 0-5.116 1.308 8.558 8.558 0 0 0-3.261 3.924 17.183 17.183 0 0 0-1.176 6.356 16.31 16.31 0 0 0 1.112 6.396 8.276 8.276 0 0 0 3.287 3.924 9.757 9.757 0 0 0 5.294 1.308 11.424 11.424 0 0 0 5.691-1.308 10.824 10.824 0 0 0 4.067-4.16l6.879 2.878a17.976 17.976 0 0 1-6.879 7.036 20.497 20.497 0 0 1-10.129 2.342 18.178 18.178 0 0 1-9.156-2.145ZM731.45 231.714a12.85 12.85 0 0 0 3.554 1.94c1.148.421 2.365.641 3.595.647a5.715 5.715 0 0 0 3.553-.983 3.247 3.247 0 0 0 1.021-1.187 3.1 3.1 0 0 0 .331-1.504 3.653 3.653 0 0 0-1.027-2.588 8.253 8.253 0 0 0-2.811-1.876c-1.203-.53-2.608-1.06-4.216-1.604a46.043 46.043 0 0 1-4.811-2.135 11.342 11.342 0 0 1-3.905-3.26 8.221 8.221 0 0 1-1.527-5.084 8.101 8.101 0 0 1 1.676-5.175 9.868 9.868 0 0 1 4.54-3.105 18.256 18.256 0 0 1 6.135-1.009 18.675 18.675 0 0 1 5.581.815 20.025 20.025 0 0 1 4.729 2.173 16.356 16.356 0 0 1 3.595 3.066l-4.689 4.787a14.349 14.349 0 0 0-4.297-3.286 11.202 11.202 0 0 0-5.162-1.294 5.485 5.485 0 0 0-2.96.738 2.492 2.492 0 0 0-.89.937 2.365 2.365 0 0 0-.285 1.236c.005.408.102.809.284 1.178.182.368.444.695.77.957a10.31 10.31 0 0 0 2.811 1.682c1.175.504 2.486 1.022 3.945 1.578a43.71 43.71 0 0 1 5.473 2.471 12.482 12.482 0 0 1 4.054 3.286 8.044 8.044 0 0 1 1.527 5.085 9.617 9.617 0 0 1-.822 4.286 10 10 0 0 1-2.651 3.541c-2.656 2.083-6.031 3.136-9.459 2.95-2.3.02-4.586-.343-6.756-1.074a19.795 19.795 0 0 1-5.405-2.846 21.832 21.832 0 0 1-3.865-3.713l4.919-4.71a26.983 26.983 0 0 0 3.445 3.08ZM764.417 231.714a12.366 12.366 0 0 0 3.373 1.94 9.714 9.714 0 0 0 3.411.647 5.26 5.26 0 0 0 3.386-.983c.412-.312.743-.72.966-1.188.223-.468.332-.984.317-1.503a3.75 3.75 0 0 0-.962-2.588 7.941 7.941 0 0 0-2.668-1.876c-1.141-.53-2.475-1.06-4.014-1.604a42.564 42.564 0 0 1-4.553-2.135 11.09 11.09 0 0 1-3.719-3.26 8.528 8.528 0 0 1-1.437-5.084 8.395 8.395 0 0 1 1.591-5.175 9.4 9.4 0 0 1 4.296-3.105 16.53 16.53 0 0 1 5.823-1.009 16.91 16.91 0 0 1 5.309.815 18.788 18.788 0 0 1 4.489 2.173 16.023 16.023 0 0 1 3.411 3.066l-4.45 4.787a14.068 14.068 0 0 0-4.078-3.286 10.201 10.201 0 0 0-4.899-1.294 5.013 5.013 0 0 0-2.822.738 2.475 2.475 0 0 0-1.116 2.173 2.818 2.818 0 0 0 1.013 2.135 9.534 9.534 0 0 0 2.668 1.682 97.15 97.15 0 0 0 3.745 1.578 42.29 42.29 0 0 1 5.13 2.471 12.147 12.147 0 0 1 3.848 3.286 8.351 8.351 0 0 1 1.449 5.085c.057 1.47-.21 2.935-.782 4.289a9.922 9.922 0 0 1-2.527 3.538 12.93 12.93 0 0 1-8.978 2.95 18.581 18.581 0 0 1-6.412-1.074 18.135 18.135 0 0 1-5.13-2.846 21.81 21.81 0 0 1-3.681-3.713l4.681-4.71a26.099 26.099 0 0 0 3.322 3.08ZM807.655 183.066h40.695v8.98h-15.43v48.953h-9.936v-48.953h-15.343l.014-8.98ZM854.226 187.441a5.052 5.052 0 0 1 3.547-1.476 4.825 4.825 0 0 1 1.956.356c.623.254 1.19.634 1.669 1.12a5.246 5.246 0 0 1 1.443 3.63 5.248 5.248 0 0 1-1.443 3.63 4.924 4.924 0 0 1-1.662 1.148 4.747 4.747 0 0 1-1.963.368 4.93 4.93 0 0 1-3.547-1.516 4.962 4.962 0 0 1-1.126-1.65 5.12 5.12 0 0 1 0-3.96 4.952 4.952 0 0 1 1.126-1.65Zm7.508 17.861v35.697h-7.908v-35.697h7.908ZM914.982 240.998h-7.853V219.42a10.646 10.646 0 0 0-1.344-5.96 4.935 4.935 0 0 0-1.888-1.553 4.643 4.643 0 0 0-2.359-.415 6.42 6.42 0 0 0-3.455.918 6.177 6.177 0 0 0-2.324 2.66 9.94 9.94 0 0 0-.842 4.31v21.538h-7.853V219.42a10.651 10.651 0 0 0-1.332-5.96 4.963 4.963 0 0 0-1.896-1.551 4.659 4.659 0 0 0-2.363-.417 6.548 6.548 0 0 0-3.518.918 6.055 6.055 0 0 0-2.299 2.66 10.563 10.563 0 0 0-.767 4.35v21.538h-7.701v-35.386h7.701v5.148a10.755 10.755 0 0 1 3.77-4.417 10.087 10.087 0 0 1 5.566-1.503 10.814 10.814 0 0 1 6.143 1.61c1.637 1.103 2.876 2.757 3.518 4.696a12.692 12.692 0 0 1 4.398-4.696 11.44 11.44 0 0 1 6.068-1.61 10.484 10.484 0 0 1 5.931 1.57c1.614 1.113 2.847 2.745 3.518 4.656a21.174 21.174 0 0 1 1.168 7.463l.013 22.509ZM927.596 238.844a15.537 15.537 0 0 1-6.1-6.357 22.19 22.19 0 0 1-2.168-9.574c0-3.318.742-6.593 2.168-9.574a15.53 15.53 0 0 1 6.177-6.317 19.045 19.045 0 0 1 9.399-2.223 18.481 18.481 0 0 1 9.169 2.119 14.246 14.246 0 0 1 5.806 6.081 20.856 20.856 0 0 1 2.033 9.574v1.308a6.03 6.03 0 0 1-.115.994h-29.873v-5.598h23.018l-2.442 3.479c.193-.423.355-.86.486-1.308.155-.418.241-.86.256-1.307a10.254 10.254 0 0 0-1.075-4.84 7.963 7.963 0 0 0-2.954-3.178 8.342 8.342 0 0 0-4.399-1.138 9.522 9.522 0 0 0-5.115 1.308 8.558 8.558 0 0 0-3.261 3.924 17.163 17.163 0 0 0-1.176 6.356 16.31 16.31 0 0 0 1.112 6.396 8.276 8.276 0 0 0 3.287 3.924 9.757 9.757 0 0 0 5.294 1.308 11.427 11.427 0 0 0 5.691-1.308 10.814 10.814 0 0 0 4.066-4.16l6.88 2.878a17.979 17.979 0 0 1-6.88 7.036 20.49 20.49 0 0 1-10.128 2.342 18.178 18.178 0 0 1-9.156-2.145ZM588.94 183.066v57.933h-8.69v-57.933h8.69ZM610.872 203.343c2.74 0 5.184.605 7.334 1.815 2.191 1.211 3.898 3.004 5.12 5.38 1.223 2.376 1.834 5.245 1.834 8.607v21.854h-7.144v-20.711c0-3.317-.78-5.85-2.339-7.598-1.56-1.794-3.688-2.69-6.385-2.69-2.698 0-4.847.896-6.449 2.69-1.559 1.748-2.339 4.281-2.339 7.598v20.711h-7.207v-37.051h7.207v4.236c1.18-1.524 2.676-2.712 4.489-3.564a13.93 13.93 0 0 1 5.879-1.277ZM307.814 12v94.656h47.898v24.673H279V12h28.814ZM459.168 12l-41.772 70.742v48.587h-29.332V82.914L346.344 12h33.076l23.345 44.86L426.127 12h33.041ZM502.13 12v119.329h-27.607V12h27.607Zm-8.524 0h53.35v24.708h-53.35V12Zm0 48.312h51.659v23.19h-51.659v-23.19ZM759.556 65.832H816.8a72.343 72.343 0 0 1-2.781 25.416 59.336 59.336 0 0 1-10.99 20.836 51.114 51.114 0 0 1-18.58 14.148 60.802 60.802 0 0 1-25.547 5.086 69.542 69.542 0 0 1-24.876-4.285 55.61 55.61 0 0 1-32.4-31.337 63.09 63.09 0 0 1-4.612-24.533 60.937 60.937 0 0 1 4.694-24.32 53.074 53.074 0 0 1 13.247-18.661 60.4 60.4 0 0 1 20.036-11.973 71.96 71.96 0 0 1 24.893-4.203 63.977 63.977 0 0 1 21.49 3.402 55.445 55.445 0 0 1 16.879 9.453 64.954 64.954 0 0 1 12.692 13.984L786.706 51.44a33.674 33.674 0 0 0-10.418-11.22 28.624 28.624 0 0 0-16.355-4.449 35.985 35.985 0 0 0-17.223 4.204 31.295 31.295 0 0 0-12.43 12.037 37.19 37.19 0 0 0-4.612 19.152 39.758 39.758 0 0 0 4.449 19.3 31.693 31.693 0 0 0 12.119 12.609 34.688 34.688 0 0 0 17.648 4.531 37.61 37.61 0 0 0 11.137-1.538 25.526 25.526 0 0 0 8.571-4.366 28.553 28.553 0 0 0 6.067-6.624 35.183 35.183 0 0 0 3.958-8.178h-30.061V65.831ZM836.931 47.25a56.386 56.386 0 0 1 12.862-18.755 57.587 57.587 0 0 1 19.409-12.207 70.038 70.038 0 0 1 48.258 0 57.872 57.872 0 0 1 19.326 12.207 55.173 55.173 0 0 1 12.765 18.754 61.376 61.376 0 0 1 4.533 23.941 63.819 63.819 0 0 1-4.452 24.088 56.316 56.316 0 0 1-12.6 19.081 57.718 57.718 0 0 1-19.326 12.536 69.88 69.88 0 0 1-48.995 0 57.732 57.732 0 0 1-19.327-12.536 56.33 56.33 0 0 1-12.6-19.08 63.418 63.418 0 0 1-4.451-24.089 60.775 60.775 0 0 1 4.598-23.94Zm28.31 41.646a29.676 29.676 0 0 0 11.144 12.045 34.565 34.565 0 0 0 33.646 0 29.776 29.776 0 0 0 11.144-12.045 38.005 38.005 0 0 0 3.96-17.706 38.753 38.753 0 0 0-3.927-17.706 29.331 29.331 0 0 0-10.997-12.044 35.023 35.023 0 0 0-33.875 0 29.672 29.672 0 0 0-11.144 12.044 41.576 41.576 0 0 0 0 35.412h.049Z"/><path fill="#0062DD" fill-rule="evenodd" d="M621.985 131.329c32.952 0 59.665-26.712 59.665-59.664S654.937 12 621.985 12 562.32 38.713 562.32 71.665s26.713 59.664 59.665 59.664Zm31.275-92.484c-5.582-5.878-12.256-7.865-21.314-7.865-4.758 0-12.485 1.695-16.51 3.654-3.935 1.866-7.183 4.478-9.745 7.837v-9.656h-19.215v77.534h19.215V67.523c0-6.158 1.51-10.87 4.529-14.135 3.111-3.36 7.32-5.039 12.627-5.039 5.215 0 11.052.008 14.072 3.367 2.835 3.066 2.823 8.882 2.811 14.678l-.001 1.129v42.826h19.214V64.864c0-10.45-.102-20.234-5.683-26.019Z" clip-rule="evenodd"/></svg>