<svg xmlns="http://www.w3.org/2000/svg" fill="none" viewBox="0.41 0.41 742 667">
<g clip-path="url(#clip0_311_1456)">
<path opacity="0.1" d="M404.077 437.3L474.196 396.854C475.08 396.345 476.507 396.345 477.39 396.854L579.92 456.147C580.803 456.657 580.803 457.472 579.92 457.981L509.8 498.427C508.917 498.936 507.49 498.936 506.606 498.427L404.077 439.134C403.193 438.624 403.193 437.809 404.077 437.3Z" fill="#00FFE7"/>
<g opacity="0.1">
<path d="M82.9309 510.177L53.5105 493.197C51.7439 492.178 51.7439 490.548 53.5105 489.53L410.87 283.293C412.637 282.274 415.457 282.274 417.223 283.293L446.678 300.273C448.444 301.292 448.444 302.922 446.678 303.941L89.3178 510.177C87.5512 511.196 84.7315 511.196 82.9649 510.177H82.9309Z" fill="#00FFE7"/>
<path d="M388.177 279.829L451.537 243.255C452.93 242.44 455.206 242.44 456.633 243.255L534.464 288.183C535.857 288.998 535.857 290.323 534.464 291.104L471.105 327.678C469.712 328.493 467.436 328.493 466.009 327.678L388.177 282.75C386.785 281.935 386.785 280.61 388.177 279.829Z" fill="#00FFE7"/>
</g>
<path opacity="0.1" d="M232.139 584.956L311.975 538.601C313.674 537.616 316.426 537.616 318.124 538.601L412.433 593.038C414.132 594.023 414.132 595.619 412.433 596.604L332.597 642.959C330.898 643.944 328.146 643.944 326.448 642.959L232.139 588.522C230.441 587.537 230.441 585.941 232.139 584.956Z" fill="#00FFE7"/>
<path opacity="0.1" d="M130.866 561.83L113.37 551.744C111.603 550.725 111.603 549.095 113.37 548.076L220.316 486.372C222.083 485.353 224.903 485.353 226.669 486.372L244.165 496.458C245.932 497.476 245.932 499.106 244.165 500.125L137.219 561.83C135.452 562.848 132.632 562.848 130.866 561.83Z" fill="#00FFE7"/>
<path opacity="0.1" d="M267.438 483.723L249.942 473.637C248.176 472.618 248.176 470.988 249.942 469.969L366.333 402.661C368.1 401.642 370.919 401.642 372.686 402.661L390.182 412.747C391.948 413.766 391.948 415.396 390.182 416.415L273.791 483.723C272.024 484.741 269.205 484.741 267.438 483.723Z" fill="#00FFE7"/>
<path d="M90.4049 450.986C91.526 438.149 84.5956 410.744 72.7051 392.915C60.8486 375.086 40.9745 361.061 25.6528 364.83C11.3842 368.362 11.2823 386.666 27.0457 400.182C42.809 413.698 66.7599 431.051 72.3314 452.514L85.6148 479.41L90.4389 450.952L90.4049 450.986Z" fill="#008080"/>
<path opacity="0.1" d="M90.4049 450.986C91.526 438.149 84.5956 410.744 72.7051 392.915C60.8486 375.086 40.9745 361.061 25.6528 364.83C11.3842 368.362 11.2823 386.666 27.0457 400.182C42.809 413.698 66.7599 431.051 72.3314 452.514L85.6148 479.41L90.4389 450.952L90.4049 450.986Z" fill="#00FFE7"/>
<path d="M89.8273 468.611C89.4196 468.543 89.0799 468.203 89.0459 467.796C84.2897 423.241 51.9816 384.493 31.428 374.78C30.9524 374.543 30.7486 373.999 30.9864 373.524C31.1902 373.049 31.7677 372.845 32.2434 373.083C53.1706 382.999 86.0902 422.358 90.9144 467.626C90.9823 468.135 90.6086 468.611 90.0651 468.645C89.9631 468.645 89.8952 468.645 89.7933 468.645L89.8273 468.611Z" fill="white"/>
<path d="M80.825 496.084C79.3981 488.681 71.6183 476.014 58.233 464.909C43.4209 452.65 23.8865 445.892 20.0476 437.028C15.4273 426.365 24.8378 417.502 40.8729 420.931C56.9081 424.361 83.4409 448.948 85.0716 482.636L80.8589 496.084H80.825Z" fill="#008080"/>
<path d="M84.6303 488.783C84.2905 488.715 83.9848 488.477 83.8829 488.104C73.725 449.39 46.241 433.7 33.1275 430.814C32.6179 430.712 32.3121 430.203 32.4141 429.693C32.516 429.184 32.9916 428.844 33.5352 428.98C48.0415 432.172 75.3557 448.133 85.7174 487.628C85.8533 488.138 85.5475 488.647 85.0379 488.783C84.902 488.817 84.7661 488.817 84.6303 488.783Z" fill="white"/>
<path d="M468.52 321.294V276.739L526.443 243.323V287.878L468.52 321.294Z" fill="#008080"/>
<path d="M468.52 276.739L396.158 234.969V279.524L468.52 321.294V276.739Z" fill="#008080"/>
<path opacity="0.15" d="M468.52 276.739L396.158 234.969V279.524L468.52 321.294V276.739Z" fill="#00FFE7"/>
<path d="M468.52 276.739L528.143 242.304L454.048 199.515L394.426 233.95L468.52 276.739Z" fill="#008080"/>
<path opacity="0.45" d="M468.52 276.739L528.143 242.304L454.048 199.515L394.426 233.95L468.52 276.739Z" fill="white"/>
<path d="M468.52 276.739V287.878L528.142 253.443V242.304L468.52 276.739Z" fill="#008080"/>
<path opacity="0.2" d="M468.52 287.878L526.443 254.461V256.907L468.52 290.323V287.878Z" fill="#00FFE7"/>
<path d="M394.426 233.95L468.52 276.739V287.878L394.426 245.089V233.95Z" fill="#008080"/>
<path opacity="0.2" d="M394.426 233.95L468.52 276.739V287.878L394.426 245.089V233.95Z" fill="#00FFE7"/>
<path opacity="0.2" d="M468.52 287.878L396.158 246.107V248.553L468.52 290.323V287.878Z" fill="#00FFE7"/>
<path d="M487.613 283.497L507.385 272.087C508.234 271.611 508.914 271.985 508.914 272.97V284.652C508.914 285.636 508.234 286.825 507.385 287.334L487.613 298.745C486.763 299.22 486.084 298.847 486.084 297.862V286.18C486.084 285.195 486.763 284.006 487.613 283.497Z" fill="#4DB6AC"/>
<path d="M488.871 284.821L506.129 274.871C506.706 274.532 507.148 274.803 507.148 275.448V284.21C507.148 284.855 506.673 285.67 506.129 285.976L488.871 295.926C488.293 296.266 487.852 295.994 487.852 295.349V286.587C487.852 285.942 488.327 285.127 488.871 284.821Z" fill="#F5F6F6"/>
<g opacity="0.5">
<path d="M489.346 287.131C489.346 287.131 489.177 287.097 489.143 286.995C489.075 286.859 489.143 286.723 489.244 286.655L505.517 277.248C505.517 277.248 505.789 277.248 505.857 277.35C505.925 277.486 505.857 277.622 505.755 277.69L489.482 287.097C489.482 287.097 489.414 287.131 489.346 287.131Z" fill="#4DB6AC"/>
<path d="M489.346 289.304C489.346 289.304 489.177 289.27 489.143 289.168C489.075 289.032 489.143 288.896 489.244 288.828L505.517 279.422C505.517 279.422 505.789 279.422 505.857 279.524C505.925 279.659 505.857 279.795 505.755 279.863L489.482 289.27C489.482 289.27 489.414 289.304 489.346 289.304Z" fill="#4DB6AC"/>
<path d="M489.346 291.444C489.346 291.444 489.177 291.41 489.143 291.308C489.075 291.172 489.143 291.036 489.244 290.968L505.517 281.561C505.517 281.561 505.789 281.561 505.857 281.663C505.925 281.799 505.857 281.935 505.755 282.003L489.482 291.41C489.482 291.41 489.414 291.444 489.346 291.444Z" fill="#4DB6AC"/>
<path d="M489.346 293.583C489.346 293.583 489.177 293.549 489.143 293.447C489.075 293.311 489.143 293.175 489.244 293.107L505.517 283.701C505.517 283.701 505.789 283.701 505.857 283.803C505.925 283.938 505.857 284.074 505.755 284.142L489.482 293.549C489.482 293.549 489.414 293.583 489.346 293.583Z" fill="#4DB6AC"/>
</g>
<path d="M468.52 271.136V226.581L526.443 193.131V237.72L468.52 271.136Z" fill="#008080"/>
<path d="M468.52 226.581L396.158 184.777V229.366L468.52 271.136V226.581Z" fill="#008080"/>
<path opacity="0.15" d="M468.52 226.581L396.158 184.777V229.366L468.52 271.136V226.581Z" fill="#00FFE7"/>
<path d="M468.52 226.581L528.143 192.146L454.048 149.357L394.426 183.792L468.52 226.581Z" fill="#008080"/>
<path opacity="0.6" d="M468.52 226.581L528.143 192.146L454.048 149.357L394.426 183.792L468.52 226.581Z" fill="white"/>
<path d="M468.52 226.581V237.719L528.142 203.285V192.146L468.52 226.581Z" fill="#008080"/>
<path opacity="0.2" d="M468.52 237.719L526.443 204.269V206.748L468.52 240.165V237.719Z" fill="#00FFE7"/>
<path d="M394.426 183.792L468.52 226.581V237.72L394.426 194.93V183.792Z" fill="#008080"/>
<path opacity="0.2" d="M394.426 183.792L468.52 226.581V237.72L394.426 194.93V183.792Z" fill="#00FFE7"/>
<path opacity="0.2" d="M468.52 237.72L396.158 195.915V198.394L468.52 240.165V237.72Z" fill="#00FFE7"/>
<path d="M487.613 233.339L507.385 221.928C508.234 221.453 508.914 221.826 508.914 222.811V234.493C508.914 235.478 508.234 236.667 507.385 237.176L487.613 248.587C486.763 249.062 486.084 248.689 486.084 247.704V236.022C486.084 235.037 486.763 233.848 487.613 233.339Z" fill="#4DB6AC"/>
<path d="M488.871 234.663L506.129 224.713C506.706 224.373 507.148 224.645 507.148 225.29V234.052C507.148 234.697 506.673 235.512 506.129 235.818L488.871 245.768C488.293 246.107 487.852 245.836 487.852 245.191V236.429C487.852 235.784 488.327 234.969 488.871 234.663Z" fill="#F5F6F6"/>
<g opacity="0.5">
<path d="M489.346 236.972C489.346 236.972 489.177 236.938 489.143 236.836C489.075 236.701 489.143 236.565 489.244 236.497L505.517 227.09C505.517 227.09 505.789 227.09 505.857 227.192C505.925 227.328 505.857 227.464 505.755 227.532L489.482 236.938C489.482 236.938 489.414 236.972 489.346 236.972Z" fill="#4DB6AC"/>
<path d="M489.346 239.146C489.346 239.146 489.177 239.112 489.143 239.01C489.075 238.874 489.143 238.738 489.244 238.67L505.517 229.263C505.517 229.263 505.789 229.263 505.857 229.365C505.925 229.501 505.857 229.637 505.755 229.705L489.482 239.112C489.482 239.112 489.414 239.146 489.346 239.146Z" fill="#4DB6AC"/>
<path d="M489.346 241.285C489.346 241.285 489.177 241.251 489.143 241.149C489.075 241.013 489.143 240.878 489.244 240.81L505.517 231.403C505.517 231.403 505.789 231.403 505.857 231.505C505.925 231.641 505.857 231.776 505.755 231.844L489.482 241.251C489.482 241.251 489.414 241.285 489.346 241.285Z" fill="#4DB6AC"/>
<path d="M489.346 243.425C489.346 243.425 489.177 243.391 489.143 243.289C489.075 243.153 489.143 243.017 489.244 242.949L505.517 233.542C505.517 233.542 505.789 233.542 505.857 233.644C505.925 233.78 505.857 233.916 505.755 233.984L489.482 243.391C489.482 243.391 489.414 243.425 489.346 243.425Z" fill="#4DB6AC"/>
</g>
<path d="M85.9537 226.513C84.357 225.596 79.6348 221.317 79.6348 219.347V200.704C79.6348 198.734 81.0277 196.323 82.7263 195.338L419.125 1.22511C420.824 0.240282 422.998 -0.438909 428.535 3.05893C430.098 4.04375 431.423 6.31905 431.423 8.32266V26.9665C431.423 28.9361 430.03 31.3473 428.332 32.3321L91.9329 226.411C90.2343 227.396 87.5504 227.43 85.9197 226.513H85.9537Z" fill="#008080"/>
<path opacity="0.5" d="M431.39 7.77934C431.186 6.18324 429.861 5.60593 428.332 6.48888L91.9336 200.602C91.0843 201.111 90.3029 201.96 89.7594 202.911L80.5527 197.613C81.1303 196.629 81.8777 195.814 82.727 195.304L419.126 1.22515C420.824 0.240319 423.202 -0.370954 428.502 3.025C429.929 3.94191 431.186 5.91157 431.39 7.77934Z" fill="white"/>
<path d="M91.3554 502.434C91.3554 502.434 91.2535 502.468 91.2195 502.468C91.1176 502.536 91.0157 502.57 90.9137 502.57C90.8458 502.57 90.7778 502.638 90.6759 502.638C90.54 502.672 90.4041 502.74 90.2343 502.74C90.1324 502.74 90.0644 502.808 89.9625 502.808C89.8266 502.808 89.6567 502.876 89.4869 502.876C88.2299 503.012 86.9389 502.706 85.9197 502.265C80.1104 499.786 79.6348 497.069 79.6348 495.099V241.727L88.8414 247.025V500.363C88.8414 501.755 89.5548 502.57 90.54 502.57C90.6759 502.57 90.8118 502.57 90.9477 502.502C90.9477 502.502 90.9817 502.502 91.0157 502.502C91.1176 502.502 91.2195 502.468 91.3214 502.401L91.3554 502.434Z" fill="#E6E6E5"/>
<path opacity="0.1" d="M89.7587 202.911C89.2151 203.862 88.8414 204.982 88.8414 205.967V247.024L79.6348 241.727V200.704C79.6348 200.704 79.6348 200.466 79.6348 200.33C79.6348 200.058 79.7027 199.821 79.7707 199.549C79.9405 198.904 80.2123 198.225 80.552 197.647L89.7587 202.945V202.911Z" fill="#0BE6E6" fill-opacity="0.7"/>
<path d="M431.424 302.65C431.424 304.62 430.031 307.031 428.332 308.016L91.9333 502.129C90.2347 503.114 88.8418 502.299 88.8418 500.329V222.472L97.369 217.548C99.0676 216.563 101.853 201.553 103.552 200.568L177.375 157.949C179.074 156.964 183.116 168.035 184.815 167.05L431.424 24.7931V302.65Z" fill="#F1F0F0"/>
<path d="M103.552 294.432L167.048 257.79C168.746 256.805 170.139 257.586 170.139 259.59V440.119C170.139 442.088 168.746 444.499 167.048 445.484L103.552 482.127C101.854 483.112 100.461 482.331 100.461 480.327V299.798C100.461 297.828 101.854 295.417 103.552 294.432Z" fill="#FAFBFC"/>
<path d="M184.849 307.846L293.121 245.225C294.819 244.24 296.212 245.021 296.212 247.024V367.241C296.212 369.211 294.819 371.622 293.121 372.607L184.849 435.228C183.151 436.213 181.758 435.432 181.758 433.429V313.212C181.758 311.242 183.151 308.831 184.849 307.846Z" fill="#FAFBFC"/>
<path d="M308.441 235.954L416.712 173.332C418.411 172.347 419.804 173.128 419.804 175.132V295.349C419.804 297.319 418.411 299.73 416.712 300.715L308.441 363.336C306.742 364.321 305.35 363.54 305.35 361.536V241.319C305.35 239.35 306.742 236.939 308.441 235.954Z" fill="#FAFBFC"/>
<path d="M103.552 247.534L416.748 66.801C418.446 65.8162 419.839 66.5972 419.839 68.6009V101.677C419.839 103.647 418.446 106.058 416.748 107.043L103.552 287.742C101.854 288.727 100.461 287.946 100.461 285.942V252.865C100.461 250.896 101.854 248.485 103.552 247.5V247.534Z" fill="#4DB6AC"/>
<path d="M303.686 149.255V155.028C303.686 156.217 304.535 156.692 305.554 156.115L396.601 103.579V93.5272L305.554 146.063C304.535 146.64 303.686 148.1 303.686 149.289V149.255Z" fill="#FAFBFC"/>
<path d="M406.352 87.8559C407.371 87.2786 408.22 87.754 408.22 88.9426V94.7158C408.22 95.9043 407.405 97.3306 406.352 97.9419L396.602 103.579V93.5272L406.352 87.8899V87.8559Z" fill="#008080"/>
<path d="M405.638 95.7685L404.551 95.4289C404.653 94.9535 404.721 94.478 404.721 94.0366C404.721 92.9159 404.347 92.0669 403.736 91.7273C403.26 91.4556 402.717 91.4896 402.139 91.7952C400.916 92.5084 399.965 94.478 399.965 96.3118C399.965 97.4325 400.339 98.2815 400.95 98.6211C401.154 98.7569 401.392 98.7909 401.63 98.7909C401.935 98.7909 402.207 98.689 402.513 98.5192C403.26 98.1117 403.872 97.1948 404.279 96.176L405.367 96.5156C405.367 96.5156 405.434 96.5156 405.502 96.5156C405.672 96.5156 405.842 96.4137 405.876 96.2439C405.944 96.0402 405.808 95.8025 405.604 95.7345L405.638 95.7685ZM402.139 97.84C401.833 98.0098 401.562 98.0438 401.358 97.9079C400.984 97.7042 400.78 97.0929 400.78 96.2779C400.78 94.7497 401.596 93.0178 402.547 92.4405C402.717 92.3386 402.887 92.2707 403.022 92.2707C403.124 92.2707 403.226 92.2707 403.328 92.3386C403.702 92.5423 403.906 93.1536 403.906 93.9686C403.906 95.4968 403.09 97.2288 402.139 97.8061V97.84Z" fill="#FAFBFC"/>
<path d="M181.758 252.899V292.666C181.758 294.636 183.151 295.451 184.849 294.466L416.748 160.631C418.446 159.647 419.839 157.235 419.839 155.266V115.499C419.839 113.529 418.446 112.714 416.748 113.699L184.849 247.534C183.151 248.519 181.758 250.93 181.758 252.899Z" fill="#FAFBFC"/>
<path d="M431.424 24.7931V49.3119L88.8418 247.025V222.506L95.1947 218.838C96.8933 217.853 97.4709 216.359 98.2862 213.472L100.427 205.967C101.106 203.353 101.819 201.587 103.518 200.602L177.341 157.983C179.04 156.998 180.398 156.896 181.689 159.035L184.339 163.824C185.325 165.488 185.8 166.472 187.499 165.488L431.424 24.7931Z" fill="#E0E1E0"/>
<path d="M416.916 19.3256C418.751 18.2729 420.212 19.1218 420.212 21.2273C420.212 23.3328 418.717 25.9138 416.916 26.9665C415.116 28.0193 413.621 27.1703 413.621 25.0648C413.621 22.9593 415.116 20.3784 416.916 19.3256Z" fill="white"/>
<path d="M402.887 27.408C404.722 26.3553 406.183 27.2042 406.183 29.3097C406.183 31.4152 404.688 33.9962 402.887 35.0489C401.053 36.1017 399.592 35.2527 399.592 33.1472C399.592 31.0417 401.087 28.4607 402.887 27.408Z" fill="white"/>
<path d="M388.856 35.4904C390.69 34.4377 392.151 35.2866 392.151 37.3921C392.151 39.4976 390.656 42.0786 388.856 43.1313C387.055 44.1841 385.561 43.3351 385.561 41.2296C385.561 39.1241 387.055 36.5431 388.856 35.4904Z" fill="white"/>
<path d="M129.508 214.627V209.839C129.508 207.869 130.901 205.458 132.599 204.473L410.905 43.9463C412.603 42.9614 413.996 43.7425 413.996 45.7461V50.5344C413.996 52.5041 412.603 54.9152 410.905 55.9L132.599 216.427C130.901 217.412 129.508 216.631 129.508 214.627Z" fill="#FAFBFC"/>
<path d="M406.896 56.749C406.896 56.749 406.726 56.749 406.658 56.715C406.42 56.6131 406.182 56.3415 406.25 55.866L406.522 53.5907L405.435 52.8097C405.231 52.6738 405.129 52.4701 405.129 52.1984C405.129 51.8248 405.299 51.4513 405.605 51.2136L407.235 49.9571C407.235 49.9571 407.303 49.8891 407.303 49.8212L408.051 47.4101C408.186 46.9686 408.526 46.663 408.866 46.629C409.138 46.629 409.376 46.7649 409.511 47.0026L410.123 48.293L411.516 47.7497C411.788 47.6478 412.059 47.7157 412.263 47.9195C412.501 48.1912 412.501 48.6326 412.297 49.0402L411.108 51.2475C411.108 51.2475 411.074 51.3494 411.074 51.3834L411.346 53.387C411.414 53.7945 411.21 54.1681 411.006 54.4058C410.802 54.6095 410.599 54.6774 410.361 54.6435L409.036 54.4737L407.575 56.3075C407.371 56.5792 407.133 56.6811 406.929 56.6811L406.896 56.749ZM406.114 52.0965L407.201 52.8776C407.405 53.0474 407.541 53.3191 407.473 53.6587L407.303 55.1868L408.254 53.9643C408.458 53.6926 408.73 53.5907 409.002 53.6247L410.327 53.7945C410.327 53.7945 410.395 53.6926 410.361 53.6587L410.089 51.655C410.089 51.4173 410.089 51.1796 410.225 50.9419L411.278 49.0062L410.225 49.4137C409.885 49.5496 409.511 49.4137 409.376 49.0741L408.9 48.0553L408.254 50.1948C408.186 50.4325 408.017 50.6702 407.847 50.8061L406.216 52.0626C406.216 52.0626 406.148 52.1305 406.148 52.1984L406.114 52.0965Z" fill="#4DB6AC"/>
<g opacity="0.3">
<path d="M103.042 226.886L98.1839 229.705L100.052 226.139C100.222 225.834 100.222 225.426 100.086 225.256C99.9505 225.087 99.7127 225.222 99.5428 225.528L96.8929 230.588C96.8929 230.656 96.825 230.724 96.825 230.792C96.825 230.792 96.825 230.826 96.825 230.86C96.825 230.962 96.791 231.029 96.791 231.131C96.791 231.233 96.791 231.301 96.825 231.369C96.825 231.369 96.825 231.369 96.825 231.403C96.825 231.437 96.859 231.471 96.8929 231.505L99.5428 233.542C99.5428 233.542 99.7127 233.61 99.8146 233.542C99.9165 233.475 100.018 233.339 100.12 233.169C100.256 232.829 100.256 232.456 100.086 232.354L98.2179 230.928L103.076 228.109C103.28 227.973 103.484 227.6 103.484 227.294C103.484 226.954 103.314 226.785 103.076 226.92L103.042 226.886Z" fill="#00FFE7"/>
<path d="M107.119 224.543L111.977 221.725L110.108 220.298C110.108 220.298 109.938 219.789 110.074 219.483C110.21 219.144 110.448 218.974 110.618 219.11L113.268 221.147C113.268 221.147 113.336 221.215 113.336 221.249C113.336 221.249 113.336 221.249 113.336 221.283C113.336 221.351 113.37 221.419 113.37 221.521C113.37 221.623 113.37 221.691 113.336 221.793C113.336 221.793 113.336 221.827 113.336 221.861C113.336 221.929 113.302 221.996 113.268 222.064L110.618 227.124C110.618 227.124 110.448 227.362 110.346 227.43C110.244 227.498 110.142 227.498 110.04 227.396C109.904 227.226 109.904 226.853 110.074 226.513L111.943 222.947L107.085 225.766C106.881 225.902 106.711 225.732 106.711 225.392C106.711 225.053 106.881 224.679 107.085 224.577L107.119 224.543Z" fill="#00FFE7"/>
<path d="M123.053 210.552C123.053 210.246 122.781 210.28 122.645 210.62L121.966 212.25C120.845 212.114 119.452 213.235 118.534 215.204C117.345 217.751 117.345 220.774 118.534 221.929C119.146 222.506 119.927 222.506 120.709 222.064C121.49 221.623 122.305 220.672 122.883 219.415C123.053 219.076 123.053 218.702 122.883 218.566C122.713 218.431 122.475 218.566 122.339 218.872C121.456 220.774 119.995 221.623 119.078 220.74C118.161 219.857 118.195 217.616 119.078 215.714C119.723 214.356 120.641 213.574 121.456 213.507L120.946 214.729C120.811 215.035 120.946 215.34 121.15 215.204L123.121 213.914C123.121 213.914 123.358 213.574 123.358 213.371L123.053 210.518V210.552Z" fill="#00FFE7"/>
<path d="M176.83 167.967L178.597 164.231C178.801 163.79 178.801 163.28 178.597 163.076C178.393 162.873 178.053 163.076 177.849 163.518L176.083 167.253L174.316 165.555C174.112 165.352 173.773 165.555 173.569 165.997C173.365 166.438 173.365 166.948 173.569 167.152L175.335 168.849L173.569 172.585C173.365 173.027 173.365 173.536 173.569 173.74C173.671 173.842 173.807 173.842 173.943 173.74C174.078 173.672 174.214 173.502 174.316 173.264L176.083 169.529L177.849 171.227C177.849 171.227 178.087 171.329 178.223 171.227C178.359 171.159 178.495 170.989 178.597 170.751C178.801 170.31 178.801 169.8 178.597 169.597L176.83 167.899V167.967Z" fill="#00FFE7"/>
<path d="M417.664 42.2483C417.29 42.2483 416.917 42.0446 416.747 41.705C416.441 41.1956 416.611 40.5503 417.154 40.2447L425.851 35.2187C426.361 34.913 427.006 35.0828 427.312 35.6262C427.618 36.1356 427.448 36.7808 426.905 37.0865L418.208 42.1125C418.038 42.2144 417.868 42.2483 417.664 42.2483Z" fill="#00FFE7"/>
<path d="M417.664 47.2743C417.29 47.2743 416.917 47.0706 416.747 46.731C416.441 46.2216 416.611 45.5763 417.154 45.2707L425.851 40.2447C426.361 39.939 427.006 40.1088 427.312 40.6522C427.618 41.1956 427.448 41.8068 426.905 42.1125L418.208 47.1385C418.038 47.2404 417.868 47.2743 417.664 47.2743Z" fill="#00FFE7"/>
<path d="M417.664 52.3003C417.29 52.3003 416.917 52.0966 416.747 51.757C416.441 51.2476 416.611 50.6023 417.154 50.2967L425.851 45.2707C426.361 44.965 427.006 45.1348 427.312 45.6782C427.618 46.2216 427.448 46.8328 426.905 47.1385L418.208 52.1645C418.038 52.2664 417.868 52.3003 417.664 52.3003Z" fill="#00FFE7"/>
</g>
<path d="M88.8414 222.506V247.025L79.6348 241.727V217.242L88.8414 222.506Z" fill="#E0E1E0"/>
<path opacity="0.15" d="M88.8414 222.506V247.025L79.6348 241.727V217.242L88.8414 222.506Z" fill="#00FFE7"/>
<path d="M148.362 343.028V381.81L122.271 396.854V358.072L148.362 343.028ZM148.362 341.704C148.124 341.704 147.887 341.772 147.683 341.874L121.592 356.918C121.184 357.155 120.912 357.597 120.912 358.072V396.854C120.912 397.33 121.15 397.771 121.592 398.009C121.795 398.145 122.033 398.179 122.271 398.179C122.509 398.179 122.747 398.111 122.95 398.009L149.042 382.965C149.449 382.727 149.721 382.286 149.721 381.81V343.028C149.721 342.553 149.449 342.111 149.042 341.874C148.838 341.738 148.6 341.704 148.362 341.704Z" fill="#008080"/>
<path d="M144.421 351.858V363.098L143.606 363.54V360.11C143.606 358.717 142.961 357.902 142.009 357.902C141.67 357.902 141.262 358.004 140.82 358.242L136.947 360.483V377.192C136.947 378.923 137.627 380.01 138.578 380.01C138.816 380.01 139.088 379.942 139.393 379.772C140.718 378.991 141.806 378.38 141.806 378.38V379.569L128.76 387.108V385.919L131.172 384.527C132.497 383.746 133.584 381.335 133.584 379.127V362.419L129.711 364.66C128.182 365.543 126.925 367.819 126.925 369.72V373.15L126.11 373.626V362.385L144.387 351.858M144.421 350.499C144.184 350.499 143.946 350.567 143.742 350.669L125.465 361.197C125.057 361.434 124.785 361.876 124.785 362.351V373.592C124.785 374.067 125.057 374.509 125.465 374.746C125.668 374.848 125.906 374.916 126.11 374.916C126.314 374.916 126.586 374.848 126.79 374.712L127.605 374.237C128.013 373.999 128.25 373.558 128.25 373.082V369.652C128.25 368.226 129.236 366.426 130.357 365.747L132.225 364.694V379.093C132.225 380.927 131.308 382.863 130.459 383.338L128.047 384.731C127.639 384.968 127.367 385.41 127.367 385.885V387.074C127.367 387.549 127.605 387.991 128.047 388.228C128.25 388.364 128.488 388.398 128.726 388.398C128.964 388.398 129.202 388.33 129.405 388.228L142.451 380.689C142.859 380.452 143.13 380.01 143.13 379.535V378.346C143.13 377.871 142.859 377.429 142.451 377.192C142.247 377.056 142.009 377.022 141.772 377.022C141.534 377.022 141.296 377.09 141.092 377.192L138.68 378.584C138.68 378.584 138.612 378.618 138.578 378.618C138.476 378.482 138.238 378.041 138.238 377.124V361.197L141.432 359.363C141.704 359.193 141.873 359.193 141.941 359.193C142.077 359.193 142.213 359.6 142.213 360.042V363.472C142.213 363.947 142.451 364.389 142.859 364.626C143.063 364.762 143.3 364.796 143.538 364.796C143.776 364.796 143.98 364.728 144.184 364.626L144.999 364.185C145.407 363.947 145.678 363.506 145.678 363.03V351.79C145.678 351.314 145.441 350.873 144.999 350.635C144.795 350.533 144.557 350.465 144.32 350.465L144.421 350.499Z" fill="#008080"/>
<path d="M221.269 358.276C221.269 358.276 221.065 358.276 220.963 358.208C220.623 358.038 220.487 357.631 220.657 357.325L228.403 341.602C228.675 341.194 229.048 340.957 229.456 340.889C229.864 340.821 230.271 340.957 230.577 341.228L237.168 345.575L238.051 345.745L237.44 345.507L245.287 326.422C245.593 325.946 245.967 325.709 246.375 325.675C246.816 325.607 247.224 325.777 247.53 326.082L257.314 336.168C257.586 336.44 257.552 336.847 257.314 337.119C257.042 337.391 256.634 337.357 256.363 337.119L246.578 327.067L238.663 346.084C238.493 346.492 238.153 346.832 237.711 346.967C237.27 347.103 236.828 347.035 236.454 346.798L229.626 342.349L221.846 358.038C221.744 358.276 221.506 358.412 221.235 358.412L221.269 358.276Z" fill="#008080"/>
<path d="M256.6 312.465V347.647L221.404 367.988V332.806L256.6 312.465ZM257.585 310.427C257.585 310.427 257.415 310.427 257.313 310.495L255.988 311.276L220.656 331.686C220.656 331.686 220.351 331.957 220.215 332.161C220.113 332.365 220.045 332.569 220.045 332.772V369.619C220.045 369.89 220.181 370.06 220.385 370.06C220.453 370.06 220.555 370.06 220.656 369.992L257.313 348.835C257.653 348.632 257.925 348.156 257.925 347.783V310.936C257.925 310.665 257.789 310.495 257.585 310.495V310.427Z" fill="#008080"/>
<path d="M232.411 337.459C232.072 337.459 231.732 337.357 231.426 337.187C230.747 336.779 230.373 336.032 230.373 335.014C230.373 333.214 231.596 331.074 233.159 330.191C234.042 329.682 234.891 329.614 235.571 330.022C236.25 330.429 236.624 331.176 236.624 332.195C236.624 333.995 235.401 336.134 233.838 337.017C233.363 337.289 232.853 337.459 232.411 337.459ZM234.62 331.074C234.416 331.074 234.144 331.176 233.838 331.312C232.683 331.991 231.698 333.655 231.698 334.98C231.698 335.489 231.834 335.863 232.072 335.998C232.309 336.134 232.717 336.066 233.159 335.829C234.314 335.149 235.299 333.485 235.299 332.161C235.299 331.652 235.163 331.278 234.925 331.142C234.823 331.108 234.722 331.074 234.62 331.074Z" fill="#008080"/>
<path d="M368.675 248.621C372.955 248.621 375.707 252.832 375.707 259.352C375.707 264.683 373.906 270.898 370.713 276.4C369.558 278.403 368.267 280.237 366.874 281.833C365.108 283.905 363.239 285.467 361.37 286.553C359.672 287.538 358.007 288.048 356.512 288.048C352.232 288.048 349.48 283.837 349.48 277.316C349.48 271.985 351.281 265.77 354.474 260.269C357.124 255.65 360.453 252.05 363.817 250.115C365.515 249.13 367.18 248.621 368.675 248.621ZM368.675 247.262C366.976 247.262 365.107 247.806 363.137 248.926C359.57 250.998 356.071 254.767 353.285 259.59C349.99 265.261 348.121 271.713 348.121 277.316C348.121 284.855 351.552 289.372 356.478 289.372C358.177 289.372 360.046 288.829 362.016 287.708C364.02 286.553 366.025 284.821 367.893 282.682C369.32 281.052 370.679 279.15 371.868 277.045C375.163 271.373 377.032 264.921 377.032 259.352C377.032 251.813 373.601 247.296 368.675 247.296V247.262Z" fill="#008080"/>
<path d="M358.958 263.902L369.32 264.819C369.32 264.819 369.184 265.023 369.082 265.125L358.551 278.199V265.091C358.551 264.412 358.823 263.97 358.958 263.902ZM358.958 262.578C358.007 262.578 357.26 263.699 357.26 265.125V279.32C357.26 280.169 357.498 280.576 357.905 280.576C358.211 280.576 358.619 280.305 359.06 279.761L370.135 265.974C371.121 264.717 371.121 263.665 370.135 263.563L359.06 262.578C359.06 262.578 358.992 262.578 358.958 262.578Z" fill="#008080"/>
<path d="M412.262 437.096L506.434 491.533V433.802L412.262 379.365V437.096Z" fill="#EBEBEB"/>
<path d="M571.695 453.872L506.434 491.533V433.802L571.695 396.141V453.872Z" fill="#F5F6F6"/>
<path d="M412.262 379.365L477.523 341.67L571.696 396.141L506.434 433.802L412.262 379.365Z" fill="#FAFBFC"/>
<path opacity="0.1" d="M461.318 427.078L506.434 453.125L533.477 437.504L506.434 454.721L461.318 427.078Z" fill="#00FFE7"/>
<path opacity="0.1" d="M434.275 426.025L506.434 467.66L560.518 436.417L506.434 469.222L434.275 426.025Z" fill="#00FFE7"/>
<path opacity="0.1" d="M421.332 400.759C421.332 400.759 419.837 409.181 420.584 413.426C420.584 413.426 432.407 413.121 452.315 418.622L421.332 400.725V400.759Z" fill="#00FFE7"/>
<path d="M421.333 400.759L452.316 418.656L418.004 408.774L421.333 400.759Z" fill="#FAFBFC"/>
<path opacity="0.1" d="M461.318 450.68L495.291 481.923C495.291 481.923 496.242 477.644 502.765 474.621L461.318 450.714V450.68Z" fill="#00FFE7"/>
<path d="M461.318 450.68L493.253 477.542L502.765 474.588L461.318 450.68Z" fill="#FAFBFC"/>
<path opacity="0.1" d="M560.825 419.097C560.655 418.826 560.553 418.69 560.553 418.69L539.082 431.085L563.237 429.116C564.086 424.633 561.674 420.456 560.825 419.131V419.097Z" fill="#00FFE7"/>
<path d="M539.049 431.051L560.52 418.656L567.688 422.425L539.049 431.051Z" fill="#FAFBFC"/>
<g opacity="0.3">
<path d="M428.84 383.372C428.568 383.372 428.263 383.236 428.127 382.965C427.889 382.557 428.025 382.048 428.433 381.844L482.551 350.601C482.959 350.363 483.468 350.499 483.672 350.907C483.91 351.314 483.774 351.824 483.367 352.027L429.248 383.27C429.248 383.27 428.976 383.372 428.84 383.372Z" fill="#4DB6AC"/>
<path d="M437.877 388.568C437.606 388.568 437.3 388.432 437.164 388.16C436.926 387.753 437.062 387.243 437.47 387.04L491.588 355.797C491.996 355.559 492.506 355.695 492.709 356.103C492.947 356.51 492.811 357.019 492.404 357.223L438.285 388.466C438.285 388.466 438.013 388.568 437.877 388.568Z" fill="#4DB6AC"/>
<path d="M446.879 393.764C446.607 393.764 446.302 393.628 446.166 393.356C445.928 392.949 446.064 392.439 446.472 392.236L500.59 360.993C500.998 360.755 501.508 360.891 501.711 361.298C501.949 361.706 501.813 362.215 501.406 362.419L447.287 393.662C447.287 393.662 447.015 393.764 446.879 393.764Z" fill="#4DB6AC"/>
<path d="M455.916 398.993C455.645 398.993 455.339 398.858 455.203 398.586C454.965 398.178 455.101 397.669 455.509 397.465L509.627 366.222C510.001 365.985 510.545 366.121 510.748 366.528C510.986 366.936 510.85 367.445 510.443 367.649L456.324 398.892C456.324 398.892 456.052 398.993 455.916 398.993Z" fill="#4DB6AC"/>
<path d="M464.92 404.189C464.648 404.189 464.343 404.053 464.207 403.782C463.969 403.374 464.105 402.865 464.513 402.661L518.631 371.418C519.039 371.181 519.549 371.316 519.752 371.724C519.99 372.131 519.854 372.641 519.447 372.845L465.328 404.087C465.328 404.087 465.056 404.189 464.92 404.189Z" fill="#4DB6AC"/>
<path d="M473.955 409.385C473.684 409.385 473.378 409.249 473.242 408.978C473.004 408.57 473.14 408.061 473.548 407.857L527.666 376.614C528.074 376.376 528.584 376.512 528.788 376.92C529.025 377.327 528.889 377.837 528.482 378.04L474.363 409.283C474.363 409.283 474.091 409.385 473.955 409.385Z" fill="#4DB6AC"/>
<path d="M482.959 414.581C482.688 414.581 482.382 414.445 482.246 414.173C482.008 413.766 482.144 413.256 482.552 413.053L536.67 381.81C537.078 381.572 537.588 381.708 537.791 382.115C538.029 382.523 537.893 383.032 537.486 383.236L483.367 414.479C483.367 414.479 483.095 414.581 482.959 414.581Z" fill="#4DB6AC"/>
<path d="M491.961 419.811C491.69 419.811 491.384 419.675 491.248 419.403C491.01 418.996 491.146 418.486 491.554 418.283L545.672 387.04C546.08 386.802 546.59 386.938 546.793 387.345C547.031 387.753 546.895 388.262 546.488 388.466L492.369 419.709C492.369 419.709 492.097 419.811 491.961 419.811Z" fill="#4DB6AC"/>
<path d="M500.998 425.007C500.727 425.007 500.421 424.871 500.285 424.599C500.047 424.192 500.183 423.682 500.591 423.478L554.709 392.236C555.117 391.998 555.627 392.134 555.831 392.541C556.068 392.949 555.932 393.458 555.525 393.662L501.406 424.905C501.406 424.905 501.134 425.007 500.998 425.007Z" fill="#4DB6AC"/>
</g>
<path d="M372.14 303.363L264.243 365.645C262.85 366.46 261.729 368.396 261.729 370.026V472.788C261.729 474.384 262.85 476.354 264.243 477.169L268.387 479.546C269.78 480.361 272.022 480.361 273.449 479.546L381.347 417.264C382.74 416.449 383.861 414.513 383.861 412.883V310.121C383.861 308.525 382.74 306.556 381.347 305.741L377.202 303.363C375.809 302.548 373.567 302.548 372.174 303.363H372.14Z" fill="#008080"/>
<path opacity="0.3" d="M372.14 303.363L264.243 365.645C262.85 366.46 261.729 368.396 261.729 370.026V472.788C261.729 474.384 262.85 476.354 264.243 477.169L268.387 479.546C269.78 480.361 272.022 480.361 273.449 479.546L381.347 417.264C382.74 416.449 383.861 414.513 383.861 412.883V310.121C383.861 308.525 382.74 306.556 381.347 305.741L377.202 303.363C375.809 302.548 373.567 302.548 372.174 303.363H372.14Z" fill="#00FFE7"/>
<path d="M383.759 309.374C383.454 308.322 382.469 307.982 381.347 308.661L273.45 370.943C272.736 371.317 272.125 372.03 271.649 372.811L262.477 367.513C262.918 366.732 263.53 366.053 264.243 365.645L372.141 303.363C373.534 302.582 375.776 302.582 377.203 303.363L381.347 305.775C382.536 306.454 383.522 307.982 383.759 309.374Z" fill="#008080"/>
<path opacity="0.2" d="M383.759 309.374C383.454 308.322 382.469 307.982 381.347 308.661L273.45 370.943C272.736 371.317 272.125 372.03 271.649 372.811L262.477 367.513C262.918 366.732 263.53 366.053 264.243 365.645L372.141 303.363C373.534 302.582 375.776 302.582 377.203 303.363L381.347 305.775C382.536 306.454 383.522 307.982 383.759 309.374Z" fill="#00FFE7"/>
<path d="M381.312 308.695L273.414 370.977C272.021 371.792 270.9 373.728 270.9 375.358V478.119C270.9 479.715 272.021 480.395 273.414 479.58L381.312 417.298C382.705 416.483 383.826 414.547 383.826 412.917V310.155C383.826 308.559 382.705 307.88 381.312 308.695Z" fill="#008080"/>
<path d="M318.056 432.783C315.27 432.783 312.654 432.104 310.276 430.746C303.787 427.01 300.084 418.52 300.084 407.45C300.084 397.262 303.243 385.919 308.747 376.377C310.582 373.218 312.654 370.264 314.93 367.649C318.158 363.913 321.623 360.959 325.258 358.887C332.222 354.88 339.017 354.371 344.452 357.529C350.941 361.265 354.644 369.754 354.644 380.825C354.644 391.013 351.485 402.356 345.981 411.898C341.531 419.607 335.654 425.822 329.47 429.387C325.53 431.663 321.657 432.783 318.056 432.783ZM317.784 370.128C315.677 372.573 313.741 375.29 312.008 378.278C306.811 387.278 303.821 397.907 303.821 407.484C303.821 417.06 306.845 424.463 312.144 427.52C316.357 429.931 321.827 429.455 327.568 426.161C333.207 422.901 338.575 417.196 342.72 410.031C347.918 401.031 350.907 390.402 350.907 380.825C350.907 371.249 347.884 363.846 342.584 360.789C338.371 358.344 332.902 358.853 327.16 362.148C323.899 364.049 320.739 366.732 317.784 370.128Z" fill="white"/>
<path d="M341.802 388.296L320.637 414.649C318.735 417.026 317.172 416.653 317.172 413.8V386.666C317.172 383.814 318.735 381.64 320.637 381.81L341.802 383.712C343.705 383.882 343.705 385.953 341.802 388.33V388.296Z" fill="white"/>
<path d="M232.885 387.447V481.074C232.885 482.059 232.205 483.247 231.322 483.757L138.203 537.515C137.353 537.99 136.674 537.617 136.674 536.632V531.742L227.925 479.036V388.5L231.322 386.53C232.171 386.021 232.885 386.429 232.885 387.413V387.447Z" fill="#0BE6E6" fill-opacity="0.7"/>
<path d="M227.96 388.5V479.036L136.709 531.742V443.005C136.709 442.496 136.879 441.952 137.151 441.477C137.422 441.002 137.796 440.56 138.238 440.322L227.96 388.5Z" fill="#008080"/>
<path opacity="0.8" d="M227.96 388.5V479.036L136.709 531.742V443.005C136.709 442.496 136.879 441.952 137.151 441.477C137.422 441.002 137.796 440.56 138.238 440.322L227.96 388.5Z" fill="white"/>
<path d="M205.436 427.214C205.436 427.214 205.232 427.044 205.13 426.976C205.13 426.976 205.13 426.976 205.096 426.976L199.321 423.648H199.287C198.404 423.139 197.249 423.41 196.671 424.293L176.118 474.961L162.461 465.996C162.461 465.996 162.291 465.86 162.189 465.792L162.121 465.758L156.413 462.464C155.53 461.921 154.375 462.158 153.764 463.041L133.855 503.385V530.145L139.665 533.507L229.251 481.787C230.27 481.21 230.916 480.089 230.916 478.9V453.499L205.504 427.316L205.436 427.214Z" fill="#008080"/>
<path opacity="0.15" d="M205.436 427.214C205.436 427.214 205.232 427.044 205.13 426.976C205.13 426.976 205.13 426.976 205.096 426.976L199.321 423.648H199.287C198.404 423.139 197.249 423.41 196.671 424.293L176.118 474.961L162.461 465.996C162.461 465.996 162.291 465.86 162.189 465.792L162.121 465.758L156.413 462.464C155.53 461.921 154.375 462.158 153.764 463.041L133.855 503.385V530.145L139.665 533.507L229.251 481.787C230.27 481.21 230.916 480.089 230.916 478.9V453.499L205.504 427.316L205.436 427.214Z" fill="#00FFE7"/>
<path d="M139.598 533.406V506.645L159.506 466.301C160.151 465.317 161.544 465.147 162.427 465.894L181.52 478.459L202.447 427.554C203.127 426.535 204.554 426.365 205.437 427.214L230.849 453.397V478.799C230.849 479.987 230.203 481.074 229.184 481.685L139.598 533.406Z" fill="#008080"/>
<path opacity="0.15" d="M181.519 478.459L175.506 493.096L179.311 476.999L181.519 478.459Z" fill="#00FFE7"/>
<path d="M236.657 381.674C236.657 381.674 236.657 381.538 236.623 381.47C236.453 380.587 235.841 379.671 235.128 379.229L232.41 377.667C231.561 377.158 230.168 377.158 229.319 377.667L129.54 435.262C129.099 435.5 128.725 435.942 128.453 436.417C128.182 436.892 128.012 437.436 128.012 437.945V555.072C128.012 556.057 128.691 557.279 129.574 557.755L132.292 559.317C133.04 559.758 134.195 559.792 135.044 559.487C135.078 559.487 135.112 559.487 135.146 559.453C135.214 559.453 135.316 559.385 135.384 559.317L235.162 501.721C236.011 501.212 236.691 500.023 236.691 499.038V381.912C236.691 381.912 236.691 381.742 236.691 381.674H236.657ZM232.886 481.074C232.886 482.059 232.206 483.247 231.323 483.757L138.204 537.515C137.354 538.024 136.675 537.617 136.675 536.632V443.005C136.675 442.496 136.845 441.952 137.116 441.477C137.388 441.002 137.796 440.56 138.204 440.322L231.323 386.564C232.172 386.055 232.886 386.463 232.886 387.447V481.074Z" fill="#008080" fill-opacity="0.8"/>
<path d="M134.976 559.487C134.126 559.792 132.971 559.758 132.224 559.317L129.506 557.755C128.657 557.279 127.943 556.057 127.943 555.072V437.945C127.943 437.47 128.113 436.926 128.385 436.417C130.084 437.402 132.054 438.523 134.194 439.779C133.923 440.254 133.753 440.798 133.753 441.307V558.4C133.753 559.249 134.262 559.656 134.942 559.453L134.976 559.487Z" fill="#0BE6E6" fill-opacity="0.7"/>
<path d="M236.656 381.674C236.656 381.674 236.656 381.538 236.622 381.47C236.418 380.825 235.841 380.621 235.127 381.029L135.349 438.624C134.907 438.862 134.534 439.304 134.262 439.779C133.99 440.254 133.82 440.832 133.82 441.307V558.4C133.82 559.249 134.33 559.656 135.009 559.452C135.043 559.452 135.077 559.419 135.111 559.419C135.179 559.385 135.281 559.351 135.349 559.283L235.127 501.687C235.977 501.178 236.656 499.989 236.656 499.004V381.878C236.656 381.878 236.656 381.708 236.656 381.64V381.674ZM232.885 481.04C232.885 482.025 232.206 483.213 231.322 483.723L138.203 537.481C137.353 537.956 136.674 537.583 136.674 536.598V442.971C136.674 442.462 136.844 441.918 137.116 441.443C137.387 440.968 137.761 440.526 138.203 440.288L227.925 388.466L231.322 386.496C232.172 385.987 232.885 386.394 232.885 387.379V481.006V481.04Z" fill="#4DB6AC"/>
<path d="M173.128 441.443L175.37 437.606L170.749 434.923C169.628 434.277 168.066 434.379 166.333 435.364C162.868 437.368 160.082 442.19 160.082 446.197C160.082 448.167 160.761 449.559 161.883 450.205H161.917L166.401 452.785L168.541 449.152C170.749 447.25 172.516 444.262 173.094 441.409L173.128 441.443Z" fill="#008080"/>
<path opacity="0.15" d="M173.128 441.443L175.37 437.606L170.749 434.923C169.628 434.277 168.066 434.379 166.333 435.364C162.868 437.368 160.082 442.19 160.082 446.197C160.082 448.167 160.761 449.559 161.883 450.205H161.917L166.401 452.785L168.541 449.152C170.749 447.25 172.516 444.262 173.094 441.409L173.128 441.443Z" fill="#00FFE7"/>
<path d="M170.886 438.013C174.351 436.01 177.137 437.64 177.137 441.613C177.137 445.586 174.351 450.442 170.886 452.446C167.421 454.45 164.635 452.82 164.635 448.846C164.635 444.873 167.421 440.017 170.886 438.013Z" fill="#008080"/>
<path d="M403.632 593.786L328.382 637.186L243.654 588.182L318.904 544.782L403.632 593.786Z" fill="#008080"/>
<path opacity="0.5" d="M403.632 593.786L328.382 637.186L243.654 588.182L318.904 544.782L403.632 593.786Z" fill="#00FFE7"/>
<path d="M318.904 485.896V544.782L243.654 588.182V529.331L318.904 485.896Z" fill="#008080"/>
<path opacity="0.23" d="M318.904 485.896V544.782L243.654 588.182V529.331L318.904 485.896Z" fill="#00FFE7"/>
<path d="M403.632 534.9V593.786L318.904 544.782V485.896L403.632 534.9Z" fill="#008080"/>
<path opacity="0.4" d="M403.632 534.9V593.786L318.904 544.782V485.896L403.632 534.9Z" fill="#00FFE7"/>
<path d="M318.904 485.896L319.006 453.329L403.531 502.366L403.632 534.9L318.904 485.896Z" fill="#008080"/>
<path opacity="0.2" d="M318.904 485.896L319.006 453.329L403.531 502.366L403.632 534.9L318.904 485.896Z" fill="#00FFE7"/>
<path d="M243.654 529.33L234.686 499.752L309.935 456.317L318.904 485.896L243.654 529.33Z" fill="#008080"/>
<path opacity="0.1" d="M243.654 529.33L234.686 499.752L309.935 456.317L318.904 485.896L243.654 529.33Z" fill="#00FFE7"/>
<path d="M261.592 585.907C260.777 585.432 260.063 584.277 260.029 583.292L253.71 479.682C253.642 478.731 254.254 477.576 255.069 477.101L319.583 440.085C320.399 439.609 321.69 439.643 322.505 440.085C323.321 440.56 324.034 441.715 324.068 442.7L330.387 546.31C330.455 547.261 329.843 548.416 329.028 548.891L264.514 585.907C263.698 586.383 262.407 586.349 261.592 585.907Z" fill="#F1F0F0"/>
<path d="M263.868 585.737C263.392 585.737 263.324 585.16 263.324 584.99L257.006 481.379C256.972 480.564 257.481 479.546 258.161 479.172L322.675 442.156C322.675 442.156 322.981 442.02 323.117 442.02C323.592 442.02 323.66 442.598 323.66 442.767L329.979 546.378C330.013 547.193 329.503 548.212 328.824 548.619L264.31 585.635C264.31 585.635 264.004 585.771 263.868 585.771V585.737Z" fill="#FAFBFC"/>
<path d="M323.151 442.394C323.151 442.394 323.287 442.632 323.321 442.767L329.64 546.378C329.674 547.057 329.232 547.94 328.689 548.246L264.174 585.262C264.174 585.262 263.936 585.364 263.902 585.364C263.801 585.364 263.767 585.126 263.733 584.99L257.414 481.379C257.38 480.7 257.821 479.817 258.365 479.512L322.879 442.496C322.879 442.496 323.117 442.394 323.151 442.394ZM323.151 441.613C322.947 441.613 322.743 441.681 322.506 441.817L257.991 478.833C257.176 479.308 256.598 480.463 256.632 481.413L262.951 585.024C262.985 585.737 263.359 586.111 263.869 586.111C264.072 586.111 264.276 586.043 264.514 585.907L329.028 548.891C329.844 548.416 330.455 547.261 330.387 546.31L324.068 442.7C324.034 441.986 323.661 441.613 323.151 441.613Z" fill="#EBEBEB"/>
<path d="M264.344 586.043C263.528 586.416 262.373 586.382 261.626 585.907C260.81 585.432 260.097 584.277 260.063 583.292L253.744 479.681C253.744 479.206 253.846 478.663 254.084 478.187L257.006 479.919C256.768 480.395 256.632 480.904 256.666 481.379L262.985 584.99C263.053 585.873 263.63 586.281 264.378 586.009L264.344 586.043Z" fill="#E0E1E0"/>
<path d="M290.572 470.411L313.299 457.2C314.013 456.793 314.624 457.166 314.692 458.015V458.559C314.794 459.408 314.251 460.426 313.537 460.834L290.81 474.044C290.096 474.452 289.485 474.078 289.417 473.229V472.686C289.315 471.837 289.858 470.818 290.572 470.411Z" fill="#E0E1E0"/>
<path d="M291.115 479.444L313.842 466.233C314.556 465.826 315.167 466.2 315.235 467.049V467.592C315.303 468.441 314.794 469.46 314.08 469.867L291.352 483.077C290.639 483.485 290.028 483.111 289.96 482.262V481.719C289.858 480.87 290.401 479.851 291.115 479.444Z" fill="#E0E1E0"/>
<path d="M291.658 488.443L314.385 475.233C315.099 474.825 315.71 475.199 315.778 476.048V476.591C315.88 477.44 315.337 478.459 314.623 478.866L291.895 492.077C291.182 492.484 290.57 492.111 290.503 491.262V490.718C290.401 489.869 290.944 488.851 291.658 488.443Z" fill="#E0E1E0"/>
<path d="M268.726 520.195L315.507 493.299C316.22 492.892 316.831 493.265 316.899 494.114V494.658C317.001 495.507 316.458 496.526 315.744 496.933L268.964 523.829C268.25 524.237 267.639 523.863 267.571 523.014V522.471C267.469 521.622 268.013 520.603 268.726 520.195Z" fill="#E0E1E0"/>
<path d="M268.183 511.162L314.964 484.266C315.677 483.858 316.288 484.232 316.356 485.081V485.624C316.424 486.473 315.915 487.492 315.201 487.9L268.421 514.796C267.707 515.203 267.096 514.83 267.028 513.981V513.437C266.926 512.588 267.47 511.569 268.183 511.162Z" fill="#E0E1E0"/>
<path d="M269.271 529.262L316.051 502.367C316.765 501.959 317.376 502.333 317.444 503.182V503.725C317.546 504.574 317.003 505.593 316.289 506L269.509 532.896C268.795 533.304 268.184 532.93 268.116 532.081V531.538C268.014 530.689 268.557 529.67 269.271 529.262Z" fill="#E0E1E0"/>
<path d="M269.814 538.296L316.594 511.4C317.308 510.992 317.919 511.366 317.987 512.215V512.758C318.055 513.607 317.546 514.626 316.832 515.033L270.052 541.929C269.338 542.337 268.727 541.963 268.659 541.114V540.571C268.557 539.722 269.1 538.703 269.814 538.296Z" fill="#E0E1E0"/>
<path d="M270.392 547.329L317.173 520.433C317.886 520.025 318.498 520.399 318.565 521.248V521.791C318.633 522.64 318.124 523.659 317.41 524.067L270.63 550.963C269.916 551.37 269.305 550.997 269.237 550.148V549.604C269.135 548.755 269.679 547.736 270.392 547.329Z" fill="#E0E1E0"/>
<path d="M270.935 556.362L317.716 529.466C318.429 529.059 319.04 529.432 319.108 530.281V530.825C319.21 531.674 318.667 532.692 317.953 533.1L271.173 559.996C270.459 560.403 269.848 560.03 269.78 559.181V558.637C269.678 557.788 270.222 556.77 270.935 556.362Z" fill="#E0E1E0"/>
<path d="M271.478 565.362L318.258 538.466C318.972 538.058 319.583 538.432 319.651 539.281V539.824C319.753 540.673 319.21 541.692 318.496 542.099L271.716 568.995C271.002 569.403 270.391 569.029 270.323 568.18V567.637C270.221 566.788 270.765 565.769 271.478 565.362Z" fill="#E0E1E0"/>
<path d="M265.498 483.315L284.387 472.482L285.78 495.133L266.891 505.966L265.498 483.315Z" fill="#008080"/>
<path d="M268.555 485.658L268.963 492.45L269.541 492.111L269.405 490.039C269.337 488.885 270.186 487.424 271.307 486.813L274.093 485.217L274.705 495.303C274.772 496.627 274.059 498.156 273.108 498.733L271.341 499.752V500.465L280.82 495.065V494.352C280.82 494.352 280.004 494.794 279.019 495.371C278.034 495.914 277.185 495.303 277.117 493.945L276.505 483.859L279.291 482.262C280.412 481.617 281.363 482.059 281.431 483.179C281.499 484.334 281.567 485.251 281.567 485.251L282.145 484.911L281.737 478.119L268.521 485.692L268.555 485.658Z" fill="#FAFBFC"/>
<path d="M288.465 601.427C287.65 600.951 286.936 599.797 286.902 598.812L280.583 495.201C280.515 494.25 281.127 493.096 281.942 492.62L346.457 455.604C347.272 455.129 348.563 455.163 349.378 455.604C350.194 456.08 350.907 457.234 350.941 458.219L357.26 561.83C357.328 562.781 356.716 563.935 355.901 564.411L291.387 601.427C290.571 601.902 289.28 601.868 288.465 601.427Z" fill="#F1F0F0"/>
<path d="M290.741 601.257C290.265 601.257 290.198 600.679 290.198 600.51L283.879 496.899C283.845 496.084 284.354 495.065 285.034 494.658L349.548 457.642C349.548 457.642 349.854 457.506 349.99 457.506C350.465 457.506 350.533 458.083 350.533 458.253L356.852 561.864C356.886 562.679 356.377 563.697 355.697 564.071L291.183 601.087C291.183 601.087 290.877 601.223 290.741 601.223V601.257Z" fill="#FAFBFC"/>
<path d="M349.989 457.913C349.989 457.913 350.125 458.151 350.159 458.287L356.478 561.898C356.512 562.577 356.07 563.46 355.526 563.765L291.012 600.781C291.012 600.781 290.774 600.883 290.74 600.883C290.638 600.883 290.604 600.645 290.57 600.51L284.251 496.899C284.217 496.22 284.659 495.337 285.203 495.031L349.717 458.015C349.717 458.015 349.955 457.913 349.989 457.913ZM349.989 457.132C349.785 457.132 349.581 457.2 349.343 457.336L284.829 494.352C284.014 494.827 283.402 495.982 283.47 496.933L289.789 600.544C289.823 601.257 290.197 601.63 290.706 601.63C290.91 601.63 291.114 601.562 291.352 601.427L355.866 564.411C356.681 563.935 357.293 562.781 357.225 561.83L350.906 458.219C350.872 457.506 350.498 457.132 349.989 457.132Z" fill="#EBEBEB"/>
<path d="M291.217 601.528C290.401 601.902 289.246 601.868 288.499 601.393C287.684 600.917 286.97 599.763 286.936 598.778L280.617 495.167C280.617 494.692 280.719 494.148 280.957 493.673L283.879 495.405C283.641 495.88 283.505 496.39 283.539 496.865L289.858 600.476C289.926 601.359 290.503 601.766 291.251 601.495L291.217 601.528Z" fill="#E0E1E0"/>
<path d="M317.445 485.896L340.173 472.686C340.886 472.278 341.497 472.652 341.565 473.501V474.044C341.667 474.893 341.124 475.912 340.41 476.32L317.683 489.53C316.969 489.937 316.358 489.564 316.29 488.715V488.171C316.188 487.322 316.731 486.304 317.445 485.896Z" fill="#E0E1E0"/>
<path d="M317.988 494.929L340.716 481.719C341.429 481.312 342.04 481.685 342.108 482.534V483.077C342.176 483.926 341.667 484.945 340.953 485.353L318.226 498.563C317.512 498.971 316.901 498.597 316.833 497.748V497.205C316.731 496.356 317.274 495.337 317.988 494.929Z" fill="#E0E1E0"/>
<path d="M318.531 503.963L341.258 490.752C341.972 490.345 342.583 490.718 342.651 491.567V492.111C342.719 492.96 342.21 493.978 341.496 494.386L318.768 507.596C318.055 508.004 317.444 507.63 317.376 506.781V506.238C317.274 505.389 317.817 504.37 318.531 503.963Z" fill="#E0E1E0"/>
<path d="M295.599 535.681L342.38 508.785C343.093 508.377 343.705 508.751 343.772 509.6V510.143C343.874 510.992 343.331 512.011 342.617 512.418L295.837 539.314C295.123 539.722 294.512 539.348 294.444 538.499V537.956C294.342 537.107 294.886 536.088 295.599 535.681Z" fill="#E0E1E0"/>
<path d="M295.056 526.681L341.837 499.785C342.55 499.378 343.162 499.751 343.23 500.6V501.144C343.331 501.993 342.788 503.012 342.074 503.419L295.294 530.315C294.58 530.723 293.969 530.349 293.901 529.5V528.957C293.799 528.108 294.343 527.089 295.056 526.681Z" fill="#E0E1E0"/>
<path d="M296.144 544.782L342.925 517.886C343.638 517.479 344.249 517.852 344.317 518.701V519.244C344.419 520.093 343.876 521.112 343.162 521.52L296.382 548.416C295.668 548.823 295.057 548.45 294.989 547.601V547.057C294.887 546.208 295.431 545.19 296.144 544.782Z" fill="#E0E1E0"/>
<path d="M296.687 553.815L343.467 526.919C344.181 526.512 344.792 526.885 344.86 527.734V528.278C344.928 529.127 344.419 530.145 343.705 530.553L296.925 557.449C296.211 557.856 295.6 557.483 295.532 556.634V556.091C295.43 555.242 295.973 554.223 296.687 553.815Z" fill="#E0E1E0"/>
<path d="M297.265 562.815L344.046 535.919C344.759 535.511 345.371 535.885 345.438 536.734V537.277C345.506 538.126 344.997 539.145 344.283 539.552L297.503 566.448C296.789 566.856 296.178 566.482 296.11 565.633V565.09C296.008 564.241 296.552 563.222 297.265 562.815Z" fill="#E0E1E0"/>
<path d="M297.808 571.848L344.589 544.952C345.302 544.544 345.914 544.918 345.981 545.767V546.31C346.083 547.159 345.54 548.178 344.826 548.585L298.046 575.481C297.332 575.889 296.721 575.515 296.653 574.666V574.123C296.551 573.274 297.095 572.255 297.808 571.848Z" fill="#E0E1E0"/>
<path d="M298.351 580.881L345.132 553.985C345.845 553.577 346.456 553.951 346.524 554.8V555.343C346.626 556.192 346.083 557.211 345.369 557.619L298.589 584.515C297.875 584.922 297.264 584.549 297.196 583.7V583.156C297.094 582.307 297.638 581.288 298.351 580.881Z" fill="#E0E1E0"/>
<path d="M292.371 498.801L311.26 488.002L312.619 510.653L293.764 521.452L292.371 498.801Z" fill="#008080"/>
<path d="M295.428 501.144L295.836 507.936L296.414 507.596L296.278 505.525C296.21 504.37 297.059 502.944 298.18 502.299L300.966 500.703L301.578 510.789C301.646 512.113 300.932 513.641 299.981 514.218L298.214 515.237V515.95L307.693 510.551V509.838C307.693 509.838 306.877 510.279 305.892 510.856C304.907 511.4 304.058 510.789 303.99 509.43L303.378 499.344L306.164 497.748C307.285 497.103 308.236 497.544 308.304 498.665C308.372 499.82 308.44 500.737 308.44 500.737L309.018 500.397L308.61 493.605L295.395 501.178L295.428 501.144Z" fill="#FAFBFC"/>
<path d="M315.27 616.912C314.454 616.437 313.741 615.282 313.707 614.297L307.388 510.687C307.32 509.736 307.932 508.581 308.747 508.106L373.261 471.09C374.077 470.614 375.368 470.648 376.183 471.09C376.998 471.565 377.712 472.72 377.746 473.705L384.065 577.315C384.133 578.266 383.521 579.421 382.706 579.896L318.191 616.912C317.376 617.388 316.085 617.354 315.27 616.912Z" fill="#F1F0F0"/>
<path d="M317.581 616.742C317.105 616.742 317.037 616.165 317.037 615.995L310.718 512.385C310.684 511.569 311.194 510.551 311.873 510.177L376.388 473.161C376.388 473.161 376.694 473.025 376.829 473.025C377.305 473.025 377.373 473.603 377.373 473.773L383.692 577.383C383.726 578.198 383.216 579.217 382.537 579.624L318.023 616.64C318.023 616.64 317.717 616.776 317.581 616.776V616.742Z" fill="#FAFBFC"/>
<path d="M376.829 473.399C376.829 473.399 376.964 473.637 376.998 473.773L383.317 577.383C383.351 578.062 382.91 578.945 382.366 579.251L317.852 616.267C317.852 616.267 317.614 616.369 317.58 616.369C317.478 616.369 317.444 616.131 317.41 615.995L311.091 512.385C311.057 511.705 311.499 510.823 312.042 510.517L376.557 473.501C376.557 473.501 376.795 473.399 376.829 473.399ZM376.829 472.618C376.625 472.618 376.421 472.686 376.183 472.822L311.669 509.838C310.853 510.313 310.242 511.468 310.31 512.419L316.629 616.029C316.663 616.742 317.036 617.116 317.546 617.116C317.75 617.116 317.954 617.048 318.192 616.912L382.706 579.896C383.521 579.421 384.133 578.266 384.065 577.315L377.746 473.705C377.712 472.992 377.338 472.584 376.829 472.584V472.618Z" fill="#EBEBEB"/>
<path d="M318.021 617.014C317.206 617.388 316.051 617.354 315.304 616.878C314.488 616.403 313.775 615.248 313.741 614.263L307.422 510.653C307.422 510.177 307.524 509.634 307.762 509.158L310.683 510.89C310.445 511.366 310.31 511.875 310.344 512.351L316.662 615.961C316.73 616.844 317.308 617.252 318.055 616.98L318.021 617.014Z" fill="#E0E1E0"/>
<path d="M344.249 501.382L366.977 488.171C367.691 487.764 368.302 488.137 368.37 488.986V489.53C368.472 490.379 367.928 491.398 367.215 491.805L344.487 505.015C343.774 505.423 343.162 505.049 343.094 504.2V503.657C342.992 502.808 343.536 501.789 344.249 501.382Z" fill="#E0E1E0"/>
<path d="M344.792 510.415L367.52 497.205C368.234 496.797 368.845 497.171 368.913 498.02V498.563C368.981 499.412 368.471 500.431 367.758 500.838L345.03 514.049C344.317 514.456 343.705 514.083 343.637 513.234V512.69C343.535 511.841 344.079 510.822 344.792 510.415Z" fill="#E0E1E0"/>
<path d="M345.335 519.448L368.063 506.238C368.777 505.83 369.388 506.204 369.456 507.053V507.596C369.524 508.445 369.014 509.464 368.301 509.872L345.573 523.082C344.86 523.489 344.248 523.116 344.18 522.267V521.723C344.078 520.874 344.622 519.856 345.335 519.448Z" fill="#E0E1E0"/>
<path d="M322.405 551.166L369.186 524.27C369.899 523.863 370.511 524.236 370.579 525.085V525.629C370.681 526.478 370.137 527.497 369.424 527.904L322.643 554.8C321.93 555.208 321.318 554.834 321.25 553.985V553.442C321.182 552.593 321.692 551.574 322.405 551.166Z" fill="#E0E1E0"/>
<path d="M321.861 542.167L368.641 515.271C369.355 514.864 369.966 515.237 370.034 516.086V516.629C370.136 517.478 369.593 518.497 368.879 518.905L322.099 545.801C321.385 546.208 320.774 545.835 320.706 544.986V544.442C320.604 543.593 321.147 542.575 321.861 542.167Z" fill="#E0E1E0"/>
<path d="M322.949 560.268L369.729 533.372C370.443 532.964 371.054 533.338 371.122 534.187V534.73C371.19 535.579 370.68 536.598 369.967 537.005L323.186 563.901C322.473 564.309 321.862 563.935 321.794 563.086V562.543C321.692 561.694 322.235 560.675 322.949 560.268Z" fill="#E0E1E0"/>
<path d="M323.525 569.301L370.305 542.405C371.019 541.997 371.63 542.371 371.698 543.22V543.763C371.8 544.612 371.257 545.631 370.543 546.039L323.763 572.934C323.049 573.342 322.438 572.968 322.37 572.119V571.576C322.268 570.727 322.811 569.708 323.525 569.301Z" fill="#E0E1E0"/>
<path d="M324.07 578.3L370.85 551.404C371.564 550.997 372.175 551.37 372.243 552.219V552.762C372.311 553.611 371.802 554.63 371.088 555.038L324.308 581.934C323.594 582.341 322.983 581.968 322.915 581.119V580.575C322.813 579.726 323.356 578.708 324.07 578.3Z" fill="#E0E1E0"/>
<path d="M324.613 587.333L371.393 560.437C372.107 560.03 372.718 560.403 372.786 561.252V561.796C372.888 562.645 372.344 563.663 371.631 564.071L324.851 590.967C324.137 591.374 323.526 591.001 323.458 590.152V589.609C323.356 588.76 323.899 587.741 324.613 587.333Z" fill="#E0E1E0"/>
<path d="M325.156 596.367L371.936 569.471C372.65 569.063 373.261 569.437 373.329 570.286V570.829C373.431 571.678 372.887 572.697 372.174 573.104L325.393 600C324.68 600.408 324.069 600.034 324.001 599.185V598.642C323.899 597.793 324.442 596.774 325.156 596.367Z" fill="#E0E1E0"/>
<path d="M319.176 514.286L338.065 503.487L339.458 526.138L320.569 536.938L319.176 514.286Z" fill="#008080"/>
<path d="M322.266 516.63L322.674 523.422L323.252 523.082L323.116 521.01C323.048 519.856 323.897 518.43 325.018 517.784L327.804 516.188L328.415 526.274C328.483 527.599 327.77 529.127 326.819 529.704L325.052 530.723V531.436L334.531 526.036V525.323C334.531 525.323 333.715 525.765 332.73 526.342C331.745 526.885 330.895 526.274 330.828 524.916L330.216 514.83L333.002 513.234C334.123 512.588 335.074 513.03 335.142 514.151C335.21 515.305 335.278 516.222 335.278 516.222L335.855 515.882L335.448 509.091L322.232 516.664L322.266 516.63Z" fill="#FAFBFC"/>
<path d="M328.382 578.334V637.186L243.654 588.183V529.331L328.382 578.334Z" fill="#008080"/>
<path opacity="0.38" d="M328.382 578.334V637.186L243.654 588.183V529.331L328.382 578.334Z" fill="#00FFE7"/>
<path d="M403.633 593.786V534.9L328.383 578.334V637.186L403.633 593.786Z" fill="#008080"/>
<path opacity="0.23" d="M403.633 593.786V534.9L328.383 578.334V637.186L403.633 593.786Z" fill="#00FFE7"/>
<path opacity="0.7" d="M403.633 534.9L328.383 578.334V637.186L329.81 579.523L403.633 534.9Z" fill="white"/>
<path d="M328.383 578.334L335.449 549.808L410.019 506.781L403.633 534.9L328.383 578.334Z" fill="#008080"/>
<path opacity="0.3" d="M328.383 578.334L335.449 549.808L410.019 506.781L403.633 534.9L328.383 578.334Z" fill="#00FFE7"/>
<path d="M243.655 529.331L225.955 504.88L310.683 553.883L328.383 578.334L243.655 529.331Z" fill="#008080"/>
<path opacity="0.45" d="M243.655 529.331L225.955 504.88L310.683 553.883L328.383 578.334L243.655 529.331Z" fill="#00FFE7"/>
<path opacity="0.7" d="M225.955 504.88L310.683 553.883L328.383 578.334L309.766 554.766L225.955 504.88Z" fill="white"/>
<g opacity="0.7">
<path d="M350.534 619.697C350.262 619.697 350.059 619.493 350.059 619.221V608.864C350.059 608.592 350.262 608.388 350.534 608.388C350.806 608.388 351.01 608.592 351.01 608.864V619.221C351.01 619.493 350.806 619.697 350.534 619.697Z" fill="white"/>
<path d="M349.209 612.463C349.209 612.463 349.073 612.463 349.039 612.429C348.801 612.328 348.699 612.056 348.801 611.818L350.432 608.015L352.266 610.12C352.436 610.324 352.402 610.596 352.232 610.765C352.028 610.935 351.757 610.901 351.587 610.731L350.704 609.713L349.65 612.158C349.582 612.328 349.413 612.429 349.209 612.429V612.463Z" fill="white"/>
<path d="M354.815 617.252C354.544 617.252 354.34 617.048 354.34 616.776V606.419C354.34 606.147 354.544 605.943 354.815 605.943C355.087 605.943 355.291 606.147 355.291 606.419V616.776C355.291 617.048 355.087 617.252 354.815 617.252Z" fill="white"/>
<path d="M353.49 610.018C353.49 610.018 353.354 610.018 353.32 609.984C353.082 609.882 352.98 609.611 353.082 609.373L354.713 605.57L356.548 607.675C356.717 607.879 356.683 608.15 356.514 608.32C356.31 608.49 356.038 608.456 355.868 608.286L354.985 607.268L353.932 609.713C353.864 609.882 353.694 609.984 353.49 609.984V610.018Z" fill="white"/>
</g>
<g opacity="0.7">
<path d="M338.237 626.726C338.067 626.726 337.897 626.693 337.727 626.591C337.387 626.387 337.184 625.979 337.184 625.47V624.214C337.184 623.942 337.387 623.738 337.659 623.738C337.931 623.738 338.135 623.942 338.135 624.214V625.47C338.135 625.674 338.203 625.742 338.237 625.776C338.237 625.776 338.373 625.776 338.543 625.708C338.95 625.47 339.392 624.553 339.392 623.602V618.305C339.392 618.033 339.596 617.829 339.867 617.829C340.139 617.829 340.343 618.033 340.343 618.305V623.602C340.343 624.825 339.766 626.047 339.018 626.489C338.78 626.625 338.509 626.693 338.305 626.693L338.237 626.726Z" fill="white"/>
<path d="M333.344 622.448V621.632C333.344 617.863 335.994 613.278 339.255 611.377C340.92 610.426 342.516 610.29 343.739 610.969C344.962 611.682 345.642 613.109 345.642 615.044V615.316L333.344 622.414V622.448ZM342.041 611.479C341.327 611.479 340.546 611.716 339.731 612.192C336.945 613.788 334.669 617.523 334.329 620.817L344.725 614.807C344.657 613.346 344.181 612.294 343.298 611.784C342.924 611.58 342.516 611.479 342.041 611.479Z" fill="white"/>
</g>
<path d="M572.031 174.691C572.031 174.691 571.725 174.453 571.623 174.283L566.357 165.182V160.156L581.849 154.111V159.137L579.98 164.537L589.187 159.239L589.731 162.329L584.261 180.226C584.023 180.939 583.174 181.177 582.596 180.837C582.427 180.735 572.642 175.03 572.065 174.691H572.031Z" fill="#008080"/>
<path opacity="0.3" d="M572.031 174.691C572.031 174.691 571.725 174.453 571.623 174.283L566.357 165.182V160.156L581.849 154.111V159.137L579.98 164.537L589.187 159.239L589.731 162.329L584.261 180.226C584.023 180.939 583.174 181.177 582.596 180.837C582.427 180.735 572.642 175.03 572.065 174.691H572.031Z" fill="#00FFE7"/>
<path d="M589.188 159.205L589.731 162.295L584.262 180.192C583.956 181.109 582.665 181.245 582.189 180.396L576.244 170.106L576.924 166.269L589.188 159.205Z" fill="#008080"/>
<path opacity="0.2" d="M589.188 159.205L589.731 162.295L584.262 180.192C583.956 181.109 582.665 181.245 582.189 180.396L576.244 170.106L576.924 166.269L589.188 159.205Z" fill="#00FFE7"/>
<path d="M608.349 107.451C608.349 104.258 606.106 100.387 603.321 98.7909C600.569 97.1948 596.05 97.1948 593.299 98.7909L546.348 125.687C543.596 127.283 541.32 131.154 541.32 134.347V172.993C541.32 176.185 543.563 180.056 546.348 181.652C549.1 183.248 553.618 183.248 556.37 181.652L603.796 154.417C608.315 151.836 608.349 149.289 608.349 146.097V107.451Z" fill="#008080"/>
<path opacity="0.2" d="M608.349 107.451C608.349 104.258 606.106 100.387 603.321 98.7909C600.569 97.1948 596.05 97.1948 593.299 98.7909L546.348 125.687C543.596 127.283 541.32 131.154 541.32 134.347V172.993C541.32 176.185 543.563 180.056 546.348 181.652C549.1 183.248 553.618 183.248 556.37 181.652L603.796 154.417C608.315 151.836 608.349 149.289 608.349 146.097V107.451Z" fill="#00FFE7"/>
<path opacity="0.2" d="M541.354 172.993C541.354 176.185 543.596 180.056 546.381 181.652C548.895 183.079 552.768 183.214 555.554 182.06C553.21 182.943 551.409 181.618 551.409 178.732V140.086C551.409 138.49 551.987 136.724 552.87 135.162L542.848 129.389C541.931 130.951 541.387 132.717 541.387 134.313V172.959L541.354 172.993Z" fill="#00FFE7"/>
<path d="M608.179 106.024C607.602 103.885 605.665 103.206 603.355 104.564L556.405 131.46C555.012 132.241 553.755 133.6 552.872 135.196L542.85 129.422C543.767 127.826 544.99 126.468 546.383 125.687L593.299 98.7909C596.085 97.1948 600.569 97.1948 603.321 98.7909C605.665 100.149 607.67 103.172 608.145 106.024H608.179Z" fill="#008080"/>
<path d="M589.902 138.32C589.902 140.697 591.567 141.648 593.605 140.459C595.644 139.271 597.308 136.418 597.308 134.041C597.308 131.664 595.644 130.713 593.605 131.902C591.567 133.09 589.902 135.943 589.902 138.32Z" fill="#FAFBFC"/>
<path d="M576.178 146.233C576.178 148.61 577.842 149.561 579.881 148.372C581.919 147.183 583.584 144.331 583.584 141.954C583.584 139.576 581.919 138.626 579.881 139.814C577.842 141.003 576.178 143.855 576.178 146.233Z" fill="#FAFBFC"/>
<path d="M562.418 154.179C562.418 156.556 564.083 157.507 566.121 156.319C568.159 155.13 569.824 152.277 569.824 149.9C569.824 147.523 568.159 146.572 566.121 147.761C564.083 148.949 562.418 151.836 562.418 154.179Z" fill="#FAFBFC"/>
</g>
<defs>
<clipPath id="clip0_311_1456">
<rect width="742" height="667" fill="white" transform="translate(0.410156 0.410034)"/>
</clipPath>
</defs>
</svg>