<svg width="60" height="60" viewBox="0 0 60 60" fill="none" xmlns="http://www.w3.org/2000/svg">
<path d="M32 22.5H45.75L32 8.75V22.5ZM14.5 5H34.5L49.5 20V50C49.5 51.3261 48.9732 52.5979 48.0355 53.5355C47.0979 54.4732 45.8261 55 44.5 55H14.5C13.1739 55 11.9021 54.4732 10.9645 53.5355C10.0268 52.5979 9.5 51.3261 9.5 50V10C9.5 8.67392 10.0268 7.40215 10.9645 6.46447C11.9021 5.52678 13.1739 5 14.5 5ZM26.825 31.1C27.85 33.35 29.15 35.2 30.65 36.475L31.675 37.275C29.5 37.675 26.5 38.375 23.325 39.6L23.05 39.7L24.3 37.1C25.425 34.925 26.25 32.95 26.825 31.1ZM43.025 40.625C43.475 40.175 43.7 39.6 43.725 38.975C43.8 38.475 43.675 38 43.425 37.6C42.7 36.425 40.825 35.875 37.725 35.875L34.5 36.05L32.325 34.6C30.75 33.3 29.325 31.025 28.325 28.2L28.425 27.85C29.25 24.525 30.025 20.5 28.375 18.85C28.1732 18.654 27.9345 18.5001 27.6727 18.3971C27.4109 18.2941 27.1313 18.2441 26.85 18.25H26.25C25.325 18.25 24.5 19.225 24.275 20.175C23.35 23.5 23.9 25.325 24.825 28.35V28.375C24.2 30.575 23.4 33.125 22.125 35.7L19.725 40.2L17.5 41.425C14.5 43.3 13.075 45.4 12.8 46.725C12.7 47.2 12.75 47.625 12.925 48.075L13 48.2L14.2 48.975L15.3 49.25C17.325 49.25 19.625 46.875 22.725 41.575L23.175 41.4C25.75 40.575 28.95 40 33.25 39.525C35.825 40.8 38.85 41.375 40.75 41.375C41.85 41.375 42.6 41.1 43.025 40.625ZM42 38.85L42.225 39.125C42.2 39.375 42.125 39.4 42 39.45H41.9L41.425 39.5C40.275 39.5 38.5 39.025 36.675 38.225C36.9 37.975 37 37.975 37.25 37.975C40.75 37.975 41.75 38.6 42 38.85ZM19.075 42.5C17.45 45.475 15.975 47.125 14.85 47.5C14.975 46.55 16.1 44.9 17.875 43.275L19.075 42.5ZM26.625 25.225C26.05 22.975 26.025 21.15 26.45 20.1L26.625 19.8L27 19.925C27.425 20.525 27.475 21.325 27.225 22.675L27.15 23.075L26.75 25.125L26.625 25.225Z" fill="#EF5350"/>
</svg>
