<svg xmlns="http://www.w3.org/2000/svg" fill="none" viewBox="0.43 0 2151.44 2483.02">
<path d="M1221.59 305.582L384.72 651.937C357.445 663.225 343.176 690.134 352.917 712.011L634.336 1344.01C644.077 1365.88 673.78 1373.63 700.61 1361.35L1523.84 984.376C1548.34 973.159 1560.63 947.202 1551.36 926.374L1283.42 324.655C1274.15 303.825 1246.49 295.275 1221.59 305.582Z" fill="url(#paint0_linear_427_827)"/>
<path opacity="0.74" d="M1268.96 330.681L1537.1 932.855C1543.42 947.05 1535.09 964.699 1518.4 972.341L1140.23 1145.2L694.599 1348.89C676.335 1357.24 655.779 1352.11 649.148 1337.22L367.967 705.764C361.344 690.89 371.412 672.419 389.967 664.725L1226.75 317.74C1240.82 311.913 1256.22 314.886 1264.65 324.181C1266.38 326.089 1267.88 328.259 1268.96 330.681Z" fill="white"/>
<path d="M890.246 604.439L455.134 788.245L464.118 808.422L899.028 624.162L890.246 604.439Z" fill="white"/>
<path d="M1225.82 462.68L1234.45 482.053L1282.25 461.802L1273.64 442.479L1225.82 462.68Z" fill="white"/>
<path d="M576.55 818.264L485.751 857.005L476.486 836.198L567.328 797.555L576.55 818.264Z" fill="white"/>
<path d="M1071.15 607.233L634.806 793.407L625.613 772.762L1062.17 587.058L1071.15 607.233Z" fill="white"/>
<path d="M739.84 790.363L650.509 828.673L641.316 808.028L730.69 769.814L739.84 790.363Z" fill="white"/>
<path d="M1226.56 581.627L797.158 765.781L788.035 745.294L1217.64 561.603L1226.56 581.627Z" fill="white"/>
<path d="M755.47 825.464L666.213 863.939L657.02 843.294L746.32 804.915L755.47 825.464Z" fill="white"/>
<path d="M1241.79 615.831L812.741 800.777L803.618 780.29L1232.87 595.807L1241.79 615.831Z" fill="white"/>
<path d="M623.803 924.384L533.229 963.626L523.964 942.82L614.582 903.675L623.803 924.384Z" fill="white"/>
<path d="M1117.19 710.619L681.916 899.206L672.723 878.56L1108.2 690.444L1117.19 710.619Z" fill="white"/>
<path d="M786.73 895.667L697.62 934.472L688.427 913.826L777.58 875.118L786.73 895.667Z" fill="white"/>
<path d="M1272.25 684.238L843.907 870.768L834.785 850.281L1263.33 664.215L1272.25 684.238Z" fill="white"/>
<path d="M802.361 930.768L713.323 969.738L704.13 949.092L793.21 910.219L802.361 930.768Z" fill="white"/>
<path d="M1287.48 718.442L859.49 905.764L850.368 885.276L1278.57 698.418L1287.48 718.442Z" fill="white"/>
<path d="M817.991 965.869L729.027 1005L719.834 984.358L808.84 945.32L817.991 965.869Z" fill="white"/>
<path d="M1302.71 752.646L875.073 940.759L865.951 920.272L1293.8 732.622L1302.71 752.646Z" fill="white"/>
<path d="M979.557 936.452L892.034 975.146L882.912 954.66L970.478 916.061L979.557 936.452Z" fill="white"/>
<path d="M1385.35 757.051L1035.72 911.622L1026.67 891.292L1376.46 737.1L1385.35 757.051Z" fill="white"/>
<path d="M702.56 1101.25L612.357 1141.33L603.093 1120.52L693.339 1080.54L702.56 1101.25Z" fill="white"/>
<path d="M1193.91 882.93L760.434 1075.53L751.241 1054.89L1184.93 862.755L1193.91 882.93Z" fill="white"/>
<path d="M864.881 1071.17L776.137 1110.8L766.944 1090.16L855.731 1050.62L864.881 1071.17Z" fill="white"/>
<path d="M1348.4 855.258L921.823 1045.75L912.7 1025.26L1339.49 835.234L1348.4 855.258Z" fill="white"/>
<path d="M880.511 1106.28L791.841 1146.07L782.648 1125.42L871.361 1085.73L880.511 1106.28Z" fill="white"/>
<path d="M1363.63 889.462L937.406 1080.74L928.283 1060.26L1354.72 869.438L1363.63 889.462Z" fill="white"/>
<path d="M749.814 1207.37L659.835 1247.95L650.57 1227.15L740.593 1186.66L749.814 1207.37Z" fill="white"/>
<path d="M1239.95 986.316L807.544 1181.33L798.351 1160.69L1230.97 966.141L1239.95 986.316Z" fill="white"/>
<path d="M911.772 1176.48L823.248 1216.6L814.055 1195.95L902.621 1155.93L911.772 1176.48Z" fill="white"/>
<path d="M1394.1 957.869L968.572 1150.73L959.449 1130.25L1385.18 937.845L1394.1 957.869Z" fill="white"/>
<path d="M1268.96 330.681L1537.1 932.855C1543.42 947.05 1535.09 964.699 1518.4 972.341L1140.26 1145.18L855.437 505.536L1264.81 324.108C1266.55 326.016 1267.88 328.259 1268.96 330.681Z" fill="white"/>
<path d="M1221.59 305.582L384.72 651.937C357.446 663.225 343.175 690.134 352.917 712.011L365.57 740.426L1295.47 351.708L1283.42 324.654C1274.15 303.825 1246.49 295.275 1221.59 305.582Z" fill="url(#paint1_linear_427_827)"/>
<path d="M435.708 673.112C438.881 680.239 435.033 688.672 427.106 691.951C419.171 695.233 410.156 692.109 406.977 684.97C403.798 677.831 407.664 669.39 415.604 666.12C423.537 662.854 432.535 665.985 435.708 673.112Z" fill="white"/>
<path d="M485.916 652.39C489.079 659.494 485.263 667.893 477.386 671.152C469.501 674.414 460.533 671.291 457.364 664.174C454.195 657.057 458.028 648.651 465.92 645.401C473.803 642.156 482.752 645.286 485.916 652.39Z" fill="white"/>
<path d="M535.813 631.797C538.967 638.88 535.182 647.244 527.353 650.483C519.516 653.725 510.597 650.603 507.437 643.508C504.278 636.413 508.08 628.041 515.922 624.812C523.757 621.586 532.659 624.714 535.813 631.797Z" fill="white"/>
<g opacity="0.5">
<path d="M1004.74 698.4C857.667 628.776 706.845 737.318 547.804 660.533C519.24 646.742 496.547 629.913 478.63 613.071L384.721 651.937C357.446 663.225 343.176 690.134 352.918 712.011L634.337 1344.01C644.078 1365.88 673.781 1373.63 700.611 1361.35L1492.88 998.554C1464.53 985.239 1266.08 975.593 1170.78 873.433C1083.84 780.252 1093.94 740.624 1004.74 698.4Z" fill="white"/>
</g>
<g opacity="0.8">
<path d="M953.979 671.675L1304.92 522.856C1306.12 522.348 1307.06 521.382 1307.53 520.175C1308.01 518.967 1307.98 517.617 1307.45 516.426L1258.27 405.992C1257.19 403.566 1254.37 402.439 1251.92 403.454L899.718 549.442C898.533 549.933 897.602 550.886 897.133 552.085C896.664 553.284 896.698 554.629 897.226 555.815L947.693 669.152C948.77 671.568 951.574 672.694 953.979 671.675Z" fill="url(#paint2_linear_427_827)"/>
<path d="M1329.05 571.905L974.968 723.479C973.803 723.977 972.891 724.924 972.436 726.109C971.98 727.294 972.018 728.62 972.54 729.794L1130.19 1083.85C1130.73 1085.04 1131.72 1085.98 1132.94 1086.45C1134.16 1086.92 1135.51 1086.89 1136.68 1086.35L1486.98 926.273C1489.37 925.179 1490.42 922.392 1489.35 919.981L1335.48 574.435C1334.39 571.979 1331.51 570.849 1329.05 571.905Z" fill="url(#paint3_linear_427_827)"/>
</g>
<path d="M146.385 1355.8L0.429932 1673.91L219.987 1658.58L146.385 1355.8Z" fill="url(#paint4_linear_427_827)"/>
<path d="M1856.43 1340.96V2428.18L918.804 2482.98L916.791 2483.02L855.898 1864.67L916.635 1222.08L918.83 1222.21L1856.43 1340.96Z" fill="url(#paint5_linear_427_827)"/>
<path d="M915.29 1222.08V2483.02L147.791 2396.76V1355.8L304.101 1328.45L579.617 1280.5L915.29 1222.08Z" fill="url(#paint6_linear_427_827)"/>
<path opacity="0.8" d="M578.938 1280.51L568.57 1434.14L309.484 1451.08L303.297 1328.46L578.938 1280.51Z" fill="white"/>
<path d="M914.791 1222.1L1334.6 1612.78L2151.87 1658.58L1852.36 1340.95L914.791 1222.1Z" fill="url(#paint7_linear_427_827)"/>
<path opacity="0.1" d="M1856.43 2325.83V2428.18L915.289 2482.98V1222.21C915.289 1230.12 922.904 1567.93 1091.01 1628.47C1261.05 1689.72 1407.33 1786.95 1407.33 2057.98C1407.33 2275.14 1707.1 2227.59 1856.43 2325.83Z" fill="url(#paint8_linear_427_827)"/>
<path opacity="0.2" d="M915.29 1229.55V2483.02L147.792 2396.76V2391.72C158.211 2223.57 523.274 2190.64 510.857 2044.72C498.007 1894.47 529.949 1791.37 696.759 1697.1C849.899 1610.53 904.871 1282.8 915.29 1229.55Z" fill="white"/>
<path d="M1464.61 978.146C1486.44 884.113 1590.22 830.842 1692.75 858.187C1751.14 873.759 1796.17 912.166 1819.04 958.74C1819.05 958.729 1819.06 958.719 1819.06 958.709C1819.21 958.998 1819.33 959.294 1819.47 959.584C1819.87 960.397 1820.24 961.219 1820.62 962.037C1821.31 963.529 1821.99 965.027 1822.64 966.535C1823.02 967.426 1823.4 968.32 1823.76 969.217C1824.38 970.714 1824.96 972.22 1825.53 973.731C1825.86 974.596 1826.19 975.459 1826.5 976.329C1827.12 978.068 1827.7 979.818 1828.26 981.573C1828.47 982.209 1828.69 982.838 1828.89 983.476C1829.61 985.848 1830.29 988.234 1830.9 990.633C1831.07 991.27 1831.2 991.912 1831.36 992.55C1831.8 994.344 1832.21 996.143 1832.59 997.951C1832.77 998.837 1832.94 999.727 1833.1 1000.62C1833.41 1002.21 1833.69 1003.81 1833.94 1005.41C1834.09 1006.34 1834.23 1007.27 1834.36 1008.2C1834.59 1009.84 1834.78 1011.48 1834.96 1013.13C1835.05 1013.99 1835.15 1014.84 1835.23 1015.71C1835.42 1017.77 1835.55 1019.84 1835.66 1021.91C1835.68 1022.34 1835.72 1022.77 1835.74 1023.2C1835.84 1025.7 1835.88 1028.2 1835.86 1030.71C1835.85 1031.45 1835.81 1032.19 1835.8 1032.92C1835.76 1034.72 1835.7 1036.51 1835.59 1038.3C1835.54 1039.22 1835.47 1040.13 1835.4 1041.05C1835.27 1042.7 1835.12 1044.36 1834.94 1046.02C1834.84 1046.95 1834.74 1047.88 1834.62 1048.81C1834.4 1050.55 1834.13 1052.29 1833.85 1054.03C1833.72 1054.84 1833.6 1055.65 1833.46 1056.46C1833 1058.99 1832.5 1061.53 1831.91 1064.06C1817.9 1124.4 1768.99 1169.14 1707.59 1184.92C1701.94 1186.37 1696.19 1187.58 1690.34 1188.54C1687.41 1189.01 1684.46 1189.43 1681.49 1189.78C1660.59 1192.23 1638.65 1191.46 1616.42 1186.98C1613.36 1186.36 1610.33 1185.67 1607.32 1184.93C1606.31 1184.68 1605.32 1184.39 1604.31 1184.13C1602.33 1183.61 1600.36 1183.08 1598.4 1182.51C1597.21 1182.16 1596.04 1181.77 1594.86 1181.4C1593.12 1180.86 1591.39 1180.31 1589.68 1179.73C1588.42 1179.3 1587.19 1178.84 1585.95 1178.39C1584.34 1177.81 1582.73 1177.22 1581.14 1176.59C1579.87 1176.1 1578.62 1175.58 1577.36 1175.06C1575.83 1174.42 1574.31 1173.78 1572.8 1173.11C1571.54 1172.56 1570.29 1171.98 1569.04 1171.4C1567.58 1170.72 1566.12 1170.01 1564.67 1169.3C1563.43 1168.68 1562.2 1168.06 1560.98 1167.42C1559.56 1166.68 1558.15 1165.92 1556.75 1165.15C1555.55 1164.49 1554.35 1163.82 1553.16 1163.14C1552.72 1162.88 1552.27 1162.65 1551.84 1162.39C1551.85 1162.38 1551.86 1162.38 1551.88 1162.37C1485.59 1123.39 1447.78 1050.64 1464.61 978.146Z" fill="url(#paint9_linear_427_827)"/>
<path d="M1844.41 1066.35C1822.64 1160.14 1719.28 1213.62 1617.18 1186.75C1518.89 1160.88 1458.33 1069.63 1478.66 982.069C1498.99 894.51 1593.61 839.015 1693.33 858.773C1796.89 879.296 1866.19 972.558 1844.41 1066.35Z" fill="url(#paint10_linear_427_827)"/>
<path d="M1605.31 1058.71L1540.6 1004.33L1543.39 992.302L1626.64 966.846L1621.89 987.318L1564.82 1002.65L1610.04 1038.33L1605.31 1058.71Z" fill="white"/>
<path d="M1708.55 968.392L1637.53 1084.83L1616.62 1079.75L1687.19 963.735L1708.55 968.392Z" fill="white"/>
<path d="M1703.56 1060.34L1762.87 1048.31L1715.61 1008.42L1720.45 987.584L1788.71 1048.61L1785.79 1061.2L1698.74 1081.08L1703.56 1060.34Z" fill="white"/>
<g opacity="0.3">
<path d="M1671.36 1156.31C1660.46 1102.03 1693.54 1061.88 1670.74 1023.39C1647.83 984.733 1602.16 1005.3 1566.91 970.432C1553.43 957.098 1540.35 934.539 1536.38 893.349C1507.92 915.401 1487.06 945.903 1478.66 982.071C1458.33 1069.63 1518.89 1160.88 1617.18 1186.75C1640.22 1192.82 1663.36 1194.78 1685.65 1193.07C1677.87 1179.99 1673.62 1167.56 1671.36 1156.31Z" fill="url(#paint11_linear_427_827)"/>
</g>
<path d="M469.926 325.222C451.932 242.613 514.085 161.526 605.486 144.708C657.538 135.131 707.582 148.636 743.153 176.916C743.154 176.905 743.156 176.895 743.157 176.884C743.378 177.06 743.589 177.247 743.809 177.424C744.425 177.92 745.028 178.431 745.636 178.936C746.745 179.857 747.843 180.788 748.922 181.738C749.559 182.3 750.19 182.867 750.818 183.439C751.865 184.394 752.894 185.365 753.912 186.348C754.494 186.911 755.08 187.469 755.652 188.041C756.796 189.184 757.912 190.351 759.015 191.53C759.415 191.957 759.827 192.371 760.221 192.802C761.686 194.406 763.114 196.043 764.502 197.71C764.87 198.152 765.218 198.61 765.581 199.057C766.6 200.313 767.606 201.579 768.581 202.87C769.06 203.502 769.522 204.146 769.989 204.787C770.826 205.934 771.647 207.092 772.449 208.265C772.914 208.946 773.375 209.63 773.828 210.32C774.622 211.53 775.393 212.756 776.149 213.991C776.545 214.638 776.948 215.278 777.333 215.932C778.253 217.494 779.138 219.079 779.997 220.68C780.176 221.014 780.37 221.339 780.546 221.675C781.563 223.611 782.529 225.578 783.454 227.569C783.726 228.155 783.975 228.754 784.239 229.345C784.88 230.778 785.504 232.219 786.096 233.679C786.396 234.423 786.683 235.174 786.971 235.924C787.493 237.281 787.993 238.648 788.471 240.027C788.74 240.801 789.006 241.575 789.261 242.355C789.738 243.815 790.182 245.291 790.611 246.776C790.81 247.467 791.022 248.151 791.211 248.847C791.802 251.024 792.352 253.219 792.837 255.445C804.384 308.456 782.463 362.209 739.785 397.73C735.86 400.997 731.758 404.112 727.487 407.06C725.349 408.536 723.168 409.971 720.946 411.362C705.329 421.139 687.673 428.764 668.402 433.555C665.747 434.215 663.09 434.806 660.436 435.345C659.54 435.527 658.646 435.669 657.75 435.837C655.989 436.167 654.227 436.497 652.468 436.774C651.393 436.944 650.321 437.077 649.246 437.227C647.669 437.448 646.091 437.668 644.517 437.847C643.364 437.978 642.214 438.078 641.063 438.187C639.569 438.328 638.074 438.464 636.584 438.568C635.394 438.651 634.208 438.71 633.02 438.77C631.571 438.842 630.125 438.904 628.681 438.942C627.473 438.973 626.268 438.989 625.064 438.996C623.645 439.004 622.23 438.996 620.816 438.971C619.604 438.95 618.394 438.92 617.188 438.875C615.785 438.822 614.387 438.745 612.991 438.659C611.79 438.585 610.589 438.511 609.394 438.413C608.953 438.377 608.505 438.362 608.066 438.322C608.073 438.31 608.08 438.298 608.087 438.286C541.014 432.296 483.799 388.909 469.926 325.222Z" fill="url(#paint12_linear_427_827)"/>
<path d="M803.595 252.564C821.542 334.96 759.798 416.054 668.919 433.086C581.426 449.483 499.273 399.978 482.518 323.057C465.763 246.136 519.835 166.722 606.159 144.958C695.824 122.351 785.648 170.168 803.595 252.564Z" fill="url(#paint13_linear_427_827)"/>
<g opacity="0.2">
<path d="M700.382 388.674C671.389 349.801 682.517 305.62 650.032 283.713C617.401 261.708 588.973 295.113 547.996 280.743C532.325 275.247 513.514 262.298 494.921 231.189C480.664 259.319 475.598 291.283 482.519 323.056C499.274 399.977 581.427 449.483 668.92 433.085C689.433 429.24 708.48 422.115 725.482 412.407C714.417 404.974 706.387 396.726 700.382 388.674Z" fill="url(#paint14_linear_427_827)"/>
</g>
<path d="M597.932 245.336L621.933 355.523C623.474 362.596 630.425 365.707 634.891 361.333L714.548 283.31C719.516 278.444 717.288 268.211 710.821 266.202L607.151 233.985C601.34 232.178 596.391 238.262 597.932 245.336Z" fill="white"/>
<path d="M1824.81 854.328C1819.47 854.328 1814.46 852.682 1810.3 849.571L1410.55 550.084C1405.02 545.94 1401.47 539.823 1400.55 532.857C1399.57 525.505 1401.73 517.832 1406.46 511.806L1585.03 284.271L2016.14 625.906L1846.72 843.365C1841.33 850.231 1833.14 854.328 1824.81 854.328Z" fill="url(#paint15_linear_427_827)"/>
<path d="M1586.88 300.097L1415.29 518.736C1409.59 525.995 1410.49 536.011 1417.28 541.101L1817.04 840.586C1823.16 845.173 1832.49 843.312 1837.88 836.436L2000.43 629.322L1586.88 300.097Z" fill="white"/>
<path d="M2017.89 600.356L1612.32 275.416C1605.42 269.894 1595.21 271.295 1589.51 278.554L1571.93 300.958L2002.7 643.035L2019.36 621.813C2024.76 614.935 2024.1 605.332 2017.89 600.356Z" fill="url(#paint16_linear_427_827)"/>
<path d="M2017.89 600.356L1612.32 275.416C1605.42 269.894 1595.21 271.295 1589.51 278.554L1571.93 300.958L2002.7 643.035L2019.36 621.813C2024.76 614.935 2024.1 605.332 2017.89 600.356Z" fill="url(#paint17_linear_427_827)"/>
<path d="M1613.57 302.976C1611.05 306.192 1606.62 306.901 1603.68 304.558C1600.74 302.214 1600.4 297.702 1602.93 294.481C1605.45 291.261 1609.89 290.556 1612.82 292.905C1615.76 295.252 1616.09 299.76 1613.57 302.976Z" fill="white"/>
<path opacity="0.2" d="M1512.02 566.933L1481.13 543.618L1609.05 380.619L1639.44 404.568L1512.02 566.933Z" fill="url(#paint18_linear_427_827)"/>
<path d="M1512.02 566.932L1481.13 543.618L1541.87 466.229L1572.52 489.844L1512.02 566.932Z" fill="url(#paint19_linear_427_827)"/>
<g opacity="0.2">
<path d="M1554.59 599.072L1524.04 576.007L1651.27 413.888L1681.33 437.579L1554.59 599.072Z" fill="url(#paint20_linear_427_827)"/>
<path d="M1554.59 599.072L1524.04 576.007L1651.27 413.888L1681.33 437.579L1554.59 599.072Z" fill="url(#paint21_linear_427_827)"/>
</g>
<path d="M1554.59 599.072L1524.04 576.006L1554.24 537.521L1584.68 560.734L1554.59 599.072Z" fill="url(#paint22_linear_427_827)"/>
<g opacity="0.2">
<path d="M1596.71 630.867L1566.48 608.049L1693.03 446.8L1722.77 470.238L1596.71 630.867Z" fill="url(#paint23_linear_427_827)"/>
<path d="M1596.71 630.867L1566.48 608.049L1693.03 446.8L1722.77 470.238L1596.71 630.867Z" fill="url(#paint24_linear_427_827)"/>
</g>
<path d="M1596.71 630.867L1566.48 608.049L1582.26 587.953L1612.42 610.848L1596.71 630.867Z" fill="url(#paint25_linear_427_827)"/>
<path d="M1596.71 630.867L1566.48 608.049L1582.26 587.953L1612.42 610.848L1596.71 630.867Z" fill="url(#paint26_linear_427_827)"/>
<g opacity="0.2">
<path d="M1638.38 662.324L1608.48 639.748L1734.35 479.36L1763.77 502.549L1638.38 662.324Z" fill="url(#paint27_linear_427_827)"/>
<path d="M1638.38 662.324L1608.48 639.748L1734.35 479.36L1763.77 502.549L1638.38 662.324Z" fill="url(#paint28_linear_427_827)"/>
</g>
<path d="M1638.38 662.323L1608.48 639.748L1707.08 514.103L1736.61 537.159L1638.38 662.323Z" fill="url(#paint29_linear_427_827)"/>
<path d="M1638.38 662.323L1608.48 639.748L1707.08 514.103L1736.61 537.159L1638.38 662.323Z" fill="url(#paint30_linear_427_827)"/>
<g opacity="0.2">
<path d="M1679.61 693.448L1650.02 671.111L1775.23 511.575L1804.34 534.519L1679.61 693.448Z" fill="url(#paint31_linear_427_827)"/>
<path d="M1679.61 693.448L1650.02 671.111L1775.23 511.575L1804.34 534.519L1679.61 693.448Z" fill="url(#paint32_linear_427_827)"/>
</g>
<path d="M1679.61 693.448L1650.02 671.11L1736.96 560.334L1766.22 583.094L1679.61 693.448Z" fill="url(#paint33_linear_427_827)"/>
<path d="M1679.61 693.448L1650.02 671.11L1736.96 560.334L1766.22 583.094L1679.61 693.448Z" fill="url(#paint34_linear_427_827)"/>
<g opacity="0.2">
<path d="M1720.41 724.245L1691.13 702.143L1815.67 543.449L1844.48 566.151L1720.41 724.245Z" fill="url(#paint35_linear_427_827)"/>
<path d="M1720.41 724.245L1691.13 702.143L1815.67 543.449L1844.48 566.151L1720.41 724.245Z" fill="url(#paint36_linear_427_827)"/>
</g>
<path d="M1720.41 724.245L1691.13 702.142L1797.57 566.522L1826.44 589.139L1720.41 724.245Z" fill="url(#paint37_linear_427_827)"/>
<path d="M1720.41 724.245L1691.13 702.142L1797.57 566.522L1826.44 589.139L1720.41 724.245Z" fill="url(#paint38_linear_427_827)"/>
<g opacity="0.2">
<path d="M1760.78 754.719L1731.81 732.848L1855.7 574.988L1884.2 597.453L1760.78 754.719Z" fill="url(#paint39_linear_427_827)"/>
<path d="M1760.78 754.719L1731.81 732.848L1855.7 574.988L1884.2 597.453L1760.78 754.719Z" fill="url(#paint40_linear_427_827)"/>
</g>
<path d="M1760.78 754.719L1731.81 732.848L1807.91 635.884L1836.59 658.12L1760.78 754.719Z" fill="url(#paint41_linear_427_827)"/>
<g opacity="0.2">
<path d="M1800.73 784.876L1772.06 763.233L1895.3 606.198L1923.51 628.429L1800.73 784.876Z" fill="url(#paint42_linear_427_827)"/>
<path d="M1800.73 784.876L1772.06 763.233L1895.3 606.198L1923.51 628.429L1800.73 784.876Z" fill="url(#paint43_linear_427_827)"/>
</g>
<path d="M1800.73 784.876L1772.06 763.233L1814.85 708.713L1843.36 730.56L1800.73 784.876Z" fill="url(#paint44_linear_427_827)"/>
<path d="M1800.73 784.876L1772.06 763.233L1814.85 708.713L1843.36 730.56L1800.73 784.876Z" fill="url(#paint45_linear_427_827)"/>
<path d="M712.471 1105.47C677.19 1038.18 711.719 953.108 786.909 916.751C829.729 896.046 876.31 895.821 913.872 911.847C913.871 911.837 913.869 911.828 913.868 911.818C914.101 911.918 914.329 912.029 914.561 912.13C915.213 912.413 915.857 912.712 916.504 913.005C917.684 913.539 918.857 914.084 920.02 914.65C920.706 914.985 921.388 915.326 922.068 915.672C923.203 916.25 924.326 916.846 925.442 917.455C926.08 917.804 926.721 918.148 927.353 918.507C928.617 919.225 929.862 919.97 931.098 920.728C931.546 921.002 932.002 921.263 932.446 921.543C934.098 922.584 935.725 923.662 937.325 924.775C937.75 925.07 938.161 925.384 938.581 925.685C939.764 926.53 940.936 927.388 942.089 928.274C942.654 928.708 943.208 929.156 943.766 929.599C944.765 930.394 945.753 931.201 946.726 932.027C947.292 932.506 947.853 932.989 948.41 933.479C949.387 934.338 950.347 935.217 951.296 936.107C951.793 936.573 952.295 937.032 952.785 937.506C953.955 938.64 955.099 939.803 956.225 940.985C956.46 941.232 956.705 941.467 956.938 941.716C958.28 943.151 959.587 944.625 960.862 946.13C961.238 946.573 961.596 947.033 961.966 947.482C962.863 948.571 963.747 949.671 964.608 950.795C965.046 951.368 965.473 951.95 965.902 952.532C966.677 953.583 967.437 954.648 968.18 955.729C968.597 956.335 969.013 956.943 969.42 957.558C970.181 958.709 970.918 959.883 971.643 961.067C971.98 961.618 972.327 962.16 972.657 962.718C973.688 964.463 974.688 966.234 975.638 968.047C998.278 1011.23 992.096 1063.03 963.581 1103.98C960.959 1107.75 958.146 1111.42 955.149 1115C953.648 1116.78 952.101 1118.55 950.507 1120.28C939.305 1132.48 925.824 1143.29 910.268 1152.04C908.125 1153.24 905.964 1154.39 903.792 1155.49C903.059 1155.86 902.318 1156.19 901.582 1156.55C900.135 1157.26 898.687 1157.96 897.229 1158.62C896.338 1159.03 895.441 1159.4 894.545 1159.78C893.231 1160.35 891.917 1160.92 890.595 1161.45C889.627 1161.84 888.655 1162.2 887.683 1162.57C886.422 1163.04 885.159 1163.52 883.893 1163.96C882.881 1164.32 881.868 1164.65 880.853 1164.99C879.615 1165.4 878.376 1165.79 877.134 1166.17C876.095 1166.49 875.054 1166.79 874.013 1167.08C872.785 1167.42 871.557 1167.76 870.327 1168.07C869.272 1168.34 868.216 1168.6 867.16 1168.85C865.931 1169.14 864.702 1169.41 863.472 1169.66C862.414 1169.89 861.356 1170.11 860.297 1170.31C859.906 1170.38 859.515 1170.48 859.124 1170.55C859.127 1170.53 859.13 1170.52 859.134 1170.51C799.588 1181.31 739.671 1157.35 712.471 1105.47Z" fill="url(#paint46_linear_427_827)"/>
<path d="M984.275 962.99C1019.46 1030.11 985.292 1115.09 910.606 1151.51C838.702 1186.57 755.718 1163.25 722.866 1100.6C690.014 1037.94 717.94 956.24 787.552 916.807C859.857 875.848 949.085 895.872 984.275 962.99Z" fill="url(#paint47_linear_427_827)"/>
<g opacity="0.3">
<path d="M927.283 1105.53C892.896 1078.75 892.008 1037.82 858.638 1026.58C825.119 1015.29 808.448 1051.01 769.517 1048.33C754.628 1047.3 735.242 1040.56 711.717 1018.04C706.068 1045.81 709.297 1074.71 722.866 1100.6C755.717 1163.25 838.702 1186.57 910.606 1151.51C927.464 1143.29 942.27 1132.57 954.688 1120.11C943.328 1116.31 934.405 1111.07 927.283 1105.53Z" fill="url(#paint48_linear_427_827)"/>
</g>
<path d="M952.623 1025.16L880.29 992.616C879.562 992.288 878.718 992.349 878.043 992.776C877.369 993.203 876.954 993.941 876.939 994.74L876.112 1040.33L807.983 1009.68C807.255 1009.35 806.411 1009.41 805.736 1009.84C805.061 1010.27 804.647 1011.01 804.633 1011.8L802.675 1120.22C802.659 1121.1 802.702 1121.24 803.465 1121.67C804.227 1122.1 804.741 1121.41 805.479 1120.94L874.581 1077.13L910.044 1054.65L952.077 1028C952.815 1027.54 953.659 1027.37 953.596 1026.49C953.533 1025.62 953.419 1025.52 952.623 1025.16Z" fill="white"/>
<path d="M881.76 937.866C888.904 949.135 885.56 964.061 874.291 971.205C863.022 978.349 848.096 975.005 840.951 963.736C833.807 952.467 837.151 937.541 848.42 930.396C859.689 923.253 874.615 926.597 881.76 937.866Z" fill="white"/>
<path d="M1179.28 75.0163C1201.99 11.6203 1278.19 -16.9247 1347.03 10.2873C1386.23 25.7843 1414.34 56.0263 1426.43 90.1413C1426.44 90.1343 1426.44 90.1283 1426.45 90.1213C1426.52 90.3333 1426.59 90.5483 1426.66 90.7613C1426.87 91.3563 1427.06 91.9563 1427.26 92.5533C1427.62 93.6433 1427.97 94.7353 1428.29 95.8333C1428.49 96.4813 1428.67 97.1313 1428.86 97.7823C1429.16 98.8693 1429.45 99.9593 1429.72 101.053C1429.88 101.679 1430.03 102.303 1430.18 102.931C1430.47 104.186 1430.73 105.445 1430.98 106.707C1431.07 107.164 1431.17 107.618 1431.26 108.075C1431.57 109.777 1431.84 111.485 1432.08 113.197C1432.14 113.651 1432.18 114.107 1432.24 114.562C1432.4 115.841 1432.54 117.12 1432.66 118.404C1432.71 119.033 1432.75 119.663 1432.8 120.293C1432.88 121.421 1432.94 122.55 1432.99 123.681C1433.02 124.337 1433.04 124.994 1433.05 125.651C1433.08 126.804 1433.08 127.957 1433.07 129.111C1433.07 129.715 1433.07 130.318 1433.05 130.922C1433.02 132.366 1432.94 133.809 1432.85 135.253C1432.83 135.554 1432.82 135.856 1432.8 136.157C1432.67 137.894 1432.49 139.631 1432.28 141.366C1432.21 141.877 1432.13 142.387 1432.06 142.897C1431.89 144.135 1431.7 145.372 1431.48 146.609C1431.37 147.238 1431.25 147.866 1431.13 148.495C1430.91 149.632 1430.67 150.766 1430.41 151.9C1430.26 152.536 1430.12 153.171 1429.96 153.806C1429.67 154.994 1429.34 156.178 1429.01 157.362C1428.85 157.913 1428.7 158.464 1428.54 159.014C1428.02 160.733 1427.46 162.449 1426.85 164.157C1412.28 204.839 1374.79 231.899 1330.97 237.882C1326.94 238.432 1322.85 238.805 1318.72 238.994C1316.66 239.089 1314.58 239.138 1312.49 239.14C1297.81 239.154 1282.67 236.854 1267.63 231.957C1265.56 231.282 1263.51 230.561 1261.49 229.805C1260.81 229.55 1260.15 229.269 1259.47 229.004C1258.14 228.484 1256.81 227.963 1255.51 227.408C1254.71 227.069 1253.93 226.706 1253.14 226.354C1251.98 225.837 1250.82 225.32 1249.68 224.777C1248.85 224.379 1248.03 223.962 1247.21 223.549C1246.14 223.013 1245.07 222.475 1244.02 221.916C1243.18 221.47 1242.36 221.009 1241.53 220.548C1240.52 219.985 1239.52 219.417 1238.53 218.833C1237.7 218.344 1236.88 217.846 1236.06 217.343C1235.1 216.75 1234.14 216.147 1233.2 215.533C1232.39 215.007 1231.59 214.477 1230.79 213.937C1229.87 213.309 1228.95 212.668 1228.05 212.02C1227.27 211.463 1226.49 210.907 1225.72 210.336C1225.44 210.125 1225.14 209.926 1224.86 209.714C1224.87 209.709 1224.88 209.704 1224.89 209.698C1182.11 177.345 1161.77 123.891 1179.28 75.0163Z" fill="url(#paint49_linear_427_827)"/>
<path d="M1434.54 166.431C1411.89 229.664 1335.96 258.385 1267.38 231.538C1201.36 205.691 1166.76 137.58 1187.9 78.549C1209.05 19.518 1279.09 -11.307 1346.58 10.422C1416.69 32.991 1457.19 103.198 1434.54 166.431Z" fill="url(#paint50_linear_427_827)"/>
<g opacity="0.3">
<path d="M1307.38 214.816C1304.2 176.321 1330.36 151.174 1317.66 122.666C1304.91 94.0311 1271.6 104.599 1249.99 77.5991C1241.72 67.2731 1234.48 50.5881 1235.05 21.7271C1213.55 34.7121 1196.64 54.1661 1187.9 78.5491C1166.76 137.58 1201.36 205.691 1267.38 231.538C1282.86 237.598 1298.73 240.823 1314.32 241.44C1309.98 231.75 1308.04 222.789 1307.38 214.816Z" fill="url(#paint51_linear_427_827)"/>
</g>
<path d="M1403.74 123.798L1400.09 122.974C1400.06 119.838 1399.7 116.736 1399.04 113.709L1402.62 112.562C1404.42 111.987 1405.32 110.013 1404.64 108.151L1402.32 101.794C1401.64 99.9259 1399.63 98.8739 1397.83 99.4469L1394.06 100.646C1392.52 97.9099 1390.72 95.3168 1388.68 92.9118L1391.3 89.8368C1392.52 88.4038 1392.3 86.1529 1390.8 84.8099L1385.68 80.2209C1384.17 78.8729 1381.96 78.9428 1380.73 80.3808L1378.05 83.5348C1375.46 81.8548 1372.7 80.4099 1369.78 79.2449L1370.46 74.9828C1370.76 73.0568 1369.45 71.1269 1367.52 70.6719L1360.92 69.1178C1358.99 68.6608 1357.17 69.8569 1356.86 71.7889L1356.19 76.0649C1353.1 75.8259 1350.07 75.9168 1347.12 76.3108L1345.56 72.1358C1344.85 70.2308 1342.78 69.1489 1340.94 69.7209L1334.65 71.6739C1332.81 72.2479 1331.89 74.2609 1332.61 76.1679L1334.15 80.2539C1331.46 81.5869 1328.93 83.2068 1326.61 85.0868L1323.37 82.2369C1321.82 80.8739 1319.55 80.9459 1318.31 82.4009L1314.07 87.3598C1312.83 88.8148 1313.08 91.0979 1314.63 92.4579L1317.73 95.1659C1316.14 97.7319 1314.82 100.508 1313.81 103.468L1310.02 102.611C1308.05 102.166 1306.21 103.375 1305.91 105.313L1304.9 111.913C1304.6 113.848 1305.96 115.772 1307.92 116.211L1311.5 117.009C1311.46 120.261 1311.78 123.478 1312.43 126.615L1309.21 127.64C1307.36 128.228 1306.44 130.234 1307.17 132.119L1309.64 138.533C1310.36 140.412 1312.44 141.455 1314.28 140.864L1317.33 139.888C1318.94 142.813 1320.85 145.574 1323.02 148.12L1321.05 150.436C1319.82 151.883 1320.07 154.126 1321.61 155.446L1326.84 159.936C1328.37 161.25 1330.61 161.146 1331.84 159.702L1333.73 157.479C1336.51 159.269 1339.5 160.781 1342.65 161.97L1342.19 164.867C1341.89 166.768 1343.21 168.641 1345.14 169.053L1351.69 170.453C1353.61 170.863 1355.41 169.66 1355.72 167.765L1356.17 164.876C1359.46 165.072 1362.68 164.899 1365.79 164.385L1366.85 167.226C1367.55 169.068 1369.57 170.082 1371.37 169.492L1377.51 167.483C1379.31 166.894 1380.21 164.926 1379.52 163.086L1378.42 160.138C1381.16 158.686 1383.72 156.93 1386.05 154.902L1388.52 157.056C1390.01 158.357 1392.19 158.254 1393.4 156.828L1397.53 151.967C1398.74 150.541 1398.51 148.329 1397.03 147.025L1394.44 144.748C1395.96 142.142 1397.2 139.329 1398.13 136.336L1401.57 137.104C1403.46 137.525 1405.24 136.336 1405.55 134.446L1406.6 128.001C1406.91 126.106 1405.63 124.226 1403.74 123.798ZM1352.06 146.746C1337.5 143.563 1327.46 129.248 1329.72 114.758C1331.98 100.231 1345.73 91.1699 1360.33 94.5329C1374.84 97.8749 1384.66 112.225 1382.35 126.573C1380.05 140.885 1366.53 149.91 1352.06 146.746Z" fill="white"/>
<path d="M1300.67 138.591L1297.98 138.005C1297.93 135.746 1297.64 133.513 1297.12 131.335L1299.75 130.501C1301.06 130.083 1301.71 128.659 1301.19 127.32L1299.43 122.751C1298.91 121.409 1297.43 120.659 1296.11 121.076L1293.35 121.95C1292.2 119.987 1290.85 118.129 1289.34 116.407L1291.23 114.189C1292.12 113.155 1291.93 111.539 1290.82 110.579L1287.02 107.303C1285.91 106.341 1284.29 106.4 1283.4 107.436L1281.46 109.709C1279.55 108.513 1277.51 107.487 1275.36 106.662L1275.82 103.603C1276.03 102.221 1275.05 100.843 1273.64 100.524L1268.8 99.4368C1267.38 99.1178 1266.06 99.9818 1265.86 101.367L1265.4 104.433C1263.14 104.274 1260.92 104.351 1258.77 104.644L1257.6 101.661C1257.06 100.299 1255.55 99.5338 1254.21 99.9508L1249.64 101.374C1248.29 101.792 1247.64 103.236 1248.18 104.598L1249.33 107.517C1247.37 108.481 1245.54 109.649 1243.86 111.003L1241.48 108.975C1240.34 108.005 1238.69 108.065 1237.79 109.11L1234.74 112.672C1233.84 113.718 1234.04 115.35 1235.18 116.318L1237.46 118.246C1236.32 120.088 1235.38 122.08 1234.66 124.202L1231.89 123.599C1230.45 123.286 1229.12 124.157 1228.92 125.545L1228.22 130.273C1228.02 131.66 1229.02 133.035 1230.45 133.345L1233.06 133.909C1233.06 136.24 1233.31 138.546 1233.8 140.794L1231.46 141.535C1230.12 141.96 1229.46 143.4 1230.01 144.751L1231.85 149.349C1232.38 150.696 1233.91 151.442 1235.25 151.016L1237.47 150.311C1238.66 152.409 1240.07 154.39 1241.68 156.217L1240.25 157.883C1239.36 158.924 1239.56 160.536 1240.69 161.484L1244.55 164.709C1245.68 165.654 1247.31 165.577 1248.2 164.538L1249.57 162.938C1251.62 164.224 1253.81 165.31 1256.13 166.164L1255.81 168.251C1255.61 169.62 1256.59 170.969 1258 171.265L1262.82 172.272C1264.23 172.567 1265.54 171.699 1265.74 170.334L1266.06 168.252C1268.47 168.392 1270.83 168.266 1273.11 167.894L1273.91 169.942C1274.44 171.271 1275.93 172.001 1277.25 171.575L1281.74 170.123C1283.06 169.697 1283.7 168.277 1283.18 166.95L1282.35 164.824C1284.36 163.775 1286.23 162.506 1287.92 161.041L1289.75 162.593C1290.86 163.531 1292.47 163.455 1293.35 162.425L1296.34 158.914C1297.22 157.884 1297.04 156.288 1295.93 155.349L1294.01 153.71C1295.1 151.829 1295.99 149.798 1296.65 147.639L1299.19 148.187C1300.58 148.488 1301.88 147.627 1302.09 146.264L1302.81 141.616C1303.02 140.248 1302.06 138.895 1300.67 138.591ZM1262.91 155.199C1252.23 152.927 1244.79 142.659 1246.33 132.256C1247.89 121.834 1257.86 115.297 1268.56 117.662C1279.22 120.016 1286.54 130.303 1284.97 140.632C1283.4 150.943 1273.54 157.461 1262.91 155.199Z" fill="white"/>
<defs>
<linearGradient id="paint0_linear_427_827" x1="981.544" y1="162.101" x2="897.62" y2="2038.64" gradientUnits="userSpaceOnUse">
<stop offset="0.0036" stop-color="#008080"/>
</linearGradient>
<linearGradient id="paint1_linear_427_827" x1="619.652" y1="269.868" x2="1026.16" y2="789.413" gradientUnits="userSpaceOnUse">
<stop offset="0.0036" stop-color="#00FFE7"/>
<stop offset="1" stop-color="#008080"/>
</linearGradient>
<linearGradient id="paint2_linear_427_827" x1="1063.29" y1="462.704" x2="1267.27" y2="847.492" gradientUnits="userSpaceOnUse">
<stop offset="0.0036" stop-color="#0BE6E6" stop-opacity="0.7"/>
<stop offset="1" stop-color="#008080"/>
</linearGradient>
<linearGradient id="paint3_linear_427_827" x1="1132.54" y1="639.931" x2="1646.38" y2="1609.26" gradientUnits="userSpaceOnUse">
<stop offset="0.0036" stop-color="#008080"/>
</linearGradient>
<linearGradient id="paint4_linear_427_827" x1="372.426" y1="435.842" x2="49.8558" y2="1949.44" gradientUnits="userSpaceOnUse">
<stop stop-color="#00FFE7"/>
</linearGradient>
<linearGradient id="paint5_linear_427_827" x1="1682.79" y1="1324.78" x2="856.68" y2="2719.99" gradientUnits="userSpaceOnUse">
<stop stop-color="#00FFE7"/>
<stop offset="0.3138" stop-color="#4DB6AC"/>
<stop offset="0.9964" stop-color="#008080"/>
</linearGradient>
<linearGradient id="paint6_linear_427_827" x1="900.44" y1="1296.38" x2="108.04" y2="2634.66" gradientUnits="userSpaceOnUse">
<stop stop-color="#00FFE7"/>
<stop offset="0.3138" stop-color="#4DB6AC"/>
<stop offset="0.9964" stop-color="#008080"/>
</linearGradient>
<linearGradient id="paint7_linear_427_827" x1="1783.44" y1="266.742" x2="1430.42" y2="1923.21" gradientUnits="userSpaceOnUse">
<stop stop-color="#00FFE7"/>
<stop offset="0.3138" stop-color="#4DB6AC"/>
<stop offset="0.9964" stop-color="#008080"/>
</linearGradient>
<linearGradient id="paint8_linear_427_827" x1="2200.87" y1="-1999.1" x2="1036.29" y2="3465.49" gradientUnits="userSpaceOnUse">
<stop stop-color="#00FFE7"/>
<stop offset="0.3138" stop-color="#4DB6AC"/>
<stop offset="0.9964" stop-color="#008080"/>
</linearGradient>
<linearGradient id="paint9_linear_427_827" x1="1857.08" y1="894.996" x2="1398.67" y2="1242.64" gradientUnits="userSpaceOnUse">
<stop stop-color="#00FFE7"/>
</linearGradient>
<linearGradient id="paint10_linear_427_827" x1="1869.55" y1="898.594" x2="1412.85" y2="1244.74" gradientUnits="userSpaceOnUse">
<stop stop-color="#00FFE7"/>
<stop offset="1" stop-color="#008080"/>
</linearGradient>
<linearGradient id="paint11_linear_427_827" x1="1697.58" y1="932.175" x2="1368.44" y2="1091.07" gradientUnits="userSpaceOnUse">
<stop stop-color="#00FFE7"/>
<stop offset="1" stop-color="#008080"/>
</linearGradient>
<linearGradient id="paint12_linear_427_827" x1="751.949" y1="-186.366" x2="617.843" y2="343.564" gradientUnits="userSpaceOnUse">
<stop stop-color="#008080"/>
<stop offset="0.9964" stop-color="#00FFE7"/>
</linearGradient>
<linearGradient id="paint13_linear_427_827" x1="555.315" y1="185.35" x2="880.16" y2="564.103" gradientUnits="userSpaceOnUse">
<stop stop-color="#008080"/>
<stop offset="0.9964" stop-color="#00FFE7"/>
</linearGradient>
<linearGradient id="paint14_linear_427_827" x1="497.984" y1="227.71" x2="821.005" y2="629.836" gradientUnits="userSpaceOnUse">
<stop stop-color="#008080"/>
<stop offset="0.9964" stop-color="#00FFE7"/>
</linearGradient>
<linearGradient id="paint15_linear_427_827" x1="1400.32" y1="569.3" x2="2016.14" y2="569.3" gradientUnits="userSpaceOnUse">
<stop stop-color="#00FFE7"/>
<stop offset="1" stop-color="#A7DDE3"/>
</linearGradient>
<linearGradient id="paint16_linear_427_827" x1="1875.54" y1="431.396" x2="1461.09" y2="594.024" gradientUnits="userSpaceOnUse">
<stop stop-color="#FF9085"/>
<stop offset="1" stop-color="#FB6FBB"/>
</linearGradient>
<linearGradient id="paint17_linear_427_827" x1="2048.52" y1="320.005" x2="1537.51" y2="747.108" gradientUnits="userSpaceOnUse">
<stop stop-color="#00FFE7"/>
<stop offset="1" stop-color="#008080"/>
</linearGradient>
<linearGradient id="paint18_linear_427_827" x1="1481.13" y1="473.776" x2="1639.44" y2="473.776" gradientUnits="userSpaceOnUse">
<stop stop-color="#4DB6AC"/>
</linearGradient>
<linearGradient id="paint19_linear_427_827" x1="1587.59" y1="475.511" x2="1443.56" y2="573.053" gradientUnits="userSpaceOnUse">
<stop stop-color="#00FFE7"/>
<stop offset="1" stop-color="#4DB6AC"/>
</linearGradient>
<linearGradient id="paint20_linear_427_827" x1="1524.04" y1="506.48" x2="1681.33" y2="506.48" gradientUnits="userSpaceOnUse">
<stop stop-color="#FF9085"/>
<stop offset="1" stop-color="#FB6FBB"/>
</linearGradient>
<linearGradient id="paint21_linear_427_827" x1="1524.04" y1="506.48" x2="1681.33" y2="506.48" gradientUnits="userSpaceOnUse">
<stop stop-color="#4DB6AC"/>
</linearGradient>
<linearGradient id="paint22_linear_427_827" x1="1588.11" y1="545.479" x2="1508.11" y2="599.655" gradientUnits="userSpaceOnUse">
<stop stop-color="#00FFE7"/>
<stop offset="1" stop-color="#008080"/>
</linearGradient>
<linearGradient id="paint23_linear_427_827" x1="1566.49" y1="538.833" x2="1722.77" y2="538.833" gradientUnits="userSpaceOnUse">
<stop stop-color="#FF9085"/>
<stop offset="1" stop-color="#FB6FBB"/>
</linearGradient>
<linearGradient id="paint24_linear_427_827" x1="1566.49" y1="538.833" x2="1722.77" y2="538.833" gradientUnits="userSpaceOnUse">
<stop stop-color="#4DB6AC"/>
</linearGradient>
<linearGradient id="paint25_linear_427_827" x1="1610.4" y1="595.247" x2="1560.76" y2="628.862" gradientUnits="userSpaceOnUse">
<stop stop-color="#FF9085"/>
<stop offset="1" stop-color="#FB6FBB"/>
</linearGradient>
<linearGradient id="paint26_linear_427_827" x1="1615.02" y1="593.501" x2="1557.68" y2="635.698" gradientUnits="userSpaceOnUse">
<stop stop-color="#00FFE7"/>
<stop offset="1" stop-color="#008080"/>
</linearGradient>
<linearGradient id="paint27_linear_427_827" x1="1608.48" y1="570.842" x2="1763.78" y2="570.842" gradientUnits="userSpaceOnUse">
<stop stop-color="#FF9085"/>
<stop offset="1" stop-color="#FB6FBB"/>
</linearGradient>
<linearGradient id="paint28_linear_427_827" x1="1608.48" y1="570.842" x2="1763.78" y2="570.842" gradientUnits="userSpaceOnUse">
<stop stop-color="#4DB6AC"/>
</linearGradient>
<linearGradient id="paint29_linear_427_827" x1="1766.5" y1="524.713" x2="1543.79" y2="675.539" gradientUnits="userSpaceOnUse">
<stop stop-color="#FF9085"/>
<stop offset="1" stop-color="#FB6FBB"/>
</linearGradient>
<linearGradient id="paint30_linear_427_827" x1="1743.86" y1="533.265" x2="1561.64" y2="641.547" gradientUnits="userSpaceOnUse">
<stop stop-color="#00FFE7"/>
<stop offset="1" stop-color="#008080"/>
</linearGradient>
<linearGradient id="paint31_linear_427_827" x1="1650.02" y1="602.511" x2="1804.34" y2="602.511" gradientUnits="userSpaceOnUse">
<stop stop-color="#FF9085"/>
<stop offset="1" stop-color="#FB6FBB"/>
</linearGradient>
<linearGradient id="paint32_linear_427_827" x1="1650.03" y1="602.511" x2="1804.34" y2="602.511" gradientUnits="userSpaceOnUse">
<stop stop-color="#4DB6AC"/>
</linearGradient>
<linearGradient id="paint33_linear_427_827" x1="1791.71" y1="570.397" x2="1593.58" y2="704.578" gradientUnits="userSpaceOnUse">
<stop stop-color="#FF9085"/>
<stop offset="1" stop-color="#FB6FBB"/>
</linearGradient>
<linearGradient id="paint34_linear_427_827" x1="1772.79" y1="577.544" x2="1608.39" y2="676.188" gradientUnits="userSpaceOnUse">
<stop stop-color="#00FFE7"/>
<stop offset="1" stop-color="#008080"/>
</linearGradient>
<linearGradient id="paint35_linear_427_827" x1="1691.13" y1="633.847" x2="1844.48" y2="633.847" gradientUnits="userSpaceOnUse">
<stop stop-color="#FF9085"/>
<stop offset="1" stop-color="#FB6FBB"/>
</linearGradient>
<linearGradient id="paint36_linear_427_827" x1="1691.13" y1="633.847" x2="1844.48" y2="633.847" gradientUnits="userSpaceOnUse">
<stop stop-color="#4DB6AC"/>
</linearGradient>
<linearGradient id="paint37_linear_427_827" x1="1859.5" y1="577.311" x2="1620.76" y2="738.996" gradientUnits="userSpaceOnUse">
<stop stop-color="#FF9085"/>
<stop offset="1" stop-color="#FB6FBB"/>
</linearGradient>
<linearGradient id="paint38_linear_427_827" x1="1834.09" y1="586.913" x2="1640.91" y2="700.837" gradientUnits="userSpaceOnUse">
<stop stop-color="#00FFE7"/>
<stop offset="1" stop-color="#008080"/>
</linearGradient>
<linearGradient id="paint39_linear_427_827" x1="1731.81" y1="664.854" x2="1884.2" y2="664.854" gradientUnits="userSpaceOnUse">
<stop stop-color="#FF9085"/>
<stop offset="1" stop-color="#FB6FBB"/>
</linearGradient>
<linearGradient id="paint40_linear_427_827" x1="1731.81" y1="664.853" x2="1884.2" y2="664.853" gradientUnits="userSpaceOnUse">
<stop stop-color="#4DB6AC"/>
</linearGradient>
<linearGradient id="paint41_linear_427_827" x1="1858.08" y1="645.364" x2="1682.96" y2="763.965" gradientUnits="userSpaceOnUse">
<stop stop-color="#00FFE7"/>
<stop offset="1" stop-color="#008080" stop-opacity="0.8"/>
</linearGradient>
<linearGradient id="paint42_linear_427_827" x1="1772.06" y1="695.536" x2="1923.51" y2="695.536" gradientUnits="userSpaceOnUse">
<stop stop-color="#FF9085"/>
<stop offset="1" stop-color="#FB6FBB"/>
</linearGradient>
<linearGradient id="paint43_linear_427_827" x1="1772.06" y1="695.537" x2="1923.51" y2="695.537" gradientUnits="userSpaceOnUse">
<stop stop-color="#4DB6AC"/>
</linearGradient>
<linearGradient id="paint44_linear_427_827" x1="1852.13" y1="716.766" x2="1746.84" y2="788.071" gradientUnits="userSpaceOnUse">
<stop stop-color="#FF9085"/>
<stop offset="1" stop-color="#FB6FBB"/>
</linearGradient>
<linearGradient id="paint45_linear_427_827" x1="1847.39" y1="718.559" x2="1750.37" y2="780.99" gradientUnits="userSpaceOnUse">
<stop stop-color="#00FFE7"/>
<stop offset="1" stop-color="#008080"/>
</linearGradient>
<linearGradient id="paint46_linear_427_827" x1="831.699" y1="438.002" x2="841.785" y2="929.146" gradientUnits="userSpaceOnUse">
<stop stop-color="#00FFE7"/>
</linearGradient>
<linearGradient id="paint47_linear_427_827" x1="753.125" y1="963.921" x2="1124.86" y2="1214.7" gradientUnits="userSpaceOnUse">
<stop stop-color="#4DB6AC"/>
</linearGradient>
<linearGradient id="paint48_linear_427_827" x1="713.544" y1="1014.29" x2="1089.27" y2="1285.75" gradientUnits="userSpaceOnUse">
<stop stop-color="#FF9085"/>
<stop offset="1" stop-color="#FB6FBB"/>
</linearGradient>
<linearGradient id="paint49_linear_427_827" x1="1686.1" y1="-247.87" x2="1371.88" y2="53.5106" gradientUnits="userSpaceOnUse">
<stop stop-color="#00FFE7"/>
</linearGradient>
<linearGradient id="paint50_linear_427_827" x1="1295.19" y1="16.2495" x2="1354.79" y2="409.187" gradientUnits="userSpaceOnUse">
<stop stop-color="#008080"/>
<stop offset="1" stop-color="#00FFE7"/>
</linearGradient>
<linearGradient id="paint51_linear_427_827" x1="1238.59" y1="20.6695" x2="1287.09" y2="428.627" gradientUnits="userSpaceOnUse">
<stop stop-color="#00FFE7"/>
<stop offset="1" stop-color="#008080" stop-opacity="0.8"/>
</linearGradient>
</defs>
</svg>