<svg width="101" height="107" viewBox="0 0 101 107" fill="none" xmlns="http://www.w3.org/2000/svg">
<path d="M50.6501 0.170044C50.2201 0.170044 49.7901 0.330044 49.4701 0.660044L41.1401 8.99005C40.1001 10.04 40.8401 11.83 42.3201 11.83H45.6501V16.95C43.7801 15.88 41.5201 15.15 38.9801 15.17H35.6501V11.84C35.6501 11.17 35.2401 10.56 34.6201 10.3C34.0001 10.04 33.2801 10.18 32.8001 10.65L24.4701 18.99C23.8201 19.64 23.8201 20.69 24.4701 21.34L32.8001 29.68C33.8501 30.75 35.6701 29.99 35.6501 28.5V25.17H38.9801C40.8001 25.17 42.3201 26.66 42.3201 28.5V35.06C42.3201 36.75 42.7601 38.2201 43.5301 39.48C42.3701 40.2001 41.0801 41.1 39.8801 42.33C39.39 41.53 38.66 40.87 37.7401 40.45C35.2601 39.33 32.3001 40.45 31.1801 42.92L27.3601 50.39L25.1501 51.82H17.3601C13.7801 51.82 11.0001 52.7001 8.89005 54.37C6.78006 56.04 5.43006 58.38 4.27006 61.15L1.00006 71.61C0.0400552 74.16 1.05005 76.94 3.53005 78.06C4.77005 78.62 6.12006 78.61 7.31006 78.17V98.5C7.31006 101.24 9.56005 103.49 12.3001 103.49C15.0401 103.49 17.0101 101.35 17.2901 98.66L18.8001 83.49H19.1201L20.6401 98.68C20.9301 101.3 22.8801 103.49 25.6301 103.49C28.3801 103.49 30.6301 101.29 30.6301 98.5V65.74C31.4101 65.36 32.1401 64.88 32.7901 64.31C33.9301 63.32 34.8501 62.08 35.6301 60.63V62.27C35.6301 63.57 36.0401 64.92 37.1101 65.84C37.6301 66.29 38.2701 66.58 38.9701 66.72C38.9701 68.85 38.1501 74.64 37.1201 80.98C36.0901 87.33 34.8601 94.38 34.0401 99.67C33.5701 102.73 35.1001 105.8 38.2001 106.63C41.2901 107.46 44.4701 105.65 45.34 102.52L50.1501 85.16H51.1101L55.9101 102.52C56.7601 105.59 59.9601 107.46 63.0601 106.63C66.16 105.8 67.7001 102.7 67.2201 99.67C66.4101 94.38 65.1701 87.33 64.1401 80.98C63.1101 74.6301 62.2901 68.85 62.2901 66.72C62.9901 66.58 63.6301 66.29 64.1501 65.84C65.2201 64.92 65.6201 63.57 65.6201 62.27V60.62C66.4001 62.07 67.3201 63.32 68.4601 64.31C69.1201 64.88 69.84 65.36 70.6301 65.74V98.5C70.62 101.24 72.8801 103.49 75.6201 103.49C78.3601 103.49 80.3201 101.29 80.6101 98.68L82.1301 83.49H82.4501L83.9601 98.66C84.2001 101.29 86.2101 103.49 88.9501 103.49C91.69 103.49 93.9501 101.24 93.9501 98.5V78.18C95.1401 78.62 96.4901 78.62 97.73 78.07C100.21 76.95 101.25 74 100.26 71.62L97.0001 61.16C95.84 58.3801 94.4901 56.05 92.3801 54.38C90.2701 52.71 87.4801 51.83 83.9001 51.83H76.1101L73.9001 50.4L70.0801 42.93C68.9601 40.45 65.9901 39.34 63.5101 40.46C62.5901 40.87 61.8701 41.53 61.3801 42.33C60.18 41.11 58.8901 40.2 57.7301 39.49C58.5001 38.23 58.9401 36.75 58.9401 35.17V28.51C58.9401 26.63 60.48 25.18 62.2701 25.18H65.6001V28.51C65.6001 29.99 67.3901 30.74 68.4501 29.69L76.7901 21.35C77.4401 20.7 77.4401 19.65 76.7901 19L68.4501 10.66C67.97 10.19 67.2601 10.05 66.6401 10.31C66.0201 10.57 65.6101 11.17 65.6001 11.85V15.18H62.2701C59.8 15.18 57.5301 15.84 55.6001 16.93V11.84H58.9301C60.4101 11.84 61.1601 10.05 60.1101 9.00004L51.7801 0.670044C51.4501 0.340044 51.0301 0.180044 50.6001 0.180044L50.6501 0.170044ZM50.6501 4.19004L54.9401 8.50004H53.9801C53.0501 8.50004 52.3001 9.25004 52.3001 10.17V19.66C51.6301 20.42 51.0601 21.28 50.6401 22.03C50.2301 21.26 49.6701 20.44 48.9701 19.64V10.16C48.9701 9.24004 48.23 8.49005 47.3101 8.49005H46.34L50.6501 4.18004V4.19004ZM32.3201 15.86V16.84C32.3201 17.76 33.0601 18.5 33.9801 18.5H38.9901C44.0601 18.5 48.1701 22.17 48.8701 27.03C47.6901 27.29 46.6001 27.81 45.6601 28.51C45.6601 24.84 42.7201 21.84 38.9901 21.84H33.9801C33.0601 21.84 32.3201 22.59 32.3201 23.51V24.48L28.0001 20.18L32.3201 15.86ZM68.9801 15.86L73.3001 20.18L68.9801 24.48V23.51C68.9801 22.59 68.2401 21.84 67.3201 21.84H62.3101C58.59 21.84 55.6401 24.84 55.6401 28.51C54.7001 27.8 53.6001 27.29 52.4101 27.03C53.1201 22.18 57.3101 18.51 62.3001 18.51H67.3101C68.23 18.51 68.9701 17.77 68.9701 16.85V15.87L68.9801 15.86ZM50.6301 30.17C53.48 30.22 55.6501 32.42 55.6501 35.17C55.6501 37.92 53.4301 40.16 50.6501 40.16C47.8701 40.16 45.6601 37.95 45.6601 35.1C45.7301 32.36 47.8501 30.23 50.6301 30.16V30.17ZM82.2101 31.84C77.55 31.96 73.9801 35.66 73.9801 40.17C73.9801 44.68 77.7401 48.51 82.3201 48.51C86.9001 48.51 90.6501 44.75 90.6501 40.17C90.6501 35.59 87.0401 31.84 82.2201 31.84H82.2101ZM10.6601 40.16C10.6601 44.7401 14.4001 48.5 18.9901 48.5C23.5801 48.5 27.3201 44.7401 27.3201 40.16C27.3201 35.58 23.5801 31.78 18.9401 31.84C14.2401 31.88 10.6701 35.65 10.6701 40.16H10.6601ZM50.6501 43.5C52.4301 43.5 54.0801 42.94 55.4401 41.98C56.9201 42.8601 58.5 43.93 59.7701 45.5C60.4901 46.39 61.1201 47.43 61.5801 48.74C62.1701 50.46 62.3101 52.2 62.3201 53.6V62.29C62.3201 62.92 62.1601 63.2 62.0101 63.33C61.8701 63.45 61.5301 63.61 60.6401 63.45L56.0201 61.95C58.19 61.16 59.4601 58.84 58.9801 56.57V53.55C58.9801 52.6301 58.2401 51.88 57.3201 51.88C56.5501 51.88 55.9001 52.4 55.7101 53.1C54.9401 52.88 54.1201 52.86 53.3001 53.07L45.6601 54.78V53.55C45.6601 52.62 44.91 51.87 43.9901 51.88C43.0701 51.88 42.3301 52.6301 42.3301 53.55V57.02C42.4301 58.09 43.4601 58.68 44.3601 58.48L54.1101 56.31C54.8301 56.12 55.5401 56.53 55.7201 57.21C55.9001 57.89 55.5101 58.66 54.7601 58.86C50.0601 60.39 45.3701 61.91 40.6701 63.45C39.7801 63.61 39.4501 63.45 39.3101 63.33C39.1701 63.21 39.0001 62.93 39.0001 62.29C39.0001 59.39 39.0001 56.5 39.0001 53.6C39.0001 49.72 40.1001 47.29 41.5501 45.5C42.8201 43.93 44.4001 42.8601 45.8801 41.98C47.2401 42.94 48.8901 43.5 50.6701 43.5H50.6501ZM50.6501 63.67L58.9801 66.38V66.72C58.9801 69.59 59.8301 75.15 60.8601 81.52C61.9001 87.9 63.1301 94.94 63.9401 100.17C64.1701 101.67 63.5801 103.04 62.2201 103.41C60.8501 103.78 59.5401 103 59.1601 101.63L54.0201 83.06C53.82 82.34 53.1601 81.84 52.4101 81.84H48.9201C48.1701 81.84 47.5101 82.34 47.3101 83.06L42.1701 101.63C41.7901 103.01 40.4401 103.77 39.1001 103.41C37.7401 103.05 37.1401 101.67 37.3701 100.17C38.1801 94.94 39.4101 87.9 40.4401 81.52C41.4801 75.14 42.34 69.59 42.34 66.72V66.38L50.6701 63.67H50.6501Z" fill="black"/>
</svg>
